<?xml version="1.0" encoding="UTF-8"?>
<svg version="1.1" xmlns="http://www.w3.org/2000/svg" width="233" height="100">
<path d="M0 0 C3.3 0 6.6 0 10 0 C10.25 6.625 10.25 6.625 8 10 C7.34 10 6.68 10 6 10 C5.86464844 10.87398437 5.72929687 11.74796875 5.58984375 12.6484375 C5.05251261 15.7016171 4.35845604 18.63088557 3.5625 21.625 C2.00919224 27.70117448 0.93415373 33.80161526 0 40 C0.495 39.01 0.495 39.01 1 38 C4.0717341 36.60902607 7.15878967 35.3182958 10.3125 34.125 C12.69856486 32.53429009 13.1563189 30.67165681 14 28 C12.7934375 26.7934375 12.7934375 26.7934375 11.5625 25.5625 C8.25567247 22.25567247 7.74448954 21.71959671 7.4375 17.0625 C7.4375 9.44540497 11.85391616 5.14608384 17 0 C21.70205021 -0.52245002 25.69051773 -0.93534448 29.625 1.875 C31 4 31 4 31 6 C31.99 6.33 32.98 6.66 34 7 C34 7.66 34 8.32 34 9 C34.66 9 35.32 9 36 9 C36 10.32 36 11.64 36 13 C37.051875 13.0825 38.10375 13.165 39.1875 13.25 C43.28732127 14.05652222 45.07721678 15.07721678 48 18 C48 18.66 48 19.32 48 20 C48.99 20.33 49.98 20.66 51 21 C51 24.63 51 28.26 51 32 C50.01 32.33 49.02 32.66 48 33 C47.67 33.99 47.34 34.98 47 36 C46.34 36 45.68 36 45 36 C45 36.66 45 37.32 45 38 C44.34 38 43.68 38 43 38 C42.67 38.99 42.34 39.98 42 41 C41.01 41 40.02 41 39 41 C38.01 43.64 37.02 46.28 36 49 C35.34 49 34.68 49 34 49 C33.5978125 49.8353125 33.5978125 49.8353125 33.1875 50.6875 C32.795625 51.450625 32.40375 52.21375 32 53 C31.608125 53.9075 31.21625 54.815 30.8125 55.75 C29 58 29 58 25.625 58.625 C21.19015022 57.86037073 19.87027413 56.36232113 17 53 C16.34 52.67 15.68 52.34 15 52 C15 51.34 15 50.68 15 50 C14.01 49.67 13.02 49.34 12 49 C10 46 10 46 10 43 C9.2575 43.495 8.515 43.99 7.75 44.5 C5 46 5 46 1 46 C1 46.66 1 47.32 1 48 C-0.0725 48.28875 -1.145 48.5775 -2.25 48.875 C-5.77479328 49.8019227 -5.77479328 49.8019227 -7.953125 51.02734375 C-10.2044933 52.09717334 -12.02786108 52.42928001 -14.5 52.6875 C-15.2528125 52.77386719 -16.005625 52.86023437 -16.78125 52.94921875 C-19.05177422 53.00118497 -20.83505236 52.65440463 -23 52 C-23 51.34 -23 50.68 -23 50 C-23.598125 49.7525 -24.19625 49.505 -24.8125 49.25 C-27.38438757 47.78034996 -28.53194377 46.56909841 -30 44 C-30.1875 41.25 -30.1875 41.25 -30 39 C-30.66 39 -31.32 39 -32 39 C-32.309375 39.8353125 -32.309375 39.8353125 -32.625 40.6875 C-33.96846753 42.94696811 -35.05157702 43.9998656 -37.0625 45.625 C-40.00824713 47.67119397 -40.00824713 47.67119397 -41 50 C-44.48524121 52.74594762 -47.5346624 53.59574875 -51.99609375 53.41796875 C-55.75925334 52.63306022 -57.45891249 50.85872345 -60 48 C-60.375 45.1875 -60.375 45.1875 -60 43 C-60.66 43 -61.32 43 -62 43 C-62 43.66 -62 44.32 -62 45 C-62.66 45 -63.32 45 -64 45 C-64.20625 45.5775 -64.4125 46.155 -64.625 46.75 C-66.62010184 50.01471209 -68.59028722 51.26414622 -72 53 C-76.38743169 53.76038677 -79.75329974 53.84152268 -83.5 51.3125 C-85.14197038 48.781129 -85.76316727 46.99988123 -86 44 C-85.505 43.01 -85.505 43.01 -85 42 C-85.55429688 42.433125 -86.10859375 42.86625 -86.6796875 43.3125 C-87.76636719 44.1478125 -87.76636719 44.1478125 -88.875 45 C-89.59429687 45.556875 -90.31359375 46.11375 -91.0546875 46.6875 C-93 48 -93 48 -95 48 C-95 48.66 -95 49.32 -95 50 C-96.32 50 -97.64 50 -99 50 C-99.33 50.99 -99.66 51.98 -100 53 C-103.87862084 54.39044898 -106.86462003 55 -111 55 C-111 54.34 -111 53.68 -111 53 C-111.721875 52.938125 -112.44375 52.87625 -113.1875 52.8125 C-117.01258882 51.70747434 -118.5569076 50.12172918 -121 47 C-122.42007605 42.29599809 -122.13618372 38.78152952 -120.2109375 34.2421875 C-116.34145401 27.07740194 -111.17729733 20.31534887 -105 15 C-104.01 15 -103.02 15 -102 15 C-102 14.34 -102 13.68 -102 13 C-101.01 13 -100.02 13 -99 13 C-99 12.34 -99 11.68 -99 11 C-90.95478723 7.13829787 -90.95478723 7.13829787 -86 8 C-83.1875 10.4375 -83.1875 10.4375 -81 13 C-80.505 13.495 -80.505 13.495 -80 14 C-79.59737716 17.6442529 -79.64004258 19.45252987 -81.6796875 22.5546875 C-82.40414062 23.32039063 -83.12859375 24.08609375 -83.875 24.875 C-84.59429687 25.65617187 -85.31359375 26.43734375 -86.0546875 27.2421875 C-88 29 -88 29 -90 29 C-90 29.66 -90 30.32 -90 31 C-91.38782485 31.8466034 -92.78569397 32.67675339 -94.1875 33.5 C-94.96480469 33.9640625 -95.74210937 34.428125 -96.54296875 34.90625 C-99.24103386 36.10729647 -101.0806982 36.20741043 -104 36 C-104 36.66 -104 37.32 -104 38 C-107.01031744 38.93423645 -107.86650268 39.04449911 -111 38 C-110.67 40.64 -110.34 43.28 -110 46 C-108.68 46.33 -107.36 46.66 -106 47 C-106 46.34 -106 45.68 -106 45 C-103.03 44.34 -100.06 43.68 -97 43 C-97 42.34 -97 41.68 -97 41 C-95.5390625 39.7109375 -95.5390625 39.7109375 -93.625 38.375 C-92.99851562 37.92898437 -92.37203125 37.48296875 -91.7265625 37.0234375 C-90 36 -90 36 -88 36 C-88 35.34 -88 34.68 -88 34 C-87.34 34 -86.68 34 -86 34 C-85.75636719 33.43796875 -85.51273438 32.8759375 -85.26171875 32.296875 C-83.75819064 29.55980215 -81.93300252 27.54204059 -79.8125 25.25 C-76.3298279 21.45937458 -72.92892059 17.62210609 -69.60546875 13.69140625 C-66.84056352 10.77850123 -64.99807539 9.10184443 -60.9375 8.6875 C-58 9 -58 9 -55 11 C-55.27004154 14.96060927 -55.48571786 16.53714607 -58.5 19.25 C-59.325 19.8275 -60.15 20.405 -61 21 C-61.33 21.66 -61.66 22.32 -62 23 C-62.66 23 -63.32 23 -64 23 C-64.20625 23.66 -64.4125 24.32 -64.625 25 C-66.19846753 28.43302007 -68.24298124 31.09661618 -70.53515625 34.078125 C-73.50421121 37.97352511 -75 40.01914445 -75 45 C-74.01 44.34 -73.02 43.68 -72 43 C-71.01 43 -70.02 43 -69 43 C-69 42.34 -69 41.68 -69 41 C-68.34 41 -67.68 41 -67 41 C-67 40.34 -67 39.68 -67 39 C-66.34 39 -65.68 39 -65 39 C-65 38.34 -65 37.68 -65 37 C-63.625 35.375 -63.625 35.375 -62 34 C-61.34 34 -60.68 34 -60 34 C-60 33.34 -60 32.68 -60 32 C-59.34 32 -58.68 32 -58 32 C-57.731875 31.443125 -57.46375 30.88625 -57.1875 30.3125 C-55.89100504 27.78774666 -54.57523677 25.36285516 -53 23 C-52.34 23 -51.68 23 -51 23 C-50.505 21.515 -50.505 21.515 -50 20 C-49.34 20 -48.68 20 -48 20 C-47.773125 19.46375 -47.54625 18.9275 -47.3125 18.375 C-45.54429911 15.17539839 -43.46329797 12.70962777 -41 10 C-40.34 10 -39.68 10 -39 10 C-39 9.34 -39 8.68 -39 8 C-36.75 7.75 -36.75 7.75 -34 8 C-31.20964571 10.2477854 -30.14089995 11.57730016 -29 15 C-29.92578125 16.82421875 -29.92578125 16.82421875 -31.3125 18.6875 C-31.76238281 19.31011719 -32.21226562 19.93273437 -32.67578125 20.57421875 C-33.11277344 21.04472656 -33.54976563 21.51523437 -34 22 C-34.66 22 -35.32 22 -36 22 C-36.2371875 22.53625 -36.474375 23.0725 -36.71875 23.625 C-38.96482659 27.78845905 -42.02630306 31.38480917 -44.90625 35.125 C-48.22511045 39.63722338 -48.22511045 39.63722338 -49 45 C-48.05125 44.34 -47.1025 43.68 -46.125 43 C-43 41 -43 41 -41 41 C-41 40.34 -41 39.68 -41 39 C-40.34 39 -39.68 39 -39 39 C-39 38.34 -39 37.68 -39 37 C-37.4609375 35.51953125 -37.4609375 35.51953125 -35.375 33.8125 C-31.91212733 30.8899337 -29.02489092 27.84169098 -26.2265625 24.28515625 C-25.82179688 23.86105469 -25.41703125 23.43695312 -25 23 C-24.34 23 -23.68 23 -23 23 C-23 22.34 -23 21.68 -23 21 C-21.56640625 19.5546875 -21.56640625 19.5546875 -19.5625 17.875 C-15.58378677 14.50621429 -11.7229439 11.0296018 -7.8828125 7.50390625 C-6 6 -6 6 -4 6 C-4 5.34 -4 4.68 -4 4 C-3.34 4 -2.68 4 -2 4 C-1.34 2.68 -0.68 1.36 0 0 Z M20 5 C15.80720136 9.9265384 14.4453097 12.79258598 14.82421875 19.27734375 C14.88222656 19.84582031 14.94023437 20.41429687 15 21 C15.99 21.33 16.98 21.66 18 22 C18.33 22.99 18.66 23.98 19 25 C21.36425667 23.06560818 22.02125626 21.93056288 22.9375 18.9375 C24 16 24 16 26.125 14.625 C26.74375 14.41875 27.3625 14.2125 28 14 C28 12.68 28 11.36 28 10 C26.68 9.34 25.36 8.68 24 8 C24 7.34 24 6.68 24 6 C22.68 5.67 21.36 5.34 20 5 Z M-9.0625 17.375 C-9.79597656 18.00148438 -10.52945313 18.62796875 -11.28515625 19.2734375 C-13.23489828 20.83092754 -13.23489828 20.83092754 -13 23 C-13.66 23 -14.32 23 -15 23 C-15 23.66 -15 24.32 -15 25 C-15.66 25 -16.32 25 -17 25 C-20.75059058 28.49098897 -20.75059058 28.49098897 -22.32421875 33.1796875 C-22.31384641 35.12277174 -22.16689066 37.06406833 -22 39 C-21.34 39 -20.68 39 -20 39 C-20 39.66 -20 40.32 -20 41 C-15.21778956 42.22003965 -15.21778956 42.22003965 -10.75 40.6875 C-5.66004617 32.87078519 -5.10789948 23.04567341 -4 14 C-5.99954352 14 -7.6390322 16.14484265 -9.0625 17.375 Z M-89 16 C-92.96 17.98 -92.96 17.98 -97 20 C-97 20.66 -97 21.32 -97 22 C-97.66 22 -98.32 22 -99 22 C-99 22.66 -99 23.32 -99 24 C-99.639375 24.268125 -100.27875 24.53625 -100.9375 24.8125 C-103.33131686 25.88667752 -103.33131686 25.88667752 -104 29 C-100.09903945 28.43183168 -97.46130366 27.30753577 -94.1875 25.125 C-93.39730469 24.61195312 -92.60710937 24.09890625 -91.79296875 23.5703125 C-91.20128906 23.05210938 -90.60960937 22.53390625 -90 22 C-90 21.01 -90 20.02 -90 19 C-89.34 19 -88.68 19 -88 19 C-88.33 18.01 -88.66 17.02 -89 16 Z M36 20 C36 21.32 36 22.64 36 24 C35.34 24 34.68 24 34 24 C34 24.66 34 25.32 34 26 C33.34 26 32.68 26 32 26 C31.77667849 28.32781485 31.77667849 28.32781485 34.3125 30.5625 C36.81671947 33.16285298 36.81671947 33.16285298 40 34 C40 33.34 40 32.68 40 32 C40.99 31.67 41.98 31.34 43 31 C43 30.34 43 29.68 43 29 C43.66 29 44.32 29 45 29 C45.33 27.68 45.66 26.36 46 25 C45.01 24.67 44.02 24.34 43 24 C43 23.34 43 22.68 43 22 C40.04622502 19.63019987 40.04622502 19.63019987 36 20 Z M-106 29 C-105.67 29.66 -105.34 30.32 -105 31 C-104.67 30.34 -104.34 29.68 -104 29 C-104.66 29 -105.32 29 -106 29 Z M20 32 C16.06635174 35.87796088 16.06635174 35.87796088 15 41 C15.66 41 16.32 41 17 41 C17.33 42.65 17.66 44.3 18 46 C18.66 46 19.32 46 20 46 C20 46.66 20 47.32 20 48 C22.63684747 50.39820305 22.63684747 50.39820305 26 51 C26 50.01 26 49.02 26 48 C26.99 47.67 27.98 47.34 29 47 C31.2773501 44.18490007 31.2773501 44.18490007 31 41 C27.79552584 38.65405228 27.79552584 38.65405228 24 38 C23.34 36.02 22.68 34.04 22 32 C21.34 32 20.68 32 20 32 Z " fill="#FFFFFF" transform="translate(182,0)"/>
<path d="M0 0 C1.93359375 -0.05607422 1.93359375 -0.05607422 3.90625 -0.11328125 C5.14890625 -0.12488281 6.3915625 -0.13648437 7.671875 -0.1484375 C8.81237305 -0.16825684 9.95287109 -0.18807617 11.12792969 -0.20849609 C15.20962847 0.55434877 16.68401806 2.18533163 19.25 5.375 C19.73828125 8.05078125 19.73828125 8.05078125 19.5625 10.6875 C19.51738281 11.57050781 19.47226562 12.45351562 19.42578125 13.36328125 C19.33876953 14.35908203 19.33876953 14.35908203 19.25 15.375 C18.59 15.375 17.93 15.375 17.25 15.375 C16.981875 15.973125 16.71375 16.57125 16.4375 17.1875 C14.16552105 21.37272437 11.71224359 22.80718469 7.25 24.375 C7.25 25.035 7.25 25.695 7.25 26.375 C8.24 26.705 9.23 27.035 10.25 27.375 C12.50327772 30.75491658 13.25 32.85471516 13.25 36.9375 C12.06487216 41.01137694 10.52769478 42.73685542 7.25 45.375 C6.59 45.375 5.93 45.375 5.25 45.375 C4.92 46.365 4.59 47.355 4.25 48.375 C2.93 48.375 1.61 48.375 0.25 48.375 C0.25 49.035 0.25 49.695 0.25 50.375 C-7.49859273 54.09432451 -16.04426164 54.8222281 -24.4296875 52.6953125 C-26.625 51.875 -26.625 51.875 -29.75 50.375 C-29.75 49.715 -29.75 49.055 -29.75 48.375 C-30.36875 48.065625 -30.9875 47.75625 -31.625 47.4375 C-33 46.75 -34.375 46.0625 -35.75 45.375 C-35.75 42.405 -35.75 39.435 -35.75 36.375 C-34.43 36.375 -33.11 36.375 -31.75 36.375 C-31.75 37.035 -31.75 37.695 -31.75 38.375 C-31.09 38.375 -30.43 38.375 -29.75 38.375 C-29.75 39.365 -29.75 40.355 -29.75 41.375 C-29.09 41.375 -28.43 41.375 -27.75 41.375 C-27.75 42.035 -27.75 42.695 -27.75 43.375 C-26.945625 43.354375 -26.14125 43.33375 -25.3125 43.3125 C-22.75 43.375 -22.75 43.375 -21.75 44.375 C-19.75200428 44.47373816 -17.75042842 44.50471799 -15.75 44.5 C-14.656875 44.50257812 -13.56375 44.50515625 -12.4375 44.5078125 C-9.83169646 44.68047755 -9.83169646 44.68047755 -8.75 43.375 C-6.41702567 43.33407063 -4.08294775 43.33258277 -1.75 43.375 C-1.75 42.715 -1.75 42.055 -1.75 41.375 C-0.43 41.375 0.89 41.375 2.25 41.375 C2.25 40.715 2.25 40.055 2.25 39.375 C2.91 39.375 3.57 39.375 4.25 39.375 C4.25 37.065 4.25 34.755 4.25 32.375 C-4.66 32.375 -13.57 32.375 -22.75 32.375 C-22.75 26.375 -22.75 26.375 -21.75 24.375 C-19.9375 23.99609375 -19.9375 23.99609375 -17.75 23.8125 C-14.96067942 23.74834592 -14.96067942 23.74834592 -12.75 22.375 C-10.41666667 22.04166667 -8.08333333 21.70833333 -5.75 21.375 C-5.42 21.045 -5.09 20.715 -4.75 20.375 C-3.08382885 20.33436168 -1.41611905 20.332279 0.25 20.375 C0.25 19.385 0.25 18.395 0.25 17.375 C1.9 17.375 3.55 17.375 5.25 17.375 C5.25 16.715 5.25 16.055 5.25 15.375 C6.4565625 14.694375 6.4565625 14.694375 7.6875 14 C10.40849084 12.66085773 10.40849084 12.66085773 10.91015625 10.2734375 C11.02230469 9.64695312 11.13445313 9.02046875 11.25 8.375 C2.42070153 6.87850873 -6.67124451 7.22171355 -14.75 11.375 C-15.74 11.375 -16.73 11.375 -17.75 11.375 C-17.75 12.035 -17.75 12.695 -17.75 13.375 C-25.5 14.5 -25.5 14.5 -27.75 13.375 C-28.1875 11.1875 -28.1875 11.1875 -27.75 8.375 C-24.09464708 4.6454805 -19.71673172 2.7940662 -14.75 1.375 C-11.97711719 -1.39788281 -3.72932254 0.04053611 0 0 Z " fill="#FFFFFF" transform="translate(35.75,-0.375)"/>
<path d="M0 0 C1.98 0 3.96 0 6 0 C6.67595315 1.41225926 7.34040059 2.83002905 8 4.25 C8.37125 5.03890625 8.7425 5.8278125 9.125 6.640625 C10 9 10 9 10 13 C-25.97 13 -61.94 13 -99 13 C-99 9.7 -99 6.4 -99 3 C-94.61414671 2.29826347 -90.44209357 1.89165625 -86 2 C-85.67 2.66 -85.34 3.32 -85 4 C-84.34 3.34 -83.68 2.68 -83 2 C-80.0625 1.875 -80.0625 1.875 -77 2 C-76.01 2 -75.02 2 -74 2 C-72 2 -70 2 -68 2 C-67.67 2.66 -67.34 3.32 -67 4 C-66.34 3.34 -65.68 2.68 -65 2 C-62.0625 1.875 -62.0625 1.875 -59 2 C-58.01 2 -57.02 2 -56 2 C-53.33333333 2 -50.66666667 2 -48 2 C-45.45555231 1.72797845 -42.91554744 1.42732045 -40.375 1.12109375 C-38 1 -38 1 -35 2 C-35 2.66 -35 3.32 -35 4 C-34.01 3.34 -33.02 2.68 -32 2 C-27.45945946 2.54054054 -27.45945946 2.54054054 -26 4 C-22.27775401 4.29386153 -21.22213757 4.14809171 -18 2 C-15.4375 1.875 -15.4375 1.875 -13 2 C-10.94141092 2.0446393 -10.94141092 2.0446393 -8.6875 1.6875 C-4.85102224 2.13360207 -3.47300311 4.17371074 -1 7 C-0.67 4.69 -0.34 2.38 0 0 Z " fill="#FFFFFF" transform="translate(99,87)"/>
<path d="M0 0 C2.31 0 4.62 0 7 0 C7 0.66 7 1.32 7 2 C7.99 2 8.98 2 10 2 C10.99 3.98 11.98 5.96 13 8 C13.99 6.02 14.98 4.04 16 2 C20.29 2 24.58 2 29 2 C29.495 3.485 29.495 3.485 30 5 C30.66 4.01 31.32 3.02 32 2 C33.98 2.66 35.96 3.32 38 4 C38.88142743 7.44557997 39.30261231 9.33106752 37.8125 12.625 C34.1875 17.375 34.1875 17.375 32 19 C29.0625 18.6875 29.0625 18.6875 26 18 C24.33299555 18.33163997 22.66639607 18.66531652 21 19 C18.48173155 19.14095798 15.9595313 19.219946 13.4375 19.25 C11.48650391 19.28867188 11.48650391 19.28867188 9.49609375 19.328125 C5.89537827 18.99018075 4.5543426 18.46984781 2 16 C2 16.66 2 17.32 2 18 C-9.36363636 19.81818182 -9.36363636 19.81818182 -13 18 C-13.33 19.65 -13.66 21.3 -14 23 C-17.13349732 24.04449911 -17.98968256 23.93423645 -21 23 C-21 21.35 -21 19.7 -21 18 C-22.39025391 18.12568359 -22.39025391 18.12568359 -23.80859375 18.25390625 C-25.60490234 18.40666016 -25.60490234 18.40666016 -27.4375 18.5625 C-28.63246094 18.66691406 -29.82742187 18.77132812 -31.05859375 18.87890625 C-32.51458984 18.93884766 -32.51458984 18.93884766 -34 19 C-35 18 -35 18 -35.375 14.3125 C-35.32282276 11.09490377 -34.83970778 9.11319691 -32.9375 6.5 C-30 4 -30 4 -26.1875 3.625 C-25.135625 3.74875 -24.08375 3.8725 -23 4 C-22.67 4.66 -22.34 5.32 -22 6 C-21.67 4.68 -21.34 3.36 -21 2 C-17.625 1.8125 -17.625 1.8125 -14 2 C-13.01 3.485 -13.01 3.485 -12 5 C-11.67 4.67 -11.34 4.34 -11 4 C-6.96839809 3.73706944 -5.44107266 3.70595156 -2 6 C-1.34 4.02 -0.68 2.04 0 0 Z M25 10 C25 13 25 13 25 13 Z " fill="#FFFFFF" transform="translate(164,55)"/>
<path d="M0 0 C0.94875 0.04125 1.8975 0.0825 2.875 0.125 C3.37 2.6 3.37 2.6 3.875 5.125 C4.535 5.125 5.195 5.125 5.875 5.125 C5.875 4.135 5.875 3.145 5.875 2.125 C7.855 2.125 9.835 2.125 11.875 2.125 C12.37 3.61 12.37 3.61 12.875 5.125 C13.535 5.125 14.195 5.125 14.875 5.125 C14.875 4.135 14.875 3.145 14.875 2.125 C19.05237474 0.53361915 22.40660785 -0.08778058 26.875 0.125 C26.875 1.115 26.875 2.105 26.875 3.125 C27.473125 2.939375 28.07125 2.75375 28.6875 2.5625 C30.875 2.125 30.875 2.125 33.875 3.125 C35.875 6.125 35.875 6.125 35.875 13.125 C5.185 13.125 -25.505 13.125 -57.125 13.125 C-57.125 5.125 -57.125 5.125 -55.125 2.125 C-51.5 1.9375 -51.5 1.9375 -48.125 2.125 C-48.125 2.785 -48.125 3.445 -48.125 4.125 C-47.361875 3.939375 -46.59875 3.75375 -45.8125 3.5625 C-43.125 3.125 -43.125 3.125 -40.125 4.125 C-40.125 3.465 -40.125 2.805 -40.125 2.125 C-34.59427374 1.75628492 -34.59427374 1.75628492 -32.375 3.5 C-31.9625 4.03625 -31.55 4.5725 -31.125 5.125 C-30.465 5.785 -29.805 6.445 -29.125 7.125 C-28.939375 6.485625 -28.75375 5.84625 -28.5625 5.1875 C-27.125 3.125 -27.125 3.125 -23.5 2.375 C-21.829375 2.25125 -21.829375 2.25125 -20.125 2.125 C-19.63 3.115 -19.63 3.115 -19.125 4.125 C-18.135 3.465 -17.145 2.805 -16.125 2.125 C-13.49609375 2 -13.49609375 2 -10.5625 2.125 C-7.69499516 2.29222696 -7.69499516 2.29222696 -5.125 2.125 C-3.125 0.125 -3.125 0.125 0 0 Z " fill="#FFFFFF" transform="translate(168.125,86.875)"/>
<path d="M0 0 C2.64 0 5.28 0 8 0 C8.495 0.99 8.495 0.99 9 2 C9.66 1.67 10.32 1.34 11 1 C13.01927511 1.60578253 15.02253397 2.26919734 17 3 C17.1357675 4.58093717 17.23234745 6.16526952 17.3125 7.75 C17.37050781 8.63171875 17.42851563 9.5134375 17.48828125 10.421875 C17 13 17 13 15.11352539 15.13452148 C10.64104977 17.8142193 6.81432872 17.51929289 1.6953125 17.42578125 C0.69797089 17.42249313 -0.29937073 17.41920502 -1.32693481 17.41581726 C-4.5100659 17.40008999 -7.69214136 17.35605795 -10.875 17.3125 C-13.00910597 17.30100542 -15.14322189 17.29122122 -17.27734375 17.28320312 C-19.32813568 17.26977183 -21.37891849 17.25484688 -23.4296875 17.23828125 C-24.38406708 17.23089432 -25.33844666 17.22350739 -26.32174683 17.21589661 C-31.31016156 17.14509226 -36.08078658 16.84045375 -41 16 C-40.48838932 10.06531606 -39.83750114 7.67500227 -37 2 C-31.39 2 -25.78 2 -20 2 C-19.67 2.66 -19.34 3.32 -19 4 C-18.67 3.34 -18.34 2.68 -18 2 C-12.06 2 -6.12 2 0 2 C0 1.34 0 0.68 0 0 Z M4 7 C4 10 4 10 4 10 Z " fill="#FFFFFF" transform="translate(101,57)"/>
<path d="M0 0 C5.37305699 -0.44041451 5.37305699 -0.44041451 8 0 C10 2.5 10 2.5 11 5 C11.66 4.01 12.32 3.02 13 2 C14.9453125 1.70703125 14.9453125 1.70703125 17.125 1.8125 C18.40375 1.874375 19.6825 1.93625 21 2 C21 2.99 21 3.98 21 5 C21.5259375 4.2575 21.5259375 4.2575 22.0625 3.5 C24.94374289 1.26936034 27.47009026 1.80019379 31 2 C31 4.97 31 7.94 31 11 C30.34 11 29.68 11 29 11 C28.690625 11.61875 28.38125 12.2375 28.0625 12.875 C27.375 14.25 26.6875 15.625 26 17 C24.04174127 17.02694851 22.08337774 17.04637218 20.125 17.0625 C18.48917969 17.07990234 18.48917969 17.07990234 16.8203125 17.09765625 C14 17 14 17 12 16 C12 17.98 12 19.96 12 22 C9.69 21.67 7.38 21.34 5 21 C5 19.35 5 17.7 5 16 C3.68 16 2.36 16 1 16 C0.34 15.34 -0.32 14.68 -1 14 C-1.53109375 14.49113281 -2.0621875 14.98226562 -2.609375 15.48828125 C-5.68015462 17.43009777 -7.64921396 17.30491694 -11.25 17.1875 C-12.86648438 17.14689453 -12.86648438 17.14689453 -14.515625 17.10546875 C-15.74539063 17.05326172 -15.74539063 17.05326172 -17 17 C-17.08107583 15.06318839 -17.13922475 13.1254066 -17.1875 11.1875 C-17.22230469 10.10855469 -17.25710937 9.02960938 -17.29296875 7.91796875 C-17 5 -17 5 -15.9375 3.125 C-12.9264221 1.37663219 -10.24941563 1.71790599 -6.8125 1.8125 C-4.90404297 1.85310547 -4.90404297 1.85310547 -2.95703125 1.89453125 C-1.49330078 1.94673828 -1.49330078 1.94673828 0 2 C0 1.34 0 0.68 0 0 Z " fill="#FFFFFF" transform="translate(17,57)"/>
<path d="M0 0 C2.31 0 4.62 0 7 0 C7 2.31 7 4.62 7 7 C4.69 7 2.38 7 0 7 C0 4.69 0 2.38 0 0 Z " fill="#FFFFFF" transform="translate(120,62)"/>
<path d="M0 0 C2.5 0.125 2.5 0.125 3.5 1.125 C3.54080783 3.12458364 3.54254356 5.12545254 3.5 7.125 C1.19 7.125 -1.12 7.125 -3.5 7.125 C-3.54254356 5.12545254 -3.54080783 3.12458364 -3.5 1.125 C-2.5 0.125 -2.5 0.125 0 0 Z " fill="#FFFFFF" transform="translate(53.5,61.875)"/>
</svg>
