<?xml version="1.0" standalone="no"?>
<!DOCTYPE svg PUBLIC "-//W3C//DTD SVG 20010904//EN"
 "http://www.w3.org/TR/2001/REC-SVG-20010904/DTD/svg10.dtd">
<svg version="1.0" xmlns="http://www.w3.org/2000/svg"
 width="199.000000pt" height="199.000000pt" viewBox="0 0 199.000000 199.000000"
 preserveAspectRatio="xMidYMid meet">
<metadata>
Created by potrace 1.16, written by Peter Selinger 2001-2019
</metadata>
<g transform="translate(0.000000,199.000000) scale(0.100000,-0.100000)"
fill="#000000" stroke="none">
<path d="M702 1964 c-326 -96 -582 -353 -677 -680 -23 -79 -25 -103 -25 -279
0 -176 2 -200 25 -280 46 -158 142 -313 139 -222 -1 15 4 27 11 27 6 0 17 11
23 25 9 19 9 25 0 25 -6 0 -8 3 -5 7 4 3 2 12 -4 19 -12 15 -4 34 14 34 8 0 8
-3 -1 -9 -12 -7 -12 -12 -1 -30 16 -24 34 -29 25 -5 -3 8 -2 12 4 9 6 -4 17 1
26 9 8 9 12 16 7 16 -9 1 38 29 49 30 3 0 -20 -25 -52 -56 -39 -37 -65 -73
-80 -109 l-22 -54 35 -48 c42 -58 143 -155 212 -205 105 -75 332 -168 411
-168 13 0 24 -4 24 -10 0 -6 55 -10 145 -10 80 0 145 3 145 8 0 4 27 13 61 19
33 6 64 14 67 18 3 3 1 18 -5 33 -6 15 -17 43 -25 62 -7 19 -18 41 -25 48 -6
6 -15 22 -19 35 -11 36 -94 165 -177 275 -42 57 -77 107 -77 112 0 5 -9 15
-19 22 -10 8 -29 31 -42 53 -13 22 -50 76 -83 120 -58 76 -61 83 -61 137 0 31
2 54 4 52 2 -2 11 2 20 9 14 10 14 10 4 -4 -11 -13 -9 -19 10 -36 29 -26 273
-163 291 -163 26 0 52 -56 76 -165 6 -27 13 -57 16 -65 8 -22 45 97 38 124 -3
13 5 39 20 66 18 33 22 48 14 57 -7 9 -7 13 1 13 7 0 7 7 -1 25 -10 22 -13 23
-20 10 -10 -18 -60 -45 -83 -45 -14 0 -14 4 1 38 9 20 18 43 21 50 3 7 -3 12
-13 13 -17 0 -16 1 2 9 12 5 25 13 28 19 5 7 1 8 -10 4 -14 -5 -15 -3 -6 14 6
11 9 23 6 26 -3 3 -2 12 2 19 11 17 5 59 -9 77 -9 10 -7 16 8 27 24 17 27 14
27 -30 0 -44 17 -46 46 -6 29 39 47 39 27 0 -9 -16 -13 -30 -11 -30 7 0 32 49
40 80 6 19 5 22 -3 10 -9 -12 -11 -7 -10 20 1 19 -3 60 -9 90 -6 35 -6 62 0
73 5 9 6 22 2 28 -4 6 0 15 7 20 12 7 11 9 -1 9 -27 0 -48 34 -38 60 6 17 4
26 -9 35 -14 11 -15 18 -5 56 7 24 13 62 14 84 l3 40 17 -31 c9 -17 25 -61 34
-98 19 -77 30 -82 16 -8 -8 47 -8 50 14 50 19 0 23 -6 26 -47 4 -66 -15 -353
-27 -393 -4 -13 -24 -52 -45 -88 -58 -98 -59 -105 -5 -185 26 -38 55 -75 64
-82 38 -26 130 -72 199 -98 88 -34 125 -72 147 -153 23 -82 33 -109 34 -92 1
9 -8 47 -18 85 -11 38 -18 71 -16 73 5 6 45 -108 60 -171 7 -32 15 -61 18 -63
8 -8 96 124 136 203 41 83 91 235 91 279 0 13 5 24 10 24 6 0 10 55 10 145 0
90 -4 145 -10 145 -5 0 -10 11 -10 24 0 44 -50 196 -91 279 -125 250 -347 434
-615 512 -79 23 -102 25 -283 24 -178 0 -204 -2 -279 -25z"/>
<path d="M1233 778 c-20 -39 -23 -70 -4 -39 7 10 11 8 16 -10 13 -49 28 -79
35 -74 4 2 14 -12 23 -33 40 -91 70 -281 71 -448 l1 -91 24 11 24 11 -6 179
c-4 98 -11 184 -15 190 -5 6 -14 31 -21 55 -7 24 -27 77 -45 117 l-32 73 -15
-25 c-15 -24 -15 -22 -11 33 2 39 -1 64 -10 76 -13 17 -15 15 -35 -25z"/>
</g>
</svg>
