<?xml version="1.0" encoding="UTF-8"?>
<svg version="1.1" xmlns="http://www.w3.org/2000/svg" width="123" height="99">
<path d="M0,0 L15,0 L15,1 L18,1 L18,2 L20,2 L20,3 L22,3 L22,4 L23,4 L23,5 L24,5 L24,6 L25,6 L25,7 L26,7 L26,8 L27,8 L27,10 L28,10 L28,13 L29,13 L29,24 L28,24 L28,28 L27,28 L27,31 L28,31 L28,30 L29,30 L29,27 L30,27 L30,23 L31,23 L31,22 L30,22 L30,20 L32,20 L32,21 L33,21 L33,26 L34,26 L34,29 L33,29 L33,34 L32,34 L32,37 L31,37 L31,39 L30,39 L30,41 L29,41 L29,43 L28,43 L28,44 L27,44 L27,46 L26,46 L26,47 L25,47 L25,48 L24,48 L24,50 L23,50 L23,51 L22,51 L22,52 L21,52 L21,53 L20,53 L20,54 L19,54 L19,55 L18,55 L18,57 L17,57 L17,58 L16,58 L16,59 L15,59 L15,61 L14,61 L14,63 L13,63 L13,65 L12,65 L12,69 L11,69 L11,72 L12,72 L12,77 L13,77 L13,80 L14,80 L14,82 L15,82 L15,83 L16,83 L16,85 L17,85 L17,87 L18,87 L18,88 L19,88 L19,92 L20,92 L20,94 L19,94 L19,99 L17,99 L17,95 L16,95 L16,93 L15,93 L15,91 L14,91 L14,90 L13,90 L13,89 L12,89 L12,87 L11,87 L11,86 L10,86 L10,85 L9,85 L9,83 L8,83 L8,82 L7,82 L7,80 L6,80 L6,78 L5,78 L5,76 L4,76 L4,74 L3,74 L3,72 L2,72 L2,65 L3,65 L3,63 L4,63 L4,61 L5,61 L5,60 L6,60 L6,59 L7,59 L7,58 L8,58 L8,57 L9,57 L9,55 L10,55 L10,54 L12,54 L12,53 L13,53 L13,52 L14,52 L14,51 L15,51 L15,50 L16,50 L16,49 L14,49 L14,50 L12,50 L12,51 L10,51 L10,52 L8,52 L8,53 L6,53 L6,54 L5,54 L5,55 L4,55 L4,53 L3,53 L3,52 L2,52 L2,51 L1,51 L1,50 L0,50 L0,49 L-8,49 L-8,48 L-9,48 L-9,42 L-10,42 L-10,38 L-11,38 L-11,37 L-12,37 L-12,34 L-11,34 L-11,33 L-12,33 L-12,32 L-13,32 L-13,31 L-14,31 L-14,27 L-13,27 L-13,26 L-12,26 L-12,25 L-11,25 L-11,23 L-10,23 L-10,22 L-9,22 L-9,21 L-8,21 L-8,20 L-7,20 L-7,19 L-6,19 L-6,18 L-4,18 L-4,17 L-3,17 L-3,16 L-1,16 L-1,15 L0,15 L0,14 L2,14 L2,13 L4,13 L4,12 L8,12 L8,11 L2,11 L2,12 L0,12 L0,13 L-3,13 L-3,14 L-4,14 L-4,15 L-6,15 L-6,16 L-7,16 L-7,17 L-8,17 L-8,18 L-10,18 L-10,19 L-11,19 L-11,16 L-12,16 L-12,13 L-11,13 L-11,9 L-10,9 L-10,7 L-9,7 L-9,6 L-8,6 L-8,5 L-7,5 L-7,4 L-6,4 L-6,3 L-5,3 L-5,2 L-3,2 L-3,1 L0,1 Z M8,10 L8,11 L11,11 L11,10 Z M26,31 L26,32 L27,32 L27,31 Z M25,32 L25,34 L26,34 L26,32 Z M24,34 L24,35 L25,35 L25,34 Z M18,47 L18,48 L19,48 L19,47 Z M16,48 L16,49 L18,49 L18,48 Z " fill="#FFFFFF" transform="translate(14,0)"/>
<path d="M0,0 L7,0 L7,1 L8,1 L8,2 L9,2 L9,0 L16,0 L16,1 L17,1 L17,2 L18,2 L18,3 L19,3 L19,5 L20,5 L20,2 L21,2 L21,1 L22,1 L22,0 L28,0 L28,1 L29,1 L29,2 L30,2 L30,4 L31,4 L31,8 L30,8 L30,9 L29,9 L29,10 L28,10 L28,11 L27,11 L27,12 L24,12 L24,11 L22,11 L22,10 L21,10 L21,9 L20,9 L20,7 L19,7 L19,8 L18,8 L18,9 L17,9 L17,10 L16,10 L16,11 L13,11 L13,12 L11,12 L11,11 L10,11 L10,10 L11,10 L11,9 L9,9 L9,12 L8,12 L8,11 L6,11 L6,9 L5,9 L5,8 L4,8 L4,7 L3,7 L3,4 L4,4 L4,5 L5,5 L5,4 L6,4 L6,2 L0,2 Z M12,2 L12,8 L11,8 L11,9 L15,9 L15,8 L16,8 L16,3 L15,3 L15,2 Z M23,2 L23,3 L22,3 L22,8 L23,8 L23,9 L24,9 L24,10 L26,10 L26,9 L27,9 L27,8 L28,8 L28,3 L27,3 L27,2 Z M8,4 L8,6 L6,6 L6,7 L7,7 L7,8 L8,8 L8,9 L9,9 L9,4 Z " fill="#FFFFFF" transform="translate(92,47)"/>
<path d="M0,0 L6,0 L6,1 L8,1 L8,3 L9,3 L9,0 L12,0 L12,9 L16,9 L16,8 L17,8 L17,0 L19,0 L19,6 L20,6 L20,4 L21,4 L21,2 L22,2 L22,0 L24,0 L24,1 L25,1 L25,4 L26,4 L26,6 L27,6 L27,8 L28,8 L28,10 L29,10 L29,12 L28,12 L28,11 L26,11 L26,9 L25,9 L25,7 L24,7 L24,5 L23,5 L23,4 L22,4 L22,6 L21,6 L21,8 L20,8 L20,11 L18,11 L18,10 L17,10 L17,11 L15,11 L15,12 L13,12 L13,11 L11,11 L11,10 L10,10 L10,7 L9,7 L9,9 L8,9 L8,10 L7,10 L7,11 L4,11 L4,12 L1,12 L1,9 L0,9 Z M2,2 L2,9 L6,9 L6,7 L7,7 L7,4 L6,4 L6,2 Z M9,3 L9,4 L10,4 L10,3 Z " fill="#FFFFFF" transform="translate(66,47)"/>
<path d="M0,0 L3,0 L3,2 L4,2 L4,4 L5,4 L5,6 L6,6 L6,8 L7,8 L7,11 L8,11 L8,9 L9,9 L9,7 L10,7 L10,4 L11,4 L11,2 L12,2 L12,0 L15,0 L15,15 L12,15 L12,7 L11,7 L11,9 L10,9 L10,12 L9,12 L9,14 L8,14 L8,15 L7,15 L7,14 L6,14 L6,12 L5,12 L5,10 L4,10 L4,8 L3,8 L3,5 L2,5 L2,15 L0,15 Z M12,5 L12,6 L13,6 L13,5 Z " fill="#FFFFFF" transform="translate(35,62)"/>
<path d="M0,0 L3,0 L3,1 L5,1 L5,2 L6,2 L6,4 L7,4 L7,8 L8,8 L8,9 L10,9 L10,10 L12,10 L12,9 L13,9 L13,8 L12,8 L12,7 L10,7 L10,6 L8,6 L8,1 L10,1 L10,0 L13,0 L13,1 L15,1 L15,3 L12,3 L12,2 L11,2 L11,3 L10,3 L10,4 L12,4 L12,5 L14,5 L14,6 L15,6 L15,7 L16,7 L16,10 L15,10 L15,11 L13,11 L13,12 L10,12 L10,11 L7,11 L7,9 L6,9 L6,10 L5,10 L5,11 L3,11 L3,12 L0,12 L0,11 L-2,11 L-2,10 L-3,10 L-3,8 L-4,8 L-4,3 L-3,3 L-3,2 L-2,2 L-2,1 L0,1 Z M1,2 L1,3 L-1,3 L-1,5 L-2,5 L-2,7 L-1,7 L-1,9 L1,9 L1,10 L2,10 L2,9 L4,9 L4,7 L5,7 L5,5 L4,5 L4,3 L2,3 L2,2 Z " fill="#FFFFFF" transform="translate(106,31)"/>
<path d="M0,0 L3,0 L3,2 L4,2 L4,3 L5,3 L5,4 L6,4 L6,5 L7,5 L7,6 L8,6 L8,7 L9,7 L9,8 L10,8 L10,0 L13,0 L13,15 L12,15 L12,14 L10,14 L10,13 L9,13 L9,12 L8,12 L8,10 L7,10 L7,9 L6,9 L6,8 L5,8 L5,7 L4,7 L4,6 L3,6 L3,5 L2,5 L2,15 L0,15 Z M10,8 L10,9 L11,9 L11,8 Z " fill="#FFFFFF" transform="translate(83,62)"/>
<path d="M0,0 L4,0 L4,1 L5,1 L5,2 L6,2 L6,4 L5,4 L5,3 L3,3 L3,2 L1,2 L1,3 L0,3 L0,4 L-1,4 L-1,8 L0,8 L0,9 L1,9 L1,10 L3,10 L3,9 L6,9 L6,7 L7,7 L7,4 L8,4 L8,2 L9,2 L9,1 L11,1 L11,2 L12,2 L12,4 L13,4 L13,6 L14,6 L14,8 L15,8 L15,10 L16,10 L16,12 L14,12 L14,11 L13,11 L13,10 L12,10 L12,8 L11,8 L11,6 L10,6 L10,4 L9,4 L9,7 L8,7 L8,9 L7,9 L7,11 L6,11 L6,12 L5,12 L5,11 L4,11 L4,12 L0,12 L0,11 L-1,11 L-1,10 L-2,10 L-2,9 L-3,9 L-3,7 L-4,7 L-4,5 L-3,5 L-3,3 L-2,3 L-2,2 L-1,2 L-1,1 L0,1 Z " fill="#FFFFFF" transform="translate(73,31)"/>
<path d="M0,0 L7,0 L7,1 L9,1 L9,2 L10,2 L10,3 L11,3 L11,4 L12,4 L12,11 L11,11 L11,12 L10,12 L10,13 L9,13 L9,14 L7,14 L7,15 L2,15 L2,12 L4,12 L4,13 L5,13 L5,12 L8,12 L8,11 L9,11 L9,4 L8,4 L8,3 L6,3 L6,2 L3,2 L3,11 L0,11 Z " fill="#FFFFFF" transform="translate(97,62)"/>
<path d="M0,0 L5,0 L5,1 L7,1 L7,2 L8,2 L8,6 L6,6 L6,7 L7,7 L7,9 L8,9 L8,10 L9,10 L9,1 L12,1 L12,9 L16,9 L16,10 L17,10 L17,12 L10,12 L10,11 L9,11 L9,12 L7,12 L7,11 L6,11 L6,10 L5,10 L5,8 L4,8 L4,7 L3,7 L3,5 L6,5 L6,3 L1,3 L1,2 L0,2 Z " fill="#FFFFFF" transform="translate(86,31)"/>
<path d="M0,0 L8,0 L8,2 L2,2 L2,4 L8,4 L8,7 L2,7 L2,9 L10,9 L10,11 L9,11 L9,12 L2,12 L2,11 L0,11 Z " fill="#FFFFFF" transform="translate(56,47)"/>
<path d="M0,0 L2,0 L2,1 L3,1 L3,4 L4,4 L4,6 L5,6 L5,8 L6,8 L6,10 L7,10 L7,12 L8,12 L8,15 L6,15 L6,14 L5,14 L5,12 L4,12 L4,10 L3,10 L3,8 L2,8 L2,6 L1,6 L1,4 L0,4 L0,7 L-1,7 L-1,9 L-2,9 L-2,11 L-3,11 L-3,13 L-4,13 L-4,14 L-5,14 L-5,15 L-6,15 L-6,13 L-5,13 L-5,11 L-4,11 L-4,9 L-3,9 L-3,6 L-2,6 L-2,4 L-1,4 L-1,2 L0,2 Z " fill="#FFFFFF" transform="translate(115,62)"/>
<path d="M0,0 L2,0 L2,2 L3,2 L3,4 L4,4 L4,6 L5,6 L5,9 L6,9 L6,11 L7,11 L7,13 L8,13 L8,15 L6,15 L6,14 L5,14 L5,12 L4,12 L4,10 L3,10 L3,8 L2,8 L2,6 L1,6 L1,4 L0,4 L0,6 L-1,6 L-1,8 L-2,8 L-2,11 L-3,11 L-3,13 L-4,13 L-4,14 L-5,14 L-5,15 L-6,15 L-6,12 L-5,12 L-5,10 L-4,10 L-4,8 L-3,8 L-3,6 L-2,6 L-2,3 L-1,3 L-1,2 L0,2 Z " fill="#FFFFFF" transform="translate(74,62)"/>
<path d="M0,0 L8,0 L8,1 L9,1 L9,2 L10,2 L10,3 L11,3 L11,6 L10,6 L10,7 L9,7 L9,8 L8,8 L8,9 L9,9 L9,11 L10,11 L10,12 L11,12 L11,15 L9,15 L9,14 L8,14 L8,12 L7,12 L7,11 L6,11 L6,9 L5,9 L5,8 L4,8 L4,6 L8,6 L8,3 L7,3 L7,2 L0,2 Z " fill="#FFFFFF" transform="translate(56,62)"/>
<path d="M0,0 L4,0 L4,1 L5,1 L5,0 L8,0 L8,1 L10,1 L10,4 L9,4 L9,5 L10,5 L10,8 L9,8 L9,7 L8,7 L8,6 L7,6 L7,5 L6,5 L6,6 L5,6 L5,7 L3,7 L3,8 L0,8 L0,7 L1,7 L1,6 L0,6 Z M2,2 L2,5 L4,5 L4,3 L3,3 L3,2 Z M6,2 L6,3 L8,3 L8,2 Z " fill="#FFFFFF" transform="translate(56,35)"/>
<path d="M0,0 L1,0 L1,1 L3,1 L3,2 L4,2 L4,1 L6,1 L6,0 L7,0 L7,1 L9,1 L9,6 L7,6 L7,7 L6,7 L6,6 L4,6 L4,5 L3,5 L3,7 L2,7 L2,6 L-2,6 L-2,1 L0,1 Z M0,2 L0,3 L1,3 L1,2 Z M5,3 L5,4 L8,4 L8,3 Z M2,4 L2,5 L3,5 L3,4 Z " fill="#FFFFFF" transform="translate(66,80)"/>
<path d="M0,0 L3,0 L3,14 L0,14 Z " fill="#FFFFFF" transform="translate(52,62)"/>
<path d="M0,0 L2,0 L2,1 L4,1 L4,5 L3,5 L3,6 L2,6 L2,7 L0,7 L0,6 L-1,6 L-1,5 L-2,5 L-2,2 L-1,2 L-1,1 L0,1 Z M0,2 L0,3 L2,3 L2,2 Z " fill="#FFFFFF" transform="translate(104,80)"/>
<path d="M0,0 L1,0 L1,1 L3,1 L3,3 L-1,3 L-1,4 L3,4 L3,6 L1,6 L1,7 L0,7 L0,6 L-2,6 L-2,5 L-3,5 L-3,2 L-2,2 L-2,1 L0,1 Z " fill="#FFFFFF" transform="translate(79,80)"/>
<path d="M0,0 L2,0 L2,5 L3,5 L3,6 L2,6 L2,7 L0,7 L0,6 L-2,6 L-2,1 L0,1 Z " fill="#FFFFFF" transform="translate(55,80)"/>
<path d="M0,0 L1,0 L1,1 L3,1 L3,6 L1,6 L1,7 L0,7 L0,6 L-2,6 L-2,1 L0,1 Z M-1,3 L-1,4 L2,4 L2,3 Z " fill="#FFFFFF" transform="translate(120,80)"/>
<path d="M0,0 L2,0 L2,3 L3,3 L3,0 L5,0 L5,4 L4,4 L4,5 L3,5 L3,6 L2,6 L2,5 L0,5 Z " fill="#FFFFFF" transform="translate(91,81)"/>
<path d="M0,0 L1,0 L1,1 L2,1 L2,6 L0,6 L0,4 L-1,4 L-1,6 L-3,6 L-3,1 L-1,1 L-1,2 L0,2 Z M0,2 L0,3 L1,3 L1,2 Z " fill="#FFFFFF" transform="translate(50,80)"/>
<path d="M0,0 L1,0 L1,1 L3,1 L3,7 L2,7 L2,6 L1,6 L1,5 L0,5 L0,6 L-1,6 L-1,1 L0,1 Z " fill="#FFFFFF" transform="translate(98,80)"/>
<path d="M0,0 L3,0 L3,4 L4,4 L4,6 L2,6 L2,5 L1,5 L1,6 L-1,6 L-1,4 L0,4 Z " fill="#FFFFFF" transform="translate(113,80)"/>
<path d="M0,0 L4,0 L4,5 L0,5 Z " fill="#FFFFFF" transform="translate(86,81)"/>
<path d="M0,0 L4,0 L4,5 L2,5 L2,6 L1,6 L1,5 L0,5 Z M1,2 L1,3 L2,3 L2,2 Z " fill="#FFFFFF" transform="translate(59,81)"/>
<path d="M0,0 L2,0 L2,5 L0,5 Z " fill="#FFFFFF" transform="translate(109,81)"/>
<path d="M0,0 L2,0 L2,5 L0,5 Z " fill="#FFFFFF" transform="translate(83,81)"/>
<path d="M0,0 L1,0 L1,1 L0,1 Z " fill="#FFFFFF" transform="translate(83,58)"/>
</svg>
