<?xml version="1.0" encoding="UTF-8"?>
<svg version="1.1" xmlns="http://www.w3.org/2000/svg" width="688" height="181">
<path d="M0 0 C6.93704877 2.97525794 12.68805081 6.81795286 18.53198242 11.52099609 C21.24357674 13.69678639 23.79816835 15.61563317 27 17 C27.57105469 16.443125 28.14210938 15.88625 28.73046875 15.3125 C45 0 45 0 52 0 C53.322644 2.53682516 54.63317361 5.07877651 55.9375 7.625 C56.31068359 8.33785156 56.68386719 9.05070312 57.06835938 9.78515625 C59.14783988 13.86918102 60.53994321 17.3702221 61 22 C61.86286621 21.75552124 61.86286621 21.75552124 62.74316406 21.50610352 C64.95708107 21.00962472 66.84673797 20.88520256 69.109375 20.90234375 C69.86347656 20.90556641 70.61757812 20.90878906 71.39453125 20.91210938 C72.56048828 20.92467773 72.56048828 20.92467773 73.75 20.9375 C74.54277344 20.94201172 75.33554688 20.94652344 76.15234375 20.95117188 C78.10159508 20.96291435 80.05080738 20.98084854 82 21 C82.40126082 36.41664634 82.20854442 49.08005216 75 63 C75 64.32 75 65.64 75 67 C75.72703125 67.12246094 76.4540625 67.24492188 77.203125 67.37109375 C86.05980733 69.36261031 92.63135248 74.80056775 99 81 C89.12402727 93.40827343 75.79512836 101.56843444 60 104 C46.9095038 105.27137913 37.38030312 101.7758894 27.125 93.75 C26.42375 93.1725 25.7225 92.595 25 92 C24.43152344 92.54269531 23.86304687 93.08539063 23.27734375 93.64453125 C14.04191407 102.20156543 6.32074462 104.40457458 -6.2421875 104.2734375 C-23.01167825 103.05320428 -35.47376097 93.30143649 -47 82 C-41.11104955 73.93774641 -31.93323933 69.12303354 -23 65 C-23.33773437 64.154375 -23.67546875 63.30875 -24.0234375 62.4375 C-24.46945313 61.303125 -24.91546875 60.16875 -25.375 59 C-25.81585938 57.88625 -26.25671875 56.7725 -26.7109375 55.625 C-29.61980534 47.44491105 -30.26559224 40.64101541 -30.125 32 C-30.11597656 30.93910156 -30.10695313 29.87820312 -30.09765625 28.78515625 C-30.07427524 26.18986362 -30.04150556 23.59505535 -30 21 C-27.04160645 20.97310551 -24.08345573 20.95321259 -21.125 20.9375 C-20.28324219 20.92912109 -19.44148438 20.92074219 -18.57421875 20.91210938 C-17.76855469 20.90888672 -16.96289062 20.90566406 -16.1328125 20.90234375 C-15.01737061 20.89448853 -15.01737061 20.89448853 -13.87939453 20.88647461 C-12 21 -12 21 -10 22 C-9.86464844 21.41734375 -9.72929688 20.8346875 -9.58984375 20.234375 C-7.61510144 12.71379949 -4.11380564 6.55954762 0 0 Z M2 7 C1.01585567 8.91411557 0.03786651 10.8313967 -0.9375 12.75 C-1.75541016 14.35101563 -1.75541016 14.35101563 -2.58984375 15.984375 C-3.72474878 18.41137413 -4.41412532 20.42312382 -5 23 C-3.89140625 23.55429688 -2.7828125 24.10859375 -1.640625 24.6796875 C6.6796875 28.83984375 6.6796875 28.83984375 15 33 C18.39417765 29.87378374 20.6062718 27.43458973 22 23 C16.84927983 16.31798464 10.1534231 9.7178077 2 7 Z M31.51953125 19.8515625 C29.76177716 21.84635462 29.76177716 21.84635462 30.1796875 24.07421875 C30.45039062 24.70972656 30.72109375 25.34523438 31 26 C31.433125 27.051875 31.86625 28.10375 32.3125 29.1875 C33.67679404 32.06230642 33.67679404 32.06230642 35.84375 32.84375 C38.79841805 33.05785638 39.84311294 32.07612815 42.1875 30.3125 C46.57227322 27.1878028 51.01650338 25.0028237 56 23 C54.43551329 17.3856009 52.83604813 12.13189662 50 7 C43.54166374 7 35.76188944 15.73206647 31.51953125 19.8515625 Z M-25 26 C-25.49841097 39.34633823 -24.70861459 51.57572227 -17 63 C-15.96593327 64.25949049 -15.96593327 64.25949049 -13.71484375 64.09765625 C-12.79832031 64.08605469 -11.88179687 64.07445312 -10.9375 64.0625 C-10.01839844 64.05347656 -9.09929688 64.04445312 -8.15234375 64.03515625 C-7.44207031 64.02355469 -6.73179688 64.01195312 -6 64 C-6.3609375 63.25621094 -6.721875 62.51242188 -7.09375 61.74609375 C-11.95584022 50.30667592 -11.51522951 39.26721839 -11 27 C-14.18483906 26.14459248 -16.94382604 25.89399771 -20.25 25.9375 C-21.58804688 25.95103516 -21.58804688 25.95103516 -22.953125 25.96484375 C-23.62859375 25.97644531 -24.3040625 25.98804687 -25 26 Z M63 27 C63.03480469 28.30453125 63.06960937 29.6090625 63.10546875 30.953125 C63.32587458 42.82209277 62.56518151 52.90462408 58 64 C64.11677535 64.93808791 64.11677535 64.93808791 69.63671875 62.78125 C76.77979964 52.50602954 77.67711906 38.03767218 77 26 C75.41676312 25.972807 73.83338938 25.95351694 72.25 25.9375 C71.36828125 25.92589844 70.4865625 25.91429688 69.578125 25.90234375 C67.20651759 25.99217736 65.27754759 26.3882795 63 27 Z M-6 28 C-9.00255985 37.00767954 -7.80713868 49.41435393 -4 58 C-3.71769531 58.72703125 -3.43539062 59.4540625 -3.14453125 60.203125 C-0.6349433 65.39537594 2.4807289 66.93328742 7.8125 69 C9.86631429 69.69296287 11.92645472 70.36852501 14 71 C14.33 70.34 14.66 69.68 15 69 C14.69449219 68.14148438 14.38898438 67.28296875 14.07421875 66.3984375 C12.78745817 62.32759493 12.74097114 58.85649678 12.8125 54.625 C12.81314453 53.90828125 12.81378906 53.1915625 12.81445312 52.453125 C12.85416785 47.56380054 13.31703513 42.84085497 14 38 C4.78819589 31.03013232 4.78819589 31.03013232 -6 28 Z M25 28 C21.88826154 32.50222141 21.88826154 32.50222141 21.0625 37.6875 C22.07923467 40.19544552 23.16072303 42.01358087 25 44 C25.66 44 26.32 44 27 44 C30.18461989 40.17958252 30.18461989 40.17958252 30.9375 35.4375 C29.88522022 32.70157258 28.70513542 30.38718958 27 28 C26.34 28 25.68 28 25 28 Z M38 38 C38.0721875 38.58265625 38.144375 39.1653125 38.21875 39.765625 C39.43245334 50.48667116 39.32878713 60.43728694 37 71 C37.721875 70.7009375 38.44375 70.401875 39.1875 70.09375 C42 69 42 69 44.5 68.28125 C49.60235244 66.68676486 52.46146469 65.19519503 55 60.375 C59.37925541 49.8214587 59.94314186 39.17306568 58 28 C51.0539198 28 43.34405055 34.1274996 38 38 Z M18 43 C16.85013986 46.65947553 16.86685052 50.11946653 16.875 53.9375 C16.87242188 55.14277344 16.86984375 56.34804687 16.8671875 57.58984375 C16.98178199 60.53222592 17.31737461 63.14489223 18 66 C18.33 66 18.66 66 19 66 C19.20496094 65.10796875 19.40992187 64.2159375 19.62109375 63.296875 C19.89050781 62.12640625 20.15992187 60.9559375 20.4375 59.75 C20.70433594 58.58984375 20.97117187 57.4296875 21.24609375 56.234375 C22 53 22 53 22.71484375 50.78125 C23.24909582 48.64293841 23.24909582 48.64293841 21.125 45.75 C20.42375 44.8425 19.7225 43.935 19 43 C18.67 43 18.34 43 18 43 Z M31 45 C28.72328262 47.74841911 28.72328262 47.74841911 29.1875 50.5 C30.31871652 55.37293269 31.63829664 60.18693529 33 65 C33.33 65 33.66 65 34 65 C34.81862159 61.4201548 35.13520898 58.10762899 35.125 54.4375 C35.12886719 53.04337891 35.12886719 53.04337891 35.1328125 51.62109375 C35.01309964 49.25852524 34.66993233 47.25969237 34 45 C33.01 45 32.02 45 31 45 Z M25 57 C23.98740381 60.36992013 23.83444391 63.48897481 23.8125 67 C23.79832031 68.03125 23.78414063 69.0625 23.76953125 70.125 C23.99723053 72.96545203 24.53495939 74.59107948 26 77 C27.31626692 73.38026598 28 70.90432869 28 67 C27.34 67 26.68 67 26 67 C26 66.01 26 65.02 26 64 C26.66 64 27.32 64 28 64 C27.34 61.69 26.68 59.38 26 57 C25.67 57 25.34 57 25 57 Z M-10 69 C-10 69.99 -10 70.98 -10 72 C-4.59695552 77.01151951 1.95698452 79.32379172 9 81 C9 80.34 9 79.68 9 79 C7.31255101 77.51854374 7.31255101 77.51854374 5.1875 76.0625 C1.20722643 73.22773322 1.20722643 73.22773322 -0.5 71.3515625 C-2.40494967 69.63512347 -3.65965744 69.51970021 -6.1875 69.3125 C-8.0746875 69.1578125 -8.0746875 69.1578125 -10 69 Z M48 75 C47.071875 75.721875 46.14375 76.44375 45.1875 77.1875 C44.1046875 78.0846875 44.1046875 78.0846875 43 79 C43 79.66 43 80.32 43 81 C49.97502553 79.3705883 55.85144374 77.1629377 61 72 C61 71.34 61 70.68 61 70 C54.4918316 69.44846031 52.36770361 69.80597409 48 75 Z M-29.125 74.375 C-29.74503906 74.69210938 -30.36507812 75.00921875 -31.00390625 75.3359375 C-33.77968153 76.76859571 -36.39842841 78.26561894 -39 80 C-39 80.99 -39 81.98 -39 83 C-28.70449726 92.59476172 -16.1798204 98.7531728 -1.9921875 99.06640625 C5.42519533 98.75339649 13.15626423 97.17200722 18.39501953 91.48583984 C19.62592797 90.01454325 20.81622062 88.50947529 22 87 C20.96101563 86.90203125 19.92203125 86.8040625 18.8515625 86.703125 C5.91851843 85.36741972 -5.94773004 82.44406274 -15.25 72.625 C-16.87310911 70.80891703 -16.87310911 70.80891703 -19.1640625 70.6875 C-22.91227136 71.10052577 -25.84372721 72.63419844 -29.125 74.375 Z M65.4375 74.125 C54.95269042 83.89628756 42.7403429 86.12977828 29 87 C34.4980616 94.3307488 40.09283772 97.38010571 49.11328125 98.74609375 C64.55467086 100.1042674 77.99237298 93.7034478 89.6875 84.0625 C90.450625 83.381875 91.21375 82.70125 92 82 C88.82688029 78.42331643 85.30186722 76.33171246 81.0625 74.25 C80.45470703 73.93417969 79.84691406 73.61835937 79.22070312 73.29296875 C73.58784038 70.48565204 70.00171812 69.40762019 65.4375 74.125 Z " fill="#CDCCCB" transform="translate(64,41)"/>
<path d="M0 0 C3.0312845 2.70038678 5.93374562 5.52138762 8.83984375 8.35546875 C9.49726563 8.93941406 10.1546875 9.52335937 10.83203125 10.125 C24.60208041 22.65764843 33.83532592 44.28843349 34.97998047 62.59692383 C36.0676009 90.56933081 28.82938686 113.30116478 9.83984375 134.35546875 C-6.63105082 151.32131508 -29.45207698 161.02591197 -52.99291992 161.82861328 C-75.02789347 162.05047572 -95.08022059 155.47200863 -112.16015625 141.35546875 C-112.99804688 140.68 -113.8359375 140.00453125 -114.69921875 139.30859375 C-132.16644487 124.4911945 -142.54933528 104.02325085 -145.16015625 81.35546875 C-146.59592257 57.30146593 -141.15691643 32.61694706 -124.82495117 14.20800781 C-122.33865152 11.51947704 -119.76656063 8.92702815 -117.16015625 6.35546875 C-116.33515625 5.52015625 -115.51015625 4.68484375 -114.66015625 3.82421875 C-84.9022564 -24.75902716 -31.59173059 -27.14899257 0 0 Z M-115.16015625 12.35546875 C-116.3203125 13.49628906 -116.3203125 13.49628906 -117.50390625 14.66015625 C-133.86850801 31.75331905 -139.94409396 53.77881751 -139.48046875 76.9765625 C-139.15038809 84.74177944 -137.43048975 91.95117553 -135.16015625 99.35546875 C-134.88300781 100.27328125 -134.60585937 101.19109375 -134.3203125 102.13671875 C-127.07542474 122.70285174 -110.33349968 138.27770175 -91.17382812 147.67260742 C-69.88024638 157.66864765 -46.58154608 157.97386754 -24.53515625 150.16796875 C-13.27516701 145.53962962 -3.75045344 138.9314009 4.83984375 130.35546875 C5.61070312 129.59621094 6.3815625 128.83695313 7.17578125 128.0546875 C22.7473085 111.81884594 29.41551048 90.85670326 29.25683594 68.67626953 C28.61988606 45.16153141 18.14976953 24.36817631 1.13671875 8.25 C-15.53786711 -6.82585764 -37.47046292 -13.61238548 -59.7421875 -12.92578125 C-81.27817405 -11.80338456 -99.91192998 -2.64522138 -115.16015625 12.35546875 Z " fill="#CDCCCC" transform="translate(145.16015625,19.64453125)"/>
<path d="M0 0 C161.7 0 323.4 0 490 0 C490 1.32 490 2.64 490 4 C328.3 4 166.6 4 0 4 C0 2.68 0 1.36 0 0 Z " fill="#898988" transform="translate(197,128)"/>
<path d="M0 0 C1.322644 2.53682516 2.63317361 5.07877651 3.9375 7.625 C4.31068359 8.33785156 4.68386719 9.05070312 5.06835938 9.78515625 C7.14783988 13.86918102 8.53994321 17.3702221 9 22 C9.86286621 21.75552124 9.86286621 21.75552124 10.74316406 21.50610352 C12.95708107 21.00962472 14.84673797 20.88520256 17.109375 20.90234375 C17.86347656 20.90556641 18.61757812 20.90878906 19.39453125 20.91210938 C20.17183594 20.92048828 20.94914062 20.92886719 21.75 20.9375 C22.54277344 20.94201172 23.33554688 20.94652344 24.15234375 20.95117188 C26.10159508 20.96291435 28.05080738 20.98084854 30 21 C30.40126082 36.41664634 30.20854442 49.08005216 23 63 C23 64.32 23 65.64 23 67 C23.721875 67.11859375 24.44375 67.2371875 25.1875 67.359375 C32.22652625 68.96270876 38.32134713 72.54157166 43 78 C40.625 79.375 40.625 79.375 37 80 C34.29597735 78.74933561 31.93135429 77.2458446 29.46484375 75.578125 C25.42411233 72.9910323 21.86053882 71.33011805 17 72 C14.86676616 73.42726039 14.86676616 73.42726039 13 75.375 C10.13630499 78.05971407 7.85715835 79.91517421 4 81 C3.67 79.35 3.34 77.7 3 76 C3.804375 75.38125 4.60875 74.7625 5.4375 74.125 C8.03874519 72.25835959 8.03874519 72.25835959 9 70 C6.69 70 4.38 70 2 70 C5 68 5 68 7 68 C6.34 67.01 5.68 66.02 5 65 C5 64.01 5 63.02 5 62 C3.35 62.99 1.7 63.98 0 65 C0.268125 64.360625 0.53625 63.72125 0.8125 63.0625 C5.1993135 51.74913886 7.5501683 41.11329943 5 29 C-1.41249319 31.30952974 -6.55405353 33.91554014 -12 38 C-12.66 38 -13.32 38 -14 38 C-15 35 -15 35 -13.9375 32.515625 C-11.58861962 29.46586902 -9.47491185 28.36821875 -6 26.75 C-4.948125 26.24984375 -3.89625 25.7496875 -2.8125 25.234375 C0 24 0 24 3 23 C2.57152459 21.43500117 2.13175625 19.87309248 1.6875 18.3125 C1.44386719 17.44238281 1.20023438 16.57226562 0.94921875 15.67578125 C-0.05387811 12.84812138 -1.38045579 10.51777882 -3 8 C-9.58348748 11.61628185 -14.9832804 15.38526084 -20 21 C-20.66 19.68 -21.32 18.36 -22 17 C-8.1627907 0 -8.1627907 0 0 0 Z M11 27 C11.03480469 28.30453125 11.06960937 29.6090625 11.10546875 30.953125 C11.32587458 42.82209277 10.56518151 52.90462408 6 64 C12.11677535 64.93808791 12.11677535 64.93808791 17.63671875 62.78125 C24.77979964 52.50602954 25.67711906 38.03767218 25 26 C23.41676312 25.972807 21.83338938 25.95351694 20.25 25.9375 C19.36828125 25.92589844 18.4865625 25.91429688 17.578125 25.90234375 C15.20651759 25.99217736 13.27754759 26.3882795 11 27 Z " fill="#CBCAC9" transform="translate(116,41)"/>
<path d="M0 0 C20 0 20 0 28 4 C32.37803667 8.49324816 34.28446601 13.05660136 34.375 19.3125 C34.2423067 25.47444519 32.74171511 29.90273106 28.64453125 34.53125 C20.53546279 42.00985469 10.47999474 40 0 40 C0 26.8 0 13.6 0 0 Z M9 7 C9 15.58 9 24.16 9 33 C18.33857099 32.97817478 18.33857099 32.97817478 22.0625 29.5625 C25.64844778 24.81979487 25.49025274 20.81172342 25 15 C23.77532804 11.39044054 23.03924264 9.65323823 19.8125 7.625 C16.17860186 6.71075939 16.17860186 6.71075939 9 7 Z " fill="#D7D8D8" transform="translate(207,42)"/>
<path d="M0 0 C2.97 0 5.94 0 9 0 C9 5.28 9 10.56 9 16 C9.99 15.67 10.98 15.34 12 15 C14.232269 15.08617726 16.46238486 15.23922241 18.6875 15.4375 C19.86699219 15.53933594 21.04648437 15.64117187 22.26171875 15.74609375 C23.16535156 15.82988281 24.06898438 15.91367187 25 16 C24.75636719 14.92492187 24.75636719 14.92492187 24.5078125 13.828125 C24.01235328 11.06879829 23.86661931 8.54914941 23.875 5.75 C23.87113281 4.44289063 23.87113281 4.44289063 23.8671875 3.109375 C24 1 24 1 25 0 C27.64 0 30.28 0 33 0 C33 13.2 33 26.4 33 40 C30.36 40 27.72 40 25 40 C24 39 24 39 23.90234375 35.40234375 C23.9090178 33.91403133 23.92097817 32.42573568 23.9375 30.9375 C23.94201172 30.17888672 23.94652344 29.42027344 23.95117188 28.63867188 C23.9629932 26.75908129 23.98092922 24.87953101 24 23 C19.05 23 14.1 23 9 23 C9 28.61 9 34.22 9 40 C6.03 40 3.06 40 0 40 C0 26.8 0 13.6 0 0 Z " fill="#D5D5D5" transform="translate(329,42)"/>
<path d="M0 0 C0 4.29 0 8.58 0 13 C1.65 12.34 3.3 11.68 5 11 C9.49840636 10.66773135 12.35162743 11.47848293 15.875 14.3125 C20.20074489 19.783295 20.70589489 24.13652971 20 31 C18.43388602 35.22850774 16.44588393 38.09253544 13 41 C10.32356043 41.89214652 8.74615622 42.13540211 6 42.125 C4.9790625 42.12886719 4.9790625 42.12886719 3.9375 42.1328125 C2 42 2 42 -1 41 C-1.495 41.495 -1.495 41.495 -2 42 C-5 42.125 -5 42.125 -8 42 C-9 41 -9 41 -9.11352539 37.12280273 C-9.11336621 35.39305833 -9.10766849 33.66330919 -9.09765625 31.93359375 C-9.0962413 31.02497086 -9.09482635 30.11634796 -9.09336853 29.18019104 C-9.08775193 26.26592779 -9.07519665 23.35174019 -9.0625 20.4375 C-9.05748714 18.46679798 -9.05292386 16.49609476 -9.04882812 14.52539062 C-9.03777711 9.68356441 -9.02050138 4.84179505 -9 0 C-5.32211882 -1.22596039 -4.21550387 -0.84310077 0 0 Z M0 20 C-0.40394643 23.31969568 -0.40394643 23.31969568 -0.25 27.0625 C-0.23453125 28.33222656 -0.2190625 29.60195312 -0.203125 30.91015625 C-0.34946599 33.87026701 -0.34946599 33.87026701 1 35 C5.77075585 35.53475831 5.77075585 35.53475831 9.9375 33.5625 C11.53845999 29.7013612 11.6869136 26.11393309 11 22 C9.4348581 19.34845969 9.4348581 19.34845969 7 18 C2.95377498 17.63019987 2.95377498 17.63019987 0 20 Z " fill="#D4D4D4" transform="translate(516,40)"/>
<path d="M0 0 C2.64 0 5.28 0 8 0 C8 13.86 8 27.72 8 42 C5.69 42 3.38 42 1 42 C0.34 41.34 -0.32 40.68 -1 40 C-1.99 40.66 -2.98 41.32 -4 42 C-9.34704794 42.43121354 -12.66461829 42.46830537 -17 39 C-20.89055711 34.55364901 -21.41088501 30.38066818 -21.34375 24.640625 C-20.7761164 20.28016688 -18.92555568 17.22660231 -16 14 C-12.36920437 11.33741654 -9.98358228 10.8051518 -5.625 11.3125 C-3.830625 11.6528125 -3.830625 11.6528125 -2 12 C-1.90912109 10.82630859 -1.90912109 10.82630859 -1.81640625 9.62890625 C-1.73261719 8.61699219 -1.64882813 7.60507812 -1.5625 6.5625 C-1.48128906 5.55316406 -1.40007813 4.54382812 -1.31640625 3.50390625 C-1 1 -1 1 0 0 Z M-10.4375 19.375 C-12.72931523 23.22524959 -12.64976701 26.62811083 -12 31 C-11.08686892 33.63926464 -11.08686892 33.63926464 -9 35 C-5.87376745 35.31900332 -3.82883747 35.41441874 -1 34 C-1 29.05 -1 24.1 -1 19 C-7.43528362 17.35500934 -7.43528362 17.35500934 -10.4375 19.375 Z " fill="#E5E5E5" transform="translate(561,40)"/>
<path d="M0 0 C1.23556641 0.01740234 1.23556641 0.01740234 2.49609375 0.03515625 C3.32238281 0.04417969 4.14867187 0.05320313 5 0.0625 C5.63808594 0.07410156 6.27617187 0.08570313 6.93359375 0.09765625 C10.64917409 9.55036368 14.31921101 19.01957306 17.87109375 28.53515625 C18.17732666 29.34509033 18.48355957 30.15502441 18.79907227 30.98950195 C19.07936279 31.74577881 19.35965332 32.50205566 19.6484375 33.28125 C19.897146 33.94697021 20.14585449 34.61269043 20.40209961 35.29858398 C20.93359375 37.09765625 20.93359375 37.09765625 20.93359375 40.09765625 C18.29359375 40.09765625 15.65359375 40.09765625 12.93359375 40.09765625 C12.26204442 38.80852138 11.59650516 37.51625421 10.93359375 36.22265625 C10.56234375 35.50335938 10.19109375 34.7840625 9.80859375 34.04296875 C8.93359375 32.09765625 8.93359375 32.09765625 8.93359375 30.09765625 C4.31359375 30.09765625 -0.30640625 30.09765625 -5.06640625 30.09765625 C-6.05640625 33.39765625 -7.04640625 36.69765625 -8.06640625 40.09765625 C-10.70640625 40.09765625 -13.34640625 40.09765625 -16.06640625 40.09765625 C-15.49577998 34.90411799 -14.25758435 30.3323676 -12.37890625 25.44921875 C-12.11634033 24.75122162 -11.85377441 24.05322449 -11.58325195 23.33407593 C-11.03184109 21.87232505 -10.47702429 20.41185481 -9.91894531 18.95263672 C-9.06189979 16.71086875 -8.21566909 14.46524211 -7.37109375 12.21875 C-6.83265144 10.79533816 -6.29361051 9.37215259 -5.75390625 7.94921875 C-5.49971924 7.27637848 -5.24553223 6.60353821 -4.98364258 5.91030884 C-2.76771662 0.13079946 -2.76771662 0.13079946 0 0 Z M1.93359375 10.09765625 C1.0981266 12.07592311 0.2652743 14.05529449 -0.56640625 16.03515625 C-1.03046875 17.13730469 -1.49453125 18.23945312 -1.97265625 19.375 C-3.12853416 21.76328794 -3.12853416 21.76328794 -3.06640625 23.09765625 C0.23359375 23.09765625 3.53359375 23.09765625 6.93359375 23.09765625 C5.61359375 18.80765625 4.29359375 14.51765625 2.93359375 10.09765625 C2.60359375 10.09765625 2.27359375 10.09765625 1.93359375 10.09765625 Z " fill="#D7D7D6" transform="translate(483.06640625,41.90234375)"/>
<path d="M0 0 C2.89980326 1.84532934 4.08062034 2.7785042 5.75 5.75 C6.22798315 8.63942296 6.3067069 11.51309189 6.375 14.4375 C6.07773108 19.4954646 6.07773108 19.4954646 7.75 23.75 C7.875 26.25 7.875 26.25 7.75 28.75 C7.42 29.08 7.09 29.41 6.75 29.75 C4.41253478 29.44699525 2.07914823 29.11141955 -0.25 28.75 C-3.30270463 28.59188612 -3.30270463 28.59188612 -6.25 29.75 C-13.19677871 30.31022409 -13.19677871 30.31022409 -17.1875 28.1875 C-19.93376349 24.94191588 -20.32305303 22.98707546 -20.25 18.75 C-18.81942496 14.69670407 -18.81942496 14.69670407 -16.25 12.75 C-12.00040177 11.05540712 -7.68944022 9.84061393 -3.25 8.75 C-3.58 8.09 -3.91 7.43 -4.25 6.75 C-8.43524749 6.66793632 -12.16081136 6.90810822 -16.25 7.75 C-17.25 6.75 -17.25 6.75 -17.3125 4.1875 C-17.291875 3.383125 -17.27125 2.57875 -17.25 1.75 C-11.19597 -1.21523918 -6.59677521 -2.53722124 0 0 Z M-11.25 17.75 C-11.25 19.4 -11.25 21.05 -11.25 22.75 C-8.94 22.75 -6.63 22.75 -4.25 22.75 C-3.92 20.44 -3.59 18.13 -3.25 15.75 C-7.01687864 15.75 -8.16190305 15.98537317 -11.25 17.75 Z " fill="#D3D2D1" transform="translate(594.25,52.25)"/>
<path d="M0 0 C1.322644 2.53682516 2.63317361 5.07877651 3.9375 7.625 C4.31068359 8.33785156 4.68386719 9.05070312 5.06835938 9.78515625 C7.14783988 13.86918102 8.53994321 17.3702221 9 22 C10.32 22.33 11.64 22.66 13 23 C12.01 23.66 11.02 24.32 10 25 C11.65 25.33 13.3 25.66 15 26 C13.68 26.33 12.36 26.66 11 27 C11.15984375 27.67933594 11.3196875 28.35867187 11.484375 29.05859375 C13.50527522 40.58691092 12.23792415 52.5241517 7 63 C9.97 63.33 12.94 63.66 16 64 C16 64.33 16 64.66 16 65 C12.37 65 8.74 65 5 65 C5 64.01 5 63.02 5 62 C3.35 62.99 1.7 63.98 0 65 C0.268125 64.360625 0.53625 63.72125 0.8125 63.0625 C5.1993135 51.74913886 7.5501683 41.11329943 5 29 C-1.41249319 31.30952974 -6.55405353 33.91554014 -12 38 C-12.66 38 -13.32 38 -14 38 C-15 35 -15 35 -13.9375 32.515625 C-11.58861962 29.46586902 -9.47491185 28.36821875 -6 26.75 C-4.948125 26.24984375 -3.89625 25.7496875 -2.8125 25.234375 C0 24 0 24 3 23 C2.57152459 21.43500117 2.13175625 19.87309248 1.6875 18.3125 C1.44386719 17.44238281 1.20023438 16.57226562 0.94921875 15.67578125 C-0.05387811 12.84812138 -1.38045579 10.51777882 -3 8 C-9.58348748 11.61628185 -14.9832804 15.38526084 -20 21 C-20.66 19.68 -21.32 18.36 -22 17 C-8.1627907 0 -8.1627907 0 0 0 Z " fill="#C5C3C1" transform="translate(116,41)"/>
<path d="M0 0 C2.70552388 2.19823815 4.44778333 3.89556667 6 7 C6.20794697 9.81594854 6.37426834 12.61785111 6.5 15.4375 C6.70132605 21.30264963 6.70132605 21.30264963 8 27 C7.34 27.99 6.68 28.98 6 30 C5.071875 29.835 4.14375 29.67 3.1875 29.5 C-0.41909959 28.93425889 -2.52361729 28.84120576 -6 30 C-12.94677871 30.56022409 -12.94677871 30.56022409 -16.9375 28.4375 C-19.68376349 25.19191588 -20.07305303 23.23707546 -20 19 C-18.52726169 15.35321942 -17.2584971 13.54699384 -13.609375 11.9609375 C-9.98631812 10.82740801 -6.80819 10 -3 10 C-3 9.01 -3 8.02 -3 7 C-7.8333472 6.91666643 -12.23692563 7.04738513 -17 8 C-17 5.69 -17 3.38 -17 1 C-11.16946936 -0.80216402 -5.97129998 -1.79707695 0 0 Z M-11 18 C-11.33 18.99 -11.66 19.98 -12 21 C-10.8354799 22.66621425 -10.8354799 22.66621425 -9 24 C-5.68181015 23.75794651 -5.68181015 23.75794651 -3 22 C-2.95919217 20.00041636 -2.95745644 17.99954746 -3 16 C-6.73585209 16 -8.01540871 16.04457812 -11 18 Z " fill="#D9D8D7" transform="translate(388,52)"/>
<path d="M0 0 C3.75317157 3.87045818 3.116435 7.57612184 3.0625 12.6875 C3.05798828 13.48929688 3.05347656 14.29109375 3.04882812 15.1171875 C3.03703168 17.09899006 3.01909605 19.08075433 3 21.0625 C3.66 21.0625 4.32 21.0625 5 21.0625 C5 23.3725 5 25.6825 5 28.0625 C1.05272412 28.24192163 -1.5980513 28.15600689 -5 26.0625 C-5.99 26.7225 -6.98 27.3825 -8 28.0625 C-12.69760034 28.89821542 -16.03875324 28.69025298 -20.0625 26.0625 C-22.19991591 22.75295278 -22.81667157 20.86750271 -22.5390625 16.98828125 C-21.7770889 14.26615816 -20.20771501 12.70799435 -17.93359375 11.09375 C-14.45737196 9.23976505 -10.7894261 8.09827647 -7 7.0625 C-7.33 6.0725 -7.66 5.0825 -8 4.0625 C-8.78246094 4.21847656 -9.56492187 4.37445313 -10.37109375 4.53515625 C-11.88896484 4.82712891 -11.88896484 4.82712891 -13.4375 5.125 C-14.44683594 5.32222656 -15.45617187 5.51945312 -16.49609375 5.72265625 C-17.32238281 5.83480469 -18.14867187 5.94695313 -19 6.0625 C-20 5.0625 -20 5.0625 -20.25 2.625 C-20.1675 1.779375 -20.085 0.93375 -20 0.0625 C-13.87025179 -4.0239988 -6.18948064 -3.99737291 0 0 Z M-14 17.0625 C-13.73323796 19.04741642 -13.73323796 19.04741642 -13 21.0625 C-9.37673261 22.2702558 -8.35853631 21.60561128 -5 20.0625 C-5 18.0825 -5 16.1025 -5 14.0625 C-9.09590633 13.72117447 -10.92807025 14.33189578 -14 17.0625 Z " fill="#D5D4D4" transform="translate(662,53.9375)"/>
<path d="M0 0 C2.85506249 2.57837806 4.67423988 4.27547078 5.39379883 8.0847168 C5.49101677 10.36896168 5.43823429 12.59243905 5.3125 14.875 C5.28994141 15.65875 5.26738281 16.4425 5.24414062 17.25 C5.18568018 19.1675026 5.09601283 21.0840106 5 23 C5.66 23 6.32 23 7 23 C7.04254356 24.99954746 7.04080783 27.00041636 7 29 C6 30 6 30 3.6875 30.1875 C0.9220797 29.9945637 -0.64045051 29.39825155 -3 28 C-3.99 28.66 -4.98 29.32 -6 30 C-14.52267487 30.54112221 -14.52267487 30.54112221 -18 28 C-20.4915904 24.2626144 -20.45793285 22.42668417 -20 18 C-17.91123177 14.00409556 -15.61623222 12.64547352 -11.5 11.1875 C-8.37675673 10.21950851 -6.36821268 10 -3 10 C-3.66 9.01 -4.32 8.02 -5 7 C-10.94 7.495 -10.94 7.495 -17 8 C-17.33 6.02 -17.66 4.04 -18 2 C-12.09768149 -0.73255487 -6.33393827 -2.4075165 0 0 Z M-12 19 C-11.67 20.32 -11.34 21.64 -11 23 C-8.66705225 23.04241723 -6.33297433 23.04092937 -4 23 C-2.64381501 21.87465895 -2.64381501 21.87465895 -2.9375 18.9375 C-2.958125 17.968125 -2.97875 16.99875 -3 16 C-7.27709699 16 -8.55930376 16.70620251 -12 19 Z " fill="#D7D7D6" transform="translate(287,52)"/>
<path d="M0 0 C0.66 0.33 1.32 0.66 2 1 C1.175 1.721875 0.35 2.44375 -0.5 3.1875 C-3.24407806 5.72917366 -3.24407806 5.72917366 -3.3125 8.8125 C-3.209375 9.534375 -3.10625 10.25625 -3 11 C-2.43667969 11.26039062 -1.87335937 11.52078125 -1.29296875 11.7890625 C1.22533574 13.11900184 3.39605062 14.68500996 5.6875 16.375 C16.24502759 23.79922627 27.1079945 27.02344606 40.0703125 25.609375 C46.91426839 24.18583217 52.83052866 20.65252421 58 16 C58.99 18.475 58.99 18.475 60 21 C50.62636322 29.88669461 42.69069009 32.40843622 29.7578125 32.2734375 C12.98832175 31.05320428 0.52623903 21.30143649 -11 10 C-7.69178519 5.64515971 -4.49784927 3.02739855 0 0 Z " fill="#C9C7C7" transform="translate(28,113)"/>
<path d="M0 0 C0.99 0.495 0.99 0.495 2 1 C1.525625 1.391875 1.05125 1.78375 0.5625 2.1875 C-1.20360169 3.91333911 -1.20360169 3.91333911 -1.375 6.40625 C-2.55814844 11.31631602 -6.92528536 13.40796948 -11 16 C-22.88682607 22.80814414 -35.95755713 29.11723303 -49.88671875 29.1328125 C-50.98951172 29.13410156 -52.09230469 29.13539063 -53.22851562 29.13671875 C-54.36998047 29.13285156 -55.51144531 29.12898438 -56.6875 29.125 C-57.84056641 29.12886719 -58.99363281 29.13273437 -60.18164062 29.13671875 C-61.28056641 29.13542969 -62.37949219 29.13414062 -63.51171875 29.1328125 C-64.51678467 29.13168457 -65.52185059 29.13055664 -66.55737305 29.12939453 C-69 29 -69 29 -71 28 C-70.505 26.515 -70.505 26.515 -70 25 C-68.63294922 24.97873047 -68.63294922 24.97873047 -67.23828125 24.95703125 C-46.35637133 24.18824452 -27.39512466 18.64114774 -10 7 C-7.85955003 5.66963876 -5.71088841 4.3540339 -3.55859375 3.04296875 C-1.82923553 1.95884646 -1.82923553 1.95884646 0 0 Z " fill="#D9D9DA" transform="translate(150,151)"/>
<path d="M0 0 C2.64 0 5.28 0 8 0 C9.77230288 5.31690863 9.0170969 11.06440938 8.86791992 16.62353516 C8.81287557 18.8597422 8.78419365 21.09534844 8.75585938 23.33203125 C8.72038762 24.76045827 8.68332969 26.18884696 8.64453125 27.6171875 C8.61721924 28.91253418 8.58990723 30.20788086 8.56176758 31.54248047 C7.91813622 35.50384824 6.79856962 37.17947182 4 40 C1.59454362 41.20272819 0.05003047 41.10071472 -2.625 41.0625 C-3.85089844 41.04896484 -3.85089844 41.04896484 -5.1015625 41.03515625 C-5.72804688 41.02355469 -6.35453125 41.01195312 -7 41 C-8.33332095 38.3333581 -7.67102033 36.83319697 -7 34 C-5.02 33.34 -3.04 32.68 -1 32 C-0.67 21.44 -0.34 10.88 0 0 Z " fill="#DDDDDC" transform="translate(402,52)"/>
<path d="M0 0 C2.64 0 5.28 0 8 0 C8 11.88 8 23.76 8 36 C9.32 36 10.64 36 12 36 C12.04254356 37.99954746 12.04080783 40.00041636 12 42 C11 43 11 43 7.6875 43.25 C2.53916074 42.90096005 2.53916074 42.90096005 0 40 C-0.5682639 36.9860888 -0.46406043 34.01418408 -0.390625 30.95703125 C-0.38496521 30.0734343 -0.37930542 29.18983734 -0.37347412 28.27946472 C-0.35107867 25.45659257 -0.30087727 22.63498862 -0.25 19.8125 C-0.22993906 17.89910687 -0.21168758 15.98569385 -0.1953125 14.07226562 C-0.15120357 9.38102158 -0.08215485 4.69072582 0 0 Z " fill="#DBDBDB" transform="translate(625,39)"/>
<path d="M0 0 C3.41789334 0.59737516 5.16400655 1.79199775 7.75 4.0625 C24.57434812 17.51090985 44.10083532 20.68225182 65 22 C65 22.33 65 22.66 65 23 C63.85660156 23.04898438 62.71320313 23.09796875 61.53515625 23.1484375 C60.04424527 23.22345189 58.55336108 23.29900028 57.0625 23.375 C55.93038086 23.42140625 55.93038086 23.42140625 54.77539062 23.46875 C52.84492605 23.5726315 50.92057919 23.77895614 49 24 C48.67 24.66 48.34 25.32 48 26 C54.93 26.33 61.86 26.66 69 27 C69 27.33 69 27.66 69 28 C43.92638155 28.89018764 21.6844468 24.64262287 2 8 C0.64952351 6.68403313 -0.68935041 5.35563756 -2 4 C-1.34 2.68 -0.68 1.36 0 0 Z " fill="#C2C2C2" transform="translate(31,153)"/>
<path d="M0 0 C3 0.125 3 0.125 4 1.125 C4.15988491 3.64380517 4.25934225 6.13842266 4.31640625 8.66015625 C4.33718735 9.41340683 4.35796844 10.16665741 4.37937927 10.94273376 C4.44495425 13.3575599 4.50379621 15.77249798 4.5625 18.1875 C4.6056777 19.82097529 4.64929173 21.4544391 4.69335938 23.08789062 C4.80064362 27.10014464 4.90188821 31.11251164 5 35.125 C5.99 35.455 6.98 35.785 8 36.125 C8.04254356 38.12454746 8.04080783 40.12541636 8 42.125 C7 43.125 7 43.125 3.6875 43.4375 C0 43.125 0 43.125 -2.20385742 41.6472168 C-4.76271399 38.05396585 -4.51782515 34.7018249 -4.42578125 30.45703125 C-4.42249313 29.62161301 -4.41920502 28.78619476 -4.41581726 27.92546082 C-4.40541297 26.16450174 -4.38549097 24.40357654 -4.35668945 22.64282227 C-4.31248892 19.93682183 -4.29523557 17.23170788 -4.28320312 14.52539062 C-4.26978426 12.81509126 -4.25486273 11.10480288 -4.23828125 9.39453125 C-4.23089432 8.58103714 -4.22350739 7.76754303 -4.21589661 6.92939758 C-4.09989292 0.17082887 -4.09989292 0.17082887 0 0 Z " fill="#D8D8D8" transform="translate(612,38.875)"/>
<path d="M0 0 C1.08174162 3.36541838 0.92538169 4.29847322 0 8 C-2.64 8.66 -5.28 9.32 -8 10 C-8.02505615 10.60062256 -8.0501123 11.20124512 -8.07592773 11.82006836 C-8.1915528 14.52611437 -8.31442936 17.23178283 -8.4375 19.9375 C-8.49647461 21.35579102 -8.49647461 21.35579102 -8.55664062 22.80273438 C-8.59853516 23.70185547 -8.64042969 24.60097656 -8.68359375 25.52734375 C-8.73858032 26.77632446 -8.73858032 26.77632446 -8.79467773 28.05053711 C-9 30 -9 30 -10 31 C-12.64 31 -15.28 31 -18 31 C-18 21.1 -18 11.2 -18 1 C-15.69 1 -13.38 1 -11 1 C-10.67 1.66 -10.34 2.32 -10 3 C-8.9171875 2.2575 -8.9171875 2.2575 -7.8125 1.5 C-4.85151341 -0.07919285 -3.28746971 -0.28178312 0 0 Z " fill="#CFCECE" transform="translate(265,51)"/>
<path d="M0 0 C-0.33 2.31 -0.66 4.62 -1 7 C-2.11375 7.103125 -3.2275 7.20625 -4.375 7.3125 C-5.57125 7.539375 -6.7675 7.76625 -8 8 C-10.05127844 11.07691766 -10.27260872 11.93644999 -10.4140625 15.44921875 C-10.47207031 16.72055664 -10.47207031 16.72055664 -10.53125 18.01757812 C-10.57765625 19.33918945 -10.57765625 19.33918945 -10.625 20.6875 C-10.68300781 22.02651367 -10.68300781 22.02651367 -10.7421875 23.39257812 C-10.83640218 25.5948462 -10.92201588 27.79710722 -11 30 C-13.64 30 -16.28 30 -19 30 C-19 20.1 -19 10.2 -19 0 C-16.69 0 -14.38 0 -12 0 C-12 0.66 -12 1.32 -12 2 C-11.13375 1.484375 -10.2675 0.96875 -9.375 0.4375 C-5.60596507 -1.16782969 -3.89114901 -1.01911045 0 0 Z " fill="#D9D9D9" transform="translate(453,52)"/>
<path d="M0 0 C7.244298 2.13766171 13.46718285 5.22684019 20 9 C20.62390625 8.37609375 21.2478125 7.7521875 21.890625 7.109375 C23.59375 5.40625 25.296875 3.703125 27 2 C27 2.66 27 3.32 27 4 C28.65 4 30.3 4 32 4 C31.62746094 4.51949219 31.25492188 5.03898437 30.87109375 5.57421875 C27.8253486 9.8186257 27.8253486 9.8186257 27.125 14.8125 C27.41375 15.534375 27.7025 16.25625 28 17 C28.33 17.99 28.66 18.98 29 20 C28.01 20 27.02 20 26 20 C25.67 20.99 25.34 21.98 25 23 C24.67 22.67 24.34 22.34 24 22 C23.34 22.66 22.68 23.32 22 24 C22 22.35 22 20.7 22 19 C21.01 19 20.02 19 19 19 C18.67 19.99 18.34 20.98 18 22 C18.309375 20.453125 18.309375 20.453125 18.625 18.875 C18.42659292 15.01271996 18.42659292 15.01271996 16.08984375 13.33984375 C10.65272367 10.05404166 4.87206879 7.41123597 -1 5 C-1.33 5.99 -1.66 6.98 -2 8 C-2 6.68 -2 5.36 -2 4 C-1.34 4 -0.68 4 0 4 C0 2.68 0 1.36 0 0 Z " fill="#C8C6C4" transform="translate(59,64)"/>
<path d="M0 0 C2.64 0 5.28 0 8 0 C8 9.9 8 19.8 8 30 C5.36 30 2.72 30 0 30 C0 20.1 0 10.2 0 0 Z " fill="#DCDCDC" transform="translate(418,52)"/>
<path d="M0 0 C3.43203219 0.8517906 5.0647359 2.79004399 7.15625 5.53515625 C8.76490775 8.75247176 8.62321133 12.04591745 8.15625 15.53515625 C6.41578803 19.01608018 5.11334417 20.95586241 1.78125 22.97265625 C-1.59683139 23.69653083 -3.54734204 23.6339589 -6.84375 22.53515625 C-10.04062989 19.82475808 -11.50408462 18.22526542 -12.328125 14.125 C-12.55644691 9.92007146 -12.31619947 6.45370564 -9.90625 2.91015625 C-6.32654503 0.13405852 -4.42798707 -0.28781916 0 0 Z M-6.65625 4.59765625 C-8.46418217 7.54744032 -8.66645308 10.10741577 -8.84375 13.53515625 C-8.16381573 16.36591173 -8.16381573 16.36591173 -6.84375 18.53515625 C-4.01491253 19.94957499 -1.96998255 19.85415957 1.15625 19.53515625 C3.37067221 17.76361848 4.02519101 16.42344494 4.4375 13.62890625 C4.58419999 10.35260657 4.38658977 8.04702242 3.03125 5.03515625 C1.1576921 3.27725573 1.1576921 3.27725573 -1.84375 3.09765625 C-4.75433435 3.33015249 -4.75433435 3.33015249 -6.65625 4.59765625 Z " fill="#AEAEAC" transform="translate(488.84375,95.46484375)"/>
<path d="M0 0 C0.99 0 1.98 0 3 0 C3 4.62 3 9.24 3 14 C4.65 13.67 6.3 13.34 8 13 C8.66 13.33 9.32 13.66 10 14 C10.19335938 13.32453125 10.38671875 12.6490625 10.5859375 11.953125 C10.84632813 11.06109375 11.10671875 10.1690625 11.375 9.25 C11.63023437 8.36828125 11.88546875 7.4865625 12.1484375 6.578125 C12.9209934 4.23919428 13.83625676 2.16557438 15 0 C15.99 0 16.98 0 18 0 C18.84161854 2.08000011 19.67300763 4.16414146 20.5 6.25 C20.9640625 7.41015625 21.428125 8.5703125 21.90625 9.765625 C23 13 23 13 23 17 C22.01 16.67 21.02 16.34 20 16 C19.3125 13.9375 19.3125 13.9375 19 12 C16.55519921 12.18828772 16.55519921 12.18828772 14 13 C12.81531734 14.99386866 12.81531734 14.99386866 12 17 C10.20841511 17.02696365 8.41671527 17.04637917 6.625 17.0625 C5.62726563 17.07410156 4.62953125 17.08570313 3.6015625 17.09765625 C1 17 1 17 -1 16 C-1.02685095 13.52076199 -1.04676547 11.0418116 -1.0625 8.5625 C-1.07506836 7.50192383 -1.07506836 7.50192383 -1.08789062 6.41992188 C-1.09653588 4.61306441 -1.05220011 2.80612397 -1 1 C-0.67 0.67 -0.34 0.34 0 0 Z M15 7 C15 7.66 15 8.32 15 9 C15.99 8.67 16.98 8.34 18 8 C17.01 7.67 16.02 7.34 15 7 Z " fill="#918F8D" transform="translate(436,140)"/>
<path d="M0 0 C0 7.59 0 15.18 0 23 C-1.32 23.33 -2.64 23.66 -4 24 C-4 21.36 -4 18.72 -4 16 C-4.886875 16.268125 -5.77375 16.53625 -6.6875 16.8125 C-10 17 -10 17 -12.875 15.0625 C-15.21641922 11.68810171 -15.7734341 9.95561923 -15.46875 5.94140625 C-13.37826025 -2.71670548 -7.86011606 -0.78601161 0 0 Z M-11 4 C-11.16053815 5.87321948 -11.16053815 5.87321948 -11.125 8 C-11.12757813 8.721875 -11.13015625 9.44375 -11.1328125 10.1875 C-11.19695276 12.02089415 -11.19695276 12.02089415 -10 13 C-7.5 13.16666667 -7.5 13.16666667 -5 13 C-3.76732652 11.99163938 -3.76732652 11.99163938 -3.90234375 9.93359375 C-3.91394531 9.10988281 -3.92554688 8.28617188 -3.9375 7.4375 C-3.94652344 6.61121094 -3.95554687 5.78492187 -3.96484375 4.93359375 C-3.97644531 4.29550781 -3.98804688 3.65742187 -4 3 C-7.80621045 2.56152641 -7.80621045 2.56152641 -11 4 Z " fill="#A4A3A2" transform="translate(377,102)"/>
<path d="M0 0 C1.32 0 2.64 0 4 0 C5.32 2.97 6.64 5.94 8 9 C9.32 6.03 10.64 3.06 12 0 C13.32 0 14.64 0 16 0 C16 5.28 16 10.56 16 16 C14.68 16 13.36 16 12 16 C11.67 14.68 11.34 13.36 11 12 C10.34 13.32 9.68 14.64 9 16 C8.01 15.67 7.02 15.34 6 15 C4.8125 12.4375 4.8125 12.4375 4 10 C3.67 12.31 3.34 14.62 3 17 C2.01 16.67 1.02 16.34 0 16 C0 10.72 0 5.44 0 0 Z " fill="#83817F" transform="translate(602,140)"/>
<path d="M0 0 C1.32 0 2.64 0 4 0 C5.32 2.97 6.64 5.94 8 9 C8.33 7.35 8.66 5.7 9 4 C9.66 4 10.32 4 11 4 C11.33 2.68 11.66 1.36 12 0 C13.32 0.33 14.64 0.66 16 1 C16 5.95 16 10.9 16 16 C14.68 16 13.36 16 12 16 C12 14.68 12 13.36 12 12 C11.34 12 10.68 12 10 12 C9.67 13.32 9.34 14.64 9 16 C8.01 16 7.02 16 6 16 C5.34 14.35 4.68 12.7 4 11 C3.67 12.65 3.34 14.3 3 16 C2.01 16 1.02 16 0 16 C0 10.72 0 5.44 0 0 Z M11 9 C12 11 12 11 12 11 Z " fill="#A2A09F" transform="translate(505,140)"/>
<path d="M0 0 C1.32 0 2.64 0 4 0 C5.32 2.97 6.64 5.94 8 9 C9.32 6.03 10.64 3.06 12 0 C13.32 0 14.64 0 16 0 C16 5.28 16 10.56 16 16 C14.68 16 13.36 16 12 16 C11.67 14.68 11.34 13.36 11 12 C10.34 13.32 9.68 14.64 9 16 C8.01 15.67 7.02 15.34 6 15 C4.8125 12.4375 4.8125 12.4375 4 10 C3.34 12.31 2.68 14.62 2 17 C1.34 16.67 0.68 16.34 0 16 C0 10.72 0 5.44 0 0 Z " fill="#9C9B9B" transform="translate(274,140)"/>
<path d="M0 0 C11 0 11 0 13.6875 1.625 C15.41943247 4.75897304 15.6612339 6.4734192 15 10 C12.26513033 13.05661905 10.79836847 13.93974578 6.6875 14.25 C5.800625 14.1675 4.91375 14.085 4 14 C4 16.64 4 19.28 4 22 C2.68 22 1.36 22 0 22 C0 14.74 0 7.48 0 0 Z M4 3 C4 5.31 4 7.62 4 10 C5.99954746 10.04254356 8.00041636 10.04080783 10 10 C11.29633621 8.93354885 11.29633621 8.93354885 11.0625 6.4375 C11.041875 5.633125 11.02125 4.82875 11 4 C8.69 3.67 6.38 3.34 4 3 Z " fill="#B7B7B7" transform="translate(323,96)"/>
<path d="M0 0 C0.33 0 0.66 0 1 0 C1.02578125 0.99257812 1.0515625 1.98515625 1.078125 3.0078125 C1.54507312 15.53008905 3.80688807 26.94087156 10 38 C9.34 38.99 8.68 39.98 8 41 C6.02 40.67 4.04 40.34 2 40 C2.32206421 39.1493396 2.32206421 39.1493396 2.65063477 38.28149414 C3.11848131 35.22626988 2.18152552 34.10775673 0.58984375 31.49609375 C-2.52772687 25.61598219 -2.65286289 20.61206547 -2.4375 14.0625 C-2.43169922 13.03576172 -2.42589844 12.00902344 -2.41992188 10.95117188 C-2.296875 3.4453125 -2.296875 3.4453125 0 0 Z " fill="#DFDDDA" transform="translate(55,69)"/>
<path d="M0 0 C0.680625 0.4125 1.36125 0.825 2.0625 1.25 C1.7325 2.24 1.4025 3.23 1.0625 4.25 C-0.9175 4.25 -2.8975 4.25 -4.9375 4.25 C-4.9375 6.89 -4.9375 9.53 -4.9375 12.25 C-2.04515685 13.07638376 -0.05007569 13.25 3.0625 13.25 C3.7225 8.96 4.3825 4.67 5.0625 0.25 C6.0525 0.25 7.0425 0.25 8.0625 0.25 C8.0625 5.53 8.0625 10.81 8.0625 16.25 C6.7425 16.25 5.4225 16.25 4.0625 16.25 C2.58270327 16.51736935 1.10354905 16.78831499 -0.375 17.0625 C-4.01656893 17.46511571 -4.7119507 17.38809141 -8 15.375 C-10.57812965 11.21672637 -10.40452927 8.01369856 -9.9375 3.25 C-3.66057692 -0.93461538 -3.66057692 -0.93461538 0 0 Z " fill="#6D6D6B" transform="translate(411.9375,139.75)"/>
<path d="M0 0 C1.9375 1.5625 1.9375 1.5625 3 4 C3.14557024 6.02550595 3.12658027 7.97303007 3.0078125 10 C2.99939027 12.1560921 3.40118285 13.93638397 4 16 C2.41870971 16.22331199 0.83478911 16.42804644 -0.75 16.625 C-2.07257813 16.79902344 -2.07257813 16.79902344 -3.421875 16.9765625 C-6.26940885 17.00244917 -7.65549151 16.58412736 -10 15 C-11 12.625 -11 12.625 -11 10 C-9.4375 7.6875 -9.4375 7.6875 -7 6 C-3.75 5.75 -3.75 5.75 -1 6 C-1 5.01 -1 4.02 -1 3 C-5.455 3.495 -5.455 3.495 -10 4 C-9.67 2.68 -9.34 1.36 -9 0 C-5.8168485 -1.59157575 -3.38676935 -0.77242108 0 0 Z M-6 9 C-6.33 10.32 -6.66 11.64 -7 13 C-5.35 13 -3.7 13 -2 13 C-1.67 11.68 -1.34 10.36 -1 9 C-2.65 9 -4.3 9 -6 9 Z " fill="#BDBBB9" transform="translate(428,102)"/>
<path d="M0 0 C1.64453125 1.12890625 1.64453125 1.12890625 3 3 C3.51171875 6.13671875 3.51171875 6.13671875 3.6875 9.6875 C3.78611328 11.45673828 3.78611328 11.45673828 3.88671875 13.26171875 C3.92410156 14.16535156 3.96148437 15.06898437 4 16 C0.64141186 16.65867457 -2.57256278 17.1465164 -6 17 C-9.125 14.5625 -9.125 14.5625 -11 12 C-8.125 7.125 -8.125 7.125 -7 6 C-5.00041636 5.95919217 -2.99954746 5.95745644 -1 6 C-1 5.01 -1 4.02 -1 3 C-3.97 3 -6.94 3 -10 3 C-9.67 2.01 -9.34 1.02 -9 0 C-5.45026831 -1.1832439 -3.60040463 -0.90010116 0 0 Z M-6 9 C-6.33 10.32 -6.66 11.64 -7 13 C-5.02 13 -3.04 13 -1 13 C-1 11.68 -1 10.36 -1 9 C-2.65 9 -4.3 9 -6 9 Z " fill="#8F8F8E" transform="translate(463,102)"/>
<path d="M0 0 C3.08623467 0.83585522 4.2302492 1.20444619 6 3.8125 C6.75 6.4375 6.75 6.4375 7 8.8125 C5.41727399 10.39522601 3.61965997 10.15985747 1.4375 10.375 C0.61121094 10.45878906 -0.21507812 10.54257813 -1.06640625 10.62890625 C-1.70449219 10.68949219 -2.34257813 10.75007813 -3 10.8125 C-3 11.4725 -3 12.1325 -3 12.8125 C-0.36 13.1425 2.28 13.4725 5 13.8125 C4.67 14.8025 4.34 15.7925 4 16.8125 C0.60205485 17.68174178 -1.41553717 18.02503194 -4.75 16.8125 C-7.8803664 14.02995209 -8.44131253 11.9328201 -9 7.8125 C-7.27780637 3.00848618 -5.57640193 -0.34852512 0 0 Z M-4 3.8125 C-4.33 4.8025 -4.66 5.7925 -5 6.8125 C-2.36 6.8125 0.28 6.8125 3 6.8125 C2.67 5.8225 2.34 4.8325 2 3.8125 C0.02 3.8125 -1.96 3.8125 -4 3.8125 Z " fill="#858382" transform="translate(560,101.1875)"/>
<path d="M0 0 C0.77988281 -0.03738281 1.55976563 -0.07476562 2.36328125 -0.11328125 C5.65660918 0.49003429 6.74796936 1.60771237 8.6875 4.3125 C9.078125 7.546875 9.078125 7.546875 8.9375 11.0625 C8.90140625 12.23296875 8.8653125 13.4034375 8.828125 14.609375 C8.75851562 15.94742188 8.75851562 15.94742188 8.6875 17.3125 C7.3675 16.9825 6.0475 16.6525 4.6875 16.3125 C4.6875 12.3525 4.6875 8.3925 4.6875 4.3125 C3.0375 4.6425 1.3875 4.9725 -0.3125 5.3125 C-0.6425 9.2725 -0.9725 13.2325 -1.3125 17.3125 C-2.6325 17.3125 -3.9525 17.3125 -5.3125 17.3125 C-5.33934679 14.66659986 -5.35926357 12.02096904 -5.375 9.375 C-5.38337891 8.62025391 -5.39175781 7.86550781 -5.40039062 7.08789062 C-5.40902441 5.16255687 -5.36474333 3.23714419 -5.3125 1.3125 C-3.74308802 -0.25691198 -2.17115006 0.0675153 0 0 Z " fill="#908F8E" transform="translate(505.3125,100.6875)"/>
<path d="M0 0 C4 1 4 1 5.265625 2.62890625 C6.17708333 4.41927083 7.08854167 6.20963542 8 8 C9.41577477 6.81575674 9.41577477 6.81575674 9.0625 3.4375 C9.041875 2.303125 9.02125 1.16875 9 0 C10.32 0.33 11.64 0.66 13 1 C13 5.95 13 10.9 13 16 C11.68 16 10.36 16 9 16 C7.515625 14.25 7.515625 14.25 6.25 12 C5.82203125 11.2575 5.3940625 10.515 4.953125 9.75 C4.48132813 8.88375 4.48132813 8.88375 4 8 C3.67 10.64 3.34 13.28 3 16 C2.01 16 1.02 16 0 16 C0 10.72 0 5.44 0 0 Z M9 9 C10 11 10 11 10 11 Z " fill="#A09E9D" transform="translate(633,140)"/>
<path d="M0 0 C4.97800028 1.24450007 5.3746324 2.79941184 8 7 C8.66 7.33 9.32 7.66 10 8 C10 5.36 10 2.72 10 0 C10.99 0 11.98 0 13 0 C13 5.61 13 11.22 13 17 C11.68 16.67 10.36 16.34 9 16 C7.9375 14.125 7.9375 14.125 7 12 C5.4587688 10.29078411 5.4587688 10.29078411 4 9 C3.67 11.31 3.34 13.62 3 16 C2.01 16 1.02 16 0 16 C0 10.72 0 5.44 0 0 Z " fill="#8C8B89" transform="translate(233,140)"/>
<path d="M0 0 C1.32 0 2.64 0 4 0 C4.28875 0.61875 4.5775 1.2375 4.875 1.875 C5.93720042 4.13325765 5.93720042 4.13325765 8 6 C8.66 6.66 9.32 7.32 10 8 C10 5.36 10 2.72 10 0 C10.99 0 11.98 0 13 0 C13 5.28 13 10.56 13 16 C9 16 9 16 6.75 14.1875 C5 12 5 12 5 9 C4.34 8.67 3.68 8.34 3 8 C3 10.64 3 13.28 3 16 C1.68 15.67 0.36 15.34 -1 15 C-0.67 10.05 -0.34 5.1 0 0 Z " fill="#8A8888" transform="translate(305,140)"/>
<path d="M0 0 C2.97367685 0.05872611 4.06501147 0.23900688 6.6875 1.8125 C8.8084759 5.34745984 8.9799963 8.29223231 8.1875 12.3125 C6.50516587 15.04629296 5.29809444 16.04078175 2.17578125 16.8046875 C0 17.125 0 17.125 -3.8125 17.3125 C-5.56809942 15.55690058 -4.94471919 13.27667558 -4.94921875 10.94140625 C-4.94535156 10.23886719 -4.94148437 9.53632813 -4.9375 8.8125 C-4.94136719 8.10996094 -4.94523438 7.40742188 -4.94921875 6.68359375 C-4.93712065 0.40468202 -4.93712065 0.40468202 0 0 Z M-0.8125 3.3125 C-0.8125 6.9425 -0.8125 10.5725 -0.8125 14.3125 C0.8375 13.9825 2.4875 13.6525 4.1875 13.3125 C5.56875018 10.54999964 5.37829306 8.36518901 5.1875 5.3125 C4.5275 4.6525 3.8675 3.9925 3.1875 3.3125 C1.8675 3.3125 0.5475 3.3125 -0.8125 3.3125 Z " fill="#8C8A89" transform="translate(573.8125,139.6875)"/>
<path d="M0 0 C0.66 0 1.32 0 2 0 C3.53266582 3.06533164 3.10276471 6.26754272 3.0625 9.625 C3.05798828 10.33140625 3.05347656 11.0378125 3.04882812 11.765625 C3.03703875 13.51045275 3.01910324 15.255237 3 17 C1.68 17 0.36 17 -1 17 C-1.99 17.226875 -2.98 17.45375 -4 17.6875 C-7 18 -7 18 -9.171875 16.96875 C-11.89506739 14.03608127 -11.3936965 11.72822973 -11.25 7.8125 C-11.21390625 6.54019531 -11.1778125 5.26789063 -11.140625 3.95703125 C-11.09421875 2.98121094 -11.0478125 2.00539063 -11 1 C-10.01 1 -9.02 1 -8 1 C-7.67 4.96 -7.34 8.92 -7 13 C-5.35 13 -3.7 13 -2 13 C-1.93941406 12.14535156 -1.87882812 11.29070312 -1.81640625 10.41015625 C-1.73261719 9.30542969 -1.64882813 8.20070313 -1.5625 7.0625 C-1.48128906 5.96035156 -1.40007812 4.85820313 -1.31640625 3.72265625 C-1 1 -1 1 0 0 Z " fill="#9F9E9F" transform="translate(392,101)"/>
<path d="M0 0 C3.61367759 1.73155385 4.6139592 2.68703666 6 6.4375 C6.18395196 9.29154249 5.95718441 11.73520498 5 14.4375 C2.75 16.5 2.75 16.5 0 17.4375 C-2.80075852 17.30413055 -4.4016813 16.82213345 -6.75 15.3125 C-8.70004936 12.38742596 -8.88005897 9.91578983 -9 6.4375 C-7.07504438 2.10634986 -5.10825442 -0.9577977 0 0 Z M-5 4.4375 C-5.22918242 8.45407143 -5.22918242 8.45407143 -5 12.4375 C-4.34 13.0975 -3.68 13.7575 -3 14.4375 C-0.21762345 14.03221099 -0.21762345 14.03221099 2 12.4375 C2.16053815 10.56428052 2.16053815 10.56428052 2.125 8.4375 C2.12886719 7.3546875 2.12886719 7.3546875 2.1328125 6.25 C2.19695276 4.41660585 2.19695276 4.41660585 1 3.4375 C-2.28894893 3.03121033 -2.28894893 3.03121033 -5 4.4375 Z " fill="#B2B0AF" transform="translate(340,139.5625)"/>
<path d="M0 0 C2.05014633 2.80577169 1.65623717 5.13975496 1.5546875 8.55859375 C1.52761719 9.73808594 1.50054688 10.91757813 1.47265625 12.1328125 C1.43785156 13.03644531 1.40304687 13.94007812 1.3671875 14.87109375 C0.0471875 14.87109375 -1.2728125 14.87109375 -2.6328125 14.87109375 C-2.6328125 10.58109375 -2.6328125 6.29109375 -2.6328125 1.87109375 C-4.6128125 1.87109375 -6.5928125 1.87109375 -8.6328125 1.87109375 C-8.9628125 6.16109375 -9.2928125 10.45109375 -9.6328125 14.87109375 C-10.6228125 14.87109375 -11.6128125 14.87109375 -12.6328125 14.87109375 C-12.6328125 9.59109375 -12.6328125 4.31109375 -12.6328125 -1.12890625 C-3.7694296 -2.60613673 -3.7694296 -2.60613673 0 0 Z " fill="#AEAEAC" transform="translate(547.6328125,103.12890625)"/>
<path d="M0 0 C7.95467422 -0.61189802 7.95467422 -0.61189802 11.5625 1.5 C13.60093268 5.04510031 13.78697629 8.00773486 13 12 C11.31766587 14.73379296 10.11059444 15.72828175 6.98828125 16.4921875 C4.8125 16.8125 4.8125 16.8125 1 17 C0 16 0 16 -0.09765625 12.40234375 C-0.0909822 10.91403133 -0.07902183 9.42573568 -0.0625 7.9375 C-0.05798828 7.17888672 -0.05347656 6.42027344 -0.04882812 5.63867188 C-0.0370068 3.75908129 -0.01907078 1.87953101 0 0 Z M3 3 C3 6.63 3 10.26 3 14 C4.65 13.67 6.3 13.34 8 13 C10.14915785 9.77626323 10.38286803 8.73296326 10 5 C9.34 4.34 8.68 3.68 8 3 C6.35 3 4.7 3 3 3 Z " fill="#9F9D9B" transform="translate(460,140)"/>
<path d="M0 0 C7.99146211 -0.76840982 7.99146211 -0.76840982 11.625 2 C13.58194188 6.26969138 13.10333982 8.43952875 12 13 C10.9375 14.9375 10.9375 14.9375 9 16 C6.28700399 16.59500315 3.7957429 16.81962949 1 17 C0 16 0 16 -0.09765625 12.40234375 C-0.0909822 10.91403133 -0.07902183 9.42573568 -0.0625 7.9375 C-0.05798828 7.17888672 -0.05347656 6.42027344 -0.04882812 5.63867188 C-0.0370068 3.75908129 -0.01907078 1.87953101 0 0 Z M3 3 C3 6.63 3 10.26 3 14 C7.63019987 13.5547002 7.63019987 13.5547002 9 12 C9.16053815 10.12678052 9.16053815 10.12678052 9.125 8 C9.12886719 6.9171875 9.12886719 6.9171875 9.1328125 5.8125 C9.19695276 3.97910585 9.19695276 3.97910585 8 3 C6.35 3 4.7 3 3 3 Z " fill="#858483" transform="translate(249,140)"/>
<path d="M0 0 C0.928125 0.20625 1.85625 0.4125 2.8125 0.625 C3.1425 1.615 3.4725 2.605 3.8125 3.625 C1.8325 3.625 -0.1475 3.625 -2.1875 3.625 C-2.1875 4.285 -2.1875 4.945 -2.1875 5.625 C-1.218125 6.016875 -0.24875 6.40875 0.75 6.8125 C3.8125 8.625 3.8125 8.625 4.9375 11.0625 C4.8125 13.625 4.8125 13.625 3.3125 16 C0.8125 17.625 0.8125 17.625 -2.9375 17.375 C-4.01 17.1275 -5.0825 16.88 -6.1875 16.625 C-6.5175 15.305 -6.8475 13.985 -7.1875 12.625 C-4.5475 12.955 -1.9075 13.285 0.8125 13.625 C0.8125 12.635 0.8125 11.645 0.8125 10.625 C-0.13625 10.33625 -1.085 10.0475 -2.0625 9.75 C-5.1875 8.625 -5.1875 8.625 -7.1875 6.625 C-7 4.125 -7 4.125 -6.1875 1.625 C-3.1875 -0.375 -3.1875 -0.375 0 0 Z " fill="#B8B6B5" transform="translate(347.1875,101.375)"/>
<path d="M0 0 C3.3 0 6.6 0 10 0 C10 0.99 10 1.98 10 3 C7.69 3 5.38 3 3 3 C3 3.99 3 4.98 3 6 C5.31 6 7.62 6 10 6 C10 6.99 10 7.98 10 9 C7.69 9 5.38 9 3 9 C3 10.65 3 12.3 3 14 C5.64 14 8.28 14 11 14 C11 14.99 11 15.98 11 17 C9.35425434 17.02688151 7.70838587 17.04634123 6.0625 17.0625 C5.14597656 17.07410156 4.22945313 17.08570313 3.28515625 17.09765625 C1 17 1 17 0 16 C-0.07319621 13.30345146 -0.09242537 10.63308542 -0.0625 7.9375 C-0.05798828 7.17888672 -0.05347656 6.42027344 -0.04882812 5.63867188 C-0.0370068 3.75908129 -0.01907078 1.87953101 0 0 Z " fill="#93918F" transform="translate(391,140)"/>
<path d="M0 0 C1.37478516 0.01740234 1.37478516 0.01740234 2.77734375 0.03515625 C3.69644531 0.04417969 4.61554688 0.05320313 5.5625 0.0625 C6.27277344 0.07410156 6.98304688 0.08570313 7.71484375 0.09765625 C7.71484375 1.08765625 7.71484375 2.07765625 7.71484375 3.09765625 C5.73484375 3.42765625 3.75484375 3.75765625 1.71484375 4.09765625 C2.35421875 4.36578125 2.99359375 4.63390625 3.65234375 4.91015625 C5.71484375 6.09765625 5.71484375 6.09765625 6.71484375 9.09765625 C4.73484375 9.09765625 2.75484375 9.09765625 0.71484375 9.09765625 C0.71484375 10.74765625 0.71484375 12.39765625 0.71484375 14.09765625 C3.02484375 14.09765625 5.33484375 14.09765625 7.71484375 14.09765625 C7.71484375 15.08765625 7.71484375 16.07765625 7.71484375 17.09765625 C6.23577483 17.12454841 4.75656892 17.14400246 3.27734375 17.16015625 C2.04177734 17.17755859 2.04177734 17.17755859 0.78125 17.1953125 C-1.28515625 17.09765625 -1.28515625 17.09765625 -2.28515625 16.09765625 C-2.54867984 13.59125406 -2.75336696 11.11089635 -2.91015625 8.59765625 C-2.96171875 7.89511719 -3.01328125 7.19257813 -3.06640625 6.46875 C-3.18354026 4.68073384 -3.23911926 2.88891357 -3.28515625 1.09765625 C-2.28515625 0.09765625 -2.28515625 0.09765625 0 0 Z " fill="#848383" transform="translate(295.28515625,139.90234375)"/>
<path d="M0 0 C3.3 0 6.6 0 10 0 C10 0.99 10 1.98 10 3 C7.69 3 5.38 3 3 3 C3 3.99 3 4.98 3 6 C4.65 6 6.3 6 8 6 C8.33 6.99 8.66 7.98 9 9 C7.02 9.33 5.04 9.66 3 10 C3 11.32 3 12.64 3 14 C5.31 14 7.62 14 10 14 C10 14.99 10 15.98 10 17 C6.7 17 3.4 17 0 17 C-1.15900338 11.07620493 -0.73884335 5.99284054 0 0 Z " fill="#81807F" transform="translate(621,140)"/>
<path d="M0 0 C3.63 0 7.26 0 11 0 C11 0.66 11 1.32 11 2 C5.25 3.125 5.25 3.125 3 2 C3 3.32 3 4.64 3 6 C5.31 6 7.62 6 10 6 C10 6.99 10 7.98 10 9 C7.69 9 5.38 9 3 9 C3 10.65 3 12.3 3 14 C5.64 14 8.28 14 11 14 C10.67 14.99 10.34 15.98 10 17 C8.52093108 17.02689216 7.04172517 17.04634621 5.5625 17.0625 C4.32693359 17.07990234 4.32693359 17.07990234 3.06640625 17.09765625 C1 17 1 17 0 16 C-0.07319621 13.30345146 -0.09242537 10.63308542 -0.0625 7.9375 C-0.05798828 7.17888672 -0.05347656 6.42027344 -0.04882812 5.63867188 C-0.0370068 3.75908129 -0.01907078 1.87953101 0 0 Z " fill="#A5A3A2" transform="translate(353,140)"/>
<path d="M0 0 C0.99 0.33 1.98 0.66 3 1 C3 2.32 3 3.64 3 5 C4.32 5 5.64 5 7 5 C7 5.99 7 6.98 7 8 C5.68 8 4.36 8 3 8 C3 11.3 3 14.6 3 18 C4.32 18 5.64 18 7 18 C6.67 19.32 6.34 20.64 6 22 C1.25 21.25 1.25 21.25 -1 19 C-1.1953125 16.3984375 -1.1953125 16.3984375 -1.125 13.375 C-1.10695313 12.37210938 -1.08890625 11.36921875 -1.0703125 10.3359375 C-1.04710937 9.56507812 -1.02390625 8.79421875 -1 8 C-1.99 7.67 -2.98 7.34 -4 7 C-3.67 6.34 -3.34 5.68 -3 5 C-2.34 5 -1.68 5 -1 5 C-0.67 3.35 -0.34 1.7 0 0 Z " fill="#8C8A87" transform="translate(436,97)"/>
<path d="M0 0 C3.3 0 6.6 0 10 0 C10 0.99 10 1.98 10 3 C7.69 3 5.38 3 3 3 C3 3.99 3 4.98 3 6 C4.98 6 6.96 6 9 6 C9 6.99 9 7.98 9 9 C7.02 9 5.04 9 3 9 C3 10.65 3 12.3 3 14 C5.31 14 7.62 14 10 14 C10 14.99 10 15.98 10 17 C8.52093108 17.02689216 7.04172517 17.04634621 5.5625 17.0625 C4.32693359 17.07990234 4.32693359 17.07990234 3.06640625 17.09765625 C1 17 1 17 0 16 C-0.07319621 13.30345146 -0.09242537 10.63308542 -0.0625 7.9375 C-0.05798828 7.17888672 -0.05347656 6.42027344 -0.04882812 5.63867188 C-0.0370068 3.75908129 -0.01907078 1.87953101 0 0 Z " fill="#7A7876" transform="translate(475,140)"/>
<path d="M0 0 C3.3 0 6.6 0 10 0 C9.67 0.99 9.34 1.98 9 3 C7.02 3 5.04 3 3 3 C3 3.99 3 4.98 3 6 C4.98 6 6.96 6 9 6 C9 6.99 9 7.98 9 9 C7.02 9 5.04 9 3 9 C3 10.65 3 12.3 3 14 C5.64 14 8.28 14 11 14 C10.67 14.99 10.34 15.98 10 17 C8.52093108 17.02689216 7.04172517 17.04634621 5.5625 17.0625 C4.32693359 17.07990234 4.32693359 17.07990234 3.06640625 17.09765625 C1 17 1 17 0 16 C-0.07319621 13.30345146 -0.09242537 10.63308542 -0.0625 7.9375 C-0.05798828 7.17888672 -0.05347656 6.42027344 -0.04882812 5.63867188 C-0.0370068 3.75908129 -0.01907078 1.87953101 0 0 Z " fill="#939190" transform="translate(584,140)"/>
<path d="M0 0 C0.99 0 1.98 0 3 0 C3.33 3.96 3.66 7.92 4 12 C5.32 12.33 6.64 12.66 8 13 C9.81115956 11.18884044 9.38199448 8.38721773 9.5625 5.9375 C9.64628906 4.83277344 9.73007812 3.72804687 9.81640625 2.58984375 C9.87699219 1.73519531 9.93757812 0.88054687 10 0 C10.99 0 11.98 0 13 0 C13.10832169 2.08218362 13.18573541 4.16599129 13.25 6.25 C13.29640625 7.41015625 13.3428125 8.5703125 13.390625 9.765625 C13 13 13 13 11.140625 15.390625 C9 17 9 17 6.5 17.5 C3.13420087 16.82684017 2.09838504 15.69792363 0 13 C-0.390625 9.765625 -0.390625 9.765625 -0.25 6.25 C-0.21390625 5.07953125 -0.1778125 3.9090625 -0.140625 2.703125 C-0.09421875 1.81109375 -0.0478125 0.9190625 0 0 Z " fill="#A7A5A4" transform="translate(554,140)"/>
<path d="M0 0 C3.3 0 6.6 0 10 0 C9.67 0.99 9.34 1.98 9 3 C7.02 3 5.04 3 3 3 C3 3.99 3 4.98 3 6 C4.98 6 6.96 6 9 6 C9 6.99 9 7.98 9 9 C7.02 9 5.04 9 3 9 C3 10.65 3 12.3 3 14 C5.64 14 8.28 14 11 14 C10.67 14.99 10.34 15.98 10 17 C8.52093108 17.02689216 7.04172517 17.04634621 5.5625 17.0625 C4.32693359 17.07990234 4.32693359 17.07990234 3.06640625 17.09765625 C1 17 1 17 0 16 C-0.07319621 13.30345146 -0.09242537 10.63308542 -0.0625 7.9375 C-0.05798828 7.17888672 -0.05347656 6.42027344 -0.04882812 5.63867188 C-0.0370068 3.75908129 -0.01907078 1.87953101 0 0 Z " fill="#979594" transform="translate(221,140)"/>
<path d="M0 0 C0.99 0 1.98 0 3 0 C3.84442881 1.89091736 4.67511587 3.78797515 5.5 5.6875 C5.9640625 6.74324219 6.428125 7.79898438 6.90625 8.88671875 C7.94950801 11.85627816 8.23065301 13.89195063 8 17 C7.01 16.67 6.02 16.34 5 16 C4.67 15.01 4.34 14.02 4 13 C2.35 13 0.7 13 -1 13 C-1.33 13.99 -1.66 14.98 -2 16 C-4.0625 16.6875 -4.0625 16.6875 -6 17 C-4.33846988 11.14340094 -2.52958084 5.5409866 0 0 Z M1 4 C2 6 2 6 2 6 Z M0 7 C0 7.66 0 8.32 0 9 C0.99 9 1.98 9 3 9 C3 8.34 3 7.68 3 7 C2.01 7 1.02 7 0 7 Z " fill="#B3B2B1" transform="translate(663,140)"/>
<path d="M0 0 C3.3 0 6.6 0 10 0 C10 0.99 10 1.98 10 3 C7.69 3 5.38 3 3 3 C3.33 3.99 3.66 4.98 4 6 C5.65 6 7.3 6 9 6 C9 6.99 9 7.98 9 9 C7.02 9 5.04 9 3 9 C3 10.65 3 12.3 3 14 C5.31 14 7.62 14 10 14 C10 14.99 10 15.98 10 17 C6.7 17 3.4 17 0 17 C0 11.39 0 5.78 0 0 Z " fill="#989695" transform="translate(493,140)"/>
<path d="M0 0 C0 0.99 0 1.98 0 3 C-2.31 3 -4.62 3 -7 3 C-4.53058944 5.59937954 -1.81939117 7.79020692 1 10 C0.51812367 14.57782516 0.51812367 14.57782516 -1.6875 16.375 C-4.71097581 17.19215562 -6.97747444 16.68693763 -10 16 C-10.33 15.01 -10.66 14.02 -11 13 C-8.03 13 -5.06 13 -2 13 C-4.73250768 9.98692533 -4.73250768 9.98692533 -7.625 8.5625 C-10 7 -10 7 -11 5 C-11 3 -11 3 -9.6875 1.3125 C-6.19360389 -1.40497475 -4.25022112 -0.831565 0 0 Z " fill="#B6B3B2" transform="translate(539,140)"/>
<path d="M0 0 C0.99 0.33 1.98 0.66 3 1 C4.04409043 3.32640994 4.89690418 5.52749642 5.6875 7.9375 C5.91244141 8.58396484 6.13738281 9.23042969 6.36914062 9.89648438 C8 14.67009403 8 14.67009403 8 17 C6.68 16.34 5.36 15.68 4 15 C4 14.01 4 13.02 4 12 C2.02 12 0.04 12 -2 12 C-2.33 13.32 -2.66 14.64 -3 16 C-3.99 16 -4.98 16 -6 16 C-4.43551329 10.3856009 -2.83604813 5.13189662 0 0 Z M0 5 C0 6.32 0 7.64 0 9 C0.66 9 1.32 9 2 9 C1.67 7.68 1.34 6.36 1 5 C0.67 5 0.34 5 0 5 Z " fill="#BCBAB9" transform="translate(201,140)"/>
<path d="M0 0 C0.99 0 1.98 0 3 0 C3.84161854 2.08000011 4.67300763 4.16414146 5.5 6.25 C5.9640625 7.41015625 6.428125 8.5703125 6.90625 9.765625 C8 13 8 13 8 17 C7.01 16.67 6.02 16.34 5 16 C4.67 15.01 4.34 14.02 4 13 C2.35 13 0.7 13 -1 13 C-1.33 13.99 -1.66 14.98 -2 16 C-2.99 16 -3.98 16 -5 16 C-3.90301833 10.30860098 -2.45946923 5.25432063 0 0 Z M1 5 C0.67 6.32 0.34 7.64 0 9 C0.99 8.67 1.98 8.34 3 8 C2.34 7.01 1.68 6.02 1 5 Z " fill="#9E9B9B" transform="translate(426,140)"/>
<path d="M0 0 C0.99 0 1.98 0 3 0 C3.84161854 2.08000011 4.67300763 4.16414146 5.5 6.25 C5.9640625 7.41015625 6.428125 8.5703125 6.90625 9.765625 C8 13 8 13 8 17 C7.01 16.67 6.02 16.34 5 16 C4.67 15.01 4.34 14.02 4 13 C1.58380177 12.74969023 1.58380177 12.74969023 -1 13 C-1.99 14.485 -1.99 14.485 -3 16 C-3.66 16 -4.32 16 -5 16 C-3.90301833 10.30860098 -2.45946923 5.25432063 0 0 Z M1 5 C0.67 6.32 0.34 7.64 0 9 C0.99 9 1.98 9 3 9 C2.34 7.68 1.68 6.36 1 5 Z " fill="#9A9895" transform="translate(545,140)"/>
<path d="M0 0 C0 0.99 0 1.98 0 3 C-1.98 3 -3.96 3 -6 3 C-6 3.66 -6 4.32 -6 5 C-5.030625 5.474375 -4.06125 5.94875 -3.0625 6.4375 C0 8 0 8 1 9 C1.28667827 11.72344361 1.30003306 13.437438 0 15.875 C-3.32905868 17.74759551 -6.31924768 16.66374222 -10 16 C-10 15.01 -10 14.02 -10 13 C-7.69 13 -5.38 13 -3 13 C-3 12.34 -3 11.68 -3 11 C-3.969375 10.401875 -4.93875 9.80375 -5.9375 9.1875 C-9 7 -9 7 -9.875 4.25 C-9.91625 3.5075 -9.9575 2.765 -10 2 C-6.27511755 -0.66063032 -4.42132508 -1.38955931 0 0 Z " fill="#989693" transform="translate(375,140)"/>
<path d="M0 0 C6.8359375 -0.1953125 6.8359375 -0.1953125 9 0 C11 2 11 2 11.3125 5 C11.1578125 6.485 11.1578125 6.485 11 8 C7.77208445 10.1519437 6.71599191 10.20086443 3 10 C3 11.98 3 13.96 3 16 C2.01 16.33 1.02 16.66 0 17 C0 11.39 0 5.78 0 0 Z M3 3 C3 4.65 3 6.3 3 8 C4.65 7.67 6.3 7.34 8 7 C8 5.68 8 4.36 8 3 C6.35 3 4.7 3 3 3 Z " fill="#A3A09F" transform="translate(378,140)"/>
<path d="M0 0 C0.99 0.33 1.98 0.66 3 1 C3.16831525 4.24991682 3.33436362 7.49994564 3.5 10.75 C3.54769531 11.67039062 3.59539063 12.59078125 3.64453125 13.5390625 C3.68964844 14.42851563 3.73476563 15.31796875 3.78125 16.234375 C3.82314453 17.05131836 3.86503906 17.86826172 3.90820312 18.70996094 C3.99219063 20.80518124 4 22.90309704 4 25 C1.5234375 24.1640625 1.5234375 24.1640625 -1 22 C-1.6906325 18.45559223 -1.51329859 14.97076343 -1.375 11.375 C-1.36082031 10.3953125 -1.34664062 9.415625 -1.33203125 8.40625 C-1.18194174 1.18194174 -1.18194174 1.18194174 0 0 Z " fill="#A0A09F" transform="translate(519,94)"/>
<path d="M0 0 C0.33 0.99 0.66 1.98 1 3 C0.01 4.485 0.01 4.485 -1 6 C-0.01 6 0.98 6 2 6 C1.67 8.97 1.34 11.94 1 15 C0.34 14.67 -0.32 14.34 -1 14 C-0.67 12.02 -0.34 10.04 0 8 C-4.96911366 9.12697043 -4.96911366 9.12697043 -9 12 C-9.33 10.68 -9.66 9.36 -10 8 C-11.98 8.99 -13.96 9.98 -16 11 C-15.07422392 7.57462852 -14.3712632 6.2475088 -11.375 4.25 C-7.47212476 2.80449065 -4.13711525 2.35664787 0 2 C0 1.34 0 0.68 0 0 Z " fill="#B5B3B2" transform="translate(385,60)"/>
<path d="M0 0 C1.32 0 2.64 0 4 0 C7.42857143 7.28571429 7.42857143 7.28571429 7 12 C7.66 12 8.32 12 9 12 C9 13.32 9 14.64 9 16 C8.01 16 7.02 16 6 16 C5.34 14.35 4.68 12.7 4 11 C3.67 12.65 3.34 14.3 3 16 C2.01 16 1.02 16 0 16 C0 10.72 0 5.44 0 0 Z " fill="#8F8D8C" transform="translate(505,140)"/>
<path d="M0 0 C1.32 0 2.64 0 4 0 C7.42857143 7.28571429 7.42857143 7.28571429 7 12 C7.66 12 8.32 12 9 12 C9 13.32 9 14.64 9 16 C8.01 15.67 7.02 15.34 6 15 C4.8125 12.4375 4.8125 12.4375 4 10 C3.34 12.31 2.68 14.62 2 17 C1.34 16.67 0.68 16.34 0 16 C0 10.72 0 5.44 0 0 Z " fill="#9A9897" transform="translate(274,140)"/>
<path d="M0 0 C3.96 0 7.92 0 12 0 C12 0.99 12 1.98 12 3 C10.68 3 9.36 3 8 3 C8 7.29 8 11.58 8 16 C6.68 16 5.36 16 4 16 C4 11.71 4 7.42 4 3 C2.68 3 1.36 3 0 3 C0 2.01 0 1.02 0 0 Z " fill="#898887" transform="translate(261,140)"/>
<path d="M0 0 C3 0.25 3 0.25 5 2.25 C5.25 5.25 5.25 5.25 5 8.25 C3 10.25 3 10.25 0 10.5 C-3 10.25 -3 10.25 -5 8.25 C-5.25 5.25 -5.25 5.25 -5 2.25 C-3 0.25 -3 0.25 0 0 Z " fill="#CACACA" transform="translate(304,71.75)"/>
<path d="M0 0 C3.96 0 7.92 0 12 0 C12 0.99 12 1.98 12 3 C10.68 3 9.36 3 8 3 C8 6.96 8 10.92 8 15 C6.68 15 5.36 15 4 15 C4 11.04 4 7.08 4 3 C2.35 2.67 0.7 2.34 -1 2 C-0.67 1.34 -0.34 0.68 0 0 Z " fill="#888685" transform="translate(647,140)"/>
<path d="M0 0 C1.32 0 2.64 0 4 0 C4 4.62 4 9.24 4 14 C6.31 14 8.62 14 11 14 C10.67 14.99 10.34 15.98 10 17 C7.03 17 4.06 17 1 17 C0.09586327 13.16275828 -0.10576898 9.62497726 -0.0625 5.6875 C-0.05347656 4.61886719 -0.04445313 3.55023438 -0.03515625 2.44921875 C-0.02355469 1.64097656 -0.01195312 0.83273438 0 0 Z " fill="#696A69" transform="translate(672,140)"/>
<path d="M0 0 C2.64 0 5.28 0 8 0 C8 13.86 8 27.72 8 42 C5.69 42 3.38 42 1 42 C1 41.67 1 41.34 1 41 C2.98 41 4.96 41 7 41 C7 27.8 7 14.6 7 1 C5.02 1 3.04 1 1 1 C1 5.62 1 10.24 1 15 C0.01 14.67 -0.98 14.34 -2 14 C-1.85970581 11.8537974 -1.71261836 9.70803782 -1.5625 7.5625 C-1.48128906 6.36753906 -1.40007813 5.17257813 -1.31640625 3.94140625 C-1 1 -1 1 0 0 Z " fill="#606060" transform="translate(561,40)"/>
<path d="M0 0 C4.29 0 8.58 0 13 0 C13 0.99 13 1.98 13 3 C11.35 3 9.7 3 8 3 C8 7.29 8 11.58 8 16 C7.01 16 6.02 16 5 16 C5 11.71 5 7.42 5 3 C3.35 3 1.7 3 0 3 C0 2.01 0 1.02 0 0 Z " fill="#9B9A99" transform="translate(207,140)"/>
<path d="M0 0 C3.53406762 0.10260196 4.64271209 0.40916479 7.75 2.375 C10.35279126 6.48908942 10.15194522 9.7001588 9.6875 14.4375 C9.0275 14.4375 8.3675 14.4375 7.6875 14.4375 C7.39875 13.344375 7.11 12.25125 6.8125 11.125 C5.86856796 7.39736155 5.86856796 7.39736155 3.6875 4.4375 C1.71002878 4.07452064 1.71002878 4.07452064 -0.4375 4.25 C-1.71625 4.311875 -2.995 4.37375 -4.3125 4.4375 C-4.3125 5.0975 -4.3125 5.7575 -4.3125 6.4375 C-5.3025 6.4375 -6.2925 6.4375 -7.3125 6.4375 C-6.36009184 1.67545918 -4.89744648 0.13992704 0 0 Z " fill="#B3B0B0" transform="translate(486.3125,95.5625)"/>
<path d="M0 0 C5.23272633 1.63958758 10.15196636 3.38952035 15 6 C14.01 6.495 14.01 6.495 13 7 C12.67 7.99 12.34 8.98 12 10 C10.58208592 9.54554036 9.16571954 9.08625056 7.75 8.625 C6.96109375 8.36976562 6.1721875 8.11453125 5.359375 7.8515625 C3.13372042 7.04826333 1.09068328 6.10288338 -1 5 C-1.33 5.99 -1.66 6.98 -2 8 C-2 6.68 -2 5.36 -2 4 C-1.34 4 -0.68 4 0 4 C0 2.68 0 1.36 0 0 Z " fill="#BDBBB9" transform="translate(59,64)"/>
<path d="M0 0 C3.0625 0.1875 3.0625 0.1875 5.0625 2.1875 C5.3125 4.6875 5.3125 4.6875 5.0625 7.1875 C3.0625 9.1875 3.0625 9.1875 0.0625 9.5 C-0.9275 9.396875 -1.9175 9.29375 -2.9375 9.1875 C-4.9375 6.1875 -4.9375 6.1875 -4.625 3.5625 C-3.63731654 0.1505026 -3.65603948 0.23336422 0 0 Z " fill="#C1C1C0" transform="translate(421.9375,39.8125)"/>
<path d="M0 0 C0 1.32 0 2.64 0 4 C-1.65 4.33 -3.3 4.66 -5 5 C-5.66 8.96 -6.32 12.92 -7 17 C-7.99 17 -8.98 17 -10 17 C-10 11.72 -10 6.44 -10 1 C-4 0 -4 0 0 0 Z " fill="#ACABAA" transform="translate(417,101)"/>
<path d="M0 0 C2.25 1.9375 2.25 1.9375 2.6875 4.5 C2.25 6.9375 2.25 6.9375 0.25 8.9375 C-2.62012296 9.30546448 -4.15774618 9.31259409 -6.625 7.75 C-7.75 5.9375 -7.75 5.9375 -7.6875 3.375 C-6.75 0.9375 -6.75 0.9375 -5 -0.5625 C-2.75 -1.0625 -2.75 -1.0625 0 0 Z " fill="#C5C5C3" transform="translate(408.75,40.0625)"/>
<path d="M0 0 C3.96 0 7.92 0 12 0 C12 0.99 12 1.98 12 3 C10.68 3 9.36 3 8 3 C8 7.29 8 11.58 8 16 C7.01 16 6.02 16 5 16 C5 11.71 5 7.42 5 3 C3.35 3 1.7 3 0 3 C0 2.01 0 1.02 0 0 Z " fill="#A09E9C" transform="translate(319,140)"/>
<path d="M0 0 C0.99 0.33 1.98 0.66 3 1 C2.814375 1.721875 2.62875 2.44375 2.4375 3.1875 C1.83860766 5.92122056 1.83860766 5.92122056 2.5 8.28125 C3.08090992 11.43994772 2.8781119 14.12131299 2.5625 17.3125 C2.46066406 18.38113281 2.35882813 19.44976562 2.25390625 20.55078125 C2.17011719 21.35902344 2.08632813 22.16726562 2 23 C1.01 23 0.02 23 -1 23 C-1 1 -1 1 0 0 Z " fill="#CFCECD" transform="translate(356,95)"/>
<path d="M0 0 C1.32 0 2.64 0 4 0 C5.60355101 3.50776784 6.22036864 6.14354879 6 10 C5.34 10 4.68 10 4 10 C3.67 12.31 3.34 14.62 3 17 C2.01 16.67 1.02 16.34 0 16 C0 10.72 0 5.44 0 0 Z " fill="#7C7A77" transform="translate(602,140)"/>
<path d="M0 0 C0.66 0 1.32 0 2 0 C2 0.99 2 1.98 2 3 C5.3 3 8.6 3 12 3 C12 3.33 12 3.66 12 4 C9.03 4 6.06 4 3 4 C3.66 5.32 4.32 6.64 5 8 C7.67790463 8.83886169 10.1737941 8.81766414 13 9 C12.67 9.99 12.34 10.98 12 12 C8.60205485 12.86924178 6.58446283 13.21253194 3.25 12 C0.20172062 9.29041833 -0.29254186 6.9617656 -1 3 C-0.67 2.01 -0.34 1.02 0 0 Z " fill="#A7A7A5" transform="translate(552,106)"/>
<path d="M0 0 C2 2 2 2 2.0625 5.875 C2.03285156 6.55304688 2.00320313 7.23109375 1.97265625 7.9296875 C2.00134372 10.10173875 2.39829199 11.91967617 3 14 C1.39773045 14.22245393 -0.20696767 14.42746669 -1.8125 14.625 C-2.70582031 14.74101563 -3.59914063 14.85703125 -4.51953125 14.9765625 C-7 15 -7 15 -10 13 C-5.25 10 -5.25 10 -3 10 C-2.67 9.01 -2.34 8.02 -2 7 C-3.32 6.67 -4.64 6.34 -6 6 C-4.02 6 -2.04 6 0 6 C0 4.02 0 2.04 0 0 Z " fill="#92918F" transform="translate(429,104)"/>
<path d="M0 0 C0.99 0 1.98 0 3 0 C3.84161854 2.08000011 4.67300763 4.16414146 5.5 6.25 C5.9640625 7.41015625 6.428125 8.5703125 6.90625 9.765625 C8 13 8 13 8 17 C7.01 16.67 6.02 16.34 5 16 C4.67 14.35 4.34 12.7 4 11 C2.35 11 0.7 11 -1 11 C-1 10.67 -1 10.34 -1 10 C0.65 10 2.3 10 4 10 C4 9.34 4 8.68 4 8 C2.02 7.34 0.04 6.68 -2 6 C-1.34 4.02 -0.68 2.04 0 0 Z " fill="#AFAEAD" transform="translate(451,140)"/>
<path d="M0 0 C1.32 0 2.64 0 4 0 C4 4.95 4 9.9 4 15 C2.68 15.33 1.36 15.66 0 16 C0 10.72 0 5.44 0 0 Z " fill="#989897" transform="translate(399,102)"/>
<path d="M0 0 C2 2 2 2 2.1953125 3.9453125 C2.13020833 5.96354167 2.06510417 7.98177083 2 10 C1.01 10.495 1.01 10.495 0 11 C0 10.01 0 9.02 0 8 C-1.98 8 -3.96 8 -6 8 C-3 6 -3 6 -1 6 C-1 5.01 -1 4.02 -1 3 C-3.97 3 -6.94 3 -10 3 C-9.67 2.01 -9.34 1.02 -9 0 C-5.47955362 -1.17348213 -3.57539179 -0.83679382 0 0 Z " fill="#9A9596" transform="translate(463,102)"/>
<path d="M0 0 C3 1 3 1 4 3 C4.45541073 8.35107608 4.45541073 8.35107608 2.77734375 10.7421875 C1 12 1 12 -1.26171875 11.85546875 C-2.06222656 11.63503906 -2.86273438 11.41460937 -3.6875 11.1875 C-4.49574219 10.97480469 -5.30398438 10.76210937 -6.13671875 10.54296875 C-6.75160156 10.36378906 -7.36648438 10.18460938 -8 10 C-8 7.36 -8 4.72 -8 2 C-7.67 2 -7.34 2 -7 2 C-7 4.31 -7 6.62 -7 9 C-5.02 8.67 -3.04 8.34 -1 8 C-0.67 6.35 -0.34 4.7 0 3 C-0.66 2.67 -1.32 2.34 -2 2 C-1.34 2 -0.68 2 0 2 C0 1.34 0 0.68 0 0 Z " fill="#8F8C8B" transform="translate(334,97)"/>
<path d="M0 0 C4.455 0.99 4.455 0.99 9 2 C9 2.33 9 2.66 9 3 C7.35 3 5.7 3 4 3 C3.67 7.29 3.34 11.58 3 16 C2.01 16 1.02 16 0 16 C0 10.72 0 5.44 0 0 Z " fill="#B6B4B3" transform="translate(535,102)"/>
<path d="M0 0 C4 1 4 1 6 4 C5.625 6.1875 5.625 6.1875 5 8 C4.34 6.68 3.68 5.36 3 4 C3 7.96 3 11.92 3 16 C2.01 16 1.02 16 0 16 C0 10.72 0 5.44 0 0 Z " fill="#A7A5A5" transform="translate(233,140)"/>
<path d="M0 0 C1.32 0.33 2.64 0.66 4 1 C4 5.62 4 10.24 4 15 C2.68 15.33 1.36 15.66 0 16 C0 10.72 0 5.44 0 0 Z " fill="#B1AEAD" transform="translate(446,102)"/>
<path d="M0 0 C0.33 1.32 0.66 2.64 1 4 C2.32 3.67 3.64 3.34 5 3 C5 4.32 5 5.64 5 7 C3.824375 7.12375 3.824375 7.12375 2.625 7.25 C1.325625 7.62125 1.325625 7.62125 0 8 C-0.66 9.32 -1.32 10.64 -2 12 C-5.63 12 -9.26 12 -13 12 C-13 11.67 -13 11.34 -13 11 C-10.36 11 -7.72 11 -5 11 C-4.80664062 10.37351563 -4.61328125 9.74703125 -4.4140625 9.1015625 C-4.15367187 8.28429687 -3.89328125 7.46703125 -3.625 6.625 C-3.24214844 5.40683594 -3.24214844 5.40683594 -2.8515625 4.1640625 C-2 2 -2 2 0 0 Z " fill="#81807E" transform="translate(450,145)"/>
<path d="M0 0 C1.32 0 2.64 0 4 0 C4 5.28 4 10.56 4 16 C3.01 16.33 2.02 16.66 1 17 C0.67 11.39 0.34 5.78 0 0 Z " fill="#A4A3A1" transform="translate(614,140)"/>
<path d="M0 0 C0.99 0 1.98 0 3 0 C3 5.28 3 10.56 3 16 C2.01 16.33 1.02 16.66 0 17 C0 11.39 0 5.78 0 0 Z " fill="#A4A2A1" transform="translate(417,140)"/>
<path d="M0 0 C0.763125 0.20625 1.52625 0.4125 2.3125 0.625 C1.9825 1.615 1.6525 2.605 1.3125 3.625 C-0.3375 3.955 -1.9875 4.285 -3.6875 4.625 C-3.790625 5.73875 -3.89375 6.8525 -4 8 C-4.226875 9.19625 -4.45375 10.3925 -4.6875 11.625 C-5.6775 12.285 -6.6675 12.945 -7.6875 13.625 C-9.03073432 7.39727723 -9.03073432 7.39727723 -7.4375 3.8125 C-5.11473984 0.9090498 -3.81729847 -0.5326463 0 0 Z " fill="#8E8B89" transform="translate(339.6875,139.375)"/>
<path d="M0 0 C0 0.99 0 1.98 0 3 C-1.98 3 -3.96 3 -6 3 C-6.2284549 5.24362573 -6.2284549 5.24362573 -4 7.125 C-3.34 7.74375 -2.68 8.3625 -2 9 C-4.80362763 9.22732116 -6.46186517 9.34081872 -8.875 7.8125 C-10 6 -10 6 -9.9375 3.4375 C-9 1 -9 1 -7.25 -0.375 C-4.5018217 -1.13838286 -2.72041151 -0.75566986 0 0 Z " fill="#9B9796" transform="translate(375,140)"/>
<path d="M0 0 C0.66 1.98 1.32 3.96 2 6 C1.05125 6.45375 0.1025 6.9075 -0.875 7.375 C-4.00313679 8.80238254 -4.00313679 8.80238254 -6 11 C-6.8125 8.3125 -6.8125 8.3125 -7 5 C-2.97826087 0 -2.97826087 0 0 0 Z " fill="#ECEAE8" transform="translate(121,103)"/>
<path d="M0 0 C2.64 0 5.28 0 8 0 C8 0.33 8 0.66 8 1 C5.69 1 3.38 1 1 1 C1 4.96 1 8.92 1 13 C3.64 13 6.28 13 9 13 C9 13.99 9 14.98 9 16 C6.03 16 3.06 16 0 16 C0 10.72 0 5.44 0 0 Z " fill="#F2F0F1" transform="translate(476,141)"/>
<path d="M0 0 C3.3 0 6.6 0 10 0 C10 0.66 10 1.32 10 2 C7.36 2 4.72 2 2 2 C2 6.62 2 11.24 2 16 C1.34 16 0.68 16 0 16 C0 10.72 0 5.44 0 0 Z " fill="#B1AFAE" transform="translate(584,140)"/>
<path d="M0 0 C0.99 0 1.98 0 3 0 C3 5.28 3 10.56 3 16 C2.01 16 1.02 16 0 16 C0 10.72 0 5.44 0 0 Z " fill="#C8C7C8" transform="translate(527,102)"/>
<path d="M0 0 C0.680625 0.4125 1.36125 0.825 2.0625 1.25 C1.7325 2.24 1.4025 3.23 1.0625 4.25 C-0.9175 4.25 -2.8975 4.25 -4.9375 4.25 C-5.5975 5.9 -6.2575 7.55 -6.9375 9.25 C-7.5975 9.25 -8.2575 9.25 -8.9375 9.25 C-9.2675 7.27 -9.5975 5.29 -9.9375 3.25 C-3.66057692 -0.93461538 -3.66057692 -0.93461538 0 0 Z " fill="#B9B7B7" transform="translate(411.9375,139.75)"/>
<path d="M0 0 C0.33 0 0.66 0 1 0 C1 1.98 1 3.96 1 6 C1.66 6 2.32 6 3 6 C3 4.35 3 2.7 3 1 C3.33 1 3.66 1 4 1 C4.33 3.31 4.66 5.62 5 8 C6.65 8.33 8.3 8.66 10 9 C9.01 9.66 8.02 10.32 7 11 C7.66 11.66 8.32 12.32 9 13 C3.62686567 12.52238806 3.62686567 12.52238806 1.125 10.4375 C-0.52772156 6.85660328 -0.19618208 3.92364165 0 0 Z " fill="#8B8A88" transform="translate(362,106)"/>
<path d="M0 0 C0.66 0 1.32 0 2 0 C2 5.61 2 11.22 2 17 C0.68 16.67 -0.64 16.34 -2 16 C-2 14.68 -2 13.36 -2 12 C-1.34 12 -0.68 12 0 12 C0 8.04 0 4.08 0 0 Z " fill="#ABAAAA" transform="translate(244,140)"/>
<path d="M0 0 C0.99 0 1.98 0 3 0 C3 4.62 3 9.24 3 14 C2.01 14 1.02 14 0 14 C0 9.38 0 4.76 0 0 Z " fill="#C7C6C7" transform="translate(381,102)"/>
<path d="M0 0 C0.99 0 1.98 0 3 0 C3.02693575 2.12493141 3.04636628 4.24995912 3.0625 6.375 C3.07410156 7.55835938 3.08570313 8.74171875 3.09765625 9.9609375 C3 13 3 13 2 15 C1.34 14.67 0.68 14.34 0 14 C0 9.38 0 4.76 0 0 Z " fill="#9E9C9C" transform="translate(672,140)"/>
<path d="M0 0 C0.33 0.66 0.66 1.32 1 2 C1.66 2 2.32 2 3 2 C2.67 2.99 2.34 3.98 2 5 C-4.625 6.25 -4.625 6.25 -8 4 C-8 3.01 -8 2.02 -8 1 C-5.36 1.33 -2.72 1.66 0 2 C0 1.34 0 0.68 0 0 Z " fill="#777875" transform="translate(348,113)"/>
<path d="M0 0 C0 0.99 0 1.98 0 3 C-2.31 3 -4.62 3 -7 3 C-7 3.66 -7 4.32 -7 5 C-7.66 5 -8.32 5 -9 5 C-9.33 5.66 -9.66 6.32 -10 7 C-10.6875 5.1875 -10.6875 5.1875 -11 3 C-7.65060513 -1.30636483 -5.1066234 -0.99912197 0 0 Z " fill="#8E8C89" transform="translate(539,140)"/>
<path d="M0 0 C0.66 0.33 1.32 0.66 2 1 C1.175 1.721875 0.35 2.44375 -0.5 3.1875 C-3.24407806 5.72917366 -3.24407806 5.72917366 -3.3125 8.8125 C-3.209375 9.534375 -3.10625 10.25625 -3 11 C-3.763125 10.835 -4.52625 10.67 -5.3125 10.5 C-8.03596236 9.90854604 -8.03596236 9.90854604 -11 10 C-7.84778899 5.58690458 -4.44536093 2.99206986 0 0 Z " fill="#C1BEBE" transform="translate(28,113)"/>
<path d="M0 0 C0.33 0.66 0.66 1.32 1 2 C1.66 2 2.32 2 3 2 C3 5.3 3 8.6 3 12 C2.34 12 1.68 12 1 12 C0.67 12.66 0.34 13.32 0 14 C-1.24377393 11.51245214 -1.13306235 9.77344699 -1.125 7 C-1.12757813 6.113125 -1.13015625 5.22625 -1.1328125 4.3125 C-1 2 -1 2 0 0 Z " fill="#AFACA8" transform="translate(478,100)"/>
<path d="M0 0 C0.33 0.66 0.66 1.32 1 2 C0.0625 4.125 0.0625 4.125 -1 6 C-1 5.01 -1 4.02 -1 3 C-5.455 3.495 -5.455 3.495 -10 4 C-9.67 2.68 -9.34 1.36 -9 0 C-5.88173308 -1.55913346 -3.32926126 -0.66585225 0 0 Z " fill="#969290" transform="translate(428,102)"/>
<path d="M0 0 C0.99 0 1.98 0 3 0 C3 4.29 3 8.58 3 13 C2.01 13 1.02 13 0 13 C0 8.71 0 4.42 0 0 Z " fill="#C4C3C3" transform="translate(511,105)"/>
<path d="M0 0 C2.28062828 3.42094242 2.21925007 4.68187222 2.125 8.6875 C2.10695313 9.68136719 2.08890625 10.67523438 2.0703125 11.69921875 C2.03550781 12.83810547 2.03550781 12.83810547 2 14 C1.34 12.68 0.68 11.36 0 10 C-0.66 10.66 -1.32 11.32 -2 12 C-2 11.34 -2 10.68 -2 10 C-2.66 10 -3.32 10 -4 10 C-2.66666667 6.66666667 -1.33333333 3.33333333 0 0 Z " fill="#6F6D6C" transform="translate(285,142)"/>
<path d="M0 0 C6.8359375 -0.1953125 6.8359375 -0.1953125 9 0 C11 2 11 2 11.125 5.125 C11.08375 6.07375 11.0425 7.0225 11 8 C10.46375 7.21625 9.9275 6.4325 9.375 5.625 C6.69757158 2.66573701 4.81566975 1.95391744 1 1 C1 4.96 1 8.92 1 13 C0.67 13 0.34 13 0 13 C0 8.71 0 4.42 0 0 Z " fill="#DBD9DB" transform="translate(250,141)"/>
<path d="M0 0 C3.63 0 7.26 0 11 0 C11 0.66 11 1.32 11 2 C6.46625958 3.03039555 5.35532149 3.17766075 1 1 C1 5.95 1 10.9 1 16 C0.67 16 0.34 16 0 16 C0 10.72 0 5.44 0 0 Z " fill="#7F7C7B" transform="translate(353,140)"/>
<path d="M0 0 C1.32 0.33 2.64 0.66 4 1 C4 4.63 4 8.26 4 12 C3.67 10.68 3.34 9.36 3 8 C2.34 8 1.68 8 1 8 C0.67 8.66 0.34 9.32 0 10 C0 9.34 0 8.68 0 8 C-0.66 8 -1.32 8 -2 8 C-1.34 5.36 -0.68 2.72 0 0 Z M2 5 C3 7 3 7 3 7 Z " fill="#646261" transform="translate(514,144)"/>
<path d="M0 0 C3.65190574 2.43460383 3.91974717 3.84518143 5 8 C5 9.32 5 10.64 5 12 C4.01 11.67 3.02 11.34 2 11 C1.67 9.35 1.34 7.7 1 6 C-0.32 5.67 -1.64 5.34 -3 5 C-2.01 5 -1.02 5 0 5 C0 3.35 0 1.7 0 0 Z " fill="#AEABAB" transform="translate(429,145)"/>
<path d="M0 0 C0.33 0 0.66 0 1 0 C1.33 3.63 1.66 7.26 2 11 C3.65 11 5.3 11 7 11 C6.67 12.32 6.34 13.64 6 15 C1.125 14.125 1.125 14.125 0 13 C-0.07258946 10.81360547 -0.08373783 8.62499611 -0.0625 6.4375 C-0.05347656 5.23996094 -0.04445313 4.04242188 -0.03515625 2.80859375 C-0.02355469 1.88175781 -0.01195312 0.95492187 0 0 Z " fill="#BCBCBA" transform="translate(436,104)"/>
<path d="M0 0 C1.134375 0.020625 2.26875 0.04125 3.4375 0.0625 C3.4375 0.3925 3.4375 0.7225 3.4375 1.0625 C1.4575 1.0625 -0.5225 1.0625 -2.5625 1.0625 C-2.5625 5.6825 -2.5625 10.3025 -2.5625 15.0625 C-3.5525 14.7325 -4.5425 14.4025 -5.5625 14.0625 C-5.42220581 11.9162974 -5.27511836 9.77053782 -5.125 7.625 C-5.04378906 6.43003906 -4.96257813 5.23507813 -4.87890625 4.00390625 C-4.41985731 -0.2635487 -4.4256484 0.07764295 0 0 Z " fill="#8A8B8B" transform="translate(564.5625,39.9375)"/>
<path d="M0 0 C2.375 0.25 2.375 0.25 5 1 C6.3125 3.0625 6.3125 3.0625 7 5 C5.35 5.66 3.7 6.32 2 7 C0.4375 5.75 0.4375 5.75 -1 4 C-0.6875 1.8125 -0.6875 1.8125 0 0 Z " fill="#D3D3D2" transform="translate(154,32)"/>
<path d="M0 0 C0.33 0 0.66 0 1 0 C1 1.98 1 3.96 1 6 C3.97 6 6.94 6 10 6 C9.67 6.99 9.34 7.98 9 9 C6.03 9 3.06 9 0 9 C0 6.03 0 3.06 0 0 Z " fill="#A3A2A2" transform="translate(222,148)"/>
<path d="M0 0 C1.32 0.33 2.64 0.66 4 1 C4 5.95 4 10.9 4 16 C3.67 16 3.34 16 3 16 C2.67 13.03 2.34 10.06 2 7 C1.34 7 0.68 7 0 7 C0 4.69 0 2.38 0 0 Z " fill="#595857" transform="translate(642,140)"/>
<path d="M0 0 C0.33 0 0.66 0 1 0 C1 3.63 1 7.26 1 11 C-0.32 10.34 -1.64 9.68 -3 9 C-3.75 6.375 -3.75 6.375 -4 4 C-3.01 4.33 -2.02 4.66 -1 5 C-1.33 4.01 -1.66 3.02 -2 2 C-1.34 1.34 -0.68 0.68 0 0 Z " fill="#BFBDBD" transform="translate(644,146)"/>
<path d="M0 0 C2.8125 -0.3125 2.8125 -0.3125 6 0 C8.27338765 2.6522856 8.95526736 4.32901036 9.1875 7.8125 C9.125625 8.534375 9.06375 9.25625 9 10 C8.01 10.33 7.02 10.66 6 11 C6 8.36 6 5.72 6 3 C5.34 3 4.68 3 4 3 C4 2.34 4 1.68 4 1 C2.68 0.67 1.36 0.34 0 0 Z " fill="#C0BDBC" transform="translate(337,141)"/>
<path d="M0 0 C1.52634923 3.05269846 0.83794444 5.75845689 0.5625 9.125 C0.46066406 10.40632813 0.35882812 11.68765625 0.25390625 13.0078125 C0.17011719 13.99523437 0.08632813 14.98265625 0 16 C-0.33 16 -0.66 16 -1 16 C-1.33 11.71 -1.66 7.42 -2 3 C-3.65 2.67 -5.3 2.34 -7 2 C-7 1.34 -7 0.68 -7 0 C-4.30234372 -1.34882814 -2.84835666 -0.80338265 0 0 Z " fill="#9F9D9D" transform="translate(546,102)"/>
<path d="M0 0 C0 0.33 0 0.66 0 1 C-0.64066406 1.00257812 -1.28132812 1.00515625 -1.94140625 1.0078125 C-8.80294377 1.31458765 -12.34770866 2.9625852 -17 8 C-15.73090537 4.08695821 -14.53743024 2.14389712 -11 0 C-6.94952424 -1.35015859 -4.2079832 -0.62084998 0 0 Z " fill="#9C9A9B" transform="translate(559,52)"/>
<path d="M0 0 C0.33 0.99 0.66 1.98 1 3 C0.67 3.66 0.34 4.32 0 5 C1.65 5 3.3 5 5 5 C5 5.33 5 5.66 5 6 C3.35 6 1.7 6 0 6 C-0.66 7.65 -1.32 9.3 -2 11 C-2.66 11 -3.32 11 -4 11 C-3.71758359 9.53984709 -3.42373386 8.08190207 -3.125 6.625 C-2.96257813 5.81289062 -2.80015625 5.00078125 -2.6328125 4.1640625 C-2 2 -2 2 0 0 Z " fill="#C1BEBD" transform="translate(544,145)"/>
<path d="M0 0 C0.99 0 1.98 0 3 0 C3.103125 0.639375 3.20625 1.27875 3.3125 1.9375 C3.539375 2.618125 3.76625 3.29875 4 4 C4.99 4.33 5.98 4.66 7 5 C7 5.99 7 6.98 7 8 C4.6875 7.8125 4.6875 7.8125 2 7 C0.125 4.5625 0.125 4.5625 -1 2 C-0.67 1.34 -0.34 0.68 0 0 Z " fill="#BDBCBC" transform="translate(453,111)"/>
<path d="M0 0 C1.32 0 2.64 0 4 0 C3.71125 0.53625 3.4225 1.0725 3.125 1.625 C1.83288192 4.35280484 0.91441408 7.12612718 0 10 C-0.66 10 -1.32 10 -2 10 C-2.1953125 3.9453125 -2.1953125 3.9453125 -2 2 C-1.34 1.34 -0.68 0.68 0 0 Z " fill="#D0CECD" transform="translate(365,102)"/>
<path d="M0 0 C0.33 0.99 0.66 1.98 1 3 C-0.98 3 -2.96 3 -5 3 C-5.33 4.32 -5.66 5.64 -6 7 C-6.33 7 -6.66 7 -7 7 C-7.33 4.69 -7.66 2.38 -8 0 C-5.13822943 -1.43088528 -3.06624227 -0.59991697 0 0 Z " fill="#949291" transform="translate(350,102)"/>
<path d="M0 0 C-0.33 0.99 -0.66 1.98 -1 3 C-5.01804691 3.84098656 -8.01803543 4.05404945 -12 3 C-12 2.34 -12 1.68 -12 1 C-8.0186217 -0.3271261 -4.14954773 -0.06915913 0 0 Z " fill="#F9F7F5" transform="translate(592,64)"/>
<path d="M0 0 C2.31 0 4.62 0 7 0 C7 0.33 7 0.66 7 1 C5.02 1 3.04 1 1 1 C1 1.99 1 2.98 1 4 C2.98 4 4.96 4 7 4 C7 4.99 7 5.98 7 7 C5.00045254 7.04254356 2.99958364 7.04080783 1 7 C0 6 0 6 -0.0625 2.9375 C-0.041875 1.968125 -0.02125 0.99875 0 0 Z " fill="#797775" transform="translate(586,142)"/>
<path d="M0 0 C0.99 0 1.98 0 3 0 C3.66 1.98 4.32 3.96 5 6 C0.25 7.125 0.25 7.125 -2 6 C-1.34 4.02 -0.68 2.04 0 0 Z M1 4 C2 6 2 6 2 6 Z " fill="#918F8F" transform="translate(663,140)"/>
<path d="M0 0 C0.99 0 1.98 0 3 0 C3.66 1.98 4.32 3.96 5 6 C4.01 6.66 3.02 7.32 2 8 C0.68 7.34 -0.64 6.68 -2 6 C-1.34 4.02 -0.68 2.04 0 0 Z " fill="#8A8786" transform="translate(426,140)"/>
<path d="M0 0 C0.66 0 1.32 0 2 0 C2 0.99 2 1.98 2 3 C5.3 3 8.6 3 12 3 C12 3.33 12 3.66 12 4 C9.03 4 6.06 4 3 4 C2.67 5.32 2.34 6.64 2 8 C1.34 8 0.68 8 0 8 C-0.79953138 4.71303767 -1.09658936 3.28976808 0 0 Z " fill="#D6D5D5" transform="translate(552,106)"/>
<path d="M0 0 C0.99 0.33 1.98 0.66 3 1 C2.814375 1.721875 2.62875 2.44375 2.4375 3.1875 C1.98004693 6.12826973 2.26483643 8.14103058 3 11 C2.01 11.495 2.01 11.495 1 12 C-0.19287411 8.12315913 -1 5.08378077 -1 1 C-0.67 0.67 -0.34 0.34 0 0 Z " fill="#7B7B79" transform="translate(356,95)"/>
<path d="M0 0 C0.66 0 1.32 0 2 0 C2.25 7.625 2.25 7.625 0 11 C-1.32 10.34 -2.64 9.68 -4 9 C-3.34 9 -2.68 9 -2 9 C-1.34 6.03 -0.68 3.06 0 0 Z " fill="#ABA8A8" transform="translate(580,144)"/>
<path d="M0 0 C0.33 1.32 0.66 2.64 1 4 C2.98 4 4.96 4 7 4 C7 4.33 7 4.66 7 5 C5.35 5.33 3.7 5.66 2 6 C1.67 6.99 1.34 7.98 1 9 C-0.32 9.33 -1.64 9.66 -3 10 C-2.01 6.7 -1.02 3.4 0 0 Z " fill="#868381" transform="translate(660,147)"/>
<path d="M0 0 C0.33 0.99 0.66 1.98 1 3 C-1.69130085 7.78453484 -6.26786794 9.64900446 -11 12 C-7.49102731 7.81576108 -3.91939465 3.80411834 0 0 Z " fill="#9D9C9D" transform="translate(155,144)"/>
<path d="M0 0 C0.99 0 1.98 0 3 0 C3.66 1.98 4.32 3.96 5 6 C0.25 7.125 0.25 7.125 -2 6 C-1.34 4.02 -0.68 2.04 0 0 Z " fill="#908D89" transform="translate(545,140)"/>
<path d="M0 0 C0.33 0 0.66 0 1 0 C1 4.95 1 9.9 1 15 C0.01 15 -0.98 15 -2 15 C-2.33 12.69 -2.66 10.38 -3 8 C-2.67 8.99 -2.34 9.98 -2 11 C-1.34 11 -0.68 11 0 11 C0 7.37 0 3.74 0 0 Z " fill="#E5E4E4" transform="translate(316,141)"/>
<path d="M0 0 C1.485 0.99 1.485 0.99 3 2 C3.1875 4.625 3.1875 4.625 3 7 C3.66 7 4.32 7 5 7 C5 8.32 5 9.64 5 11 C2 10 2 10 0.8125 7.75 C0.00061706 5.00208853 -0.16260121 2.84552111 0 0 Z " fill="#B5B3B4" transform="translate(278,145)"/>
<path d="M0 0 C3.3 0 6.6 0 10 0 C10 0.66 10 1.32 10 2 C7.36 2 4.72 2 2 2 C2 4.64 2 7.28 2 10 C1.67 10 1.34 10 1 10 C0.67 6.7 0.34 3.4 0 0 Z " fill="#DFDDDE" transform="translate(324,97)"/>
<path d="M0 0 C2.64 0.66 5.28 1.32 8 2 C7.67 2.66 7.34 3.32 7 4 C1.55072464 5.27536232 1.55072464 5.27536232 -1 4 C-0.67 2.68 -0.34 1.36 0 0 Z " fill="#979796" transform="translate(384,114)"/>
<path d="M0 0 C2.97 0 5.94 0 9 0 C9.33 0.99 9.66 1.98 10 3 C4.58461538 4.23076923 4.58461538 4.23076923 1.625 3.0625 C1.08875 2.711875 0.5525 2.36125 0 2 C0 1.34 0 0.68 0 0 Z " fill="#949390" transform="translate(528,153)"/>
<path d="M0 0 C2.5654594 2.5654594 2.54046087 4.47686668 3 8 C1.68 7.34 0.36 6.68 -1 6 C-1 5.01 -1 4.02 -1 3 C-2.98 3 -4.96 3 -7 3 C-7 2.67 -7 2.34 -7 2 C-4.69 2 -2.38 2 0 2 C0 1.34 0 0.68 0 0 Z " fill="#8F8D8D" transform="translate(206,149)"/>
<path d="M0 0 C0.99 0 1.98 0 3 0 C3.38218767 1.65614657 3.71395102 3.32457024 4 5 C2.33657163 6.66342837 0.2174291 6.36048097 -2.0625 6.5625 C-2.98160156 6.64628906 -3.90070312 6.73007813 -4.84765625 6.81640625 C-5.55792969 6.87699219 -6.26820313 6.93757813 -7 7 C-7.33 6.34 -7.66 5.68 -8 5 C-5.03 5 -2.06 5 1 5 C0.67 3.35 0.34 1.7 0 0 Z " fill="#9B9B99" transform="translate(563,105)"/>
<path d="M0 0 C1.67542976 0.28604898 3.34385343 0.61781233 5 1 C5.33 2.65 5.66 4.3 6 6 C5.01 6 4.02 6 3 6 C0.8125 3.5 0.8125 3.5 -1 1 C-0.67 0.67 -0.34 0.34 0 0 Z " fill="#C4C3C2" transform="translate(346,109)"/>
<path d="M0 0 C2.97 1.98 2.97 1.98 6 4 C4.1875 5.5625 4.1875 5.5625 2 7 C1.01 6.67 0.02 6.34 -1 6 C-0.67 4.02 -0.34 2.04 0 0 Z " fill="#BDBAB7" transform="translate(153,114)"/>
<path d="M0 0 C0.33 0 0.66 0 1 0 C1 2.31 1 4.62 1 7 C0.01 7.495 0.01 7.495 -1 8 C-1 7.01 -1 6.02 -1 5 C-2.98 5 -4.96 5 -7 5 C-4 3 -4 3 -1 3 C-0.67 2.01 -0.34 1.02 0 0 Z " fill="#EDEAEC" transform="translate(464,105)"/>
<path d="M0 0 C2.0625 0.4375 2.0625 0.4375 4 1 C3.6875 2.9375 3.6875 2.9375 3 5 C2.01 5.33 1.02 5.66 0 6 C-0.38218767 4.34385343 -0.71395102 2.67542976 -1 1 C-0.67 0.67 -0.34 0.34 0 0 Z " fill="#7C7B7A" transform="translate(446,95)"/>
<path d="M0 0 C0.66 0.33 1.32 0.66 2 1 C1.525625 1.495 1.05125 1.99 0.5625 2.5 C-1.62167907 5.99468651 -1.65913911 8.90966936 -2 13 C-4 10 -4 10 -3.8125 7.0625 C-3.00070842 4.0026702 -2.07524374 2.34592771 0 0 Z " fill="#8C8B8A" transform="translate(578,65)"/>
<path d="M0 0 C2 2 2 2 2 6 C2.66 6 3.32 6 4 6 C4.33 5.34 4.66 4.68 5 4 C5 4.99 5 5.98 5 7 C2.69 7 0.38 7 -2 7 C-1.34 4.69 -0.68 2.38 0 0 Z " fill="#7C7875" transform="translate(199,143)"/>
<path d="M0 0 C2 1.375 2 1.375 4 3 C4 3.66 4 4.32 4 5 C0.625 5.1875 0.625 5.1875 -3 5 C-3.66 4.01 -4.32 3.02 -5 2 C-3.68 2 -2.36 2 -1 2 C-0.67 1.34 -0.34 0.68 0 0 Z " fill="#B3B2B1" transform="translate(23,143)"/>
<path d="M0 0 C-0.33 0.99 -0.66 1.98 -1 3 C-3.97 2.505 -3.97 2.505 -7 2 C-7.33 1.01 -7.66 0.02 -8 -1 C-4.37673261 -2.2077558 -3.35853631 -1.54311128 0 0 Z " fill="#858482" transform="translate(414,141)"/>
<path d="M0 0 C0.33 0 0.66 0 1 0 C1.125 7.75 1.125 7.75 0 10 C-0.99 9.67 -1.98 9.34 -3 9 C-3 6.36 -3 3.72 -3 1 C-2.67 1 -2.34 1 -2 1 C-2 2.98 -2 4.96 -2 7 C-1.34 7 -0.68 7 0 7 C0 4.69 0 2.38 0 0 Z " fill="#878784" transform="translate(496,103)"/>
<path d="M0 0 C0.33 0 0.66 0 1 0 C1 2.64 1 5.28 1 8 C1.66 8 2.32 8 3 8 C2.34 9.32 1.68 10.64 1 12 C0.34 11.67 -0.32 11.34 -1 11 C-1 7.25838897 -0.48661829 3.71046443 0 0 Z " fill="#676663" transform="translate(342,144)"/>
<path d="M0 0 C1.98 0.99 1.98 0.99 4 2 C4 4.64 4 7.28 4 10 C1 8 1 8 0.48828125 6.0546875 C0.32552083 4.03645833 0.16276042 2.01822917 0 0 Z " fill="#928E8B" transform="translate(469,142)"/>
<path d="M0 0 C1.11375 0.3403125 1.11375 0.3403125 2.25 0.6875 C1.92 1.6775 1.59 2.6675 1.25 3.6875 C-1.625 4.3125 -1.625 4.3125 -4.75 4.6875 C-5.41 4.0275 -6.07 3.3675 -6.75 2.6875 C-4.29511132 0.41445492 -3.41240272 -0.38777304 0 0 Z " fill="#7E7C79" transform="translate(339.75,139.3125)"/>
<path d="M0 0 C0.99 0 1.98 0 3 0 C3 2.97 3 5.94 3 9 C2.34 9 1.68 9 1 9 C0.67 6.03 0.34 3.06 0 0 Z " fill="#EEEBEA" transform="translate(493,101)"/>
<path d="M0 0 C3.625 -0.1875 3.625 -0.1875 7 0 C7 0.99 7 1.98 7 3 C4.03 3 1.06 3 -2 3 C-1.34 2.01 -0.68 1.02 0 0 Z " fill="#666462" transform="translate(478,154)"/>
<path d="M0 0 C2.29633824 3.44450737 2.54016485 5.93812283 3 10 C2.01 9.67 1.02 9.34 0 9 C-0.75 7 -0.75 7 -1 5 C-0.67 4.67 -0.34 4.34 0 4 C0 2.68 0 1.36 0 0 Z " fill="#81807F" transform="translate(456,147)"/>
<path d="M0 0 C2.3431213 0.25561323 4.67843403 0.59270772 7 1 C7.33 1.66 7.66 2.32 8 3 C7.360625 3.12375 6.72125 3.2475 6.0625 3.375 C5.381875 3.58125 4.70125 3.7875 4 4 C3.67 4.66 3.34 5.32 3 6 C0 2.25 0 2.25 0 0 Z " fill="#CACACA" transform="translate(21,147)"/>
<path d="M0 0 C4.75 0.75 4.75 0.75 7 3 C6.67 3.66 6.34 4.32 6 5 C4.02 4.34 2.04 3.68 0 3 C0 2.01 0 1.02 0 0 Z " fill="#A6A39F" transform="translate(530,145)"/>
<path d="M0 0 C0.33 0.66 0.66 1.32 1 2 C2.2375 2.495 2.2375 2.495 3.5 3 C6 4 6 4 7 6 C4.625 6.125 4.625 6.125 2 6 C1.34 5.34 0.68 4.68 0 4 C0 2.68 0 1.36 0 0 Z " fill="#CCC7C6" transform="translate(366,143)"/>
<path d="M0 0 C2.97 0 5.94 0 9 0 C9 0.66 9 1.32 9 2 C4.545 2.495 4.545 2.495 0 3 C0 2.01 0 1.02 0 0 Z " fill="#C5C2C2" transform="translate(621,140)"/>
<path d="M0 0 C0.99 0.33 1.98 0.66 3 1 C3 1.66 3 2.32 3 3 C2.34 3 1.68 3 1 3 C1 6.96 1 10.92 1 15 C0.67 15 0.34 15 0 15 C0 10.05 0 5.1 0 0 Z " fill="#FBF9F8" transform="translate(603,141)"/>
<path d="M0 0 C1.32 0 2.64 0 4 0 C4.33 1.65 4.66 3.3 5 5 C3.35 4.67 1.7 4.34 0 4 C0 2.68 0 1.36 0 0 Z " fill="#DFDCD9" transform="translate(149,114)"/>
<path d="M0 0 C0.99 0.33 1.98 0.66 3 1 C2.67 1.66 2.34 2.32 2 3 C1.77141886 5.0374763 1.58975722 7.08040303 1.4375 9.125 C1.35371094 10.22070312 1.26992188 11.31640625 1.18359375 12.4453125 C1.12300781 13.28835937 1.06242187 14.13140625 1 15 C0.67 15 0.34 15 0 15 C0 10.05 0 5.1 0 0 Z " fill="#F7F4F5" transform="translate(506,141)"/>
<path d="M0 0 C2.97 0 5.94 0 9 0 C9 0.66 9 1.32 9 2 C6.36 2.33 3.72 2.66 1 3 C0.67 2.01 0.34 1.02 0 0 Z " fill="#D4D1D2" transform="translate(293,140)"/>
<path d="M0 0 C0.66 0.33 1.32 0.66 2 1 C2.625 3.0625 2.625 3.0625 3 5 C1.02 5.33 -0.96 5.66 -3 6 C-3 3 -3 3 -1.5 1.3125 C-0.7575 0.6628125 -0.7575 0.6628125 0 0 Z " fill="#B5B2B0" transform="translate(21,118)"/>
<path d="M0 0 C2.45098556 0.39532025 4.63904279 1.21301426 7 2 C6.67 3.32 6.34 4.64 6 6 C6 5.01 6 4.02 6 3 C4.576875 3.309375 4.576875 3.309375 3.125 3.625 C2.09375 3.74875 1.0625 3.8725 0 4 C-0.66 3.34 -1.32 2.68 -2 2 C-1.34 1.34 -0.68 0.68 0 0 Z " fill="#787572" transform="translate(456,108)"/>
<path d="M0 0 C0.33 1.32 0.66 2.64 1 4 C1.66 4 2.32 4 3 4 C2.67 4.99 2.34 5.98 2 7 C-0.475 6.01 -0.475 6.01 -3 5 C-3 4.34 -3 3.68 -3 3 C-2.34 3 -1.68 3 -1 3 C-0.67 2.01 -0.34 1.02 0 0 Z " fill="#B2B1AE" transform="translate(92,82)"/>
<path d="M0 0 C2.475 0.99 2.475 0.99 5 2 C4.01 2.33 3.02 2.66 2 3 C2 3.99 2 4.98 2 6 C0.68 5.34 -0.64 4.68 -2 4 C-1.34 4 -0.68 4 0 4 C0 2.68 0 1.36 0 0 Z " fill="#B2B0AF" transform="translate(147,111)"/>
<path d="M0 0 C0.99 0.33 1.98 0.66 3 1 C2.67 2.65 2.34 4.3 2 6 C1.01 5.67 0.02 5.34 -1 5 C-0.67 3.35 -0.34 1.7 0 0 Z " fill="#A5A29F" transform="translate(201,140)"/>
<path d="M0 0 C1.98 0 3.96 0 6 0 C5.67 0.99 5.34 1.98 5 3 C3.35 3 1.7 3 0 3 C0 2.01 0 1.02 0 0 Z " fill="#B0B0AE" transform="translate(343,116)"/>
<path d="M0 0 C2.97 0.495 2.97 0.495 6 1 C6 1.66 6 2.32 6 3 C3.69 3 1.38 3 -1 3 C-0.67 2.01 -0.34 1.02 0 0 Z " fill="#B7B5B6" transform="translate(557,101)"/>
<path d="M0 0 C0.99 0.66 1.98 1.32 3 2 C2.67 2.99 2.34 3.98 2 5 C0.68 4.67 -0.64 4.34 -2 4 C-1.34 2.68 -0.68 1.36 0 0 Z " fill="#8D8D8C" transform="translate(528,95)"/>
<path d="M0 0 C0.99 0.33 1.98 0.66 3 1 C3 1.99 3 2.98 3 4 C2.01 4.33 1.02 4.66 0 5 C-0.66 4.01 -1.32 3.02 -2 2 C-1.34 1.34 -0.68 0.68 0 0 Z " fill="#949192" transform="translate(400,95)"/>
<path d="M0 0 C0.66 0 1.32 0 2 0 C1.6875 1.9375 1.6875 1.9375 1 4 C0.01 4.33 -0.98 4.66 -2 5 C-2 2 -2 2 0 0 Z " fill="#767472" transform="translate(562,135)"/>
<path d="M0 0 C0.66 0.66 1.32 1.32 2 2 C1.34 2 0.68 2 0 2 C0 1.34 0 0.68 0 0 Z " fill="#090600" transform="translate(457,141)"/>
<path d="M0 0 C0.33 0.66 0.66 1.32 1 2 C0.34 1.67 -0.32 1.34 -1 1 C-0.67 0.67 -0.34 0.34 0 0 Z " fill="#000007" transform="translate(397,116)"/>
<path d="M0 0 C2 1 2 1 2 1 Z " fill="#000007" transform="translate(204,62)"/>
<path d="" fill="#0A0B0A" transform="translate(0,0)"/>
<path d="" fill="#0C0C0C" transform="translate(0,0)"/>
<path d="" fill="#0F0E0C" transform="translate(0,0)"/>
<path d="" fill="#0D0D0A" transform="translate(0,0)"/>
<path d="" fill="#0D0C08" transform="translate(0,0)"/>
<path d="" fill="#070006" transform="translate(0,0)"/>
<path d="" fill="#111212" transform="translate(0,0)"/>
<path d="" fill="#0C0C09" transform="translate(0,0)"/>
<path d="" fill="#030800" transform="translate(0,0)"/>
<path d="" fill="#0C0C0C" transform="translate(0,0)"/>
<path d="" fill="#0D0C0B" transform="translate(0,0)"/>
<path d="" fill="#0A0B0A" transform="translate(0,0)"/>
<path d="" fill="#0B0B08" transform="translate(0,0)"/>
<path d="" fill="#0C0E0E" transform="translate(0,0)"/>
<path d="" fill="#0F1110" transform="translate(0,0)"/>
<path d="" fill="#0B0D0C" transform="translate(0,0)"/>
<path d="" fill="#0E0A08" transform="translate(0,0)"/>
<path d="" fill="#0E0B09" transform="translate(0,0)"/>
<path d="" fill="#0C0B0C" transform="translate(0,0)"/>
<path d="" fill="#0D0D0C" transform="translate(0,0)"/>
<path d="" fill="#0F0D0B" transform="translate(0,0)"/>
<path d="" fill="#010801" transform="translate(0,0)"/>
<path d="" fill="#0C0B0A" transform="translate(0,0)"/>
<path d="" fill="#0D0B08" transform="translate(0,0)"/>
<path d="" fill="#0E0B0B" transform="translate(0,0)"/>
<path d="" fill="#0D0A0B" transform="translate(0,0)"/>
<path d="" fill="#080700" transform="translate(0,0)"/>
<path d="" fill="#070700" transform="translate(0,0)"/>
</svg>
