<?xml version="1.0" standalone="no"?>
<!DOCTYPE svg PUBLIC "-//W3C//DTD SVG 20010904//EN"
 "http://www.w3.org/TR/2001/REC-SVG-20010904/DTD/svg10.dtd">
<svg version="1.0" xmlns="http://www.w3.org/2000/svg"
 width="199.000000pt" height="199.000000pt" viewBox="0 0 199.000000 199.000000"
 preserveAspectRatio="xMidYMid meet">

<g transform="translate(0.000000,199.000000) scale(0.100000,-0.100000)"
fill="#000000" stroke="none">
<path d="M1044 1956 c-29 -12 -71 -35 -95 -51 -51 -35 -164 -145 -201 -195
-37 -50 -212 -404 -232 -470 -9 -30 -21 -63 -27 -73 -5 -10 -7 -22 -4 -27 4
-6 2 -10 -3 -10 -5 0 -8 -13 -7 -29 1 -17 -8 -56 -21 -88 -14 -32 -42 -111
-64 -176 -55 -161 -103 -243 -150 -252 -3 -1 -33 -10 -68 -20 -51 -14 -61 -20
-50 -30 16 -15 86 -27 93 -16 8 14 50 7 53 -9 1 -8 -8 -42 -22 -75 -22 -55
-23 -60 -7 -81 9 -12 18 -20 21 -17 3 2 16 37 30 76 20 59 29 73 48 75 13 2
46 25 73 52 46 45 54 49 49 25 -1 -7 2 -7 8 0 5 6 21 46 36 90 14 44 31 87 37
95 9 12 9 11 4 -5 -4 -11 -14 -44 -22 -73 -25 -94 -9 -76 27 30 28 84 36 98
41 78 4 -14 7 -18 8 -9 1 16 33 59 45 59 3 0 6 -21 6 -47 0 -25 2 -44 5 -41
12 12 24 158 17 210 -10 64 -8 68 58 153 25 33 57 78 70 100 l24 40 -24 -20
c-13 -11 -44 -53 -70 -93 -46 -70 -48 -72 -52 -44 -8 53 95 259 166 333 24 25
51 61 59 80 25 60 59 86 148 114 46 14 93 28 104 29 11 1 32 6 46 10 17 5 40
2 65 -9 57 -25 124 -44 125 -37 0 4 4 -3 9 -14 5 -13 25 -27 47 -34 54 -18 62
-26 100 -109 35 -75 35 -75 24 -149 -18 -119 -23 -125 -105 -126 -49 -1 -71
-5 -74 -14 -3 -11 8 -13 49 -11 60 4 79 -3 79 -30 0 -31 -27 -46 -55 -31 -13
7 -22 16 -20 20 2 4 -11 7 -29 8 -19 1 -39 3 -46 4 -17 4 -34 -26 -27 -46 11
-27 38 -32 57 -8 13 15 20 18 29 9 6 -6 11 -17 11 -24 0 -7 7 -13 16 -13 11 0
14 -5 10 -17 -4 -9 -11 -36 -17 -61 -15 -67 -34 -107 -82 -170 -61 -79 -93
-109 -157 -150 -66 -42 -156 -121 -152 -134 1 -5 3 -20 4 -33 1 -14 9 -25 16
-25 8 0 12 -6 9 -13 -2 -6 1 -17 8 -24 10 -9 16 -8 29 6 9 10 16 22 16 27 0 6
6 19 14 30 14 18 15 18 25 -6 8 -22 10 -23 12 -5 1 11 1 23 0 28 0 4 4 7 10 7
6 0 8 9 4 20 -7 22 11 53 25 45 5 -3 6 -21 3 -40 -7 -44 2 -45 23 -2 16 31
150 197 160 197 3 0 -12 -22 -33 -49 -21 -27 -57 -73 -79 -103 -43 -56 -69
-114 -54 -123 4 -3 10 0 12 5 2 7 10 6 22 -3 18 -13 17 -14 -14 -15 -17 0 -35
-3 -38 -6 -11 -12 9 -20 43 -18 37 3 53 -12 36 -32 -9 -10 -7 -15 6 -21 21 -8
74 -17 56 -9 -19 8 -15 32 5 30 17 -2 73 -26 82 -36 3 -3 12 -7 20 -9 8 -2 27
-7 43 -11 33 -10 35 1 6 41 -12 17 -19 40 -17 56 3 27 4 26 31 -22 16 -27 26
-57 24 -67 -6 -20 29 -36 86 -40 35 -3 42 1 75 41 21 25 31 41 24 37 -8 -5
-28 7 -55 34 -23 22 -51 43 -62 45 -49 10 -111 12 -127 4 -14 -8 -18 -6 -18 9
0 10 -6 24 -12 31 -8 8 -8 11 -2 8 13 -8 26 23 29 71 2 34 -9 32 -19 -3 -6
-24 0 28 8 70 4 17 12 45 17 63 6 18 9 36 6 39 -10 9 45 147 68 173 13 14 28
35 35 48 6 14 17 21 25 18 10 -4 16 6 20 32 8 47 55 181 67 188 4 3 12 -5 17
-17 9 -26 -7 -99 -38 -170 -10 -24 -22 -62 -26 -83 -6 -34 -4 -38 8 -28 8 7
28 43 46 81 23 51 36 68 47 64 12 -4 12 -7 -3 -18 -23 -17 -8 -33 16 -18 24
15 31 8 31 -34 0 -56 -85 -307 -117 -345 -17 -19 -3 -33 32 -33 18 0 21 -9 27
-74 5 -41 4 -90 -1 -108 -5 -18 -7 -33 -5 -33 13 0 44 70 44 99 0 19 8 43 17
53 11 12 16 35 16 66 -2 99 41 304 67 322 4 3 22 32 40 65 30 56 32 64 26 130
-7 81 -35 191 -70 267 -22 50 -28 55 -104 93 -78 38 -83 43 -115 105 -19 36
-44 92 -57 125 -28 75 -66 111 -179 168 -95 49 -185 81 -275 96 -73 13 -69 14
-132 -13z m183 -42 c-3 -3 -12 -4 -19 -1 -8 3 -5 6 6 6 11 1 17 -2 13 -5z
m-51 -16 c4 -6 3 -8 -3 -5 -13 8 -55 -22 -48 -34 4 -5 1 -9 -4 -9 -6 0 -11 -5
-11 -10 0 -6 23 1 51 15 33 17 58 24 72 19 19 -6 17 -9 -19 -26 -21 -11 -46
-27 -55 -35 -9 -7 -20 -13 -25 -11 -12 3 -53 -19 -84 -46 l-25 -21 25 30 c14
16 32 35 40 41 8 7 14 24 15 38 0 18 10 33 30 46 36 24 32 23 41 8z m-101 -48
c-3 -5 -12 -10 -18 -10 -7 0 -6 4 3 10 19 12 23 12 15 0z m-404 -503 c-10 -9
-11 -8 -5 6 3 10 9 15 12 12 3 -3 0 -11 -7 -18z m-18 -45 c-3 -12 -9 -19 -14
-16 -5 3 -4 14 2 25 13 26 20 21 12 -9z m8 -175 c-8 -8 -11 -5 -11 9 0 27 14
41 18 19 2 -9 -1 -22 -7 -28z m719 -37 c0 -5 -2 -10 -4 -10 -3 0 -8 5 -11 10
-3 6 -1 10 4 10 6 0 11 -4 11 -10z m118 -248 c-17 -34 -43 -74 -56 -89 -27
-32 -21 -20 23 52 17 28 37 62 44 77 8 16 16 26 18 24 2 -2 -11 -31 -29 -64z
m-193 -212 c-3 -5 -11 -10 -16 -10 -6 0 -7 5 -4 10 3 6 11 10 16 10 6 0 7 -4
4 -10z"/>
<path d="M361 1756 c-8 -9 -12 -16 -10 -16 2 0 42 -13 88 -30 47 -16 87 -28
89 -25 9 9 -8 35 -23 35 -9 0 -28 9 -43 20 -39 28 -85 36 -101 16z"/>
<path d="M260 1658 c-91 -98 -192 -278 -194 -346 -1 -36 0 -37 54 -50 30 -8
95 -25 144 -38 62 -17 92 -21 101 -14 7 6 18 38 24 73 15 78 39 195 58 271 8
32 12 64 10 71 -3 6 -29 23 -59 37 -93 44 -93 44 -138 -4z m-30 -209 c0 -6 -4
-7 -10 -4 -5 3 -10 11 -10 16 0 6 5 7 10 4 6 -3 10 -11 10 -16z m81 -8 c-11
-21 2 -31 40 -31 10 0 19 -7 19 -15 0 -24 -39 -17 -65 11 -19 21 -22 30 -14
40 17 21 31 17 20 -5z"/>
<path d="M953 1433 c-7 -2 -13 -11 -13 -18 0 -10 7 -12 29 -5 23 6 37 2 75
-21 63 -40 63 -15 -1 29 -29 21 -63 27 -90 15z"/>
<path d="M1106 1342 c6 -4 16 -17 23 -29 11 -22 31 -31 31 -15 0 13 -40 52
-53 52 -8 0 -9 -3 -1 -8z"/>
<path d="M950 1291 c0 -6 0 -14 0 -18 1 -5 10 -7 20 -5 14 2 20 -2 20 -17 0
-23 34 -45 56 -37 8 3 14 13 14 22 0 13 3 14 15 4 10 -8 15 -9 15 -1 0 17 -42
40 -83 45 -21 3 -42 8 -47 11 -6 3 -10 1 -10 -4z"/>
<path d="M1622 916 c-7 -15 -12 -35 -12 -44 1 -9 7 -2 16 17 17 41 14 66 -4
27z"/>
<path d="M1757 933 c-4 -3 -7 -13 -7 -22 1 -13 3 -13 11 2 11 19 8 33 -4 20z"/>
<path d="M1066 791 c14 -13 80 -33 68 -21 -6 6 -25 15 -44 20 -19 5 -29 6 -24
1z"/>
<path d="M1146 745 c-7 -19 5 -19 30 0 19 14 19 14 -2 15 -12 0 -24 -7 -28
-15z"/>
<path d="M1080 719 c0 -6 7 -9 15 -6 8 4 17 2 20 -3 6 -10 -14 -14 -45 -11
-13 2 -13 1 0 -8 31 -22 74 -4 63 25 -6 17 -53 19 -53 3z"/>
<path d="M1166 424 c-3 -9 -2 -22 2 -31 6 -10 9 -5 9 16 0 35 -2 38 -11 15z"/>
<path d="M1194 375 c1 -27 6 -59 11 -69 6 -13 5 -17 -3 -12 -6 3 -13 2 -17 -4
-4 -6 -11 -7 -17 -4 -6 4 -8 -1 -6 -12 2 -15 11 -19 41 -17 20 1 37 1 37 0 -1
-1 -14 -54 -29 -117 -16 -63 -28 -116 -26 -118 6 -6 67 12 70 22 2 6 15 50 30
98 16 57 32 91 44 98 16 8 18 7 13 -12 -4 -17 -2 -20 12 -15 10 4 21 7 25 7 4
0 15 13 24 30 10 16 21 29 25 29 17 -3 32 2 32 10 0 14 -43 21 -56 10 -8 -7
-14 -6 -18 3 -5 10 -7 10 -12 1 -3 -7 -10 -13 -15 -13 -6 0 -8 4 -4 10 7 11
-38 42 -68 45 -36 4 -37 4 -37 20 0 8 -4 15 -10 15 -5 0 -10 -4 -10 -10 0 -5
-6 -10 -14 -10 -9 0 -17 13 -19 33 -3 17 -4 10 -3 -18z m181 -135 c3 -5 1 -10
-4 -10 -6 0 -11 5 -11 10 0 6 2 10 4 10 3 0 8 -4 11 -10z"/>
<path d="M1545 225 c-63 -14 -85 -26 -160 -85 -33 -26 -66 -45 -74 -42 -10 3
-12 0 -8 -11 4 -10 -1 -21 -11 -27 -14 -9 -11 -10 13 -5 47 9 225 100 273 138
49 40 40 49 -33 32z"/>
</g>
</svg>
