<?xml version="1.0" standalone="no"?>
<!DOCTYPE svg PUBLIC "-//W3C//DTD SVG 20010904//EN"
 "http://www.w3.org/TR/2001/REC-SVG-20010904/DTD/svg10.dtd">
<svg version="1.0" xmlns="http://www.w3.org/2000/svg"
 width="199.000000pt" height="199.000000pt" viewBox="0 0 199.000000 199.000000"
 preserveAspectRatio="xMidYMid meet">

<g transform="translate(0.000000,199.000000) scale(0.100000,-0.100000)"
fill="#000000" stroke="none">
<path d="M1080 1965 c0 -24 -31 -32 -117 -28 -46 2 -83 -1 -83 -6 0 -5 -15
-14 -32 -21 -18 -6 -45 -18 -59 -26 -25 -13 -26 -13 -21 12 3 17 9 23 19 20
11 -5 13 -1 7 17 -3 12 -8 24 -10 26 -2 2 -49 -10 -104 -29 -123 -40 -250
-114 -342 -199 l-70 -64 7 -46 c4 -25 10 -50 13 -56 4 -5 7 -23 8 -39 1 -16 7
-32 13 -36 7 -3 9 -14 5 -23 -4 -10 -1 -17 6 -17 10 0 10 -3 0 -15 -11 -13
-14 -12 -29 6 -12 15 -34 22 -89 28 l-74 7 -34 -68 c-37 -74 -43 -98 -20 -79
8 7 17 23 20 37 6 23 11 25 54 22 l47 -3 3 -72 c3 -83 -9 -116 -41 -111 -17 2
-23 11 -25 38 -4 46 -19 61 -37 37 -9 -13 -20 -17 -34 -12 -23 7 -32 -18 -52
-145 -12 -79 -6 -262 11 -302 5 -13 9 -17 9 -10 2 34 62 -10 76 -56 4 -13 9
-21 12 -18 3 2 16 1 29 -4 15 -6 24 -6 24 0 0 6 -7 10 -15 10 -9 0 -20 12 -26
28 -5 15 -17 41 -26 59 -19 37 -11 53 17 35 11 -7 28 -12 37 -12 37 -1 52 -24
49 -76 -2 -52 -30 -94 -60 -94 -11 0 -13 -9 -9 -37 3 -21 10 -42 14 -48 14
-14 11 -37 -8 -57 -13 -15 -14 -23 -4 -44 6 -14 20 -28 32 -31 13 -4 18 -11
14 -23 -4 -12 10 -37 43 -77 137 -164 310 -274 522 -331 132 -35 342 -37 473
-4 169 42 320 122 438 231 l64 59 -29 31 c-16 17 -52 40 -80 52 -32 13 -59 33
-71 52 -11 17 -43 45 -72 62 -29 16 -70 53 -93 83 -43 55 -60 64 -60 32 0 -12
-11 -42 -24 -68 -79 -155 -343 -273 -485 -216 -30 12 -44 26 -60 60 -12 24
-21 52 -21 61 0 32 -33 158 -48 180 -14 22 -52 32 -52 14 0 -18 -33 -21 -45
-5 -8 11 -25 16 -56 15 -88 -2 -97 4 -105 66 -4 31 -2 108 4 171 6 64 6 126 2
141 -24 74 -14 625 11 657 5 6 28 14 52 17 23 3 51 8 62 11 11 4 27 2 35 -3
12 -8 12 -12 -3 -29 -9 -10 -17 -32 -17 -49 0 -17 -4 -33 -10 -35 -5 -1 -19
-43 -32 -93 -18 -73 -24 -84 -28 -61 -3 16 -11 31 -17 34 -18 5 -17 -65 1 -75
7 -4 23 -28 35 -53 l21 -45 -2 71 c-1 55 3 79 20 112 12 23 19 42 17 42 -9 0
23 56 40 70 10 8 23 15 31 16 15 2 61 36 60 44 -2 12 40 48 64 56 28 9 26 9
58 -1 20 -6 23 -4 20 16 -2 12 -9 24 -16 25 -7 1 -8 0 -2 -3 22 -11 8 -20 -30
-19 -22 0 -40 2 -40 4 0 2 16 10 36 18 34 14 38 14 58 -5 26 -24 44 -28 26 -6
-10 13 -9 15 11 15 23 1 23 1 5 15 -23 17 -14 20 15 4 14 -7 24 -7 33 0 14 12
84 12 92 -1 3 -4 -3 -5 -12 -1 -12 4 -15 3 -10 -5 4 -7 14 -12 22 -12 7 0 19
-9 26 -20 7 -11 17 -20 22 -20 4 0 0 12 -9 28 l-18 27 24 -21 c31 -28 61 -42
76 -37 8 3 5 11 -8 24 -12 12 -18 23 -16 26 9 8 47 -36 42 -49 -2 -7 5 -24 16
-37 17 -21 22 -22 30 -10 7 11 9 11 9 -4 0 -12 4 -16 13 -11 8 5 8 2 -2 -9
-12 -15 -11 -17 3 -17 9 0 16 5 16 12 0 6 6 3 14 -7 8 -11 12 -23 10 -27 -3
-4 0 -17 6 -29 11 -20 22 -72 23 -114 1 -27 37 -28 37 -2 0 11 5 17 13 14 6
-2 11 -11 9 -18 -2 -8 0 -10 4 -6 4 4 14 -3 21 -15 13 -23 13 -22 7 5 -5 21
-3 27 11 27 10 0 13 -5 9 -12 -4 -7 -3 -8 5 -4 20 13 30 -36 13 -62 -12 -19
-13 -25 -3 -32 10 -5 10 -9 2 -11 -11 -4 -33 -146 -24 -161 2 -4 17 7 33 23
23 25 28 37 23 60 -3 18 0 38 10 53 16 24 17 80 2 166 -5 30 -12 38 -38 46
-25 7 -32 15 -32 34 -1 14 -4 31 -9 38 -6 10 -3 13 10 10 11 -2 19 -11 19 -20
0 -25 37 -61 46 -46 5 7 4 17 -1 22 -15 15 -12 29 4 23 16 -6 -19 73 -38 85
-21 14 -54 9 -52 -8 0 -9 -5 -19 -13 -22 -8 -3 -11 0 -7 7 10 15 -17 14 -32
-1 -9 -9 -12 -8 -12 6 0 13 -5 16 -20 11 -16 -5 -20 -2 -20 14 0 12 -5 21 -11
21 -7 0 -9 -9 -6 -21 3 -12 2 -18 -2 -13 -13 14 -22 74 -11 74 6 0 10 -7 10
-15 0 -10 6 -12 18 -8 22 9 42 35 35 47 -4 5 -12 1 -20 -9 -12 -18 -13 -18
-13 3 0 23 -32 62 -51 62 -5 0 -7 5 -4 10 3 6 2 10 -3 10 -5 0 -21 11 -36 25
-19 18 -25 31 -21 45 5 15 0 22 -20 30 -39 15 -75 13 -75 -5z m-74 -97 c4 -7
3 -8 -4 -4 -7 4 -12 2 -12 -4 0 -6 -5 -8 -11 -4 -8 4 -7 9 2 15 18 11 17 11
25 -3z m-60 -23 c10 -8 14 -15 7 -15 -19 0 -43 11 -43 21 0 13 14 11 36 -6z
m147 -4 c4 -17 2 -18 -13 -8 -10 6 -16 15 -14 19 9 14 22 9 27 -11z m61 -6
c-3 -7 2 -18 11 -25 8 -7 15 -20 14 -29 0 -13 -2 -13 -6 -1 -3 8 -14 23 -25
34 -22 24 -23 33 -4 33 8 0 12 -6 10 -12z m49 -12 c5 -26 4 -26 -9 -9 -7 10
-11 23 -8 27 8 14 11 11 17 -18z m-464 14 c-2 -1 -14 -11 -26 -21 -13 -11 -23
-16 -23 -13 0 10 31 37 42 37 6 0 9 -1 7 -3z m501 -68 c0 -39 -15 -30 -18 11
-2 19 1 29 8 25 5 -3 10 -20 10 -36z m200 -93 c0 -8 5 -16 12 -18 6 -2 9 -10
7 -16 -3 -9 -11 -7 -27 8 -26 24 -28 40 -7 40 8 0 15 -6 15 -14z m7 -142 c-3
-4 1 -21 10 -38 l15 -31 -31 29 c-23 22 -28 32 -19 38 15 9 34 11 25 2z m-52
-25 c11 -17 -1 -21 -15 -4 -8 9 -8 15 -2 15 6 0 14 -5 17 -11z m-1206 -353 c7
-8 12 -36 11 -63 0 -26 2 -59 5 -73 4 -14 -1 -42 -10 -62 -30 -73 -50 -42 -60
94 -6 87 -5 97 12 107 24 14 28 14 42 -3z m-19 -280 c0 -3 -4 -8 -10 -11 -5
-3 -10 -1 -10 4 0 6 5 11 10 11 6 0 10 -2 10 -4z m108 -122 c4 -27 -26 -40
-46 -20 -21 20 -8 48 20 44 14 -2 24 -11 26 -24z"/>
<path d="M970 1771 c14 -11 32 -21 40 -21 13 0 13 -1 0 -10 -12 -7 -11 -9 6
-8 28 3 20 34 -11 42 -13 3 -31 9 -42 12 -13 4 -11 0 7 -15z"/>
<path d="M940 1753 c8 -3 24 -10 35 -15 20 -9 20 -9 1 6 -11 9 -27 16 -35 15
-14 0 -14 -1 -1 -6z"/>
<path d="M786 1714 c-11 -8 -16 -14 -10 -14 13 0 39 18 34 24 -3 2 -14 -2 -24
-10z"/>
<path d="M741 1679 c-13 -5 -37 -20 -53 -34 -16 -14 -35 -25 -42 -25 -6 0 -17
-5 -24 -12 -9 -9 -6 -15 16 -24 24 -10 25 -12 8 -19 -11 -5 -21 -3 -26 6 -5 7
-12 10 -16 7 -3 -4 0 -13 8 -21 18 -19 50 -6 73 30 10 15 26 34 34 41 14 10
13 11 -4 6 -19 -7 -19 -6 -2 12 13 14 20 16 25 7 5 -8 13 -9 22 -3 12 8 11 10
-4 10 -20 0 -20 0 0 15 22 17 19 18 -15 4z m-64 -69 c-14 -11 -29 -20 -34 -20
-10 1 39 39 51 40 5 0 -3 -9 -17 -20z"/>
<path d="M657 1543 c-4 -3 -7 -15 -7 -27 0 -20 0 -20 15 0 8 10 15 22 15 27 0
9 -14 9 -23 0z"/>
<path d="M1370 1340 c0 -11 4 -20 9 -20 5 0 7 9 4 20 -3 11 -7 20 -9 20 -2 0
-4 -9 -4 -20z"/>
<path d="M790 1315 c-11 -13 -10 -14 4 -9 9 3 16 10 16 15 0 13 -6 11 -20 -6z"/>
<path d="M1162 1318 c3 -8 26 -14 59 -16 81 -3 96 -9 101 -37 4 -18 2 -23 -6
-18 -7 5 -5 1 4 -7 10 -9 19 -22 23 -30 4 -12 6 -11 6 3 1 9 5 17 11 17 5 0 8
-14 6 -30 -2 -17 0 -32 3 -35 4 -2 8 -23 10 -47 1 -24 8 -68 15 -98 13 -53 13
-49 8 70 -3 90 -9 127 -18 133 -8 4 -14 16 -14 26 0 10 -10 26 -22 35 -13 9
-17 14 -10 10 11 -5 12 -2 3 15 -13 24 -23 28 -15 6 5 -13 2 -13 -30 0 -44 19
-139 21 -134 3z"/>
<path d="M520 1301 c0 -25 6 -27 13 -6 4 8 2 17 -3 20 -6 4 -10 -3 -10 -14z"/>
<path d="M710 1310 c-9 -6 -10 -10 -3 -10 6 0 15 5 18 10 8 12 4 12 -15 0z"/>
<path d="M740 1310 c0 -5 4 -10 9 -10 6 0 13 5 16 10 3 6 -1 10 -9 10 -9 0
-16 -4 -16 -10z"/>
<path d="M844 1305 c21 -16 32 -13 21 4 -3 6 -14 11 -23 11 -15 -1 -15 -2 2
-15z"/>
<path d="M1374 1292 c15 -54 18 -62 25 -62 13 0 -1 69 -16 74 -10 4 -13 1 -9
-12z"/>
<path d="M778 1228 c-42 -11 -84 -48 -54 -48 9 0 19 7 22 15 8 20 24 19 41 -2
13 -16 14 -16 9 -1 -8 27 16 39 55 28 44 -13 49 -12 24 2 -27 16 -53 18 -97 6z"/>
<path d="M1120 1225 c-11 -13 -10 -14 4 -9 9 3 16 10 16 15 0 13 -6 11 -20 -6z"/>
<path d="M1160 1231 c0 -6 6 -8 13 -5 8 3 20 -2 27 -10 7 -9 17 -13 22 -10 5
4 27 -10 48 -31 23 -22 40 -33 44 -26 8 12 -16 39 -55 63 -34 21 -99 34 -99
19z"/>
<path d="M595 1070 c3 -5 8 -10 11 -10 2 0 4 5 4 10 0 6 -5 10 -11 10 -5 0 -7
-4 -4 -10z"/>
<path d="M591 1034 c0 -11 3 -14 6 -6 3 7 2 16 -1 19 -3 4 -6 -2 -5 -13z"/>
<path d="M592 985 c0 -16 2 -22 5 -12 2 9 2 23 0 30 -3 6 -5 -1 -5 -18z"/>
<path d="M1135 790 c-16 -11 -26 -20 -21 -20 19 0 76 24 76 32 0 14 -24 9 -55
-12z"/>
<path d="M835 790 c-3 -5 6 -12 20 -16 35 -9 41 0 10 14 -14 7 -27 8 -30 2z"/>
<path d="M1008 753 c6 -2 18 -2 25 0 6 3 1 5 -13 5 -14 0 -19 -2 -12 -5z"/>
<path d="M40 718 c0 -28 24 -47 53 -41 43 8 29 35 -26 48 -20 5 -27 3 -27 -7z"/>
</g>
</svg>
