<?xml version="1.0" standalone="no"?>
<!DOCTYPE svg PUBLIC "-//W3C//DTD SVG 20010904//EN"
 "http://www.w3.org/TR/2001/REC-SVG-20010904/DTD/svg10.dtd">
<svg version="1.0" xmlns="http://www.w3.org/2000/svg"
 width="199.000000pt" height="199.000000pt" viewBox="0 0 199.000000 199.000000"
 preserveAspectRatio="xMidYMid meet">

<g transform="translate(0.000000,199.000000) scale(0.100000,-0.100000)"
fill="#000000" stroke="none">
<path d="M944 1821 c-87 -30 -121 -50 -198 -118 -56 -50 -98 -105 -113 -149
-6 -17 -27 -52 -47 -78 -21 -28 -36 -59 -36 -75 0 -15 -8 -52 -17 -82 -9 -30
-17 -59 -19 -65 -8 -41 -17 -56 -25 -43 -6 9 -9 1 -9 -26 0 -29 3 -36 10 -25
5 8 10 12 10 8 0 -12 -50 -102 -69 -123 -23 -24 -51 -79 -51 -97 1 -7 7 2 15
20 13 30 66 85 74 77 2 -2 -10 -17 -26 -33 -24 -25 -28 -36 -26 -74 2 -37 -1
-44 -17 -45 -20 -2 -65 -41 -56 -50 3 -3 14 0 23 8 17 13 17 12 2 -6 -9 -11
-22 -29 -28 -40 -11 -18 -12 -17 -6 8 3 15 1 27 -5 27 -11 0 -13 -12 -10 -47
1 -13 -2 -23 -7 -23 -5 0 -14 -14 -20 -31 -10 -26 -10 -30 3 -25 21 8 17 -12
-5 -24 -26 -13 -34 -13 -25 2 4 7 3 8 -5 4 -6 -4 -9 -12 -6 -17 4 -5 -1 -9 -9
-9 -23 0 -20 -15 6 -32 20 -13 21 -17 9 -32 -12 -14 -10 -16 19 -16 25 0 41 8
63 33 27 29 29 30 24 9 -4 -19 -2 -22 10 -18 13 5 14 4 3 -9 -7 -9 -18 -14
-24 -12 -20 7 -46 -13 -46 -36 0 -22 -1 -22 -21 3 -14 17 -19 19 -15 7 4 -13
-4 -23 -29 -38 -19 -12 -35 -25 -35 -30 0 -5 -11 -14 -25 -19 -14 -5 -25 -14
-25 -19 0 -17 88 -126 152 -187 376 -361 978 -363 1362 -4 82 78 93 95 72 119
-9 10 -16 22 -16 28 0 15 -44 63 -58 63 -7 0 -12 7 -12 15 0 8 5 15 11 15 20
0 -43 95 -81 122 -47 32 -60 76 -35 115 13 19 15 36 10 72 -4 25 -10 40 -12
34 -4 -10 -12 -9 -34 3 -33 17 -33 22 2 103 20 46 25 96 10 105 -5 3 -11 23
-14 43 -3 21 -8 50 -10 65 -3 16 -1 30 4 34 5 3 9 10 9 15 0 6 -4 7 -10 4 -6
-4 -10 15 -10 49 0 30 -3 62 -6 70 -5 12 -2 15 12 9 14 -5 13 -2 -5 16 -15 15
-19 26 -13 34 10 12 9 36 -2 131 -8 64 -51 154 -80 167 -12 6 -30 24 -40 40
-21 36 -37 44 -110 58 -47 9 -62 8 -68 -1 -5 -10 -22 -5 -66 20 -33 17 -68 32
-78 32 -11 0 -56 -13 -100 -29z m492 -168 c-7 -7 -26 7 -26 19 0 6 6 6 15 -2
9 -7 13 -15 11 -17z m-174 -10 c41 -24 100 -110 122 -178 9 -29 16 -85 16
-130 0 -67 -2 -76 -15 -65 -15 13 -75 8 -130 -10 -40 -13 -72 -69 -56 -98 19
-36 141 -59 155 -29 3 6 5 -22 3 -63 -2 -70 -7 -86 -77 -235 -56 -120 -86
-172 -121 -207 -44 -47 -47 -48 -105 -48 -37 0 -54 -4 -45 -9 10 -6 11 -13 2
-29 -13 -24 -15 -43 -2 -23 12 19 32 5 24 -17 -4 -9 -16 -25 -28 -35 -20 -17
-20 -17 0 -10 19 6 19 6 3 -14 -10 -11 -18 -25 -18 -31 0 -7 -8 -12 -17 -12
-15 0 -14 -2 3 -16 10 -8 14 -13 8 -10 -16 8 -26 -35 -12 -52 6 -7 7 -12 2
-11 -21 4 -35 -2 -32 -13 1 -7 -2 -31 -7 -53 -5 -22 -10 -51 -11 -65 -1 -14
-2 -30 -3 -37 0 -7 -18 -17 -38 -22 -35 -10 -40 -8 -89 29 -84 63 -230 232
-218 252 3 5 -10 29 -30 53 -20 24 -36 46 -36 49 0 14 78 4 108 -14 37 -23 55
-27 27 -6 -19 14 -19 15 -2 34 12 13 15 22 8 27 -7 4 -8 12 -1 24 5 10 6 21 3
25 -3 3 3 6 14 6 11 0 24 10 30 23 24 48 43 128 37 152 -9 38 9 30 45 -20 17
-24 37 -47 43 -51 7 -4 2 7 -10 24 -42 58 -84 173 -82 222 3 55 2 88 -4 160
-3 36 -1 57 7 62 9 6 9 8 0 8 -7 0 -13 8 -13 18 0 26 38 124 51 133 6 4 8 12
4 19 -4 6 1 20 11 31 10 11 19 25 20 32 1 7 12 39 25 72 16 44 37 74 78 114
31 29 65 57 76 61 11 4 70 6 132 5 89 -2 120 -7 145 -22z m133 -418 c0 -17 -6
-20 -40 -19 -21 1 -41 6 -43 12 -2 6 -11 9 -20 6 -9 -3 -6 2 8 10 14 9 41 15
60 13 28 -1 35 -6 35 -22z m-65 -65 c0 -5 -9 -14 -20 -20 -22 -12 -27 -1 -8
18 14 14 28 16 28 2z m207 -350 c6 -13 9 -29 5 -34 -4 -6 -8 -2 -10 9 -2 11
-11 29 -21 39 -13 16 -13 18 -1 14 8 -2 20 -15 27 -28z m-22 -30 c3 -6 -1 -7
-9 -4 -18 7 -21 14 -7 14 6 0 13 -4 16 -10z m-1185 -90 c0 -5 -5 -10 -11 -10
-5 0 -7 5 -4 10 3 6 8 10 11 10 2 0 4 -4 4 -10z m10 -45 c0 -8 -6 -15 -14 -15
-20 0 -29 17 -14 23 22 9 28 7 28 -8z m1255 -45 c3 -5 -1 -10 -9 -10 -9 0 -16
5 -16 10 0 6 4 10 9 10 6 0 13 -4 16 -10z m-1255 -30 c0 -5 -5 -10 -11 -10 -5
0 -7 5 -4 10 3 6 8 10 11 10 2 0 4 -4 4 -10z m1367 -137 c3 -7 -4 -9 -16 -6
-12 3 -18 9 -15 15 7 11 26 6 31 -9z m-1062 -172 c3 -5 1 -12 -5 -16 -5 -3
-10 1 -10 9 0 18 6 21 15 7z m281 -160 c18 15 27 7 18 -15 -7 -18 -34 -22 -34
-5 0 6 -9 8 -20 4 -11 -3 -20 -2 -20 4 0 12 34 20 38 8 2 -4 10 -3 18 4z"/>
<path d="M871 1331 c-19 -3 -36 -12 -39 -19 -3 -9 3 -10 23 -2 45 17 73 11
165 -35 64 -32 90 -41 90 -31 0 30 -42 58 -118 82 -49 15 -65 15 -121 5z"/>
<path d="M824 1255 c-8 -20 34 -66 75 -82 42 -15 139 -12 150 6 5 8 16 11 25
8 30 -12 17 31 -16 55 -28 19 -48 24 -130 26 -84 3 -99 1 -104 -13z m184 -45
c7 -11 9 -20 5 -20 -5 0 -19 -3 -32 -7 -21 -5 -22 -4 -12 14 5 11 7 23 4 27
-3 3 0 6 8 6 8 0 20 -9 27 -20z m-94 -6 c5 -14 4 -15 -9 -4 -17 14 -19 20 -6
20 5 0 12 -7 15 -16z"/>
<path d="M1064 951 c3 -5 15 -11 26 -14 17 -4 19 -3 9 9 -12 15 -44 20 -35 5z"/>
<path d="M992 841 c-18 -3 -33 -10 -33 -14 0 -4 21 -23 46 -42 39 -30 53 -35
99 -35 49 0 56 3 79 34 l26 33 -24 13 c-13 7 -35 10 -49 6 -13 -3 -28 -2 -31
4 -7 11 -59 11 -113 1z m108 -62 c11 -19 9 -20 -17 -17 -17 2 -29 10 -31 21
-5 25 35 22 48 -4z m63 0 c-12 -13 -28 -19 -37 -16 -23 9 -20 25 7 30 48 9 52
8 30 -14z"/>
<path d="M630 390 c0 -5 5 -10 11 -10 5 0 7 5 4 10 -3 6 -8 10 -11 10 -2 0 -4
-4 -4 -10z"/>
<path d="M696 375 c4 -8 11 -15 16 -15 6 0 5 6 -2 15 -7 8 -14 15 -16 15 -2 0
-1 -7 2 -15z"/>
</g>
</svg>
