<?xml version="1.0" encoding="UTF-8"?>
<svg version="1.1" xmlns="http://www.w3.org/2000/svg" width="194" height="95">
<path d="M0 0 C0.99 0 1.98 0 3 0 C1.87367391 3.37897827 1.1795993 3.80366863 -1.5625 5.875 C-13.19832738 15.83660761 -16.56596862 29.37287991 -18 44 C-17.01 43.505 -17.01 43.505 -16 43 C-16.06960937 42.00033203 -16.06960937 42.00033203 -16.140625 40.98046875 C-16.50909865 31.57123097 -14.69109801 23.78286153 -8.5 16.5 C-6.19283197 14.02503793 -3.81220402 11.89016992 -1 10 C-0.34 10 0.32 10 1 10 C1 10.66 1 11.32 1 12 C0.34 12 -0.32 12 -1 12 C-1.29003906 12.88751953 -1.29003906 12.88751953 -1.5859375 13.79296875 C-2.94414719 17.9146645 -4.32050585 21.9950524 -6 26 C-5.38511719 26.10957031 -4.77023438 26.21914063 -4.13671875 26.33203125 C-2.92435547 26.56986328 -2.92435547 26.56986328 -1.6875 26.8125 C-0.88699219 26.96332031 -0.08648437 27.11414063 0.73828125 27.26953125 C3.27502952 28.08882646 4.41342017 28.87064287 6 31 C5.6875 33.6875 5.6875 33.6875 5 36 C7.64 37.65 10.28 39.3 13 41 C12.72618187 44.28581756 12.30103717 45.69896283 9.9375 48.0625 C6.42897399 50.37663418 2.80419499 52.22533832 -1 54 C-0.7525 55.4540625 -0.7525 55.4540625 -0.5 56.9375 C0.8852577 67.29591951 -0.13602943 76.95066902 -5.90625 85.984375 C-11.40327194 93.08127646 -11.40327194 93.08127646 -16 95 C-15.79503906 94.39671875 -15.59007813 93.7934375 -15.37890625 93.171875 C-15.10949219 92.37265625 -14.84007813 91.5734375 -14.5625 90.75 C-14.29566406 89.96109375 -14.02882813 89.1721875 -13.75390625 88.359375 C-12.55168648 84.59698775 -11.87283849 81.34038238 -11.8671875 77.375 C-11.86589844 76.50359375 -11.86460938 75.6321875 -11.86328125 74.734375 C-11.86908203 73.38085938 -11.86908203 73.38085938 -11.875 72 C-11.87113281 71.09765625 -11.86726563 70.1953125 -11.86328125 69.265625 C-11.86457031 68.39421875 -11.86585937 67.5228125 -11.8671875 66.625 C-11.86831543 65.83351563 -11.86944336 65.04203125 -11.87060547 64.2265625 C-11.99825767 62.02998126 -12.39358343 60.11011287 -13 58 C-13.66 58 -14.32 58 -15 58 C-14.484375 59.093125 -13.96875 60.18625 -13.4375 61.3125 C-12 65 -12 65 -13 68 C-13.27972656 67.4225 -13.55945313 66.845 -13.84765625 66.25 C-15.09120051 63.94684407 -16.26190188 61.96181372 -18 60 C-21.71256453 59.33076238 -21.71256453 59.33076238 -25 60 C-25 59.34 -25 58.68 -25 58 C-23.35 57.34 -21.7 56.68 -20 56 C-20.99 54.02 -21.98 52.04 -23 50 C-23.67546875 50.144375 -24.3509375 50.28875 -25.046875 50.4375 C-25.93890625 50.623125 -26.8309375 50.80875 -27.75 51 C-28.63171875 51.185625 -29.5134375 51.37125 -30.421875 51.5625 C-33 52 -33 52 -37 52 C-37 51.34 -37 50.68 -37 50 C-32.71 49.01 -28.42 48.02 -24 47 C-24.33 45.68 -24.66 44.36 -25 43 C-25.86186453 33.49123228 -24.81106186 25.08386823 -18.9765625 17.30078125 C-7.58827542 4.2994774 -7.58827542 4.2994774 0 2 C0 1.34 0 0.68 0 0 Z M-6 28 C-7.38125018 30.76250036 -7.19079306 32.94731099 -7 36 C-6.34 36.66 -5.68 37.32 -5 38 C-3.39585785 36.81476003 -3.39585785 36.81476003 -2 35 C-1.74930087 32.37429296 -1.74930087 32.37429296 -2 30 C-3.32 29.34 -4.64 28.68 -6 28 Z M-0.04296875 38.99609375 C-1.10451172 39.70958984 -1.10451172 39.70958984 -2.1875 40.4375 C-2.90292969 40.91058594 -3.61835937 41.38367187 -4.35546875 41.87109375 C-4.89816406 42.24363281 -5.44085937 42.61617187 -6 43 C-5.01 45.64 -4.02 48.28 -3 51 C-1.88625 50.38125 -0.7725 49.7625 0.375 49.125 C1.00148438 48.77695312 1.62796875 48.42890625 2.2734375 48.0703125 C4.1612614 46.99102726 4.1612614 46.99102726 6 45 C5.67801034 41.90073181 5.67801034 41.90073181 5 39 C2.11436427 37.64922909 2.11436427 37.64922909 -0.04296875 38.99609375 Z M-17 47 C-16.67 49.97 -16.34 52.94 -16 56 C-15.01 55.67 -14.02 55.34 -13 55 C-13.66 52.36 -14.32 49.72 -15 47 C-15.66 47 -16.32 47 -17 47 Z " fill="#D3D3D3" transform="translate(37,0)"/>
<path d="M0 0 C1.98 0 3.96 0 6 0 C6.33 6.93 6.66 13.86 7 21 C7.66 21 8.32 21 9 21 C10.2380014 17.42355152 9.74926071 14.66305234 9 11 C12.21966619 8.10762848 14.27150734 7.6332383 18.5625 7.75 C19.51253906 7.76546875 20.46257812 7.7809375 21.44140625 7.796875 C24 8 24 8 27 9 C27.495 15.435 27.495 15.435 28 22 C29.65 21.67 31.3 21.34 33 21 C32.85851011 19.3954444 32.71164314 17.79136233 32.5625 16.1875 C32.48128906 15.29417969 32.40007812 14.40085937 32.31640625 13.48046875 C32.06510233 10.87256441 32.06510233 10.87256441 31 8 C32.98 8.33 34.96 8.66 37 9 C37 12.96 37 16.92 37 21 C37.66 21 38.32 21 39 21 C38.505 22.485 38.505 22.485 38 24 C36.22950311 24.05410687 34.45853151 24.09284119 32.6875 24.125 C31.20830078 24.15980469 31.20830078 24.15980469 29.69921875 24.1953125 C27 24 27 24 24 22 C23.70703125 19.3984375 23.70703125 19.3984375 23.8125 16.375 C23.85310547 14.87066406 23.85310547 14.87066406 23.89453125 13.3359375 C23.92933594 12.56507812 23.96414062 11.79421875 24 11 C23.01 11.33 22.02 11.66 21 12 C20.67 12 20.34 12 20 12 C19.896875 12.78375 19.79375 13.5675 19.6875 14.375 C19 17 19 17 16 19 C16.804375 19.226875 17.60875 19.45375 18.4375 19.6875 C21 21 21 21 22 23.4375 C22 26 22 26 20.9375 27.75 C18.22832048 29.49785775 16.21849155 29.87126034 13 30 C10.125 28.75 10.125 28.75 8 27 C8 26.01 8 25.02 8 24 C7.44014404 24.01571045 6.88028809 24.0314209 6.3034668 24.04760742 C3.7649141 24.10999848 1.22652271 24.14900218 -1.3125 24.1875 C-2.19357422 24.21263672 -3.07464844 24.23777344 -3.98242188 24.26367188 C-5.25375977 24.27817383 -5.25375977 24.27817383 -6.55078125 24.29296875 C-7.33106689 24.3086792 -8.11135254 24.32438965 -8.9152832 24.34057617 C-11.53225836 23.91304598 -12.41828338 23.09151825 -14 21 C-13.9375 18.9375 -13.9375 18.9375 -13 17 C-10.41847698 15.27898465 -9.15081975 15 -6 15 C-6 13.35 -6 11.7 -6 10 C-9.11785113 10.64644661 -9.11785113 10.64644661 -10 13 C-10.99 12.67 -11.98 12.34 -13 12 C-13 11.01 -13 10.02 -13 9 C-6.375 7.875 -6.375 7.875 -3 9 C-1.78306124 11.43387753 -1.68040104 13.41838846 -1.4375 16.125 C-1.35371094 17.03507812 -1.26992187 17.94515625 -1.18359375 18.8828125 C-1.12300781 19.58148438 -1.06242187 20.28015625 -1 21 C-0.34 21 0.32 21 1 21 C1.33 14.73 1.66 8.46 2 2 C1.34 2 0.68 2 0 2 C0 1.34 0 0.68 0 0 Z M13 10 C13 11.98 13 13.96 13 16 C13.99 16 14.98 16 16 16 C17.33333333 13 17.33333333 13 16 10 C15.01 10 14.02 10 13 10 Z M-8 17 C-8.66 18.32 -9.32 19.64 -10 21 C-8.68 21 -7.36 21 -6 21 C-6 19.68 -6 18.36 -6 17 C-6.66 17 -7.32 17 -8 17 Z M10 24 C10.33 24.99 10.66 25.98 11 27 C12.81656815 27.93391003 12.81656815 27.93391003 15 28 C17.21771064 27.14209817 17.21771064 27.14209817 19 26 C18.67 25.01 18.34 24.02 18 23 C14.95613276 22.91773332 12.92824652 23.02391783 10 24 Z " fill="#D9D9D9" transform="translate(104,20)"/>
<path d="M0 0 C0.433125 0.99 0.86625 1.98 1.3125 3 C2.1478125 4.485 2.1478125 4.485 3 6 C6.08961458 6.97474816 6.08961458 6.97474816 9 7 C7 9 7 9 4 10 C4.2475 11.4540625 4.2475 11.4540625 4.5 12.9375 C5.8852577 23.29591951 4.86397057 32.95066902 -0.90625 41.984375 C-6.40327194 49.08127646 -6.40327194 49.08127646 -11 51 C-10.79503906 50.39671875 -10.59007813 49.7934375 -10.37890625 49.171875 C-10.10949219 48.37265625 -9.84007812 47.5734375 -9.5625 46.75 C-9.29566406 45.96109375 -9.02882813 45.1721875 -8.75390625 44.359375 C-7.55168648 40.59698775 -6.87283849 37.34038238 -6.8671875 33.375 C-6.86589844 32.50359375 -6.86460938 31.6321875 -6.86328125 30.734375 C-6.86714844 29.83203125 -6.87101562 28.9296875 -6.875 28 C-6.87113281 27.09765625 -6.86726563 26.1953125 -6.86328125 25.265625 C-6.86521484 23.95851563 -6.86521484 23.95851563 -6.8671875 22.625 C-6.86831543 21.83351563 -6.86944336 21.04203125 -6.87060547 20.2265625 C-6.99825767 18.02998126 -7.39358343 16.11011287 -8 14 C-8.66 14 -9.32 14 -10 14 C-9.484375 15.093125 -8.96875 16.18625 -8.4375 17.3125 C-7 21 -7 21 -8 24 C-12.03273322 18.86743044 -12.03273322 18.86743044 -11.875 14.6875 C-11.58625 13.800625 -11.2975 12.91375 -11 12 C-10.34 11.67 -9.68 11.34 -9 11 C-9.66 8.03 -10.32 5.06 -11 2 C-3.375 -1.125 -3.375 -1.125 0 0 Z " fill="#DEDEDE" transform="translate(32,44)"/>
<path d="M0 0 C0 6.27 0 12.54 0 19 C1.32 19 2.64 19 4 19 C4 16.03 4 13.06 4 10 C3.34 10 2.68 10 2 10 C2 9.34 2 8.68 2 8 C3.65 8 5.3 8 7 8 C7 11.63 7 15.26 7 19 C7.66 19 8.32 19 9 19 C9 19.66 9 20.32 9 21 C6.24940619 21.08107646 3.50120979 21.14052813 0.75 21.1875 C-0.02730469 21.21263672 -0.80460937 21.23777344 -1.60546875 21.26367188 C-7.42997175 21.33834499 -7.42997175 21.33834499 -10.546875 19.48828125 C-11.02640625 18.99714844 -11.5059375 18.50601563 -12 18 C-12.33 18.99 -12.66 19.98 -13 21 C-18.61 21 -24.22 21 -30 21 C-30 20.34 -30 19.68 -30 19 C-29.34 18.67 -28.68 18.34 -28 18 C-27.68758629 15.45058627 -27.48696579 12.99638487 -27.375 10.4375 C-27.33632812 9.72658203 -27.29765625 9.01566406 -27.2578125 8.28320312 C-27.16328217 6.52257575 -27.08054183 4.76132272 -27 3 C-27.99 3 -28.98 3 -30 3 C-30 2.34 -30 1.68 -30 1 C-24.72 1 -19.44 1 -14 1 C-14 2.65 -14 4.3 -14 6 C-14.66 6 -15.32 6 -16 6 C-16.33 5.34 -16.66 4.68 -17 4 C-20.02934491 3.34227572 -20.02934491 3.34227572 -23 3 C-23 4.98 -23 6.96 -23 9 C-22.01 9 -21.02 9 -20 9 C-20 8.01 -20 7.02 -20 6 C-19.34 6 -18.68 6 -18 6 C-18 8.97 -18 11.94 -18 15 C-18.66 15 -19.32 15 -20 15 C-20.33 14.01 -20.66 13.02 -21 12 C-21.66 11.67 -22.32 11.34 -23 11 C-22.67 13.31 -22.34 15.62 -22 18 C-20.02 18 -18.04 18 -16 18 C-15.34 16.68 -14.68 15.36 -14 14 C-13.34 14 -12.68 14 -12 14 C-11.67 12.35 -11.34 10.7 -11 9 C-9.02253397 8.26919734 -7.01927511 7.60578253 -5 7 C-4.34 7.33 -3.68 7.66 -3 8 C-3 6.35 -3 4.7 -3 3 C-3.66 3 -4.32 3 -5 3 C-5 2.34 -5 1.68 -5 1 C-2 0 -2 0 0 0 Z M-8 10 C-9.33648017 11.11101184 -9.33648017 11.11101184 -9.125 13.9375 C-9.21325664 16.91545728 -9.21325664 16.91545728 -8 19 C-6.35 18.67 -4.7 18.34 -3 18 C-3 15.69 -3 13.38 -3 11 C-4.65614657 10.61781233 -6.32457024 10.28604898 -8 10 Z " fill="#E7E7E7" transform="translate(113,55)"/>
<path d="M0 0 C0 0.66 0 1.32 0 2 C-0.66 2 -1.32 2 -2 2 C-2.19335938 2.59167969 -2.38671875 3.18335938 -2.5859375 3.79296875 C-3.94414719 7.9146645 -5.32050585 11.9950524 -7 16 C-4.69 16.33 -2.38 16.66 0 17 C-1.8125 18.0625 -1.8125 18.0625 -4 19 C-4.99 18.67 -5.98 18.34 -7 18 C-7.020625 19.258125 -7.04125 20.51625 -7.0625 21.8125 C-7.07410156 22.52019531 -7.08570313 23.22789063 -7.09765625 23.95703125 C-7.08263217 26.20305461 -7.08263217 26.20305461 -6 29 C-7.45264038 29.8638129 -8.9123163 30.71580454 -10.375 31.5625 C-11.18710937 32.03816406 -11.99921875 32.51382813 -12.8359375 33.00390625 C-13.90714844 33.49697266 -13.90714844 33.49697266 -15 34 C-15.66 33.67 -16.32 33.34 -17 33 C-17.70323881 22.90070925 -16.19714528 14.37814724 -9.5 6.5 C-3.44067797 0 -3.44067797 0 0 0 Z " fill="#E0E0E0" transform="translate(38,10)"/>
<path d="M0 0 C5.94 0 11.88 0 18 0 C18.33 2.31 18.66 4.62 19 7 C18.34 7 17.68 7 17 7 C16.67 5.68 16.34 4.36 16 3 C13.36 2.67 10.72 2.34 8 2 C8 4.64 8 7.28 8 10 C9.98491642 9.73323796 9.98491642 9.73323796 12 9 C12.33 8.01 12.66 7.02 13 6 C13.66 6 14.32 6 15 6 C15 9.63 15 13.26 15 17 C14.34 17 13.68 17 13 17 C12.731875 16.360625 12.46375 15.72125 12.1875 15.0625 C11.11332248 12.66868314 11.11332248 12.66868314 8 12 C8.33 14.97 8.66 17.94 9 21 C9.99 21.33 10.98 21.66 12 22 C12 22.66 12 23.32 12 24 C8.04 24 4.08 24 0 24 C0 23.34 0 22.68 0 22 C0.48895752 21.5464917 0.97791504 21.0929834 1.48168945 20.62573242 C3.37393912 18.59960435 3.35446048 17.71441478 3.29296875 14.98828125 C3.28330078 14.23095703 3.27363281 13.47363281 3.26367188 12.69335938 C3.23853516 11.90767578 3.21339844 11.12199219 3.1875 10.3125 C3.17396484 9.51521484 3.16042969 8.71792969 3.14648438 7.89648438 C3.11117089 5.93070033 3.05736447 3.96526418 3 2 C2.01 2 1.02 2 0 2 C0 1.34 0 0.68 0 0 Z " fill="#DCDCDC" transform="translate(55,20)"/>
<path d="M0 0 C0 2.64 0 5.28 0 8 C-2.51083114 6.74458443 -2.87125446 5.49936512 -4 3 C-5.65 3 -7.3 3 -9 3 C-8.84397864 4.91912951 -8.84397864 4.91912951 -8 7 C-5.91702749 8.52873016 -5.91702749 8.52873016 -3.4375 9.8125 C0.88842587 12.5377643 0.88842587 12.5377643 1.875 16.625 C1 20 1 20 -0.875 22.5 C-5.39308692 24.66868172 -9.17348008 23.86221327 -14 23 C-14 20.69 -14 18.38 -14 16 C-13.34 16 -12.68 16 -12 16 C-11.67 17.65 -11.34 19.3 -11 21 C-9.02 21 -7.04 21 -5 21 C-4.22757731 19.16299211 -4.22757731 19.16299211 -4 17 C-5.61062117 14.76302616 -7.12698009 13.93953329 -9.625 12.75 C-12 11 -12 11 -13 7.5625 C-13 4 -13 4 -11.75 1.625 C-8.02328431 -1.83552171 -4.6731582 -0.79355517 0 0 Z " fill="#D2D2D2" transform="translate(88,20)"/>
<path d="M0 0 C0 4.29 0 8.58 0 13 C0.99 13 1.98 13 3 13 C3.33 9.7 3.66 6.4 4 3 C3.34 3 2.68 3 2 3 C2 2.34 2 1.68 2 1 C6.3164922 0.23826608 9.74433453 -0.16063604 14 1 C13.67 1.99 13.34 2.98 13 4 C10.525 3.505 10.525 3.505 8 3 C8 6.3 8 9.6 8 13 C8.66 13.33 9.32 13.66 10 14 C10 14.66 10 15.32 10 16 C4.39 16 -1.22 16 -7 16 C-7 15.34 -7 14.68 -7 14 C-6.34 13.67 -5.68 13.34 -5 13 C-4.53248212 10.64400765 -4.53248212 10.64400765 -4.375 7.9375 C-4.30023438 7.01839844 -4.22546875 6.09929688 -4.1484375 5.15234375 C-4.09945312 4.44207031 -4.05046875 3.73179688 -4 3 C-4.99 2.67 -5.98 2.34 -7 2 C-4.35261084 0.5393715 -3.10551666 0 0 0 Z " fill="#D4D4D4" transform="translate(164,28)"/>
<path d="M0 0 C3.71317907 1.14770989 5.2692056 1.85342428 7.4375 5.0625 C8.0625 8 8.0625 8 7.4375 11.0625 C5.31050158 13.50076648 4.23026192 14.72417426 1.4375 16.0625 C-2.95959443 16.21412395 -4.7841205 15.76304155 -8.0625 12.8125 C-9.5625 10.0625 -9.5625 10.0625 -9.625 7.5625 C-7.56648082 2.71892547 -5.41427175 0.09498722 0 0 Z M-4.3125 3.6875 C-5.9952223 6.88467237 -5.52891489 8.64287808 -4.5625 12.0625 C-3.9025 12.7225 -3.2425 13.3825 -2.5625 14.0625 C0.04030568 13.74208603 0.04030568 13.74208603 2.4375 13.0625 C3.35643304 9.47030721 3.68895386 7.64084388 2.1875 4.1875 C1.61 3.48625 1.0325 2.785 0.4375 2.0625 C-2.59412353 1.72227445 -2.59412353 1.72227445 -4.3125 3.6875 Z " fill="#D6D6D6" transform="translate(186.5625,27.9375)"/>
<path d="M0 0 C3.21559029 1.18837032 4.25131113 2.08573707 5.875 5.0625 C5.875 5.7225 5.875 6.3825 5.875 7.0625 C2.575 7.0625 -0.725 7.0625 -4.125 7.0625 C-3.34369929 9.55802484 -3.34369929 9.55802484 -2.125 12.0625 C1.49826739 13.2702558 2.51646369 12.60561128 5.875 11.0625 C5.25 13 5.25 13 3.875 15.0625 C0.24130757 16.27373081 -1.44243249 16.3810315 -4.9375 14.75 C-7.71561831 12.60688016 -8.03744144 11.71918921 -8.5 8.25 C-8.125 5.0625 -8.125 5.0625 -6 2.125 C-3.125 0.0625 -3.125 0.0625 0 0 Z M-2.125 2.0625 C-3.115 3.5475 -3.115 3.5475 -4.125 5.0625 C-2.145 5.0625 -0.165 5.0625 1.875 5.0625 C1.545 4.0725 1.215 3.0825 0.875 2.0625 C-0.115 2.0625 -1.105 2.0625 -2.125 2.0625 Z " fill="#DBDBDB" transform="translate(151.125,27.9375)"/>
<path d="M0 0 C0.94875 0.350625 1.8975 0.70125 2.875 1.0625 C3.205 4.0325 3.535 7.0025 3.875 10.0625 C4.535 10.0625 5.195 10.0625 5.875 10.0625 C5.545 11.0525 5.215 12.0425 4.875 13.0625 C3.4379191 13.11672947 2.00024538 13.15539723 0.5625 13.1875 C-0.23800781 13.21070312 -1.03851563 13.23390625 -1.86328125 13.2578125 C-4.125 13.0625 -4.125 13.0625 -7.125 11.0625 C-7 9.1875 -7 9.1875 -6.125 7.0625 C-3.0625 5.8125 -3.0625 5.8125 -0.125 5.0625 C-0.785 4.0725 -1.445 3.0825 -2.125 2.0625 C-3.115 2.7225 -4.105 3.3825 -5.125 4.0625 C-5.125 2.7425 -5.125 1.4225 -5.125 0.0625 C-3.125 -0.9375 -3.125 -0.9375 0 0 Z M-2.125 7.0625 C-2.455 8.3825 -2.785 9.7025 -3.125 11.0625 C-2.135 10.7325 -1.145 10.4025 -0.125 10.0625 C-0.125 9.0725 -0.125 8.0825 -0.125 7.0625 C-0.785 7.0625 -1.445 7.0625 -2.125 7.0625 Z " fill="#E5E5E5" transform="translate(160.125,62.9375)"/>
<path d="M0 0 C2.8125 1.4375 2.8125 1.4375 4.8125 4.4375 C5.31701649 7.71685719 5.08772753 9.01915416 3.25 11.8125 C0.8125 13.4375 0.8125 13.4375 -2.75 13.4375 C-6.1875 12.4375 -6.1875 12.4375 -8.1875 10.6875 C-9.1875 8.4375 -9.1875 8.4375 -9.1875 5.9375 C-7.36191106 1.37352764 -4.97703428 -0.87830017 0 0 Z M-5.1875 3.4375 C-5.43765873 7.02107241 -5.43765873 7.02107241 -5.1875 10.4375 C-2.7125 10.9325 -2.7125 10.9325 -0.1875 11.4375 C1.11764736 9.21973378 1.11764736 9.21973378 1.8125 6.4375 C0.62123468 3.6173125 0.62123468 3.6173125 -1.1875 1.4375 C-2.64975016 1.34504997 -2.64975016 1.34504997 -5.1875 3.4375 Z " fill="#E4E4E4" transform="translate(138.1875,62.5625)"/>
<path d="M0 0 C1.32 0 2.64 0 4 0 C4.33 6.27 4.66 12.54 5 19 C6.32 19.66 7.64 20.32 9 21 C9 21.66 9 22.32 9 23 C5.04 23 1.08 23 -3 23 C-3 22.34 -3 21.68 -3 21 C-2.26656372 20.32650513 -2.26656372 20.32650513 -1.51831055 19.6394043 C0.41260626 17.55448608 0.35252603 16.5687234 0.29296875 13.76953125 C0.28330078 12.96708984 0.27363281 12.16464844 0.26367188 11.33789062 C0.23853516 10.50451172 0.21339844 9.67113281 0.1875 8.8125 C0.17396484 7.96751953 0.16042969 7.12253906 0.14648438 6.25195312 C0.11115799 4.16769616 0.05735139 2.08376723 0 0 Z " fill="#CFCFCF" transform="translate(58,21)"/>
<path d="M0 0 C-0.33 0.66 -0.66 1.32 -1 2 C-1.07065617 4.04055005 -1.08421976 6.08334257 -1.0625 8.125 C-1.04896484 9.76855469 -1.04896484 9.76855469 -1.03515625 11.4453125 C-1.02355469 12.28835937 -1.01195313 13.13140625 -1 14 C-7.43487859 15.33554084 -7.43487859 15.33554084 -10 13.8125 C-11 12 -11 12 -10.9375 9.9375 C-9.71418623 7.4093182 -8.61497233 6.92293141 -6 6 C-5.01 6 -4.02 6 -3 6 C-3 4.35 -3 2.7 -3 1 C-6.11785113 1.64644661 -6.11785113 1.64644661 -7 4 C-7.99 3.67 -8.98 3.34 -10 3 C-10 2.01 -10 1.02 -10 0 C-6.30581799 -1.231394 -3.7943739 -0.64432764 0 0 Z M-5 8 C-5.66 9.32 -6.32 10.64 -7 12 C-5.68 12 -4.36 12 -3 12 C-3 10.68 -3 9.36 -3 8 C-3.66 8 -4.32 8 -5 8 Z " fill="#DCDCDC" transform="translate(101,29)"/>
<path d="M0 0 C5.28 0 10.56 0 16 0 C16 1.65 16 3.3 16 5 C15.34 5 14.68 5 14 5 C13.67 4.34 13.34 3.68 13 3 C9.97065509 2.34227572 9.97065509 2.34227572 7 2 C7 3.98 7 5.96 7 8 C7.99 8 8.98 8 10 8 C10 7.01 10 6.02 10 5 C10.66 5 11.32 5 12 5 C12 7.97 12 10.94 12 14 C11.34 14 10.68 14 10 14 C9.67 13.01 9.34 12.02 9 11 C8.34 10.67 7.68 10.34 7 10 C7 12.31 7 14.62 7 17 C6.67 17 6.34 17 6 17 C6 11.72 6 6.44 6 1 C4.02 1.33 2.04 1.66 0 2 C0 1.34 0 0.68 0 0 Z " fill="#EBEBEB" transform="translate(83,56)"/>
<path d="M0 0 C0.66 0 1.32 0 2 0 C2 1.32 2 2.64 2 4 C3.32 4 4.64 4 6 4 C6 4.66 6 5.32 6 6 C4.68 6 3.36 6 2 6 C2 8.97 2 11.94 2 15 C3.32 14.67 4.64 14.34 6 14 C5.67 14.99 5.34 15.98 5 17 C3.02 16.67 1.04 16.34 -1 16 C-1 12.7 -1 9.4 -1 6 C-1.66 6 -2.32 6 -3 6 C-3 5.34 -3 4.68 -3 4 C-2.34 3.67 -1.68 3.34 -1 3 C-0.67 2.01 -0.34 1.02 0 0 Z " fill="#E5E5E5" transform="translate(124,59)"/>
<path d="M0 0 C3.3 0 6.6 0 10 0 C10 0.99 10 1.98 10 3 C8.68 3 7.36 3 6 3 C5.67 5.64 5.34 8.28 5 11 C5.66 11 6.32 11 7 11 C7 11.66 7 12.32 7 13 C4.69 13 2.38 13 0 13 C0 12.34 0 11.68 0 11 C0.66 11 1.32 11 2 11 C2 8.03 2 5.06 2 2 C1.34 2 0.68 2 0 2 C0 1.34 0 0.68 0 0 Z " fill="#E3E3E3" transform="translate(143,63)"/>
<path d="M0 0 C0.99 0 1.98 0 3 0 C3 5.28 3 10.56 3 16 C3.66 16 4.32 16 5 16 C5 16.66 5 17.32 5 18 C3.02 18 1.04 18 -1 18 C-0.505 9.09 -0.505 9.09 0 0 Z " fill="#DDDDDD" transform="translate(86,57)"/>
<path d="M0 0 C0 6.6 0 13.2 0 20 C-0.99 19.67 -1.98 19.34 -3 19 C-3.09688221 13.55306686 -3.12862175 8.36095333 -2 3 C-2.99 3 -3.98 3 -5 3 C-5 2.34 -5 1.68 -5 1 C-2 0 -2 0 0 0 Z " fill="#E1E1E1" transform="translate(113,55)"/>
<path d="M0 0 C3.33126138 1.06316853 4.2852194 1.90831889 5.9375 4.9375 C5.9375 5.5975 5.9375 6.2575 5.9375 6.9375 C2.6375 6.9375 -0.6625 6.9375 -4.0625 6.9375 C-4.3925 7.9275 -4.7225 8.9175 -5.0625 9.9375 C-5.0625 7.9575 -5.0625 5.9775 -5.0625 3.9375 C-5.7225 3.6075 -6.3825 3.2775 -7.0625 2.9375 C-4.573866 0.54458269 -3.51817557 -0.0717995 0 0 Z M-2.0625 1.9375 C-3.0525 3.4225 -3.0525 3.4225 -4.0625 4.9375 C-2.0825 4.9375 -0.1025 4.9375 1.9375 4.9375 C1.6075 3.9475 1.2775 2.9575 0.9375 1.9375 C-0.0525 1.9375 -1.0425 1.9375 -2.0625 1.9375 Z " fill="#DEDEDE" transform="translate(151.0625,28.0625)"/>
<path d="M0 0 C5.94 0 11.88 0 18 0 C18.33 2.31 18.66 4.62 19 7 C18.34 7 17.68 7 17 7 C16.67 5.68 16.34 4.36 16 3 C10.72 2.67 5.44 2.34 0 2 C0 1.34 0 0.68 0 0 Z " fill="#E4E4E4" transform="translate(55,20)"/>
<path d="M0 0 C0.66 0.33 1.32 0.66 2 1 C1.67 1.99 1.34 2.98 1 4 C-0.65 3.67 -2.3 3.34 -4 3 C-4.33 3.66 -4.66 4.32 -5 5 C-5.33 4.34 -5.66 3.68 -6 3 C-6.33 6.3 -6.66 9.6 -7 13 C-7.33 13 -7.66 13 -8 13 C-8 9.7 -8 6.4 -8 3 C-8.66 3 -9.32 3 -10 3 C-10 2.34 -10 1.68 -10 1 C-6.49852959 -0.1671568 -3.67329964 -0.13357453 0 0 Z " fill="#DDDDDD" transform="translate(176,28)"/>
<path d="M0 0 C1.32 0 2.64 0 4 0 C4 4.29 4 8.58 4 13 C3.01 13 2.02 13 1 13 C0.67 8.71 0.34 4.42 0 0 Z " fill="#D0D0D0" transform="translate(127,29)"/>
<path d="M0 0 C0.66 0 1.32 0 2 0 C2.33 1.65 2.66 3.3 3 5 C7.14093698 5.20970559 7.14093698 5.20970559 11 4 C11.33 4.99 11.66 5.98 12 7 C9.37684968 8.31157516 7.76966564 7.89649988 4.875 7.5625 C3.96492188 7.46066406 3.05484375 7.35882813 2.1171875 7.25390625 C1.41851562 7.17011719 0.71984375 7.08632813 0 7 C0 4.69 0 2.38 0 0 Z " fill="#DBDBDB" transform="translate(74,36)"/>
<path d="M0 0 C0.99 0.33 1.98 0.66 3 1 C3 4.96 3 8.92 3 13 C2.01 12.67 1.02 12.34 0 12 C0 8.04 0 4.08 0 0 Z " fill="#D0D0D0" transform="translate(99,30)"/>
<path d="M0 0 C0 2.64 0 5.28 0 8 C-2.51083114 6.74458443 -2.87125446 5.49936512 -4 3 C-5.98 3 -7.96 3 -10 3 C-10 2.01 -10 1.02 -10 0 C-6.30581799 -1.231394 -3.7943739 -0.64432764 0 0 Z " fill="#DCDCDC" transform="translate(88,20)"/>
<path d="M0 0 C1.32 0.66 2.64 1.32 4 2 C4.36666667 7.5 4.36666667 7.5 2.625 9.875 C1 11 1 11 -1 11 C-0.73958333 9.01432292 -0.47916667 7.02864583 -0.21875 5.04296875 C0.053233 2.84528294 0.053233 2.84528294 0 0 Z " fill="#D1D1D1" transform="translate(190,31)"/>
<path d="M0 0 C3.625 0.375 3.625 0.375 7 1 C8.05404945 4.98196457 7.84098656 7.98195309 7 12 C6 9 5 6 4 3 C1.03 2.505 1.03 2.505 -2 2 C-1.34 1.34 -0.68 0.68 0 0 Z " fill="#DFDFDF" transform="translate(183,28)"/>
<path d="M0 0 C-0.33 0.66 -0.66 1.32 -1 2 C-3.14453125 2.6328125 -3.14453125 2.6328125 -5.8125 3.125 C-6.68519531 3.29257812 -7.55789062 3.46015625 -8.45703125 3.6328125 C-11 4 -11 4 -15 4 C-15 3.34 -15 2.68 -15 2 C-13.25364835 1.46706165 -11.50272348 0.94909337 -9.75 0.4375 C-8.77546875 0.14746094 -7.8009375 -0.14257812 -6.796875 -0.44140625 C-4.03756068 -0.99249836 -2.6087176 -0.93789609 0 0 Z " fill="#E1E1E1" transform="translate(15,48)"/>
<path d="M0 0 C0.99 0.66 1.98 1.32 3 2 C3.66 1.34 4.32 0.68 5 0 C5.33 1.32 5.66 2.64 6 4 C3.29120665 5.35439668 0.99066732 5.06501451 -2 5 C-2.33 5.66 -2.66 6.32 -3 7 C-2.67 5.35 -2.34 3.7 -2 2 C-1.34 2 -0.68 2 0 2 C0 1.34 0 0.68 0 0 Z " fill="#E1E1E1" transform="translate(116,34)"/>
<path d="M0 0 C2.97 0.33 5.94 0.66 9 1 C9.33 2.32 9.66 3.64 10 5 C9.34 5 8.68 5 8 5 C8 4.34 8 3.68 8 3 C5.69 3.33 3.38 3.66 1 4 C0.67 2.68 0.34 1.36 0 0 Z " fill="#CECECE" transform="translate(114,39)"/>
<path d="M0 0 C0.66 0 1.32 0 2 0 C2 1.98 2 3.96 2 6 C2.66 6 3.32 6 4 6 C3.67 6.66 3.34 7.32 3 8 C1.68 7.67 0.36 7.34 -1 7 C-1.04254356 5.00045254 -1.04080783 2.99958364 -1 1 C-0.67 0.67 -0.34 0.34 0 0 Z " fill="#D5D5D5" transform="translate(144,32)"/>
<path d="M0 0 C0.66 0.33 1.32 0.66 2 1 C0 4 0 4 -2.1640625 4.73046875 C-3.38222656 4.95669922 -3.38222656 4.95669922 -4.625 5.1875 C-5.85089844 5.42533203 -5.85089844 5.42533203 -7.1015625 5.66796875 C-8.04128906 5.83232422 -8.04128906 5.83232422 -9 6 C-6.30165 3.1324997 -3.64316175 1.5502816 0 0 Z " fill="#CBCBCB" transform="translate(29,40)"/>
<path d="M0 0 C0 0.66 0 1.32 0 2 C-0.66 2 -1.32 2 -2 2 C-2.66 3.32 -3.32 4.64 -4 6 C-4.66 6 -5.32 6 -6 6 C-7.34882408 6.63474075 -8.6846659 7.29848848 -10 8 C-3.94594595 0 -3.94594595 0 0 0 Z " fill="#E8E8E8" transform="translate(38,10)"/>
<path d="M0 0 C3.3 0 6.6 0 10 0 C10 0.99 10 1.98 10 3 C8.35 3 6.7 3 5 3 C5 2.34 5 1.68 5 1 C3.35 1.33 1.7 1.66 0 2 C0 1.34 0 0.68 0 0 Z " fill="#EBEBEB" transform="translate(143,63)"/>
<path d="M0 0 C1.98 0.66 3.96 1.32 6 2 C6 2.99 6 3.98 6 5 C5.34 5.66 4.68 6.32 4 7 C3.34 5.68 2.68 4.36 2 3 C1.34 3 0.68 3 0 3 C0 2.01 0 1.02 0 0 Z " fill="#EBEBEB" transform="translate(135,62)"/>
<path d="M0 0 C0.33 0.66 0.66 1.32 1 2 C2.65 1.67 4.3 1.34 6 1 C6.66 1.99 7.32 2.98 8 4 C1.9453125 4.1953125 1.9453125 4.1953125 0 4 C-0.66 3.34 -1.32 2.68 -2 2 C-1.34 2 -0.68 2 0 2 C0 1.34 0 0.68 0 0 Z " fill="#E1E1E1" transform="translate(131,40)"/>
<path d="M0 0 C0.99 0.33 1.98 0.66 3 1 C3 2.65 3 4.3 3 6 C2.01 6.33 1.02 6.66 0 7 C0 4.69 0 2.38 0 0 Z " fill="#DFDFDF" transform="translate(140,66)"/>
<path d="M0 0 C-0.598125 0.28875 -1.19625 0.5775 -1.8125 0.875 C-4.19327792 2.04742026 -4.19327792 2.04742026 -7 4 C-7 2.68 -7 1.36 -7 0 C-4.3333581 -1.33332095 -2.83319697 -0.67102033 0 0 Z " fill="#E9E9E9" transform="translate(162,63)"/>
<path d="M0 0 C0.99 0 1.98 0 3 0 C1.75453595 3.73639216 0.36595047 4.18756513 -3 6 C-3.66 5.34 -4.32 4.68 -5 4 C-3.35 3.34 -1.7 2.68 0 2 C0 1.34 0 0.68 0 0 Z " fill="#E3E3E3" transform="translate(37,0)"/>
<path d="M0 0 C0.66 1.32 1.32 2.64 2 4 C0 6 0 6 -2.625 6.125 C-3.40875 6.08375 -4.1925 6.0425 -5 6 C-5 5.34 -5 4.68 -5 4 C-4.0409375 3.8453125 -4.0409375 3.8453125 -3.0625 3.6875 C-2.381875 3.460625 -1.70125 3.23375 -1 3 C-0.67 2.01 -0.34 1.02 0 0 Z " fill="#EAEAEA" transform="translate(139,70)"/>
<path d="M0 0 C0.33 0.66 0.66 1.32 1 2 C-2.375 2.625 -2.375 2.625 -6 3 C-6.66 2.34 -7.32 1.68 -8 1 C-5.29120665 -0.35439668 -2.99066732 -0.06501451 0 0 Z " fill="#E0E0E0" transform="translate(189,41)"/>
<path d="M0 0 C0.66 0 1.32 0 2 0 C3.125 3.75 3.125 3.75 2 6 C1.01 5.67 0.02 5.34 -1 5 C-0.67 3.35 -0.34 1.7 0 0 Z " fill="#D3D3D3" transform="translate(114,30)"/>
<path d="M0 0 C1.98 0.495 1.98 0.495 4 1 C4 1.66 4 2.32 4 3 C3.01 3.33 2.02 3.66 1 4 C0.34 3.67 -0.32 3.34 -1 3 C-0.67 2.01 -0.34 1.02 0 0 Z " fill="#DADADA" transform="translate(160,20)"/>
<path d="M0 0 C0.66 0.33 1.32 0.66 2 1 C1.67 1.99 1.34 2.98 1 4 C0.01 3.67 -0.98 3.34 -2 3 C-2 2.34 -2 1.68 -2 1 C-1.34 0.67 -0.68 0.34 0 0 Z " fill="#E8E8E8" transform="translate(118,55)"/>
</svg>
