<?xml version="1.0" encoding="UTF-8"?>
<svg version="1.1" xmlns="http://www.w3.org/2000/svg" width="432" height="99">
<path d="M0 0 C6.45676828 4.4748645 11.51724782 10.59416006 14.8359375 17.71484375 C15.1659375 16.39484375 15.4959375 15.07484375 15.8359375 13.71484375 C21.2252209 13.56555612 26.61327853 13.45718975 32.00415039 13.38525391 C33.83444202 13.35524119 35.66459177 13.31441647 37.49438477 13.26220703 C56.04012866 12.74662625 56.04012866 12.74662625 62.3190918 18.09277344 C69.7286899 26.01638036 72.35164112 35.36109836 72.0859375 46.0390625 C70.95375969 58.15690309 66.88279451 66.52696393 57.703125 74.3671875 C53.61031673 77.32120183 49.26686454 76.84382251 44.44921875 76.8125 C43.63220993 76.81108505 42.81520111 76.8096701 41.97343445 76.80821228 C39.36506482 76.80261669 36.75678116 76.79006504 34.1484375 76.77734375 C32.37955853 76.77232818 30.61067822 76.76776537 28.84179688 76.76367188 C24.50647731 76.75264871 20.17122198 76.73538713 15.8359375 76.71484375 C15.5059375 75.06484375 15.1759375 73.41484375 14.8359375 71.71484375 C13.85535398 73.17222477 12.87651618 74.6307805 11.8984375 76.08984375 C11.35316406 76.90195313 10.80789063 77.7140625 10.24609375 78.55078125 C8.19127661 81.62057641 8.19127661 81.62057641 7.9609375 85.21484375 C7.9196875 86.03984375 7.8784375 86.86484375 7.8359375 87.71484375 C4.1917601 90.14429535 2.12352478 89.8766395 -2.1640625 89.71484375 C-2.6590625 91.69484375 -2.6590625 91.69484375 -3.1640625 93.71484375 C-9.67723587 93.86585483 -15.74581285 93.35372727 -22.1640625 92.27734375 C-23.44990234 92.0752832 -23.44990234 92.0752832 -24.76171875 91.86914062 C-31.02759875 90.8513075 -31.02759875 90.8513075 -32.1640625 89.71484375 C-31.87676195 87.37539639 -31.54469471 85.04092945 -31.1640625 82.71484375 C-31.751875 82.48023437 -32.3396875 82.245625 -32.9453125 82.00390625 C-40.2177067 77.77874765 -44.38358186 67.16604535 -47.4140625 59.58984375 C-48.21518807 56.51886238 -48.31454904 53.87506117 -48.1640625 50.71484375 C-49.1540625 51.37484375 -50.1440625 52.03484375 -51.1640625 52.71484375 C-52.1540625 52.71484375 -53.1440625 52.71484375 -54.1640625 52.71484375 C-53.77025391 53.33528564 -53.37644531 53.95572754 -52.97070312 54.5949707 C-51.19483946 57.40141324 -49.42936036 60.21424435 -47.6640625 63.02734375 C-47.04402344 64.00380859 -46.42398438 64.98027344 -45.78515625 65.98632812 C-44.90537109 67.39301758 -44.90537109 67.39301758 -44.0078125 68.828125 C-43.46318359 69.69219971 -42.91855469 70.55627441 -42.35742188 71.4465332 C-41.1640625 73.71484375 -41.1640625 73.71484375 -41.1640625 76.71484375 C-47.0234375 77.10546875 -47.0234375 77.10546875 -49.1640625 76.71484375 C-52.14295848 74.06275759 -54.26672364 71.24857263 -56.36328125 67.87109375 C-56.93240234 66.95457031 -57.50152344 66.03804688 -58.08789062 65.09375 C-58.66990234 64.14371094 -59.25191406 63.19367188 -59.8515625 62.21484375 C-60.44517578 61.26480469 -61.03878906 60.31476563 -61.65039062 59.3359375 C-66.41968598 51.6028269 -66.41968598 51.6028269 -67.1640625 47.71484375 C-66.58398438 47.70066406 -66.00390625 47.68648437 -65.40625 47.671875 C-61.12821963 47.41067513 -58.49502968 46.90740647 -54.7265625 44.71484375 C-51.46155239 40.89239289 -50.27581999 37.73533396 -50.1640625 32.71484375 C-50.88235796 29.22406206 -52.29108366 26.5920368 -54.83300781 24.0378418 C-58.09014449 22.18924275 -60.60699539 22.37602735 -64.3359375 22.421875 C-66.20910645 22.43311401 -66.20910645 22.43311401 -68.12011719 22.44458008 C-69.70211914 22.47189209 -71.28412109 22.4992041 -72.9140625 22.52734375 C-77.9465625 22.58921875 -82.9790625 22.65109375 -88.1640625 22.71484375 C-88.1640625 40.20484375 -88.1640625 57.69484375 -88.1640625 75.71484375 C-91.6290625 76.20984375 -91.6290625 76.20984375 -95.1640625 76.71484375 C-96.1640625 75.71484375 -96.1640625 75.71484375 -96.28431702 73.24082947 C-96.28209641 72.14162674 -96.27987579 71.04242401 -96.27758789 69.90991211 C-96.27751236 68.66870102 -96.27743683 67.42748993 -96.27735901 66.14866638 C-96.27225161 64.78400635 -96.2670356 63.41934673 -96.26171875 62.0546875 C-96.2598545 60.66606192 -96.25843063 59.27743568 -96.25743103 57.8888092 C-96.25360637 54.2276326 -96.24377653 50.56649545 -96.23272705 46.90533447 C-96.22251182 43.17192112 -96.21793317 39.43850141 -96.21289062 35.70507812 C-96.20215421 28.37498198 -96.18507841 21.04491839 -96.1640625 13.71484375 C-90.47159664 13.59064588 -84.77993053 13.50022335 -79.08642578 13.44018555 C-77.15236663 13.41514134 -75.21840119 13.38109564 -73.28466797 13.33764648 C-70.49423019 13.27654725 -67.7050504 13.24853324 -64.9140625 13.2265625 C-64.05852783 13.20075607 -63.20299316 13.17494965 -62.3215332 13.14836121 C-56.01210741 13.14545624 -52.15409867 14.89726913 -47.1640625 18.71484375 C-46.63619141 17.64556641 -46.63619141 17.64556641 -46.09765625 16.5546875 C-41.00179766 6.66898794 -35.42584108 0.30514027 -25.1640625 -4.28515625 C-16.02525684 -7.07116108 -8.02351915 -4.76486967 0 0 Z M23.8359375 21.71484375 C23.8359375 37.22484375 23.8359375 52.73484375 23.8359375 68.71484375 C28.1671875 68.79734375 32.4984375 68.87984375 36.9609375 68.96484375 C38.31590332 69.00125977 39.67086914 69.03767578 41.06689453 69.07519531 C49.46912631 69.15281986 53.02284014 68.41899547 59.0234375 62.58984375 C63.58176537 55.35939265 64.87853842 47.13765343 63.8359375 38.71484375 C62.16345631 31.54301762 60.06385149 26.77652679 53.8359375 22.71484375 C51.01769558 21.30572279 48.66342468 21.60300822 45.515625 21.6171875 C43.81768799 21.62093384 43.81768799 21.62093384 42.08544922 21.62475586 C39.92006592 21.63841187 39.92006592 21.63841187 37.7109375 21.65234375 C33.1321875 21.67296875 28.5534375 21.69359375 23.8359375 21.71484375 Z " fill="#464847" transform="translate(301.1640625,5.28515625)"/>
<path d="M0 0 C6.435 -0.0825 12.87 -0.165 19.5 -0.25 C22.52317383 -0.30462402 22.52317383 -0.30462402 25.60742188 -0.36035156 C27.22785379 -0.37204801 28.84829758 -0.38223757 30.46875 -0.390625 C31.29149414 -0.41108887 32.11423828 -0.43155273 32.96191406 -0.45263672 C38.79458143 -0.45611268 43.1110453 0.76076288 48 4 C53.09500201 9.09500201 55.16396256 14.49274566 55.375 21.5625 C55.18942765 26.9960583 54.35882942 30.73399489 50.3125 34.62109375 C48.57599207 36.12968501 46.79583959 37.56332833 45 39 C44.34 39.66 43.68 40.32 43 41 C43.62648437 41.95261719 44.25296875 42.90523437 44.8984375 43.88671875 C45.72418849 45.15349584 46.54969652 46.42043132 47.375 47.6875 C47.7875 48.31333984 48.2 48.93917969 48.625 49.58398438 C50.8194615 52.96416298 52.66630311 56.16745344 54 60 C54.66 60 55.32 60 56 60 C56.16789032 59.41045532 56.33578064 58.82091064 56.50875854 58.21350098 C58.45008134 51.55470448 60.74292563 45.07963413 63.1953125 38.59375 C63.58822479 37.54723267 63.98113708 36.50071533 64.38595581 35.42248535 C65.20969682 33.23029416 66.03500469 31.03869114 66.86181641 28.84765625 C68.13139101 25.48306271 69.39617618 22.11669876 70.66015625 18.75 C71.46326656 16.61447985 72.2666424 14.47905954 73.0703125 12.34375 C73.44946808 11.33550171 73.82862366 10.32725342 74.2192688 9.28845215 C74.56988373 8.35988403 74.92049866 7.43131592 75.28173828 6.47460938 C75.59023712 5.6564978 75.89873596 4.83838623 76.21658325 3.9954834 C77 2 77 2 78 0 C84.93 0 91.86 0 99 0 C104.18522314 12.69850565 109.1248178 25.47885005 113.96286011 38.31298828 C114.6549572 40.14777361 115.34874768 41.98192106 116.04421997 43.81542969 C117.03455919 46.42845758 118.01819993 49.04390985 119 51.66015625 C119.30276352 52.45627823 119.60552704 53.25240021 119.91746521 54.07264709 C121.07418298 57.17416698 122 59.66125724 122 63 C116.50076251 63.07411371 111.00181521 63.12858464 105.50219727 63.16479492 C103.63105201 63.17988873 101.75994217 63.20036589 99.88891602 63.22631836 C97.20059474 63.26267593 94.51274087 63.27972015 91.82421875 63.29296875 C90.56782845 63.31619453 90.56782845 63.31619453 89.28605652 63.33988953 C83.4577947 63.34158139 83.4577947 63.34158139 81.37995911 61.79121399 C80 60 80 60 78 55 C88.56 55 99.12 55 110 55 C108.22304619 50.19811615 106.44528252 45.39654729 104.66552734 40.59570312 C104.06187366 38.96664306 103.45867311 37.337415 102.85595703 35.70800781 C101.98332497 33.34915167 101.10933678 30.99080543 100.234375 28.6328125 C99.95235229 27.87252747 99.67032959 27.11224243 99.37976074 26.32891846 C97.55457939 21.42999442 95.65662311 16.56859965 93.63769531 11.74560547 C93 10 93 10 93 8 C90.03 8 87.06 8 84 8 C83.37943726 9.90471069 83.37943726 9.90471069 82.74633789 11.84790039 C80.99428037 17.10022944 79.04695209 22.26687061 77.05859375 27.43359375 C76.50607689 28.8723159 76.50607689 28.8723159 75.94239807 30.34010315 C75.16950886 32.34980766 74.39548108 34.35907465 73.62036133 36.36791992 C72.43232129 39.450939 71.25223008 42.5369295 70.07226562 45.62304688 C69.31819408 47.58091632 68.56365357 49.53860522 67.80859375 51.49609375 C67.45647324 52.41998398 67.10435272 53.34387421 66.74156189 54.29576111 C66.24578392 55.57333031 66.24578392 55.57333031 65.73999023 56.87670898 C65.4514769 57.62677719 65.16296356 58.3768454 64.8657074 59.14964294 C64 61 64 61 62 63 C56.69220414 64.27211636 51.203593 65.03118872 46 63 C41.4688088 59.03345118 38.8093367 53.42476069 36.10595703 48.13330078 C34.66001403 45.34419483 32.99536483 42.71369541 31.3125 40.0625 C29 36.26478873 29 36.26478873 29 34 C29.88751953 33.94392578 29.88751953 33.94392578 30.79296875 33.88671875 C37.41636792 33.36633432 37.41636792 33.36633432 43 30 C46.22239634 24.52192622 46.4491553 20.98984189 45 15 C42.82619087 11.59436569 41.84744051 10.28248017 38 9 C35.7174301 8.84854901 33.43112294 8.75113021 31.14453125 8.68359375 C29.93385986 8.64548584 28.72318848 8.60737793 27.47583008 8.56811523 C25.93693115 8.52501221 24.39803223 8.48190918 22.8125 8.4375 C17.924375 8.293125 13.03625 8.14875 8 8 C8 26.15 8 44.3 8 63 C5.36 63 2.72 63 0 63 C0 42.21 0 21.42 0 0 Z " fill="#F8F4F4" transform="translate(77,19)"/>
<path d="M0 0 C5.67412009 -0.1492082 11.34707878 -0.25761893 17.02270508 -0.32958984 C18.94999097 -0.35961541 20.87714191 -0.4004498 22.80395508 -0.45263672 C42.11974926 -0.96239377 42.11974926 -0.96239377 48.52148438 4.30395508 C51.87661761 8.15271839 53.82503735 11.90044821 54.25 17 C54.1675 17.66 54.085 18.32 54 19 C54.66 19 55.32 19 56 19 C56.020625 18.175 56.04125 17.35 56.0625 16.5 C57.94610774 9.46786443 64.23861278 4.19009979 70 0 C70.99 0 71.98 0 73 0 C73.061875 0.61875 73.12375 1.2375 73.1875 1.875 C73.828919 4.27761141 73.828919 4.27761141 76.5625 5.25 C77.366875 5.4975 78.17125 5.745 79 6 C79.66 4.68 80.32 3.36 81 2 C81.33 2 81.66 2 82 2 C82.12117188 2.69867187 82.24234375 3.39734375 82.3671875 4.1171875 C82.53476562 5.02726562 82.70234375 5.93734375 82.875 6.875 C83.03742188 7.77992187 83.19984375 8.68484375 83.3671875 9.6171875 C83.83044703 12.16505988 83.83044703 12.16505988 86 14 C86.39764263 15.98821313 86.73775349 17.98944339 87 20 C87.99 19.67 88.98 19.34 90 19 C90.495 21.475 90.495 21.475 91 24 C90.34 24 89.68 24 89 24 C89.75150023 27.27773504 89.75150023 27.27773504 93 29 C92.67 30.32 92.34 31.64 92 33 C91.34 33 90.68 33 90 33 C89.67 34.32 89.34 35.64 89 37 C89.66 37 90.32 37 91 37 C91 37.99 91 38.98 91 40 C90.01 40 89.02 40 88 40 C87.896875 40.53625 87.79375 41.0725 87.6875 41.625 C87 44 87 44 85.375 47 C83.80638823 49.76602268 83.80638823 49.76602268 84.1875 52.0625 C84.5896875 53.0215625 84.5896875 53.0215625 85 54 C85.350625 54.9075 85.70125 55.815 86.0625 56.75 C86.371875 57.4925 86.68125 58.235 87 59 C86 60 86 60 82.375 60.3125 C77.58081766 60.26961823 74.9936088 58.56193772 71 56 C70.19304687 55.71511719 69.38609375 55.43023437 68.5546875 55.13671875 C65.51104279 53.78243647 63.98962013 52.19308312 61.8125 49.6875 C61.13832031 48.92824219 60.46414063 48.16898438 59.76953125 47.38671875 C57.97304377 44.96364182 56.90139896 42.87112261 56 40 C56.375 37.6875 56.375 37.6875 57 36 C57.66 37.32 58.32 38.64 59 40 C59.66 40 60.32 40 61 40 C61 39.34 61 38.68 61 38 C62.98 37.505 62.98 37.505 65 37 C66.125 40.75 66.125 40.75 65 43 C64.34 43 63.68 43 63 43 C64.65 44.65 66.3 46.3 68 48 C67.814375 47.38125 67.62875 46.7625 67.4375 46.125 C67 44 67 44 68 42 C68.66 42 69.32 42 70 42 C70 43.65 70 45.3 70 47 C70.66 47 71.32 47 72 47 C72 45.35 72 43.7 72 42 C72.66 42 73.32 42 74 42 C76 45 76 45 77 48 C80.28892952 45.33753325 82.03008577 42.05357257 83 38 C83.3881951 32.02043344 83.78153447 25.78998704 82 20 C83.32 21.32 84.64 22.64 86 24 C85.01 21.03 85.01 21.03 84 18 C82.68 18 81.36 18 80 18 C79.7525 17.401875 79.505 16.80375 79.25 16.1875 C77.70462524 13.48309418 76.79352635 12.43257762 74 11 C70.89582326 10.47406214 68.09496822 10.38442621 65 11 C62.4482714 13.12685929 62.4482714 13.12685929 61 16 C60.65066406 16.556875 60.30132812 17.11375 59.94140625 17.6875 C58.60495893 20.97039135 58.5336819 24.25238648 58.375 27.75 C58.31699219 28.79607422 58.31699219 28.79607422 58.2578125 29.86328125 C58.16401376 31.57510818 58.08093826 33.28751682 58 35 C57.01 34.67 56.02 34.34 55 34 C55 33.34 55 32.68 55 32 C54.01 31.67 53.02 31.34 52 31 C51.401875 31.94875 50.80375 32.8975 50.1875 33.875 C48 37 48 37 45 39 C44.01 39 43.02 39 42 39 C42.39380859 39.62044189 42.78761719 40.24088379 43.19335938 40.88012695 C44.96922304 43.68656949 46.73470214 46.4994006 48.5 49.3125 C49.43005859 50.77719727 49.43005859 50.77719727 50.37890625 52.27148438 C50.96542969 53.20927734 51.55195313 54.14707031 52.15625 55.11328125 C52.70087891 55.97735596 53.24550781 56.84143066 53.80664062 57.73168945 C55 60 55 60 55 63 C49.140625 63.390625 49.140625 63.390625 47 63 C44.02110402 60.34791384 41.89733886 57.53372888 39.80078125 54.15625 C39.23166016 53.23972656 38.66253906 52.32320312 38.07617188 51.37890625 C37.49416016 50.42886719 36.91214844 49.47882813 36.3125 48.5 C35.71888672 47.54996094 35.12527344 46.59992188 34.51367188 45.62109375 C29.74437652 37.88798315 29.74437652 37.88798315 29 34 C29.58007812 33.98582031 30.16015625 33.97164062 30.7578125 33.95703125 C35.03584287 33.69583138 37.66903282 33.19256272 41.4375 31 C44.70251011 27.17754914 45.88824251 24.02049021 46 19 C45.28170454 15.50921831 43.87297884 12.87719305 41.33105469 10.32299805 C38.07391801 8.474399 35.55706711 8.6611836 31.828125 8.70703125 C29.95495605 8.71827026 29.95495605 8.71827026 28.04394531 8.72973633 C26.46194336 8.75704834 24.87994141 8.78436035 23.25 8.8125 C18.2175 8.874375 13.185 8.93625 8 9 C8 26.49 8 43.98 8 62 C4.535 62.495 4.535 62.495 1 63 C0 62 0 62 -0.12025452 59.52598572 C-0.11803391 58.42678299 -0.11581329 57.32758026 -0.11352539 56.19506836 C-0.11344986 54.95385727 -0.11337433 53.71264618 -0.11329651 52.43382263 C-0.10818911 51.0691626 -0.1029731 49.70450298 -0.09765625 48.33984375 C-0.095792 46.95121817 -0.09436813 45.56259193 -0.09336853 44.17396545 C-0.08954387 40.51278885 -0.07971403 36.8516517 -0.06866455 33.19049072 C-0.05844932 29.45707737 -0.05387067 25.72365766 -0.04882812 21.99023438 C-0.03809171 14.66013823 -0.02101591 7.33007464 0 0 Z " fill="#F8F2F2" transform="translate(205,19)"/>
<path d="M0 0 C0.76695694 0.0028299 1.53391388 0.00565979 2.32411194 0.00857544 C4.74879246 0.01967775 7.17308934 0.04476283 9.59765625 0.0703125 C11.25194775 0.0803552 12.9062451 0.08947878 14.56054688 0.09765625 C18.59389548 0.11958433 22.62696105 0.15404407 26.66015625 0.1953125 C26.11291942 3.56993965 25.60525625 5.2776625 23.66015625 8.1953125 C20.80615234 8.56420898 20.80615234 8.56420898 17.18359375 8.56640625 C15.87261719 8.58380859 14.56164063 8.60121094 13.2109375 8.61914062 C11.13097328 8.62915219 9.05117855 8.63282577 6.97119141 8.63110352 C-5.43472716 8.5074619 -5.43472716 8.5074619 -15.84570312 14.60693359 C-21.003883 20.35561837 -22.43371639 26.63334967 -22.33984375 34.1953125 C-21.3699661 40.30779724 -20.18232912 45.2950643 -16.33984375 50.1953125 C-16.33984375 50.8553125 -16.33984375 51.5153125 -16.33984375 52.1953125 C-12.23742078 54.13587772 -8.80660678 54.49403344 -4.2890625 54.609375 C-3.63025589 54.62874115 -2.97144928 54.6481073 -2.29267883 54.6680603 C-0.20436232 54.72747191 1.88401049 54.77408541 3.97265625 54.8203125 C5.3952053 54.85852782 6.81773209 54.89758159 8.24023438 54.9375 C11.71342073 55.03470871 15.18639222 55.1145767 18.66015625 55.1953125 C18.66015625 47.2753125 18.66015625 39.3553125 18.66015625 31.1953125 C11.07015625 31.1953125 3.48015625 31.1953125 -4.33984375 31.1953125 C-4.33984375 28.5553125 -4.33984375 25.9153125 -4.33984375 23.1953125 C5.89015625 23.1953125 16.12015625 23.1953125 26.66015625 23.1953125 C26.66015625 36.3953125 26.66015625 49.5953125 26.66015625 63.1953125 C20.41078125 63.2984375 14.16140625 63.4015625 7.72265625 63.5078125 C5.76851807 63.55333252 3.81437988 63.59885254 1.80102539 63.64575195 C-15.04826678 63.87753576 -15.04826678 63.87753576 -21.33984375 58.1953125 C-28.85711572 50.48095849 -30.84779653 40.6289149 -30.75952148 30.21850586 C-30.3811719 19.86437942 -26.90518144 12.2297493 -19.33984375 5.1953125 C-13.80023437 0.23881989 -7.07711479 -0.100149 0 0 Z " fill="#F6EFEF" transform="translate(30.33984375,18.8046875)"/>
<path d="M0 0 C1.23327026 0.03927612 1.23327026 0.03927612 2.49145508 0.0793457 C3.83046875 0.10351562 3.83046875 0.10351562 5.1965332 0.12817383 C6.12530273 0.17006836 7.05407227 0.21196289 8.01098633 0.25512695 C9.42154297 0.28896484 9.42154297 0.28896484 10.8605957 0.32348633 C13.18316106 0.38243469 15.50252408 0.46464911 17.82348633 0.56762695 C22.40306586 11.17838545 26.41454229 21.9911176 30.44848633 32.81762695 C31.12275843 34.62239183 31.79723627 36.42707985 32.47192383 38.23168945 C35.60903929 46.62464712 35.60903929 46.62464712 37.00738525 50.3939209 C37.56119831 51.86901612 38.12634414 53.33989647 38.70159912 54.8067627 C40.82348633 60.25639122 40.82348633 60.25639122 40.82348633 63.56762695 C35.18188497 63.69113793 29.54106857 63.78192325 23.8984375 63.84228516 C21.97870173 63.86744446 20.05906189 63.90157581 18.13964844 63.94482422 C15.38167687 64.00541548 12.62497023 64.03382147 9.86645508 64.0559082 C9.00698776 64.08171463 8.14752045 64.10752106 7.26200867 64.1341095 C5.00727802 64.13517308 3.01648493 64.09177519 0.82348633 63.56762695 C-1.68986579 60.71615039 -2.17651367 59.35827327 -2.17651367 55.56762695 C13.16848633 55.07262695 13.16848633 55.07262695 28.82348633 54.56762695 C23.21348633 39.71762695 17.60348633 24.86762695 11.82348633 9.56762695 C8.85348633 9.23762695 5.88348633 8.90762695 2.82348633 8.56762695 C2.6526503 9.16986084 2.48181427 9.77209473 2.30580139 10.39257812 C0.47304032 16.69417862 -1.69922513 22.78195614 -4.11791992 28.88012695 C-4.4862645 29.81566406 -4.85460907 30.75120117 -5.2341156 31.71508789 C-6.00606935 33.67211857 -6.78010559 35.628329 -7.55615234 37.58374023 C-8.74581556 40.58478541 -9.92536157 43.58967827 -11.10424805 46.5949707 C-11.8582018 48.50276141 -12.61273805 50.41032205 -13.36791992 52.31762695 C-13.72004044 53.21650635 -14.07216095 54.11538574 -14.43495178 55.04150391 C-14.76547043 55.86996826 -15.09598907 56.69843262 -15.43652344 57.55200195 C-15.72503677 58.28128906 -16.01355011 59.01057617 -16.31080627 59.76196289 C-17.17651367 61.56762695 -17.17651367 61.56762695 -19.17651367 63.56762695 C-22.30151367 63.69262695 -22.30151367 63.69262695 -25.17651367 63.56762695 C-24.59940858 56.92448009 -22.36947089 51.11421964 -20.02807617 44.90356445 C-19.40828384 43.23821152 -19.40828384 43.23821152 -18.77597046 41.53921509 C-17.9034431 39.1997592 -17.02744356 36.86159572 -16.14819336 34.5246582 C-14.80473042 30.95118318 -13.4742035 27.37308731 -12.14526367 23.79418945 C-11.29446636 21.51786165 -10.44292885 19.24181033 -9.59057617 16.96606445 C-8.99510483 15.36436905 -8.99510483 15.36436905 -8.38760376 13.73031616 C-8.01066376 12.73222931 -7.63372375 11.73414246 -7.24536133 10.70581055 C-6.75357895 9.395121 -6.75357895 9.395121 -6.25186157 8.05795288 C-3.12418467 0.81477615 -3.12418467 0.81477615 0 0 Z " fill="#F7F3F3" transform="translate(391.176513671875,18.432373046875)"/>
<path d="M0 0 C5.3892834 -0.14928763 10.77734103 -0.257654 16.16821289 -0.32958984 C17.99850452 -0.35960256 19.82865427 -0.40042728 21.65844727 -0.45263672 C40.20419116 -0.9682175 40.20419116 -0.9682175 46.4831543 4.37792969 C53.8927524 12.30153661 56.51570362 21.64625461 56.25 32.32421875 C55.11782219 44.44205934 51.04685701 52.81212018 41.8671875 60.65234375 C37.77437923 63.60635808 33.43092704 63.12897876 28.61328125 63.09765625 C27.79627243 63.0962413 26.97926361 63.09482635 26.13749695 63.09336853 C23.52912732 63.08777294 20.92084366 63.07522129 18.3125 63.0625 C16.54362103 63.05748443 14.77474072 63.05292162 13.00585938 63.04882812 C8.67053981 63.03780496 4.33528448 63.02054338 0 63 C-0.04074735 61.09392936 -0.06970589 59.18760451 -0.09375 57.28125 C-0.11115234 56.21970703 -0.12855469 55.15816406 -0.14648438 54.06445312 C-0.00891336 51.18646744 0.44783238 49.15593201 1.5 46.5 C4.87691585 36.59438017 4.54318472 23.12672548 0.70458984 13.42773438 C-0.11915058 10.58945482 -0.14670614 8.17275472 -0.09375 5.22265625 C-0.08021484 4.24176025 -0.06667969 3.26086426 -0.05273438 2.25024414 C-0.03533203 1.50766357 -0.01792969 0.76508301 0 0 Z M8 8 C8 23.51 8 39.02 8 55 C12.33125 55.0825 16.6625 55.165 21.125 55.25 C22.47996582 55.28641602 23.83493164 55.32283203 25.23095703 55.36035156 C33.63318881 55.43797611 37.18690264 54.70415172 43.1875 48.875 C47.74582787 41.6445489 49.04260092 33.42280968 48 25 C46.32751881 17.82817387 44.22791399 13.06168304 38 9 C35.18175808 7.59087904 32.82748718 7.88816447 29.6796875 7.90234375 C27.98175049 7.90609009 27.98175049 7.90609009 26.24951172 7.90991211 C24.08412842 7.92356812 24.08412842 7.92356812 21.875 7.9375 C17.29625 7.958125 12.7175 7.97875 8 8 Z " fill="#F5F0F0" transform="translate(317,19)"/>
<path d="M0 0 C4.44927554 2.77801177 7.88309793 5.08878721 10 10 C9.113125 9.21625 8.22625 8.4325 7.3125 7.625 C4.69279481 5.42843009 2.28284399 4.06209659 -1 3 C-1 3.66 -1 4.32 -1 5 C-2.65 5.66 -4.3 6.32 -6 7 C-3.99967627 8.00016187 -2.16874252 8.49396008 0 9 C-0.99 9.66 -1.98 10.32 -3 11 C-3.33 11.66 -3.66 12.32 -4 13 C-4.62648438 12.4946875 -5.25296875 11.989375 -5.8984375 11.46875 C-6.71570313 10.8190625 -7.53296875 10.169375 -8.375 9.5 C-9.18710937 8.8503125 -9.99921875 8.200625 -10.8359375 7.53125 C-12.83026843 5.80746385 -12.83026843 5.80746385 -15 6 C-13.02 8.31 -11.04 10.62 -9 13 C-9.99 13.495 -9.99 13.495 -11 14 C-10.13375 14.61875 -9.2675 15.2375 -8.375 15.875 C-2.41401224 20.84719832 1.66450536 28.37941068 3 36 C3.29805389 39.92066545 3.3248603 43.81942354 3.3125 47.75 C3.32861328 48.79027344 3.34472656 49.83054688 3.36132812 50.90234375 C3.36197266 51.89878906 3.36261719 52.89523438 3.36328125 53.921875 C3.36626221 54.82518555 3.36924316 55.72849609 3.37231445 56.65917969 C2.92438843 59.47538607 2.05975639 60.12541594 0 62 C-0.33 63.155 -0.66 64.31 -1 65.5 C-2.34042553 70.19148936 -2.34042553 70.19148936 -5 72 C-8 72 -8 72 -9.75 70.3125 C-11 68 -11 68 -10.9375 65.75 C-9.65042102 61.97456833 -7.87488221 58.51431411 -6 55 C-5.01 55 -4.02 55 -3 55 C-3 54.01 -3 53.02 -3 52 C-3.66 52 -4.32 52 -5 52 C-5 50.02 -5 48.04 -5 46 C-4.67 46.66 -4.34 47.32 -4 48 C-3.34 48 -2.68 48 -2 48 C-2 46.68 -2 45.36 -2 44 C-2.99 43.34 -3.98 42.68 -5 42 C-5 41.01 -5 40.02 -5 39 C-4.34 39 -3.68 39 -3 39 C-3.66 37.68 -4.32 36.36 -5 35 C-5.66 35 -6.32 35 -7 35 C-7.71614583 33.27473958 -8.43229167 31.54947917 -9.1484375 29.82421875 C-10.06806692 27.73466068 -10.06806692 27.73466068 -12 25 C-12.39387788 22.67612053 -12.73486085 20.34206251 -13 18 C-13.66 19.32 -14.32 20.64 -15 22 C-16.98 21.01 -18.96 20.02 -21 19 C-21 17.68 -21 16.36 -21 15 C-29.47579931 19.50276839 -34.86710435 24.91048037 -38 34 C-38.66 34 -39.32 34 -40 34 C-40.30744141 33.04287109 -40.30744141 33.04287109 -40.62109375 32.06640625 C-40.89050781 31.24011719 -41.15992188 30.41382813 -41.4375 29.5625 C-41.70433594 28.73878906 -41.97117187 27.91507813 -42.24609375 27.06640625 C-42.82155494 25.03780412 -42.82155494 25.03780412 -44 24 C-43.85604896 15.93874193 -40.55090991 10.86266003 -35.17578125 5.015625 C-24.65218644 -4.97431896 -12.73758773 -6.66525457 0 0 Z " fill="#494B4A" transform="translate(299,4)"/>
<path d="M0 0 C4.640625 -0.12375 9.28125 -0.2475 14.0625 -0.375 C16.23791382 -0.45693604 16.23791382 -0.45693604 18.45727539 -0.54052734 C29.12086811 -0.67827498 29.12086811 -0.67827498 33.36328125 2.7734375 C36.09414274 5.53279569 37.05581956 8.18747256 37.203125 12.046875 C36.75300847 16.37491856 34.77665167 19.10199651 32 22.3125 C27.53874955 24.82195338 23.04604367 24.82325591 18 25 C18.64066406 26.01578125 19.28132813 27.0315625 19.94140625 28.078125 C35 52.01959709 35 52.01959709 35 54 C31.87723305 54.48878091 29.10874673 54.64168133 26 54 C23.41111855 51.78871086 21.9441151 49.08432632 20.3125 46.125 C19.87873047 45.39796875 19.44496094 44.6709375 18.99804688 43.921875 C17.6375233 41.63088995 16.31927212 39.31498553 15 37 C13.02 33.7 11.04 30.4 9 27 C8.67 35.91 8.34 44.82 8 54 C5.36 54 2.72 54 0 54 C0 36.18 0 18.36 0 0 Z M8 7 C8 10.3 8 13.6 8 17 C10.93804996 17.08086376 13.87388075 17.1404283 16.8125 17.1875 C17.64587891 17.21263672 18.47925781 17.23777344 19.33789062 17.26367188 C20.14033203 17.27333984 20.94277344 17.28300781 21.76953125 17.29296875 C22.50792236 17.3086792 23.24631348 17.32438965 24.00708008 17.34057617 C26.58512629 16.90000598 27.4792445 16.10206818 29 14 C28.76716851 10.85078091 28.76716851 10.85078091 28 8 C25.29283758 7.09761253 23.76223232 6.88148698 20.98828125 6.90234375 C20.23095703 6.90556641 19.47363281 6.90878906 18.69335938 6.91210938 C17.90767578 6.92048828 17.12199219 6.92886719 16.3125 6.9375 C15.51521484 6.94201172 14.71792969 6.94652344 13.89648438 6.95117188 C11.93095743 6.9629415 9.96546915 6.98087652 8 7 Z " fill="#F7F2F2" transform="translate(86,28)"/>
<path d="M0 0 C4.01993847 -0.12426099 8.03912279 -0.21464411 12.06054688 -0.2746582 C13.42630503 -0.2996928 14.79193067 -0.33373218 16.15722656 -0.37719727 C28.97000516 -0.77467397 28.97000516 -0.77467397 32.83203125 2.3125 C35.50847487 5.6303256 36.49589998 7.75115699 37 12 C36.07653231 16.32278409 34.63095758 20.30428907 31 23 C27.86328125 23.73046875 27.86328125 23.73046875 24.3125 24.1875 C23.13300781 24.34605469 21.95351562 24.50460938 20.73828125 24.66796875 C19.83464844 24.77753906 18.93101562 24.88710938 18 25 C18.37809814 25.60996826 18.75619629 26.21993652 19.14575195 26.84838867 C20.86836749 29.62786569 22.59043874 32.40767954 24.3125 35.1875 C24.90740234 36.14720703 25.50230469 37.10691406 26.11523438 38.09570312 C26.69208984 39.02705078 27.26894531 39.95839844 27.86328125 40.91796875 C28.65665894 42.19837036 28.65665894 42.19837036 29.46606445 43.50463867 C29.97226318 44.32810791 30.47846191 45.15157715 31 46 C31.58031982 46.86794189 32.16063965 47.73588379 32.75854492 48.63012695 C33.1682251 49.41218506 33.57790527 50.19424316 34 51 C33.67 51.99 33.34 52.98 33 54 C30.25 54.25 30.25 54.25 27 54 C23.85270547 51.32286642 21.73335535 48.27904741 19.546875 44.796875 C18.928125 43.8171875 18.309375 42.8375 17.671875 41.828125 C17.03765625 40.81234375 16.4034375 39.7965625 15.75 38.75 C15.1003125 37.71875 14.450625 36.6875 13.78125 35.625 C12.18280056 33.08628618 10.59077099 30.54353222 9 28 C8.67 36.25 8.34 44.5 8 53 C4.535 53.495 4.535 53.495 1 54 C0 53 0 53 -0.12025452 50.86766052 C-0.11803391 49.92834183 -0.11581329 48.98902313 -0.11352539 48.02124023 C-0.11344986 46.96021591 -0.11337433 45.89919159 -0.11329651 44.80601501 C-0.10813522 43.651866 -0.10297394 42.49771698 -0.09765625 41.30859375 C-0.0962413 40.13361832 -0.09482635 38.95864288 -0.09336853 37.74806213 C-0.08774992 33.97784936 -0.07519426 30.20769496 -0.0625 26.4375 C-0.0574874 23.88867273 -0.05292408 21.33984453 -0.04882812 18.79101562 C-0.03777444 12.52732367 -0.02101821 6.26366601 0 0 Z M8 7 C8 10.3 8 13.6 8 17 C10.20805524 17.0544452 12.41650554 17.09299283 14.625 17.125 C16.46964844 17.15980469 16.46964844 17.15980469 18.3515625 17.1953125 C21.94316041 17.0030428 24.66661175 16.30258556 28 15 C28.76956136 12.65466049 28.76956136 12.65466049 29 10 C27.47034985 7.92494557 26.57230943 7.09780371 24.00708008 6.65942383 C22.89949341 6.6829895 22.89949341 6.6829895 21.76953125 6.70703125 C20.56586914 6.7215332 20.56586914 6.7215332 19.33789062 6.73632812 C18.50451172 6.76146484 17.67113281 6.78660156 16.8125 6.8125 C15.5450293 6.83280273 15.5450293 6.83280273 14.25195312 6.85351562 C12.16769616 6.88884201 10.08376723 6.94264861 8 7 Z " fill="#F9F2F2" transform="translate(214,28)"/>
<path d="M0 0 C4.4221584 0.08531495 6.55101542 1.14347043 9.6875 4.375 C10.3475 5.035 11.0075 5.695 11.6875 6.375 C12.1825 7.365 12.1825 7.365 12.6875 8.375 C13.3475 8.375 14.0075 8.375 14.6875 8.375 C15.0175 7.715 15.3475 7.055 15.6875 6.375 C16.3475 9.345 17.0075 12.315 17.6875 15.375 C16.3675 14.385 15.0475 13.395 13.6875 12.375 C14.1825 13.365 14.1825 13.365 14.6875 14.375 C15.35578724 22.72311269 15.36456323 29.29258996 10.6875 36.375 C9.1875 38.1015625 9.1875 38.1015625 7.6875 39.375 C5.5 39.0625 5.5 39.0625 3.6875 38.375 C4.6775 38.375 5.6675 38.375 6.6875 38.375 C6.0275 36.395 5.3675 34.415 4.6875 32.375 C4.0275 32.375 3.3675 32.375 2.6875 32.375 C3.0175 33.365 3.3475 34.355 3.6875 35.375 C3.3575 36.035 3.0275 36.695 2.6875 37.375 C2.0275 37.375 1.3675 37.375 0.6875 37.375 C0.6875 35.725 0.6875 34.075 0.6875 32.375 C0.0275 32.375 -0.6325 32.375 -1.3125 32.375 C-1.3125 34.355 -1.3125 36.335 -1.3125 38.375 C-0.6525 38.705 0.0075 39.035 0.6875 39.375 C-2.55521506 38.8159112 -4.24307424 37.9617822 -6.3125 35.375 C-6.3125 34.715 -6.3125 34.055 -6.3125 33.375 C-5.6525 33.375 -4.9925 33.375 -4.3125 33.375 C-4.3125 31.395 -4.3125 29.415 -4.3125 27.375 C-5.6325 27.705 -6.9525 28.035 -8.3125 28.375 C-8.3125 29.035 -8.3125 29.695 -8.3125 30.375 C-8.9725 30.375 -9.6325 30.375 -10.3125 30.375 C-10.9725 29.385 -11.6325 28.395 -12.3125 27.375 C-11.95631758 34.49864838 -7.3721591 39.68555986 -2.3125 44.375 C-0.21260348 45.55074711 -0.21260348 45.55074711 1.6875 46.375 C1.3575 47.365 1.0275 48.355 0.6875 49.375 C3.9875 51.025 7.2875 52.675 10.6875 54.375 C10.6875 55.035 10.6875 55.695 10.6875 56.375 C3.75459599 56.73359848 0.07029107 55.57381419 -5.8125 51.75 C-9.33494741 48.40367496 -11.75713574 44.48465799 -14.3125 40.375 C-14.9725 41.365 -15.6325 42.355 -16.3125 43.375 C-15.3225 43.375 -14.3325 43.375 -13.3125 43.375 C-13.9725 44.695 -14.6325 46.015 -15.3125 47.375 C-19.12985718 40.07384111 -22.2463751 33.77987586 -21.3125 25.375 C-18.8125 22.375 -18.8125 22.375 -16.3125 20.375 C-16.3125 21.035 -16.3125 21.695 -16.3125 22.375 C-15.6525 22.375 -14.9925 22.375 -14.3125 22.375 C-14.3125 23.035 -14.3125 23.695 -14.3125 24.375 C-13.6525 24.375 -12.9925 24.375 -12.3125 24.375 C-12.29832031 23.4571875 -12.28414063 22.539375 -12.26953125 21.59375 C-11.94802949 13.3215966 -10.74107904 0.18052234 0 0 Z " fill="#666867" transform="translate(274.3125,28.625)"/>
<path d="M0 0 C1.73056641 0.00966797 1.73056641 0.00966797 3.49609375 0.01953125 C4.68589844 0.03628906 5.87570313 0.05304687 7.1015625 0.0703125 C8.31457031 0.07933594 9.52757812 0.08835937 10.77734375 0.09765625 C13.76062023 0.12114662 16.74348844 0.15399568 19.7265625 0.1953125 C19.12810683 3.54666422 18.12224638 5.74735915 15.7265625 8.1953125 C13.44580078 8.70947266 13.44580078 8.70947266 10.796875 8.734375 C9.83652344 8.75757813 8.87617187 8.78078125 7.88671875 8.8046875 C6.88511719 8.80984375 5.88351563 8.815 4.8515625 8.8203125 C2.87487635 8.84595045 0.89827409 8.87954249 -1.078125 8.921875 C-2.39272705 8.93081787 -2.39272705 8.93081787 -3.73388672 8.93994141 C-6.58959017 9.22710405 -8.70282823 9.92892957 -11.2734375 11.1953125 C-15.50890782 16.59918842 -14.88406482 23.66080716 -14.2734375 30.1953125 C-13.6134375 32.1753125 -12.9534375 34.1553125 -12.2734375 36.1953125 C-6.0034375 36.5253125 0.2665625 36.8553125 6.7265625 37.1953125 C6.7265625 35.2153125 6.7265625 33.2353125 6.7265625 31.1953125 C2.4365625 31.1953125 -1.8534375 31.1953125 -6.2734375 31.1953125 C-6.2734375 28.5553125 -6.2734375 25.9153125 -6.2734375 23.1953125 C0.6565625 23.1953125 7.5865625 23.1953125 14.7265625 23.1953125 C14.7265625 30.4553125 14.7265625 37.7153125 14.7265625 45.1953125 C10.33036026 45.2762242 5.93564653 45.33577823 1.5390625 45.3828125 C-0.32975586 45.42051758 -0.32975586 45.42051758 -2.23632812 45.45898438 C-3.43837891 45.46865234 -4.64042969 45.47832031 -5.87890625 45.48828125 C-7.53635864 45.51184692 -7.53635864 45.51184692 -9.22729492 45.53588867 C-12.68647061 45.14913303 -14.49380158 44.25478519 -17.2734375 42.1953125 C-23.3006322 34.44606217 -24.17878236 26.75300381 -23.2734375 17.1953125 C-21.79486678 11.22790731 -18.93531395 7.28374528 -14.25 3.38671875 C-9.67894652 0.63143948 -5.2662739 -0.05214133 0 0 Z " fill="#F5EFEF" transform="translate(32.2734375,27.8046875)"/>
<path d="M0 0 C4.00125 -0.0825 8.0025 -0.165 12.125 -0.25 C13.37555176 -0.28641602 14.62610352 -0.32283203 15.91455078 -0.36035156 C22.25329776 -0.42366755 26.24877705 -0.37779907 31 4 C36.31064689 10.34327267 37.29169753 17.00295992 36.875 25.0625 C35.99812085 32.90458966 33.40091168 38.6665826 27.28710938 43.76513672 C22.57943602 46.30691851 17.26315246 45.60383006 12.0625 45.375 C8.081875 45.25125 4.10125 45.1275 0 45 C0 30.15 0 15.3 0 0 Z M7 7 C7 16.9 7 26.8 7 37 C9.536875 37.12375 12.07375 37.2475 14.6875 37.375 C15.47729248 37.42962402 16.26708496 37.48424805 17.08081055 37.54052734 C20.08659882 37.611216 22.17553198 37.64759862 24.60009766 35.74316406 C29.75783407 29.74096199 29.56852372 23.5404199 29 16 C27.87686069 12.49411299 27.87686069 12.49411299 26 10 C25.6390625 9.45859375 25.278125 8.9171875 24.90625 8.359375 C21.83110141 6.16644117 18.43651865 6.69000101 14.8125 6.8125 C10.9453125 6.9053125 10.9453125 6.9053125 7 7 Z " fill="#F6F1F1" transform="translate(327,28)"/>
<path d="M0 0 C6.41177883 1.31523668 10.71537177 5.27298186 15 10 C16.8674636 12.87005467 17.94095502 15.75390401 19 19 C19.36996094 19.98355469 19.73992187 20.96710937 20.12109375 21.98046875 C24.59611408 35.18874674 24.91995079 49.77474281 20.265625 62.98046875 C19 65 19 65 16.859375 65.80078125 C16.24578125 65.86652344 15.6321875 65.93226562 15 66 C14.38125 65.195625 13.7625 64.39125 13.125 63.5625 C11.25835959 60.96125481 11.25835959 60.96125481 9 60 C9 58.35 9 56.7 9 55 C9.66 55 10.32 55 11 55 C10.67 54.34 10.34 53.68 10 53 C9.01 53.495 9.01 53.495 8 54 C7.96261719 52.77925781 7.92523438 51.55851562 7.88671875 50.30078125 C7.40617235 37.30484741 6.90615058 25.2616715 -0.6953125 14.21875 C-2.23307153 11.60363884 -3 9.05996915 -3 6 C-3.99 5.67 -4.98 5.34 -6 5 C-5.34 4.01 -4.68 3.02 -4 2 C-2.68 2 -1.36 2 0 2 C0 1.34 0 0.68 0 0 Z " fill="#3B3B39" transform="translate(298,7)"/>
<path d="M0 0 C2.31 0 4.62 0 7 0 C10.64690745 8.63094603 14.15325492 17.31170348 17.55908203 26.04003906 C18.11053126 27.44918821 18.66530854 28.85703881 19.22314453 30.26367188 C20.03896358 32.32140656 20.84480263 34.38279408 21.6484375 36.4453125 C22.12458496 37.65719238 22.60073242 38.86907227 23.09130859 40.11767578 C24 43 24 43 23 45 C12.33333333 45 1.66666667 45 -9 45 C-10.32 47.97 -11.64 50.94 -13 54 C-15.31 54 -17.62 54 -20 54 C-19.36723881 48.0802225 -17.18159053 42.90629052 -15 37.421875 C-14.60425781 36.41408997 -14.20851563 35.40630493 -13.80078125 34.36798096 C-12.53932186 31.1598027 -11.26966368 27.95493892 -10 24.75 C-9.14531698 22.57832815 -8.29114456 20.40645526 -7.4375 18.234375 C-5.87797955 14.27323304 -4.3177669 10.31237844 -2.75 6.35449219 C-2.43546875 5.55984558 -2.1209375 4.76519897 -1.796875 3.94647217 C-1 2 -1 2 0 0 Z M3 10 C1.57372061 13.68366998 0.1496116 17.36817065 -1.27246094 21.0534668 C-1.75688538 22.30793105 -2.24191004 23.56216368 -2.72753906 24.81616211 C-3.42409214 26.61511705 -4.11833262 28.41496689 -4.8125 30.21484375 C-5.44091797 31.84087524 -5.44091797 31.84087524 -6.08203125 33.49975586 C-7.05744265 35.71254897 -7.05744265 35.71254897 -7 37 C-0.4 37 6.2 37 13 37 C12.25586432 33.27932159 11.44581937 30.21008115 10.15234375 26.69921875 C9.79462891 25.72275391 9.43691406 24.74628906 9.06835938 23.74023438 C8.69517578 22.73283203 8.32199219 21.72542969 7.9375 20.6875 C7.56044922 19.66076172 7.18339844 18.63402344 6.79492188 17.57617188 C5.86653932 15.04956113 4.93479871 12.52424239 4 10 C3.67 10 3.34 10 3 10 Z " fill="#F6F1F1" transform="translate(395,28)"/>
<path d="M0 0 C2.31 0 4.62 0 7 0 C9.28731728 5.76239706 11.56572531 11.52820585 13.8359375 17.29736328 C14.6095362 19.25959119 15.38556361 21.22086339 16.1640625 23.18115234 C17.28244203 25.99849873 18.39205106 28.81916314 19.5 31.640625 C19.84998047 32.51680481 20.19996094 33.39298462 20.56054688 34.29571533 C20.88087891 35.11626404 21.20121094 35.93681274 21.53125 36.78222656 C21.81548828 37.50170471 22.09972656 38.22118286 22.39257812 38.96246338 C23 41 23 41 23 45 C18.7641643 45.02469321 14.52836658 45.04285671 10.29248047 45.05493164 C8.8510668 45.05996474 7.40965824 45.06679173 5.96826172 45.07543945 C3.89809915 45.08754983 1.82800399 45.09323847 -0.2421875 45.09765625 C-1.4885498 45.10289307 -2.73491211 45.10812988 -4.01904297 45.11352539 C-7 45 -7 45 -9 44 C-10.98 48.95 -10.98 48.95 -13 54 C-15.64 54 -18.28 54 -21 54 C-18.91240749 47.49352816 -16.54903071 41.13319787 -14.0234375 34.78515625 C-13.65272125 33.84820419 -13.282005 32.91125214 -12.90005493 31.94590759 C-12.12298461 29.9832628 -11.34476093 28.02107429 -10.56542969 26.05932617 C-9.36913656 23.04773919 -8.17646357 20.03473782 -6.984375 17.02148438 C-6.22677117 15.10929231 -5.46896593 13.19718003 -4.7109375 11.28515625 C-4.1750148 9.93213158 -4.1750148 9.93213158 -3.62826538 8.55177307 C-3.2976712 7.72008102 -2.96707703 6.88838898 -2.62646484 6.03149414 C-2.3357309 5.29919083 -2.04499695 4.56688751 -1.74545288 3.81239319 C-1 2 -1 2 0 0 Z M3 10 C-3.66764987 23.13838923 -3.66764987 23.13838923 -7 37 C-0.4 37 6.2 37 13 37 C10.38826851 27.85893979 7.20652767 18.94507071 4 10 C3.67 10 3.34 10 3 10 Z " fill="#F5F0F0" transform="translate(162,28)"/>
<path d="M0 0 C0.061875 0.61875 0.12375 1.2375 0.1875 1.875 C0.828919 4.27761141 0.828919 4.27761141 3.5625 5.25 C4.366875 5.4975 5.17125 5.745 6 6 C6.66 4.68 7.32 3.36 8 2 C8.33 2 8.66 2 9 2 C9.12117188 2.69867187 9.24234375 3.39734375 9.3671875 4.1171875 C9.53476562 5.02726562 9.70234375 5.93734375 9.875 6.875 C10.11863281 8.23238281 10.11863281 8.23238281 10.3671875 9.6171875 C10.83044703 12.16505988 10.83044703 12.16505988 13 14 C13.39764263 15.98821313 13.73775349 17.98944339 14 20 C14.99 19.67 15.98 19.34 17 19 C17.495 21.475 17.495 21.475 18 24 C17.34 24 16.68 24 16 24 C16.75150023 27.27773504 16.75150023 27.27773504 20 29 C19.67 30.32 19.34 31.64 19 33 C18.34 33 17.68 33 17 33 C16.67 34.32 16.34 35.64 16 37 C16.66 37 17.32 37 18 37 C18 37.99 18 38.98 18 40 C17.01 40 16.02 40 15 40 C14.896875 40.53625 14.79375 41.0725 14.6875 41.625 C14 44 14 44 12.375 47 C10.80638823 49.76602268 10.80638823 49.76602268 11.1875 52.0625 C11.455625 52.701875 11.72375 53.34125 12 54 C12.350625 54.9075 12.70125 55.815 13.0625 56.75 C13.371875 57.4925 13.68125 58.235 14 59 C13 60 13 60 9.375 60.3125 C4.58081766 60.26961823 1.9936088 58.56193772 -2 56 C-3.21042969 55.57267578 -3.21042969 55.57267578 -4.4453125 55.13671875 C-7.48895721 53.78243647 -9.01037987 52.19308312 -11.1875 49.6875 C-11.86167969 48.92824219 -12.53585937 48.16898438 -13.23046875 47.38671875 C-15.02695623 44.96364182 -16.09860104 42.87112261 -17 40 C-16.625 37.6875 -16.625 37.6875 -16 36 C-15.34 37.32 -14.68 38.64 -14 40 C-13.34 40 -12.68 40 -12 40 C-12 39.34 -12 38.68 -12 38 C-10.02 37.505 -10.02 37.505 -8 37 C-6.875 40.75 -6.875 40.75 -8 43 C-8.66 43 -9.32 43 -10 43 C-8.35 44.65 -6.7 46.3 -5 48 C-5.185625 47.38125 -5.37125 46.7625 -5.5625 46.125 C-6 44 -6 44 -5 42 C-4.34 42 -3.68 42 -3 42 C-3 43.65 -3 45.3 -3 47 C-2.34 47 -1.68 47 -1 47 C-1 45.35 -1 43.7 -1 42 C-0.34 42 0.32 42 1 42 C3 45 3 45 4 48 C7.28892952 45.33753325 9.03008577 42.05357257 10 38 C10.3881951 32.02043344 10.78153447 25.78998704 9 20 C10.32 21.32 11.64 22.64 13 24 C12.34 22.02 11.68 20.04 11 18 C9.68 18 8.36 18 7 18 C6.7525 17.401875 6.505 16.80375 6.25 16.1875 C4.70462524 13.48309418 3.79352635 12.43257762 1 11 C-2.10417674 10.47406214 -4.90503178 10.38442621 -8 11 C-10.5517286 13.12685929 -10.5517286 13.12685929 -12 16 C-12.34933594 16.556875 -12.69867188 17.11375 -13.05859375 17.6875 C-14.39504107 20.97039135 -14.4663181 24.25238648 -14.625 27.75 C-14.66367187 28.44738281 -14.70234375 29.14476563 -14.7421875 29.86328125 C-14.83598624 31.57510818 -14.91906174 33.28751682 -15 35 C-15.99 34.67 -16.98 34.34 -18 34 C-18 33.34 -18 32.68 -18 32 C-18.66 32 -19.32 32 -20 32 C-21.12758089 28.61725734 -20.81750262 27.23221777 -20.0625 23.8125 C-19.86785156 22.91144531 -19.67320312 22.01039062 -19.47265625 21.08203125 C-19.31667969 20.39496094 -19.16070312 19.70789063 -19 19 C-18.34 19 -17.68 19 -17 19 C-16.979375 18.175 -16.95875 17.35 -16.9375 16.5 C-15.2092603 10.04790513 -7.11562082 0 0 0 Z " fill="#E0DED9" transform="translate(278,19)"/>
<path d="M0 0 C6.15234375 -0.09765625 6.15234375 -0.09765625 8 0 C9.65408456 1.65408456 9.12742355 3.59553892 9.12939453 5.87109375 C9.13254669 6.90886963 9.13569885 7.94664551 9.13894653 9.01586914 C9.1369223 10.14500732 9.13489807 11.27414551 9.1328125 12.4375 C9.13376923 13.58790771 9.13472595 14.73831543 9.13571167 15.92358398 C9.13639369 18.36149144 9.1345379 20.7994007 9.13037109 23.23730469 C9.12502317 26.98376518 9.13031539 30.73010577 9.13671875 34.4765625 C9.13605797 36.83854193 9.13477682 39.20052129 9.1328125 41.5625 C9.13483673 42.69163818 9.13686096 43.82077637 9.13894653 44.98413086 C9.13579437 46.02190674 9.13264221 47.05968262 9.12939453 48.12890625 C9.12820114 49.50671265 9.12820114 49.50671265 9.12698364 50.91235352 C9 53 9 53 8 54 C4.5 54.125 4.5 54.125 1 54 C0 53 0 53 -0.12025452 50.86766052 C-0.11803391 49.92834183 -0.11581329 48.98902313 -0.11352539 48.02124023 C-0.11344986 46.96021591 -0.11337433 45.89919159 -0.11329651 44.80601501 C-0.10813522 43.651866 -0.10297394 42.49771698 -0.09765625 41.30859375 C-0.0962413 40.13361832 -0.09482635 38.95864288 -0.09336853 37.74806213 C-0.08774992 33.97784936 -0.07519426 30.20769496 -0.0625 26.4375 C-0.0574874 23.88867273 -0.05292408 21.33984453 -0.04882812 18.79101562 C-0.03777444 12.52732367 -0.02101821 6.26366601 0 0 Z " fill="#F3E2E2" transform="translate(67,28)"/>
<path d="M0 0 C4.73214706 0.28392882 7.97201189 1.00393861 11.51953125 4.28515625 C19.58983785 13.63308395 21.35009735 22.79404117 21.3125 34.75 C21.32861328 35.79027344 21.34472656 36.83054688 21.36132812 37.90234375 C21.36197266 38.89878906 21.36261719 39.89523438 21.36328125 40.921875 C21.36626221 41.82518555 21.36924316 42.72849609 21.37231445 43.65917969 C20.92438843 46.47538607 20.05975639 47.12541594 18 49 C17.67 50.155 17.34 51.31 17 52.5 C15.65957447 57.19148936 15.65957447 57.19148936 13 59 C10 59 10 59 8.25 57.3125 C7 55 7 55 7.0625 52.75 C8.34957898 48.97456833 10.12511779 45.51431411 12 42 C12.99 42 13.98 42 15 42 C15 41.01 15 40.02 15 39 C14.34 39 13.68 39 13 39 C13 37.02 13 35.04 13 33 C13.33 33.66 13.66 34.32 14 35 C14.66 35 15.32 35 16 35 C16 33.68 16 32.36 16 31 C15.01 30.34 14.02 29.68 13 29 C13 28.01 13 27.02 13 26 C13.66 26 14.32 26 15 26 C14.34 24.68 13.68 23.36 13 22 C12.34 22 11.68 22 11 22 C10.28385417 20.27473958 9.56770833 18.54947917 8.8515625 16.82421875 C7.93193308 14.73466068 7.93193308 14.73466068 6 12 C5.60612212 9.67612053 5.26513915 7.34206251 5 5 C4.34 6.32 3.68 7.64 3 9 C0.525 8.01 0.525 8.01 -2 7 C-1.34 6.67 -0.68 6.34 0 6 C0 4.02 0 2.04 0 0 Z " fill="#575857" transform="translate(281,17)"/>
<path d="M0 0 C2.64 0 5.28 0 8 0 C8 17.82 8 35.64 8 54 C5.36 54 2.72 54 0 54 C0 36.18 0 18.36 0 0 Z " fill="#F7E7E7" transform="translate(58,28)"/>
<path d="M0 0 C6.40207297 1.31324574 10.73139105 5.26705763 15 10 C16.80201609 12.88426138 17.94154405 15.77676229 19 19 C19.30808594 19.86367188 19.61617188 20.72734375 19.93359375 21.6171875 C21.47855413 26.24520215 22.25594155 29.18128549 21 34 C20.608125 33.360625 20.21625 32.72125 19.8125 32.0625 C17.61527704 29.56221181 16.24208567 29.35049575 13 29 C13 28.34 13 27.68 13 27 C11.05000871 27.19471111 11.05000871 27.19471111 9 28 C7.8529475 30.00213945 7.8529475 30.00213945 7 32 C6.85304688 31.39414062 6.70609375 30.78828125 6.5546875 30.1640625 C4.95902518 24.20325497 2.71907142 19.46278162 -0.6953125 14.32421875 C-2.19146039 11.65892536 -3 9.08589532 -3 6 C-3.99 5.67 -4.98 5.34 -6 5 C-5.34 4.01 -4.68 3.02 -4 2 C-2.68 2 -1.36 2 0 2 C0 1.34 0 0.68 0 0 Z " fill="#3E3F3E" transform="translate(298,7)"/>
<path d="M0 0 C0.66 0 1.32 0 2 0 C2.103125 0.639375 2.20625 1.27875 2.3125 1.9375 C2.6528125 2.9584375 2.6528125 2.9584375 3 4 C3.99 4.33 4.98 4.66 6 5 C6 5.99 6 6.98 6 8 C5.01 8 4.02 8 3 8 C2.896875 8.53625 2.79375 9.0725 2.6875 9.625 C2 12 2 12 0.375 15 C-1.19361177 17.76602268 -1.19361177 17.76602268 -0.8125 20.0625 C-0.544375 20.701875 -0.27625 21.34125 0 22 C0.350625 22.9075 0.70125 23.815 1.0625 24.75 C1.5265625 25.86375 1.5265625 25.86375 2 27 C1 28 1 28 -2.625 28.3125 C-7.41918234 28.26961823 -10.0063912 26.56193772 -14 24 C-14.80695313 23.71511719 -15.61390625 23.43023437 -16.4453125 23.13671875 C-19.48895721 21.78243647 -21.01037987 20.19308312 -23.1875 17.6875 C-23.86167969 16.92824219 -24.53585937 16.16898438 -25.23046875 15.38671875 C-27.02695623 12.96364182 -28.09860104 10.87112261 -29 8 C-28.625 5.6875 -28.625 5.6875 -28 4 C-27.34 5.32 -26.68 6.64 -26 8 C-25.34 8 -24.68 8 -24 8 C-24 7.34 -24 6.68 -24 6 C-22.68 5.67 -21.36 5.34 -20 5 C-18.875 8.75 -18.875 8.75 -20 11 C-20.66 11 -21.32 11 -22 11 C-20.35 12.65 -18.7 14.3 -17 16 C-17.185625 15.38125 -17.37125 14.7625 -17.5625 14.125 C-18 12 -18 12 -17 10 C-16.34 10 -15.68 10 -15 10 C-15 11.65 -15 13.3 -15 15 C-14.34 15 -13.68 15 -13 15 C-13 13.35 -13 11.7 -13 10 C-12.34 10 -11.68 10 -11 10 C-9 13 -9 13 -8 16 C-4.63408573 13.27521226 -3.55773724 9.93143208 -2 6 C-1.34 6 -0.68 6 0 6 C0 4.02 0 2.04 0 0 Z " fill="#BBB5AC" transform="translate(290,51)"/>
<path d="M0 0 C0.33 0.66 0.66 1.32 1 2 C1.66 2 2.32 2 3 2 C3.1959375 2.83402344 3.391875 3.66804688 3.59375 4.52734375 C5.75769473 12.67011853 8.52245507 18.47131419 15 24 C17.13620943 25.22082241 17.13620943 25.22082241 19 26 C18.67 26.99 18.34 27.98 18 29 C21.3 30.65 24.6 32.3 28 34 C28 34.66 28 35.32 28 36 C21.06709599 36.35859848 17.38279107 35.19881419 11.5 31.375 C7.97755259 28.02867496 5.55536426 24.10965799 3 20 C2.34 20.99 1.68 21.98 1 23 C1.99 23 2.98 23 4 23 C3.34 24.32 2.68 25.64 2 27 C-1.84220046 19.65132534 -4.80464876 13.44881201 -4 5 C-2 2 -2 2 0 0 Z " fill="#9B8548" transform="translate(257,49)"/>
<path d="M0 0 C0.66 0.33 1.32 0.66 2 1 C2.1875 3.875 2.1875 3.875 2 7 C-1.6441774 9.4294516 -3.71241272 9.16179575 -8 9 C-8.33 10.32 -8.66 11.64 -9 13 C-15.51317337 13.15101108 -21.58175035 12.63888352 -28 11.5625 C-28.85722656 11.42779297 -29.71445312 11.29308594 -30.59765625 11.15429688 C-36.86353625 10.13646375 -36.86353625 10.13646375 -38 9 C-37.71269945 6.66055264 -37.38063221 4.3260857 -37 2 C-36.34 3.32 -35.68 4.64 -35 6 C-34.01 5.34 -33.02 4.68 -32 4 C-30.05810547 4.00415039 -30.05810547 4.00415039 -27.8671875 4.34765625 C-27.06023437 4.45787109 -26.25328125 4.56808594 -25.421875 4.68164062 C-23.74629614 4.93220648 -22.07175466 5.18982832 -20.3984375 5.45507812 C-14.97910727 6.1796563 -11.11512207 5.79430948 -6.01220703 3.78686523 C-4.02669305 3.01043821 -2.07589018 2.47517923 0 2 C0 1.34 0 0.68 0 0 Z " fill="#D4D4D4" transform="translate(307,86)"/>
<path d="M0 0 C2.36087137 2.1922377 4.11178924 4.18117567 5.8125 6.9375 C9.92809237 12.69932932 13.96905976 15.03166844 20.9375 16.3125 C22.62245464 16.55968715 24.30937362 16.79516823 26 17 C25.04134491 14.66924071 25.04134491 14.66924071 22 13 C25.63 12.67 29.26 12.34 33 12 C30.85840582 17.35398546 29.81742524 18.2901983 25 21 C24.34 21 23.68 21 23 21 C23 21.66 23 22.32 23 23 C21.88625 22.95875 20.7725 22.9175 19.625 22.875 C15.95633975 22.58878141 15.95633975 22.58878141 14 25 C13.01 25 12.02 25 11 25 C11.33 23.35 11.66 21.7 12 20 C11.41863281 19.92136719 10.83726562 19.84273437 10.23828125 19.76171875 C5.8151994 18.25648147 3.24279993 13.92814092 1 10 C1.0625 6.4375 1.0625 6.4375 2 4 C1.01 4 0.02 4 -1 4 C-0.67 2.68 -0.34 1.36 0 0 Z " fill="#343738" transform="translate(259,68)"/>
<path d="M0 0 C5.41989626 -0.83383019 8.50515674 1.04842496 12.7578125 4.10546875 C19.50436063 9.80594931 23.34394936 16.67147941 26 25 C26.22558594 25.66 26.45117188 26.32 26.68359375 27 C28.95666684 35.02629946 28.16035273 43.7418343 28 52 C26.515 51.505 26.515 51.505 25 51 C24.96261719 50.12859375 24.92523438 49.2571875 24.88671875 48.359375 C24.15754918 35.14853806 22.55789681 21.87081528 12.25 12.5 C11.5075 12.005 10.765 11.51 10 11 C9.34 10.34 8.68 9.68 8 9 C8.99 8.67 9.98 8.34 11 8 C9.92130607 7.03644756 8.83681257 6.07938583 7.75 5.125 C7.14671875 4.59132813 6.5434375 4.05765625 5.921875 3.5078125 C4.02581254 2.0202513 2.18709995 0.99677564 0 0 Z " fill="#131515" transform="translate(278,8)"/>
<path d="M0 0 C2.44129368 2.44129368 2.69411546 3.59157224 3 7 C0.38379662 16.55369792 -4.12089582 23.93915721 -12.6875 28.9375 C-15.50927829 30.4531702 -16.74222927 31 -20 31 C-20 30.34 -20 29.68 -20 29 C-18.906875 28.443125 -17.81375 27.88625 -16.6875 27.3125 C-13.31962633 25.41040131 -11.67814024 23.55370875 -10 20 C-10.66 20.33 -11.32 20.66 -12 21 C-17.18899437 21.39491462 -22.37510337 21.68542385 -27 19 C-27.33 18.34 -27.66 17.68 -28 17 C-27.67 16.34 -27.34 15.68 -27 15 C-21.25 16.875 -21.25 16.875 -19 18 C-13.75397497 18.79803916 -13.75397497 18.79803916 -9.17578125 16.6484375 C-5.8730904 13.01787662 -4.24501823 10.02287363 -4 5 C-3.01 5 -2.02 5 -1 5 C-0.67 3.35 -0.34 1.7 0 0 Z " fill="#151717" transform="translate(302,60)"/>
<path d="M0 0 C0.33 1.32 0.66 2.64 1 4 C1.556875 3.773125 2.11375 3.54625 2.6875 3.3125 C5.92123084 2.87550935 7.39073978 4.18801373 10 6 C10.33 4.35 10.66 2.7 11 1 C11.66 1 12.32 1 13 1 C15.3557402 8.06722061 14.18925247 14.50759318 11 21 C8.890625 21.72265625 8.890625 21.72265625 7 22 C6.38125 21.195625 5.7625 20.39125 5.125 19.5625 C3.25835959 16.96125481 3.25835959 16.96125481 1 16 C1 14.35 1 12.7 1 11 C1.66 11 2.32 11 3 11 C2.67 10.34 2.34 9.68 2 9 C1.01 9.495 1.01 9.495 0 10 C0 6.7 0 3.4 0 0 Z " fill="#343635" transform="translate(306,51)"/>
<path d="M0 0 C3.57825869 2.54942843 5.89336576 4.44010855 7.66015625 8.5390625 C6.77328125 7.7553125 5.88640625 6.9715625 4.97265625 6.1640625 C2.35295106 3.96749259 -0.05699976 2.60115909 -3.33984375 1.5390625 C-3.33984375 2.1990625 -3.33984375 2.8590625 -3.33984375 3.5390625 C-4.98984375 4.1990625 -6.63984375 4.8590625 -8.33984375 5.5390625 C-6.33952002 6.53922437 -4.50858627 7.03302258 -2.33984375 7.5390625 C-3.32984375 8.1990625 -4.31984375 8.8590625 -5.33984375 9.5390625 C-5.66984375 10.1990625 -5.99984375 10.8590625 -6.33984375 11.5390625 C-6.96632813 11.04535156 -7.5928125 10.55164063 -8.23828125 10.04296875 C-9.05554688 9.40230469 -9.8728125 8.76164063 -10.71484375 8.1015625 C-11.52695312 7.46347656 -12.3390625 6.82539063 -13.17578125 6.16796875 C-15.23382481 4.51682703 -15.23382481 4.51682703 -17.33984375 3.5390625 C-17.33984375 0.5390625 -17.33984375 0.5390625 -16.33984375 -0.4609375 C-17.65984375 -0.1309375 -18.97984375 0.1990625 -20.33984375 0.5390625 C-20.00984375 -0.4509375 -19.67984375 -1.4409375 -19.33984375 -2.4609375 C-21.97984375 -2.4609375 -24.61984375 -2.4609375 -27.33984375 -2.4609375 C-20.11007669 -9.69070456 -7.30843975 -4.56319944 0 0 Z " fill="#3B3D3C" transform="translate(301.33984375,5.4609375)"/>
<path d="M0 0 C3.72621504 1.45983749 5.12476581 3.26825151 7.125 6.6875 C7.62257813 7.51636719 8.12015625 8.34523438 8.6328125 9.19921875 C12.15074 16.40594452 12.28056071 23.01871649 12.1875 30.875 C12.18685547 31.93203125 12.18621094 32.9890625 12.18554688 34.078125 C12.14053915 41.85946085 12.14053915 41.85946085 11 43 C9.33382885 43.04063832 7.66611905 43.042721 6 43 C5.67 42.34 5.34 41.68 5 41 C5.474375 40.05125 5.94875 39.1025 6.4375 38.125 C8.77154312 32.90325703 8.79742037 27.60330207 8 22 C6.89955345 19.20685268 5.63690522 16.72817537 4.09375 14.15625 C3 12 3 12 3 8 C3.33 7.67 3.66 7.34 4 7 C4 6.34 4 5.68 4 5 C2.68 4.67 1.36 4.34 0 4 C0 2.68 0 1.36 0 0 Z " fill="#DDDBD6" transform="translate(290,21)"/>
<path d="M0 0 C2.91633776 1.30732382 4.75864056 2.75864056 7 5 C7.66 5 8.32 5 9 5 C9 6.32 9 7.64 9 9 C8.34 9 7.68 9 7 9 C7 9.66 7 10.32 7 11 C-1.261959 15.59225513 -1.261959 15.59225513 -6 15 C-6.33 15.66 -6.66 16.32 -7 17 C-7 16.34 -7 15.68 -7 15 C-9.97 15 -12.94 15 -16 15 C-13.49177145 12.49177145 -11.52570791 11.00140299 -8.5625 9.1875 C-4.50759095 6.55246953 -2.31031201 4.21883062 0 0 Z " fill="#373938" transform="translate(300,77)"/>
<path d="M0 0 C0.66 0 1.32 0 2 0 C2.103125 0.639375 2.20625 1.27875 2.3125 1.9375 C2.6528125 2.9584375 2.6528125 2.9584375 3 4 C3.99 4.33 4.98 4.66 6 5 C6 5.99 6 6.98 6 8 C5.01 8 4.02 8 3 8 C2.86851562 8.56332031 2.73703125 9.12664063 2.6015625 9.70703125 C1.54914272 13.71852744 0.35751298 17.55440411 -2 21 C-5.75 22.0625 -5.75 22.0625 -9 22 C-8.67 20.68 -8.34 19.36 -8 18 C-10.97 18 -13.94 18 -17 18 C-18.125 12.25 -18.125 12.25 -17 10 C-16.34 10 -15.68 10 -15 10 C-15 11.65 -15 13.3 -15 15 C-14.34 15 -13.68 15 -13 15 C-13 13.35 -13 11.7 -13 10 C-12.34 10 -11.68 10 -11 10 C-9 13 -9 13 -8 16 C-4.63408573 13.27521226 -3.55773724 9.93143208 -2 6 C-1.34 6 -0.68 6 0 6 C0 4.02 0 2.04 0 0 Z " fill="#C8C5C0" transform="translate(290,51)"/>
<path d="M0 0 C2 2 2 2 3 7 C-12.345 7.495 -12.345 7.495 -28 8 C-27.67 9.32 -27.34 10.64 -27 12 C-14.46 12 -1.92 12 11 12 C11.33 11.01 11.66 10.02 12 9 C12.495 11.475 12.495 11.475 13 14 C7.50076251 14.07411371 2.00181521 14.12858464 -3.49780273 14.16479492 C-5.36894799 14.17988873 -7.24005783 14.20036589 -9.11108398 14.22631836 C-11.79940526 14.26267593 -14.48725913 14.27972015 -17.17578125 14.29296875 C-18.43217155 14.31619453 -18.43217155 14.31619453 -19.71394348 14.33988953 C-25.5422053 14.34158139 -25.5422053 14.34158139 -27.62004089 12.79121399 C-29 11 -29 11 -31 6 C-20.44 6 -9.88 6 1 6 C0.67 4.02 0.34 2.04 0 0 Z " fill="#E2D1D1" transform="translate(186,68)"/>
<path d="M0 0 C-0.47610659 4.99911924 -2.03162219 7.97832683 -5 12 C-4.34 12.33 -3.68 12.66 -3 13 C-3.928125 14.051875 -3.928125 14.051875 -4.875 15.125 C-7.0427009 18.05777181 -8.02655555 20.51182406 -9 24 C-9.66 24 -10.32 24 -11 24 C-11.20496094 23.36191406 -11.40992188 22.72382812 -11.62109375 22.06640625 C-11.89050781 21.24011719 -12.15992188 20.41382812 -12.4375 19.5625 C-12.70433594 18.73878906 -12.97117187 17.91507813 -13.24609375 17.06640625 C-13.82155494 15.03780412 -13.82155494 15.03780412 -15 14 C-14.82364548 11.30917128 -14.38164079 8.67148554 -14 6 C-13.67 7.32 -13.34 8.64 -13 10 C-12.01 10 -11.02 10 -10 10 C-8.61558 8.03501678 -7.28796166 6.02951535 -6 4 C-2.42105263 0 -2.42105263 0 0 0 Z " fill="#9E874A" transform="translate(270,14)"/>
<path d="M0 0 C1.22589844 0.01353516 1.22589844 0.01353516 2.4765625 0.02734375 C3.41628906 0.04474609 3.41628906 0.04474609 4.375 0.0625 C4.375 1.3825 4.375 2.7025 4.375 4.0625 C5.365 4.3925 6.355 4.7225 7.375 5.0625 C6.385 5.0625 5.395 5.0625 4.375 5.0625 C4.375 7.0425 4.375 9.0225 4.375 11.0625 C3.385 11.0625 2.395 11.0625 1.375 11.0625 C1.375 9.7425 1.375 8.4225 1.375 7.0625 C-1.37563543 8.63429167 -3.81033728 10.21694774 -6.25 12.25 C-8.625 14.0625 -8.625 14.0625 -11.625 14.0625 C-10.50048273 11.0905615 -9.40206209 8.72809313 -7.625 6.0625 C-7.46 5.19625 -7.295 4.33 -7.125 3.4375 C-6.96 2.65375 -6.795 1.87 -6.625 1.0625 C-4.21954362 -0.14022819 -2.67503047 -0.03821472 0 0 Z " fill="#5C522F" transform="translate(276.625,11.9375)"/>
<path d="M0 0 C4.99275057 1.27721526 7.57611908 3.17330957 11 7 C10 9 10 9 8 10 C6.68 10 5.36 10 4 10 C4.99 10.66 5.98 11.32 7 12 C7 12.66 7 13.32 7 14 C4.69 14.33 2.38 14.66 0 15 C-0.99 12.69 -1.98 10.38 -3 8 C-2.34 7.34 -1.68 6.68 -1 6 C-2.65 5.67 -4.3 5.34 -6 5 C-5.34 4.01 -4.68 3.02 -4 2 C-2.68 2 -1.36 2 0 2 C0 1.34 0 0.68 0 0 Z " fill="#363836" transform="translate(298,7)"/>
<path d="M0 0 C1.15680267 0.00424484 1.15680267 0.00424484 2.3369751 0.00857544 C4.79251832 0.01974237 7.2476926 0.04484021 9.703125 0.0703125 C11.37108847 0.08034682 13.03905768 0.08947189 14.70703125 0.09765625 C18.78920397 0.11967025 22.871102 0.15417583 26.953125 0.1953125 C26.40588817 3.56993965 25.898225 5.2776625 23.953125 8.1953125 C21.08325195 8.59594727 21.08325195 8.59594727 17.44140625 8.63671875 C16.12591797 8.66314453 14.81042969 8.68957031 13.45507812 8.71679688 C12.05860605 8.73167209 10.66212055 8.74533366 9.265625 8.7578125 C7.21098203 8.78172336 5.15674624 8.81012458 3.1023407 8.84959412 C1.22505206 8.88491004 -0.65250633 8.90490492 -2.5300293 8.92407227 C-6.34155652 9.21804011 -9.42052869 10.02985661 -13.046875 11.1953125 C-9.15398558 7.12547356 -6.70952673 7.0393717 -1.0703125 6.87890625 C-0.04244125 6.8477346 -0.04244125 6.8477346 1.00619507 6.81593323 C3.19673569 6.75051065 5.38739689 6.69158696 7.578125 6.6328125 C9.0625125 6.58962032 10.54688778 6.5460058 12.03125 6.50195312 C15.67174584 6.39483697 19.31237751 6.29354888 22.953125 6.1953125 C23.613125 4.8753125 24.273125 3.5553125 24.953125 2.1953125 C12.743125 2.1953125 0.533125 2.1953125 -12.046875 2.1953125 C-7.72379084 0.03377042 -4.67476367 -0.06477806 0 0 Z " fill="#D9D1D1" transform="translate(30.046875,18.8046875)"/>
<path d="M0 0 C0 0.66 0 1.32 0 2 C1.65 1.34 3.3 0.68 5 0 C4.01 1.485 4.01 1.485 3 3 C2.34 3 1.68 3 1 3 C1 3.66 1 4.32 1 5 C0.01 5.495 0.01 5.495 -1 6 C1.64 8.31 4.28 10.62 7 13 C3 15 3 15 0.25 14.125 C-0.4925 13.75375 -1.235 13.3825 -2 13 C-2 11.68 -2 10.36 -2 9 C-3.98 9 -5.96 9 -8 9 C-8 8.01 -8 7.02 -8 6 C-8.66 6 -9.32 6 -10 6 C-10.33 5.01 -10.66 4.02 -11 3 C-9 0 -9 0 -7.1875 -0.75 C-4.59271 -1.04654743 -2.52136205 -0.63034051 0 0 Z " fill="#3E3F3E" transform="translate(283,3)"/>
<path d="M0 0 C1.9375 1.125 1.9375 1.125 4 3 C4.75 6.1875 4.75 6.1875 5 9 C5.99 8.67 6.98 8.34 8 8 C8.33 9.65 8.66 11.3 9 13 C8.34 13 7.68 13 7 13 C7.75150023 16.27773504 7.75150023 16.27773504 11 18 C10.67 19.32 10.34 20.64 10 22 C9.34 22 8.68 22 8 22 C7.34 23.32 6.68 24.64 6 26 C5.67 24.35 5.34 22.7 5 21 C4.34 21 3.68 21 3 21 C3.33 23.31 3.66 25.62 4 28 C3.34 27.67 2.68 27.34 2 27 C1.62109375 23.98046875 1.62109375 23.98046875 1.4375 20.1875 C1.18517739 14.51935485 1.18517739 14.51935485 0 9 C1.32 10.32 2.64 11.64 4 13 C3.52140759 11.39566191 3.04210442 9.79153584 2.5625 8.1875 C2.16224609 6.84751953 2.16224609 6.84751953 1.75390625 5.48046875 C1.19612127 3.64526945 0.60655425 1.81966274 0 0 Z " fill="#D4D2CE" transform="translate(287,30)"/>
<path d="M0 0 C0.66 1.32 1.32 2.64 2 4 C2.99 3.34 3.98 2.68 5 2 C7.59906416 2.12749033 10.00365387 2.36266284 12.5625 2.75 C13.24763672 2.83765625 13.93277344 2.9253125 14.63867188 3.015625 C19.73594643 3.73594643 19.73594643 3.73594643 22 6 C21 8 21 8 18 10 C11.49376166 10.11414453 5.14507585 9.09491222 -1 7 C-0.67 4.69 -0.34 2.38 0 0 Z " fill="#C9C9C9" transform="translate(270,88)"/>
<path d="M0 0 C6.41753653 0.60542797 6.41753653 0.60542797 8.9375 2.3125 C10 4 10 4 10 8 C10.99 8.33 11.98 8.66 13 9 C14.1875 11.0625 14.1875 11.0625 15 13 C12.36 13.33 9.72 13.66 7 14 C6.34 11.03 5.68 8.06 5 5 C4.34 6.32 3.68 7.64 3 9 C0.525 8.01 0.525 8.01 -2 7 C-1.34 6.67 -0.68 6.34 0 6 C0 4.02 0 2.04 0 0 Z " fill="#9D8649" transform="translate(281,17)"/>
<path d="M0 0 C0.33 0.66 0.66 1.32 1 2 C1.66 2 2.32 2 3 2 C3.33 1.34 3.66 0.68 4 0 C4.66 2.97 5.32 5.94 6 9 C4.68 8.01 3.36 7.02 2 6 C2.33 6.66 2.66 7.32 3 8 C3.07116382 10.37402501 3.08409085 12.75000677 3.0625 15.125 C3.05347656 16.40632813 3.04445313 17.68765625 3.03515625 19.0078125 C3.02355469 19.99523437 3.01195312 20.98265625 3 22 C2.34 20.68 1.68 19.36 1 18 C0.34 18 -0.32 18 -1 18 C-1 17.34 -1 16.68 -1 16 C-1.99 15.67 -2.98 15.34 -4 15 C-4 14.01 -4 13.02 -4 12 C-3.01 11.34 -2.02 10.68 -1 10 C-2.65 9.01 -4.3 8.02 -6 7 C-5.67 6.01 -5.34 5.02 -5 4 C-3.35 4 -1.7 4 0 4 C0 2.68 0 1.36 0 0 Z " fill="#717270" transform="translate(286,35)"/>
<path d="M0 0 C3.70698694 1.23566231 4.25403671 2.47726371 6.375 5.6875 C8.43093865 8.7474002 10.4680418 11.63819305 12.9375 14.375 C15 17 15 17 15 21 C8.87395931 18.50420564 4.11648306 12.735784 1 7 C0.35819702 4.59675236 0.15311788 2.50092533 0 0 Z " fill="#A0894D" transform="translate(259,62)"/>
<path d="M0 0 C0.66 0 1.32 0 2 0 C2 0.99 2 1.98 2 3 C2.721875 2.731875 3.44375 2.46375 4.1875 2.1875 C7 2 7 2 9.8125 4.4375 C10.534375 5.283125 11.25625 6.12875 12 7 C11.67 7.99 11.34 8.98 11 10 C5.32723489 10.29341888 2.00932754 10.00559652 -3 7 C-3 6.34 -3 5.68 -3 5 C-2.34 5 -1.68 5 -1 5 C-0.67 3.35 -0.34 1.7 0 0 Z " fill="#E0DDD9" transform="translate(280,69)"/>
<path d="M0 0 C0.33 0 0.66 0 1 0 C1.06058594 0.73605469 1.12117188 1.47210937 1.18359375 2.23046875 C1.26738281 3.20628906 1.35117187 4.18210937 1.4375 5.1875 C1.51871094 6.15042969 1.59992188 7.11335938 1.68359375 8.10546875 C1.97666151 10.78649602 2.42703754 13.3662986 3 16 C1.68 16 0.36 16 -1 16 C-1.2475 15.401875 -1.495 14.80375 -1.75 14.1875 C-3.24834688 11.56539296 -4.36919648 10.49315875 -7 9 C-10.65274469 8.27518916 -10.65274469 8.27518916 -14 8 C-14 7.67 -14 7.34 -14 7 C-12.35 7 -10.7 7 -9 7 C-9 6.34 -9 5.68 -9 5 C-7.68 4.67 -6.36 4.34 -5 4 C-4.34 5.32 -3.68 6.64 -3 8 C-2.01 8 -1.02 8 0 8 C0 7.34 0 6.68 0 6 C-0.66 5.67 -1.32 5.34 -2 5 C-1.34 3.35 -0.68 1.7 0 0 Z " fill="#BEBAB4" transform="translate(286,21)"/>
<path d="M0 0 C1.16015625 0.00322266 2.3203125 0.00644531 3.515625 0.00976562 C5.32546875 0.02233398 5.32546875 0.02233398 7.171875 0.03515625 C9.00492188 0.04192383 9.00492188 0.04192383 10.875 0.04882812 C13.89067446 0.0606081 16.90624998 0.07705772 19.921875 0.09765625 C19.22808989 3.35777267 18.46293509 4.88803878 15.921875 7.09765625 C16.251875 5.77765625 16.581875 4.45765625 16.921875 3.09765625 C12.6928388 3.01039966 8.46403488 2.95717735 4.234375 2.91015625 C3.03619141 2.88501953 1.83800781 2.85988281 0.60351562 2.83398438 C-1.13188477 2.81948242 -1.13188477 2.81948242 -2.90234375 2.8046875 C-4.49695435 2.78112183 -4.49695435 2.78112183 -6.1237793 2.75708008 C-9.46776835 3.14257423 -11.27108096 4.31842312 -14.078125 6.09765625 C-14.738125 5.76765625 -15.398125 5.43765625 -16.078125 5.09765625 C-10.31981819 1.04066736 -6.97248593 -0.03417885 0 0 Z " fill="#DFC6C6" transform="translate(32.078125,27.90234375)"/>
<path d="M0 0 C3.51449145 0.01678897 4.38059167 0.07296179 7.25 2.3125 C7.724375 2.9725 8.19875 3.6325 8.6875 4.3125 C6.7075 4.6425 4.7275 4.9725 2.6875 5.3125 C2.6875 5.9725 2.6875 6.6325 2.6875 7.3125 C2.0275 7.3125 1.3675 7.3125 0.6875 7.3125 C0.3575 7.9725 0.0275 8.6325 -0.3125 9.3125 C-0.3125 7.3325 -0.3125 5.3525 -0.3125 3.3125 C-0.9725 2.9825 -1.6325 2.6525 -2.3125 2.3125 C-2.6425 4.6225 -2.9725 6.9325 -3.3125 9.3125 C-2.6525 9.6425 -1.9925 9.9725 -1.3125 10.3125 C-1.9725 10.3125 -2.6325 10.3125 -3.3125 10.3125 C-3.6425 10.9725 -3.9725 11.6325 -4.3125 12.3125 C-5.4375 7.5625 -5.4375 7.5625 -4.3125 5.3125 C-5.3025 5.3125 -6.2925 5.3125 -7.3125 5.3125 C-5.24895961 1.04784986 -4.81288253 0.1496641 0 0 Z " fill="#555756" transform="translate(274.3125,28.6875)"/>
<path d="M0 0 C2.66666667 1.33333333 5.33333333 2.66666667 8 4 C7.67 4.99 7.34 5.98 7 7 C10.3 8.65 13.6 10.3 17 12 C17 12.66 17 13.32 17 14 C15.741875 14.020625 14.48375 14.04125 13.1875 14.0625 C12.47980469 14.07410156 11.77210938 14.08570312 11.04296875 14.09765625 C9 14 9 14 6 13 C5.31974363 11.00458132 4.65509503 9.00382009 4 7 C2.6949419 5.31110128 1.36639342 3.6396721 0 2 C0 1.34 0 0.68 0 0 Z " fill="#68592A" transform="translate(268,71)"/>
<path d="M0 0 C3.5 0.125 3.5 0.125 4.5 1.125 C4.54092937 3.45797433 4.54241723 5.79205225 4.5 8.125 C1.53 8.125 -1.44 8.125 -4.5 8.125 C-4.54241723 5.79205225 -4.54092937 3.45797433 -4.5 1.125 C-3.5 0.125 -3.5 0.125 0 0 Z " fill="#E7CACA" transform="translate(71.5,18.875)"/>
<path d="M0 0 C2.97 0.495 2.97 0.495 6 1 C7 4 7 4 5.6875 7.0625 C4 10 4 10 2 12 C1.01 12 0.02 12 -1 12 C-2.75 10.25 -2.75 10.25 -4 8 C-3.6875 5.75 -3.6875 5.75 -3 4 C-1.02 4 0.96 4 3 4 C3.33 3.34 3.66 2.68 4 2 C2.68 1.34 1.36 0.68 0 0 Z " fill="#68592C" transform="translate(292,64)"/>
<path d="M0 0 C3.2614415 3.02848139 5.57436244 6.28068908 8 10 C8.66 10.66 9.32 11.32 10 12 C9.625 14.625 9.625 14.625 9 17 C3.25 13.375 3.25 13.375 1 10 C1.375 6.8125 1.375 6.8125 2 4 C1.01 4 0.02 4 -1 4 C-0.67 2.68 -0.34 1.36 0 0 Z " fill="#3E4041" transform="translate(259,68)"/>
<path d="M0 0 C0.33 0 0.66 0 1 0 C1 4.62 1 9.24 1 14 C1.99 14.33 2.98 14.66 4 15 C4.66 14.34 5.32 13.68 6 13 C6.33 14.32 6.66 15.64 7 17 C6.34 17 5.68 17 5 17 C5.061875 18.3303125 5.061875 18.3303125 5.125 19.6875 C4.99983508 23.00437032 4.29952547 24.99484736 3 28 C3 28.99 3 29.98 3 31 C1.68 31.33 0.36 31.66 -1 32 C-0.76023437 31.19175781 -0.52046875 30.38351563 -0.2734375 29.55078125 C0.02304687 28.48214844 0.31953125 27.41351563 0.625 26.3125 C0.92664063 25.25675781 1.22828125 24.20101562 1.5390625 23.11328125 C2.06938131 19.53138218 1.3793482 18.27102573 0 15 C-0.13710218 12.35392791 -0.19062972 9.82530987 -0.125 7.1875 C-0.11597656 6.49462891 -0.10695313 5.80175781 -0.09765625 5.08789062 C-0.07426157 3.39177605 -0.03839641 1.69584129 0 0 Z " fill="#414241" transform="translate(302,45)"/>
<path d="M0 0 C2.64 0 5.28 0 8 0 C8 2.64 8 5.28 8 8 C5.36 8 2.72 8 0 8 C0 5.36 0 2.72 0 0 Z " fill="#E9CECE" transform="translate(58,19)"/>
<path d="M0 0 C0.33 0.66 0.66 1.32 1 2 C1.66 2 2.32 2 3 2 C4.1482685 4.296537 4.11561175 5.58313167 4.09765625 8.1328125 C4.09282227 9.34130859 4.09282227 9.34130859 4.08789062 10.57421875 C4.07951172 11.41597656 4.07113281 12.25773437 4.0625 13.125 C4.05798828 13.97449219 4.05347656 14.82398438 4.04882812 15.69921875 C4.03702874 17.79950909 4.01909306 19.8997633 4 22 C3.01 21.67 2.02 21.34 1 21 C0.67 14.07 0.34 7.14 0 0 Z " fill="#0E1010" transform="translate(302,38)"/>
<path d="M0 0 C1.485 0.99 1.485 0.99 3 2 C3 2.66 3 3.32 3 4 C3.66 4 4.32 4 5 4 C5 3.34 5 2.68 5 2 C6.32 1.67 7.64 1.34 9 1 C10.125 4.75 10.125 4.75 9 7 C8.34 7 7.68 7 7 7 C7.33 7.99 7.66 8.98 8 10 C6 11 6 11 4 10.375 C1.36693927 8.56477075 0.86857478 7.04001173 0 4 C0 2.68 0 1.36 0 0 Z " fill="#9A978B" transform="translate(261,55)"/>
<path d="M0 0 C2 1 2 1 3.375 2.4375 C5.12624276 4.12138727 6.79490307 5.01150827 9 6 C9 6.66 9 7.32 9 8 C8.34 8.66 7.68 9.32 7 10 C6.01 11.485 6.01 11.485 5 13 C4.01 13 3.02 13 2 13 C2.33 11.35 2.66 9.7 3 8 C2.401875 7.896875 1.80375 7.79375 1.1875 7.6875 C-1.28243264 6.91123545 -2.32251235 5.92911079 -4 4 C-3.67 3.34 -3.34 2.68 -3 2 C-2.34 2.66 -1.68 3.32 -1 4 C-0.67 2.68 -0.34 1.36 0 0 Z " fill="#595A59" transform="translate(268,80)"/>
<path d="M0 0 C4.93688363 2.46844182 6.66404579 5.108547 9 10 C9.62243024 12.40402405 9.84413501 14.50616013 10 17 C9.34 17.33 8.68 17.66 8 18 C7.01 17.34 6.02 16.68 5 16 C5 15.01 5 14.02 5 13 C5.66 13 6.32 13 7 13 C6.34 11.68 5.68 10.36 5 9 C4.34 9 3.68 9 3 9 C2.01 6.03 1.02 3.06 0 0 Z " fill="#60605D" transform="translate(289,30)"/>
<path d="M0 0 C0.66 0 1.32 0 2 0 C2 1.65 2 3.3 2 5 C2.66 5 3.32 5 4 5 C4 8.63 4 12.26 4 16 C3.01 15.67 2.02 15.34 1 15 C1 14.34 1 13.68 1 13 C0.34 13 -0.32 13 -1 13 C-2.12758089 9.61725734 -1.81750262 8.23221777 -1.0625 4.8125 C-0.86785156 3.91144531 -0.67320312 3.01039062 -0.47265625 2.08203125 C-0.23869141 1.05142578 -0.23869141 1.05142578 0 0 Z " fill="#B5AC8D" transform="translate(259,38)"/>
<path d="M0 0 C0.33 0.99 0.66 1.98 1 3 C1.66 3 2.32 3 3 3 C3.625 4.875 3.625 4.875 4 7 C3.34 7.66 2.68 8.32 2 9 C2 9.66 2 10.32 2 11 C2.99 11.33 3.98 11.66 5 12 C5 12.99 5 13.98 5 15 C4.01 15.33 3.02 15.66 2 16 C1.26676204 18.01508358 1.26676204 18.01508358 1 20 C-1.2477975 17.94766315 -2.0022242 16.99332739 -3 14 C-2.34 14 -1.68 14 -1 14 C-0.67 9.38 -0.34 4.76 0 0 Z " fill="#8A877C" transform="translate(263,39)"/>
<path d="M0 0 C0.33 0 0.66 0 1 0 C2.38011717 5.43421134 3.35111062 10.38223003 3 16 C2 17 2 17 -0.5625 17.0625 C-1.366875 17.041875 -2.17125 17.02125 -3 17 C-3.33 16.34 -3.66 15.68 -4 15 C-3.26740357 13.33500811 -2.5311519 11.67144818 -1.76953125 10.01953125 C-0.51617568 6.73026814 -0.3065511 3.49468254 0 0 Z " fill="#B2B0AA" transform="translate(299,47)"/>
<path d="M0 0 C0 3.4398759 -0.46441758 5.43271292 -2.84765625 7.95703125 C-4.85808262 9.69798248 -6.89293753 11.37770589 -9 13 C-9.33 12.01 -9.66 11.02 -10 10 C-4.25531915 0 -4.25531915 0 0 0 Z " fill="#A28B50" transform="translate(270,14)"/>
<path d="M0 0 C1.2065625 0.433125 1.2065625 0.433125 2.4375 0.875 C6.58131067 2.18357179 10.74978663 3.11217765 15 4 C15 4.66 15 5.32 15 6 C4.1005291 6.38095238 4.1005291 6.38095238 0 4 C-0.33 3.34 -0.66 2.68 -1 2 C-0.67 1.34 -0.34 0.68 0 0 Z " fill="#202223" transform="translate(275,75)"/>
<path d="M0 0 C0.66 0 1.32 0 2 0 C2 1.65 2 3.3 2 5 C2.66 5 3.32 5 4 5 C4 3.35 4 1.7 4 0 C4.66 0 5.32 0 6 0 C8 3 8 3 7.625 5.6875 C7.41875 6.450625 7.2125 7.21375 7 8 C4.69 8 2.38 8 0 8 C-1.125 2.25 -1.125 2.25 0 0 Z " fill="#91908E" transform="translate(273,61)"/>
<path d="M0 0 C0.33 0 0.66 0 1 0 C1 5.28 1 10.56 1 16 C0.01 16.33 -0.98 16.66 -2 17 C-2.12375 15.865625 -2.2475 14.73125 -2.375 13.5625 C-2.58125 12.386875 -2.7875 11.21125 -3 10 C-3.66 9.67 -4.32 9.34 -5 9 C-4.67 8.34 -4.34 7.68 -4 7 C-3.34 7 -2.68 7 -2 7 C-2 7.66 -2 8.32 -2 9 C-1.34 9 -0.68 9 0 9 C0 6.03 0 3.06 0 0 Z " fill="#5D5F5E" transform="translate(287,44)"/>
<path d="M0 0 C1.32 0 2.64 0 4 0 C4 0.66 4 1.32 4 2 C3.34 2 2.68 2 2 2 C2 3.32 2 4.64 2 6 C2 6.99 2 7.98 2 9 C-0.53184488 11.35723489 -1.47190093 12 -5 12 C-3.41037341 7.96479403 -1.71767682 3.98188718 0 0 Z " fill="#675521" transform="translate(270,14)"/>
<path d="M0 0 C0.7528125 -0.01417969 1.505625 -0.02835937 2.28125 -0.04296875 C4.74864173 0.21332722 6.36356256 0.95904847 8.5 2.1875 C7.406875 2.290625 6.31375 2.39375 5.1875 2.5 C1.64440371 3.16057727 0.56756277 3.3902092 -1.5 6.1875 C-2.16 5.8575 -2.82 5.5275 -3.5 5.1875 C-3.17 4.5275 -2.84 3.8675 -2.5 3.1875 C-5.14 3.1875 -7.78 3.1875 -10.5 3.1875 C-7.40287938 0.09037938 -4.25414236 0.03642245 0 0 Z " fill="#898A8A" transform="translate(284.5,-0.1875)"/>
<path d="M0 0 C2.31 0 4.62 0 7 0 C6.814375 0.61875 6.62875 1.2375 6.4375 1.875 C5.76313824 4.04160178 5.76313824 4.04160178 7 6 C-2.41002278 6.18451025 -2.41002278 6.18451025 -7 5 C-7 4.67 -7 4.34 -7 4 C-4.36 4 -1.72 4 1 4 C0.67 2.68 0.34 1.36 0 0 Z " fill="#818181" transform="translate(290,92)"/>
<path d="M0 0 C0.33 0 0.66 0 1 0 C1.66 3.96 2.32 7.92 3 12 C2.01 12 1.02 12 0 12 C0 11.34 0 10.68 0 10 C-0.66 10 -1.32 10 -2 10 C-2.1953125 3.9453125 -2.1953125 3.9453125 -2 2 C-1.34 1.34 -0.68 0.68 0 0 Z " fill="#3D4142" transform="translate(255,52)"/>
<path d="M0 0 C4.21073233 1.50383297 5.83237117 4.20664956 8 8 C8 8.99 8 9.98 8 11 C6.02 11 4.04 11 2 11 C3 8 3 8 4 7 C4 6.34 4 5.68 4 5 C2.68 4.67 1.36 4.34 0 4 C0 2.68 0 1.36 0 0 Z " fill="#E3E1DE" transform="translate(290,21)"/>
<path d="M0 0 C0.33 0.66 0.66 1.32 1 2 C2.32 2 3.64 2 5 2 C5.93065133 4.60582371 6.14917407 5.64198224 5.0625 8.25 C4.711875 8.8275 4.36125 9.405 4 10 C4.99 10 5.98 10 7 10 C6.34 11.32 5.68 12.64 5 14 C2.46690767 9.35796103 0.53484401 5.34844008 0 0 Z " fill="#686A69" transform="translate(254,62)"/>
<path d="M0 0 C1.24546405 2.49092811 0.7767578 3.41080733 0 6 C0.66 6 1.32 6 2 6 C1.67 6.99 1.34 7.98 1 9 C-0.98 9.33 -2.96 9.66 -5 10 C-4.67 8.68 -4.34 7.36 -4 6 C-4.66 5.67 -5.32 5.34 -6 5 C-4.02 3.35 -2.04 1.7 0 0 Z " fill="#C1BCB7" transform="translate(286,63)"/>
<path d="M0 0 C1.5625 1.75 1.5625 1.75 3 4 C2.6875 6.25 2.6875 6.25 2 8 C1.34 7.67 0.68 7.34 0 7 C-0.33 7.66 -0.66 8.32 -1 9 C-2.32 6.36 -3.64 3.72 -5 1 C-3.35 0.67 -1.7 0.34 0 0 Z " fill="#A09D97" transform="translate(298,31)"/>
<path d="M0 0 C3.29279709 0.31865778 4.86535088 1.54515351 7 4 C5.02 4.33 3.04 4.66 1 5 C1 5.66 1 6.32 1 7 C0.34 7 -0.32 7 -1 7 C-1.33 7.66 -1.66 8.32 -2 9 C-2.125 5.625 -2.125 5.625 -2 2 C-1.34 1.34 -0.68 0.68 0 0 Z " fill="#5B5E5D" transform="translate(276,29)"/>
<path d="M0 0 C0.66 0.33 1.32 0.66 2 1 C-5.05024311 9.36628849 -5.05024311 9.36628849 -8 12 C-8.66 12 -9.32 12 -10 12 C-9.34 9.69 -8.68 7.38 -8 5 C-7.01 5 -6.02 5 -5 5 C-2.31232422 2.56249975 -2.31232422 2.56249975 0 0 Z " fill="#2A2D30" transform="translate(266,14)"/>
<path d="M0 0 C0.99 0.99 1.98 1.98 3 3 C2.01 5.97 1.02 8.94 0 12 C-0.66 12 -1.32 12 -2 12 C-2.28571429 3.42857143 -2.28571429 3.42857143 0 0 Z " fill="#D7D1C5" transform="translate(263,31)"/>
<path d="M0 0 C5.53062269 1.38265567 9.87665285 4.11811012 14 8 C15.234375 10.1953125 15.234375 10.1953125 16 12 C15.195625 11.2575 14.39125 10.515 13.5625 9.75 C10.29075635 6.97919317 6.84151983 5.50114486 2.85546875 3.9921875 C1 3 1 3 0 0 Z " fill="#8A8B8B" transform="translate(293,2)"/>
<path d="M0 0 C0.53625 0.680625 1.0725 1.36125 1.625 2.0625 C3.44090148 4.30848341 5.26588366 6.54002101 7.125 8.75 C7.62257813 9.34296875 8.12015625 9.9359375 8.6328125 10.546875 C9.9579498 12.12271444 9.9579498 12.12271444 12 13 C12 13.66 12 14.32 12 15 C6.4292269 12.73042577 2.65035831 8.30071661 0 3 C0 2.01 0 1.02 0 0 Z " fill="#A79054" transform="translate(261,67)"/>
<path d="M0 0 C2.25 -0.25 2.25 -0.25 5 0 C7.3125 2 7.3125 2 9 4 C8.67 4.66 8.34 5.32 8 6 C7.34 5.67 6.68 5.34 6 5 C6.99 5.99 7.98 6.98 9 8 C4.75153925 7.52794881 2.73180712 5.11122478 0 2 C0 1.34 0 0.68 0 0 Z " fill="#DCD9D3" transform="translate(265,65)"/>
<path d="M0 0 C0.66 1.32 1.32 2.64 2 4 C1.01 4.495 1.01 4.495 0 5 C5.94 5.99 5.94 5.99 12 7 C12 7.33 12 7.66 12 8 C10.02090602 8.02686553 8.04171029 8.04633375 6.0625 8.0625 C4.96035156 8.07410156 3.85820312 8.08570312 2.72265625 8.09765625 C0 8 0 8 -1 7 C-0.71269945 4.66055264 -0.38063221 2.3260857 0 0 Z " fill="#B9B9B9" transform="translate(270,88)"/>
<path d="M0 0 C0.99 0.495 0.99 0.495 2 1 C2 2.32 2 3.64 2 5 C2.99 5.33 3.98 5.66 5 6 C6.1875 8.0625 6.1875 8.0625 7 10 C2.25 11.125 2.25 11.125 0 10 C0 6.7 0 3.4 0 0 Z " fill="#A9A18F" transform="translate(289,20)"/>
<path d="M0 0 C1.62580966 0.11398665 3.25067157 0.24155659 4.875 0.375 C5.77992188 0.44460937 6.68484375 0.51421875 7.6171875 0.5859375 C10 1 10 1 12 3 C5.565 3.495 5.565 3.495 -1 4 C-0.67 2.68 -0.34 1.36 0 0 Z " fill="#DCDCDC" transform="translate(274,90)"/>
<path d="M0 0 C-1.24762828 3.84685385 -2.3870391 6.02929405 -6 8 C-6.99 7.67 -7.98 7.34 -9 7 C-7.35 6.34 -5.7 5.68 -4 5 C-4 4.01 -4 3.02 -4 2 C-4.8971875 2.309375 -4.8971875 2.309375 -5.8125 2.625 C-8 3 -8 3 -11 1 C-9.54182203 0.83197949 -8.0834516 0.66562857 -6.625 0.5 C-5.81289063 0.4071875 -5.00078125 0.314375 -4.1640625 0.21875 C-2 0 -2 0 0 0 Z " fill="#404241" transform="translate(292,80)"/>
<path d="M0 0 C1.485 0.99 1.485 0.99 3 2 C3 2.66 3 3.32 3 4 C3.66 4 4.32 4 5 4 C5.33 5.32 5.66 6.64 6 8 C5.34 8 4.68 8 4 8 C3.67 8.66 3.34 9.32 3 10 C0.96564469 6.27034861 0 4.33094958 0 0 Z " fill="#DEDAD1" transform="translate(261,55)"/>
<path d="M0 0 C0.99 0 1.98 0 3 0 C3.66 3.63 4.32 7.26 5 11 C3.68 11 2.36 11 1 11 C1.020625 10.113125 1.04125 9.22625 1.0625 8.3125 C1.00713781 5.37830369 0.6694266 2.84506304 0 0 Z " fill="#191B1A" transform="translate(300,29)"/>
<path d="M0 0 C0.66 0.33 1.32 0.66 2 1 C2.40729228 3.32156597 2.74438677 5.6568787 3 8 C2.01 8.495 2.01 8.495 1 9 C0.01 8.34 -0.98 7.68 -2 7 C-2 6.01 -2 5.02 -2 4 C-1.34 4 -0.68 4 0 4 C0 2.68 0 1.36 0 0 Z " fill="#575958" transform="translate(296,39)"/>
<path d="M0 0 C0.33 0 0.66 0 1 0 C1.19491452 1.45736087 1.38069358 2.91594593 1.5625 4.375 C1.66691406 5.18710937 1.77132813 5.99921875 1.87890625 6.8359375 C2 9 2 9 1 11 C-0.9375 10.625 -0.9375 10.625 -3 10 C-3.33 9.34 -3.66 8.68 -4 8 C-2.68 8 -1.36 8 0 8 C0 7.34 0 6.68 0 6 C-0.66 5.67 -1.32 5.34 -2 5 C-1.34 3.35 -0.68 1.7 0 0 Z " fill="#B5A98A" transform="translate(286,21)"/>
<path d="M0 0 C-1.26538369 0.84158536 -2.53753779 1.67299748 -3.8125 2.5 C-4.87404297 3.19609375 -4.87404297 3.19609375 -5.95703125 3.90625 C-8 5 -8 5 -11 5 C-11 4.34 -11 3.68 -11 3 C-4.03571429 -1.41964286 -4.03571429 -1.41964286 0 0 Z " fill="#1A1C1B" transform="translate(293,86)"/>
<path d="M0 0 C1.5 1.375 1.5 1.375 3 3 C3 3.66 3 4.32 3 5 C-1.455 5.495 -1.455 5.495 -6 6 C-6 5.34 -6 4.68 -6 4 C-5.34 4 -4.68 4 -4 4 C-4 3.34 -4 2.68 -4 2 C-2.68 2 -1.36 2 0 2 C0 1.34 0 0.68 0 0 Z " fill="#5A5C5C" transform="translate(283,34)"/>
<path d="M0 0 C0 0.99 0 1.98 0 3 C-1.65 2.67 -3.3 2.34 -5 2 C-5 2.66 -5 3.32 -5 4 C-5.99 4 -6.98 4 -8 4 C-7.6875 2.0625 -7.6875 2.0625 -7 0 C-3.86650268 -1.04449911 -3.01031744 -0.93423645 0 0 Z " fill="#797A78" transform="translate(284,34)"/>
<path d="M0 0 C0.66 0.33 1.32 0.66 2 1 C2 1.33 2 1.66 2 2 C2.66 2.33 3.32 2.66 4 3 C1.03 5.475 1.03 5.475 -2 8 C-2.6875 5.6875 -2.6875 5.6875 -3 3 C-1.5625 1.1875 -1.5625 1.1875 0 0 Z " fill="#E8E6E2" transform="translate(267,26)"/>
<path d="M0 0 C2.9375 1.1875 2.9375 1.1875 3.9375 3.1875 C1.02267222 3.99717438 -0.52363217 4.40595993 -3.375 3.25 C-3.931875 2.899375 -4.48875 2.54875 -5.0625 2.1875 C-5.0625 1.5275 -5.0625 0.8675 -5.0625 0.1875 C-3.0625 -0.8125 -3.0625 -0.8125 0 0 Z " fill="#36393A" transform="translate(286.0625,13.8125)"/>
<path d="M0 0 C0.99 0.33 1.98 0.66 3 1 C2.01 2.485 2.01 2.485 1 4 C3.31 4 5.62 4 8 4 C4.86501708 5.85776765 2.62528568 6.20140476 -1 6 C-1.33 5.01 -1.66 4.02 -2 3 C-1.34 2.01 -0.68 1.02 0 0 Z " fill="#2D2F2E" transform="translate(274,3)"/>
<path d="M0 0 C2.31 0 4.62 0 7 0 C5.54744301 3.82946843 3.57104439 5.12050295 0 7 C0 6.01 0 5.02 0 4 C0.99 3.34 1.98 2.68 3 2 C2.01 1.34 1.02 0.68 0 0 Z " fill="#2E302F" transform="translate(284,2)"/>
<path d="M0 0 C0.66 0.33 1.32 0.66 2 1 C1.34 2.98 0.68 4.96 0 7 C-2.64 7.33 -5.28 7.66 -8 8 C-7.38125 7.54625 -6.7625 7.0925 -6.125 6.625 C-3.94080167 5.02891081 -3.94080167 5.02891081 -2 3 C-1.34 2.67 -0.68 2.34 0 2 C0 1.34 0 0.68 0 0 Z " fill="#888888" transform="translate(307,86)"/>
<path d="M0 0 C0.99 0.33 1.98 0.66 3 1 C2.67 1.763125 2.34 2.52625 2 3.3125 C0.82563314 5.99069135 0.82563314 5.99069135 1 9 C-0.32 9.33 -1.64 9.66 -3 10 C-2.01 6.7 -1.02 3.4 0 0 Z " fill="#393B3A" transform="translate(304,67)"/>
<path d="M0 0 C0.33 0.66 0.66 1.32 1 2 C3.02463255 2.65213292 3.02463255 2.65213292 5 3 C4.67 3.99 4.34 4.98 4 6 C1.03 5.505 1.03 5.505 -2 5 C-1.34 3.35 -0.68 1.7 0 0 Z " fill="#A08B55" transform="translate(291,63)"/>
<path d="M0 0 C0.66 0 1.32 0 2 0 C2.33 2.64 2.66 5.28 3 8 C2.01 8 1.02 8 0 8 C-0.38063221 5.6739143 -0.71269945 3.33944736 -1 1 C-0.67 0.67 -0.34 0.34 0 0 Z " fill="#958A6C" transform="translate(282,54)"/>
<path d="M0 0 C0.66 0 1.32 0 2 0 C2.33 2.97 2.66 5.94 3 9 C2.01 9 1.02 9 0 9 C0 6.03 0 3.06 0 0 Z " fill="#332A29" transform="translate(317,52)"/>
<path d="M0 0 C0.99 0.495 0.99 0.495 2 1 C2.4140625 3.06640625 2.4140625 3.06640625 2.625 5.5625 C2.69976562 6.38878906 2.77453125 7.21507812 2.8515625 8.06640625 C2.92503906 9.02353516 2.92503906 9.02353516 3 10 C2.01 9.67 1.02 9.34 0 9 C0 6.03 0 3.06 0 0 Z " fill="#ECE9E2" transform="translate(260,44)"/>
<path d="M0 0 C0.9075 0.309375 1.815 0.61875 2.75 0.9375 C5.16563338 1.7272263 7.52780285 2.42949297 10 3 C9.01 3.66 8.02 4.32 7 5 C6.67 5.66 6.34 6.32 6 7 C3.95880212 5.38405168 1.95927063 3.7143618 0 2 C0 1.34 0 0.68 0 0 Z " fill="#414342" transform="translate(289,10)"/>
<path d="M0 0 C2.475 0.495 2.475 0.495 5 1 C5 2.65 5 4.3 5 6 C4.34 6 3.68 6 3 6 C3 5.34 3 4.68 3 4 C2.01 3.67 1.02 3.34 0 3 C0 2.01 0 1.02 0 0 Z " fill="#9C8F6A" transform="translate(282,47)"/>
<path d="M0 0 C0.33 0.66 0.66 1.32 1 2 C1.66 2 2.32 2 3 2 C3.33 1.34 3.66 0.68 4 0 C4.66 2.97 5.32 5.94 6 9 C0.42857143 3.85714286 0.42857143 3.85714286 0 0 Z " fill="#9A9793" transform="translate(286,35)"/>
<path d="M0 0 C1.32 0 2.64 0 4 0 C4 0.66 4 1.32 4 2 C3.34 2 2.68 2 2 2 C2 3.32 2 4.64 2 6 C1.67 6.66 1.34 7.32 1 8 C0.34 8 -0.32 8 -1 8 C-0.67 5.36 -0.34 2.72 0 0 Z " fill="#6C5C29" transform="translate(270,14)"/>
<path d="M0 0 C2.76276177 0.52268466 5.3260876 1.10869587 8 2 C8 2.66 8 3.32 8 4 C6.02 4 4.04 4 2 4 C1.34 2.68 0.68 1.36 0 0 Z " fill="#70602E" transform="translate(276,80)"/>
<path d="M0 0 C0.98120464 3.05263664 0.98120464 4.94736336 0 8 C-0.99 8 -1.98 8 -3 8 C-3.33 7.01 -3.66 6.02 -4 5 C-3.01 5 -2.02 5 -1 5 C-0.67 3.35 -0.34 1.7 0 0 Z " fill="#0F1110" transform="translate(302,60)"/>
<path d="M0 0 C0.66 0.66 1.32 1.32 2 2 C1.67 2.99 1.34 3.98 1 5 C1.66 5 2.32 5 3 5 C3 5.66 3 6.32 3 7 C3.66 7.33 4.32 7.66 5 8 C1.75728494 7.4409112 0.06942576 6.5867822 -2 4 C-2 3.34 -2 2.68 -2 2 C-1.34 2 -0.68 2 0 2 C0 1.34 0 0.68 0 0 Z " fill="#4F5151" transform="translate(270,60)"/>
<path d="M0 0 C2.5 2.0625 2.5 2.0625 5 5 C5.3125 8.8125 5.3125 8.8125 5 12 C4.67 12 4.34 12 4 12 C2.66666667 8 1.33333333 4 0 0 Z " fill="#D9D6D1" transform="translate(287,39)"/>
<path d="M0 0 C0.12375 0.5775 0.2475 1.155 0.375 1.75 C1.00648824 4.02335767 1.88858191 5.9253529 3 8 C2.34 8.66 1.68 9.32 1 10 C0.34 9.34 -0.32 8.68 -1 8 C-0.96712417 5.27130593 -0.43602229 2.7033382 0 0 Z " fill="#585D5E" transform="translate(256,20)"/>
<path d="M0 0 C1.98 0.66 3.96 1.32 6 2 C6 2.66 6 3.32 6 4 C6.66 4 7.32 4 8 4 C8 4.66 8 5.32 8 6 C7.01 6 6.02 6 5 6 C4.34 5.01 3.68 4.02 3 3 C0.43717258 2.27034634 0.43717258 2.27034634 -2 2 C-1.34 1.34 -0.68 0.68 0 0 Z " fill="#D3D0CB" transform="translate(278,23)"/>
<path d="M0 0 C2.97 0.33 5.94 0.66 9 1 C9 1.66 9 2.32 9 3 C6.69 3 4.38 3 2 3 C2 2.34 2 1.68 2 1 C1.34 0.67 0.68 0.34 0 0 Z " fill="#434443" transform="translate(273,88)"/>
<path d="M0 0 C1.32 0.99 2.64 1.98 4 3 C3.67 4.65 3.34 6.3 3 8 C1.68 6.68 0.36 5.36 -1 4 C-0.34 4 0.32 4 1 4 C0.67 2.68 0.34 1.36 0 0 Z " fill="#282A2B" transform="translate(265,77)"/>
<path d="M0 0 C0.99 0.33 1.98 0.66 3 1 C3 3.31 3 5.62 3 8 C2.01 8 1.02 8 0 8 C0 5.36 0 2.72 0 0 Z " fill="#AFA387" transform="translate(286,61)"/>
<path d="M0 0 C1.32 0 2.64 0 4 0 C4 1.32 4 2.64 4 4 C2.35 3.67 0.7 3.34 -1 3 C-0.67 2.01 -0.34 1.02 0 0 Z " fill="#9D916E" transform="translate(281,39)"/>
<path d="M0 0 C2.37783838 2.37783838 2.59009208 3.72073665 3 7 C2.67 7.66 2.34 8.32 2 9 C1.34 9 0.68 9 0 9 C0 6.03 0 3.06 0 0 Z " fill="#646665" transform="translate(314,21)"/>
<path d="M0 0 C0.66 0 1.32 0 2 0 C2.103125 0.639375 2.20625 1.27875 2.3125 1.9375 C2.539375 2.618125 2.76625 3.29875 3 4 C3.99 4.33 4.98 4.66 6 5 C5.67 5.99 5.34 6.98 5 8 C5 7.34 5 6.68 5 6 C4.01 6.33 3.02 6.66 2 7 C0.5393715 4.35261084 0 3.10551666 0 0 Z " fill="#9C9991" transform="translate(290,51)"/>
</svg>
