<?xml version="1.0" encoding="UTF-8"?>
<svg version="1.1" xmlns="http://www.w3.org/2000/svg" width="173" height="100">
<path d="M0 0 C1.27512451 0.00161133 2.55024902 0.00322266 3.86401367 0.00488281 C16.34164527 0.16741629 26.7403353 2.11947732 37.6875 8.375 C37.3575 9.365 37.0275 10.355 36.6875 11.375 C35.98625 11.065625 35.285 10.75625 34.5625 10.4375 C11.68734668 1.98363899 -18.08046836 11.07775796 -40.76293945 16.59375 C-41.48093719 16.76832733 -42.19893494 16.94290466 -42.93869019 17.12277222 C-44.90773308 17.60360409 -46.87565782 18.08900825 -48.84350586 18.57470703 C-70.50367152 23.5716824 -92.68943346 20.72895783 -111.6015625 8.94921875 C-113.5625 7.625 -113.5625 7.625 -116.3125 5.375 C-116.3125 4.715 -116.3125 4.055 -116.3125 3.375 C-110.3125 5.375 -110.3125 5.375 -107.375 6.375 C-83.21005355 14.26559476 -61.29252127 10.80610789 -37.22338867 4.93920898 C-24.67635449 1.89236471 -12.94097069 -0.01705115 0 0 Z " fill="#FFFFFF" transform="translate(135.3125,57.625)"/>
<path d="M0 0 C3.85402129 -0.08770383 7.70778291 -0.14062735 11.5625 -0.1875 C12.64853516 -0.21263672 13.73457031 -0.23777344 14.85351562 -0.26367188 C21.723136 -0.32631279 27.31566909 -0.17215935 32.7421875 4.5 C36.91576461 10.02639176 37.61775511 14.2496214 37 21 C35.11483802 27.05236215 32.57894152 29.82221008 27.25390625 33.0625 C24.2804055 34.29931141 21.58185578 34.46671196 18.375 34.6875 C17.22773437 34.77386719 16.08046875 34.86023437 14.8984375 34.94921875 C12 35 12 35 10 34 C10 40.93 10 47.86 10 55 C7.03 55 4.06 55 1 55 C0 54 0 54 -0.12025452 51.82969666 C-0.11803391 50.87261307 -0.11581329 49.91552948 -0.11352539 48.92944336 C-0.11344986 47.84839828 -0.11337433 46.76735321 -0.11329651 45.65354919 C-0.10813522 44.4775264 -0.10297394 43.3015036 -0.09765625 42.08984375 C-0.0962413 40.89267227 -0.09482635 39.69550079 -0.09336853 38.46205139 C-0.08774979 34.62050934 -0.07519411 30.77902457 -0.0625 26.9375 C-0.05748741 24.34049563 -0.05292409 21.74349035 -0.04882812 19.14648438 C-0.03777427 12.76430321 -0.02101792 6.3821557 0 0 Z M10 8 C10 13.94 10 19.88 10 26 C17.81324767 26.5031134 17.81324767 26.5031134 25 24 C27.36705636 20.84392486 27.47130989 17.84903073 27 14 C25.21514706 11.0252451 24.04634229 9.37784583 20.75 8.1875 C17.17442301 7.94371066 13.58387835 8 10 8 Z " fill="#FFFFFF" transform="translate(42,0)"/>
<path d="M0 0 C5.37329879 4.58083386 5.37329879 4.58083386 6.671875 8.4765625 C6.7552554 10.61450775 6.77921247 12.75498259 6.76953125 14.89453125 C6.76630859 16.14814453 6.76308594 17.40175781 6.75976562 18.69335938 C6.74719727 20.65885742 6.74719727 20.65885742 6.734375 22.6640625 C6.72935817 23.99934731 6.72479559 25.33463391 6.72070312 26.66992188 C6.70890195 29.93884723 6.69243797 33.20768241 6.671875 36.4765625 C4.031875 36.4765625 1.391875 36.4765625 -1.328125 36.4765625 C-1.34794434 35.74018555 -1.36776367 35.00380859 -1.38818359 34.24511719 C-1.48350328 30.90524194 -1.59315496 27.56598611 -1.703125 24.2265625 C-1.7340625 23.06769531 -1.765 21.90882812 -1.796875 20.71484375 C-1.83554688 19.59980469 -1.87421875 18.48476563 -1.9140625 17.3359375 C-1.9454834 16.30952148 -1.9769043 15.28310547 -2.00927734 14.22558594 C-2.32815651 11.47629083 -2.83097315 9.78713803 -4.328125 7.4765625 C-7.16896141 6.05614429 -9.18289778 6.16203978 -12.328125 6.4765625 C-15.17593119 8.70862681 -16.17810166 10.02649249 -17.328125 13.4765625 C-17.47648448 15.24823225 -17.57582518 17.02423862 -17.64453125 18.80078125 C-17.68642578 19.82880859 -17.72832031 20.85683594 -17.77148438 21.91601562 C-17.81080078 22.98787109 -17.85011719 24.05972656 -17.890625 25.1640625 C-17.93380859 26.24751953 -17.97699219 27.33097656 -18.02148438 28.44726562 C-18.12759338 31.12357041 -18.22964861 33.79996776 -18.328125 36.4765625 C-20.638125 36.4765625 -22.948125 36.4765625 -25.328125 36.4765625 C-25.44459541 31.93511256 -25.51547002 27.39404856 -25.578125 22.8515625 C-25.61164063 21.56636719 -25.64515625 20.28117187 -25.6796875 18.95703125 C-25.80251831 7.10385774 -25.80251831 7.10385774 -21.328125 2.4765625 C-14.86615638 -2.50453831 -7.32141831 -4.79086097 0 0 Z " fill="#FFFFFF" transform="translate(166.328125,17.5234375)"/>
<path d="M0 0 C3.3 0 6.6 0 10 0 C10 18.15 10 36.3 10 55 C6.7 55 3.4 55 0 55 C0 36.85 0 18.7 0 0 Z " fill="#FFFFFF" transform="translate(19,0)"/>
<path d="M0 0 C0.98484375 0.00902344 1.9696875 0.01804687 2.984375 0.02734375 C4.10585937 0.04474609 4.10585937 0.04474609 5.25 0.0625 C5.25 2.7025 5.25 5.3425 5.25 8.0625 C4.14591797 8.08376953 4.14591797 8.08376953 3.01953125 8.10546875 C-3.34365403 8.3878702 -3.34365403 8.3878702 -8.875 11.3125 C-11.75851498 15.5416553 -11.9938021 17.6484478 -11.125 22.6875 C-10.02072323 26.07022192 -10.02072323 26.07022192 -7.75 27.9375 C-3.48877928 29.53545777 0.72978611 29.80796368 5.25 30.0625 C5.25 32.3725 5.25 34.6825 5.25 37.0625 C-10.14669855 37.8312672 -10.14669855 37.8312672 -15.75 33.0625 C-19.79084901 28.75226106 -21.09340234 24.8239239 -21.3125 18.9375 C-20.9751069 11.87000249 -18.34371563 8.40554655 -13.25 3.75 C-9.03662955 0.10160422 -5.46750502 -0.06508935 0 0 Z " fill="#FFFFFF" transform="translate(99.75,16.9375)"/>
<path d="M0 0 C2.64 0 5.28 0 8 0 C8 17.82 8 35.64 8 54 C5.36 54 2.72 54 0 54 C0 36.18 0 18.36 0 0 Z " fill="#FFFFFF" transform="translate(112,0)"/>
<path d="M0 0 C1.37478516 0.01740234 1.37478516 0.01740234 2.77734375 0.03515625 C3.69644531 0.04417969 4.61554687 0.05320313 5.5625 0.0625 C6.27277344 0.07410156 6.98304687 0.08570313 7.71484375 0.09765625 C8.04484375 2.07765625 8.37484375 4.05765625 8.71484375 6.09765625 C7.06484375 6.75765625 5.41484375 7.41765625 3.71484375 8.09765625 C4.04484375 8.75765625 4.37484375 9.41765625 4.71484375 10.09765625 C6.7394763 10.74978917 6.7394763 10.74978917 8.71484375 11.09765625 C8.71484375 15.76432292 8.71484375 20.43098958 8.71484375 25.09765625 C8.73804688 25.71640625 8.76125 26.33515625 8.78515625 26.97265625 C8.81222656 28.02453125 8.81222656 28.02453125 8.83984375 29.09765625 C8.86304688 29.79890625 8.88625 30.50015625 8.91015625 31.22265625 C8.71484375 33.09765625 8.71484375 33.09765625 6.71484375 35.09765625 C4.62109375 35.36328125 4.62109375 35.36328125 2.21484375 35.34765625 C1.42078125 35.3528125 0.62671875 35.35796875 -0.19140625 35.36328125 C-2.28515625 35.09765625 -2.28515625 35.09765625 -4.28515625 33.09765625 C-4.54394531 30.71508789 -4.54394531 30.71508789 -4.55078125 27.7578125 C-4.55335938 26.69498047 -4.5559375 25.63214844 -4.55859375 24.53710938 C-4.55085937 23.42271484 -4.543125 22.30832031 -4.53515625 21.16015625 C-4.54289063 20.04962891 -4.550625 18.93910156 -4.55859375 17.79492188 C-4.55601562 16.73080078 -4.5534375 15.66667969 -4.55078125 14.5703125 C-4.54852539 13.59328369 -4.54626953 12.61625488 -4.54394531 11.60961914 C-4.28515625 9.09765625 -4.28515625 9.09765625 -2.28515625 6.09765625 C-2.94515625 6.09765625 -3.60515625 6.09765625 -4.28515625 6.09765625 C-3.21536826 0.1374089 -3.21536826 0.1374089 0 0 Z M-1.28515625 3.09765625 C-1.28515625 3.42765625 -1.28515625 3.75765625 -1.28515625 4.09765625 C1.02484375 4.09765625 3.33484375 4.09765625 5.71484375 4.09765625 C5.71484375 3.76765625 5.71484375 3.43765625 5.71484375 3.09765625 C3.40484375 3.09765625 1.09484375 3.09765625 -1.28515625 3.09765625 Z M-2.28515625 20.09765625 C1.71484375 21.09765625 1.71484375 21.09765625 1.71484375 21.09765625 Z M-1.28515625 23.09765625 C-1.28515625 23.75765625 -1.28515625 24.41765625 -1.28515625 25.09765625 C-0.62515625 25.09765625 0.03484375 25.09765625 0.71484375 25.09765625 C0.71484375 24.43765625 0.71484375 23.77765625 0.71484375 23.09765625 C0.05484375 23.09765625 -0.60515625 23.09765625 -1.28515625 23.09765625 Z M2.71484375 27.09765625 C6.71484375 28.09765625 6.71484375 28.09765625 6.71484375 28.09765625 Z M-0.28515625 28.09765625 C-0.61515625 29.41765625 -0.94515625 30.73765625 -1.28515625 32.09765625 C-0.62515625 32.09765625 0.03484375 32.09765625 0.71484375 32.09765625 C1.04484375 30.77765625 1.37484375 29.45765625 1.71484375 28.09765625 C1.05484375 28.09765625 0.39484375 28.09765625 -0.28515625 28.09765625 Z " fill="#FFFFFF" transform="translate(4.28515625,-0.09765625)"/>
<path d="M0 0 C2.31 0 4.62 0 7 0 C7 12.54 7 25.08 7 38 C4.36 38 1.72 38 -1 38 C-1.02464928 32.74894558 -1.04283568 27.49792455 -1.05493164 22.24682617 C-1.05997218 20.45905979 -1.06680454 18.67129755 -1.07543945 16.88354492 C-1.0875173 14.31948832 -1.09323094 11.75548603 -1.09765625 9.19140625 C-1.10281754 8.3872377 -1.10797882 7.58306915 -1.11329651 6.75453186 C-1.11349215 4.83598285 -1.06201983 2.91754632 -1 1 C-0.67 0.67 -0.34 0.34 0 0 Z " fill="#FFFFFF" transform="translate(127,16)"/>
<path d="M0 0 C2.75 1.375 2.75 1.375 5 3 C4.125 7.875 4.125 7.875 3 9 C0.5625 9.1875 0.5625 9.1875 -2 9 C-4 7 -4 7 -4.125 4.375 C-4.08375 3.59125 -4.0425 2.8075 -4 2 C-2.3125 0.8125 -2.3125 0.8125 0 0 Z " fill="#FFFFFF" transform="translate(130,4)"/>
<path d="M0 0 C1.65 0 3.3 0 5 0 C5 2.64 5 5.28 5 8 C3.35 8 1.7 8 0 8 C0 5.36 0 2.72 0 0 Z " fill="#FFFFFF" transform="translate(105,92)"/>
<path d="M0 0 C2.475 0.495 2.475 0.495 5 1 C4.67 3.31 4.34 5.62 4 8 C2.68 7.67 1.36 7.34 0 7 C0 4.69 0 2.38 0 0 Z " fill="#FFFFFF" transform="translate(56,92)"/>
<path d="M0 0 C1.98 0.495 1.98 0.495 4 1 C4 3.31 4 5.62 4 8 C2.68 8 1.36 8 0 8 C-1.125 2.25 -1.125 2.25 0 0 Z " fill="#FFFFFF" transform="translate(47,92)"/>
<path d="M0 0 C1.32 0 2.64 0 4 0 C4.33 2.31 4.66 4.62 5 7 C2 8 2 8 0 8 C0 5.36 0 2.72 0 0 Z " fill="#FFFFFF" transform="translate(141,92)"/>
<path d="M0 0 C1.98 0.495 1.98 0.495 4 1 C4 2.98 4 4.96 4 7 C2.68 7.33 1.36 7.66 0 8 C-0.98120464 4.94736336 -0.98120464 3.05263664 0 0 Z " fill="#FFFFFF" transform="translate(73,92)"/>
<path d="M0 0 C1.98 0.495 1.98 0.495 4 1 C4 2.98 4 4.96 4 7 C2.68 7.33 1.36 7.66 0 8 C-0.98120464 4.94736336 -0.98120464 3.05263664 0 0 Z " fill="#FFFFFF" transform="translate(38,92)"/>
<path d="M0 0 C2.475 0.495 2.475 0.495 5 1 C4.42415568 3.38564077 3.77772405 5.66682784 3 8 C2.01 8 1.02 8 0 8 C0 5.36 0 2.72 0 0 Z " fill="#FFFFFF" transform="translate(19,92)"/>
<path d="M0 0 C1.32 0.33 2.64 0.66 4 1 C4 2.98 4 4.96 4 7 C2.68 7.33 1.36 7.66 0 8 C0 5.36 0 2.72 0 0 Z " fill="#FFFFFF" transform="translate(160,92)"/>
<path d="M0 0 C1.32 0.33 2.64 0.66 4 1 C4 3.31 4 5.62 4 8 C2.68 8 1.36 8 0 8 C0 5.36 0 2.72 0 0 Z " fill="#FFFFFF" transform="translate(132,92)"/>
<path d="M0 0 C0.99 0 1.98 0 3 0 C3.33 2.64 3.66 5.28 4 8 C2.35 8 0.7 8 -1 8 C-0.67 5.36 -0.34 2.72 0 0 Z " fill="#FFFFFF" transform="translate(151,92)"/>
<path d="M0 0 C1.32 0 2.64 0 4 0 C4 2.64 4 5.28 4 8 C2.68 8 1.36 8 0 8 C0 5.36 0 2.72 0 0 Z " fill="#FFFFFF" transform="translate(123,92)"/>
<path d="M0 0 C1.32 0 2.64 0 4 0 C4 2.64 4 5.28 4 8 C2.68 8 1.36 8 0 8 C0 5.36 0 2.72 0 0 Z " fill="#FFFFFF" transform="translate(29,92)"/>
<path d="M0 0 C0.66 0 1.32 0 2 0 C2.33 2.64 2.66 5.28 3 8 C1.35 8 -0.3 8 -2 8 C-1.34 5.36 -0.68 2.72 0 0 Z " fill="#FFFFFF" transform="translate(170,92)"/>
<path d="M0 0 C0.66 0 1.32 0 2 0 C2.33 2.64 2.66 5.28 3 8 C1.35 8 -0.3 8 -2 8 C-1.34 5.36 -0.68 2.72 0 0 Z " fill="#FFFFFF" transform="translate(83,92)"/>
<path d="M0 0 C0.99 0 1.98 0 3 0 C3 2.64 3 5.28 3 8 C2.01 8 1.02 8 0 8 C0 5.36 0 2.72 0 0 Z " fill="#FFFFFF" transform="translate(65,92)"/>
<path d="M0 0 C1.32 0 2.64 0 4 0 C3.67 2.64 3.34 5.28 3 8 C2.34 8 1.68 8 1 8 C0.67 5.36 0.34 2.72 0 0 Z " fill="#FFFFFF" transform="translate(114,92)"/>
<path d="M0 0 C0.66 0 1.32 0 2 0 C2 2.64 2 5.28 2 8 C1.34 8 0.68 8 0 8 C0 5.36 0 2.72 0 0 Z " fill="#FFFFFF" transform="translate(98,92)"/>
</svg>
