<?xml version="1.0" encoding="UTF-8"?>
<svg version="1.1" xmlns="http://www.w3.org/2000/svg" width="49" height="100">
<path d="M0 0 C2.31 0 4.62 0 7 0 C7.33 1.32 7.66 2.64 8 4 C8.33 2.68 8.66 1.36 9 0 C11.97 0 14.94 0 18 0 C18.33 1.65 18.66 3.3 19 5 C19.33 3.35 19.66 1.7 20 0 C22.31 0 24.62 0 27 0 C27.12818318 11.37981825 26.79568202 22.64732258 26 34 C26.66 34 27.32 34 28 34 C28 22.78 28 11.56 28 0 C31.96 0 35.92 0 40 0 C40 3.3 40 6.6 40 10 C38.68 10 37.36 10 36 10 C36 12.31 36 14.62 36 17 C37.32 17 38.64 17 40 17 C40 19.97 40 22.94 40 26 C38.68 26 37.36 26 36 26 C36 28.64 36 31.28 36 34 C37.65 34 39.3 34 41 34 C41.495 39.445 41.495 39.445 42 45 C43.32 42.36 44.64 39.72 46 37 C46.99 37 47.98 37 49 37 C48.48517081 42.852795 47.54642808 48.3297637 46 54 C43.8125 54 43.8125 54 41 53 C39.60494917 51.00829665 38.46122421 48.93106525 37.26953125 46.8125 C36.06208805 44.71607261 36.06208805 44.71607261 33.1875 44 C32.465625 44 31.74375 44 31 44 C31.185625 45.27875 31.37125 46.5575 31.5625 47.875 C32.125 51.75 32.125 51.75 31 54 C29.68 54 28.36 54 27 54 C26.01 48.555 26.01 48.555 25 43 C24.67 43.33 24.34 43.66 24 44 C22.48071962 44.07179964 20.95832518 44.08392007 19.4375 44.0625 C18.61121094 44.05347656 17.78492187 44.04445312 16.93359375 44.03515625 C16.29550781 44.02355469 15.65742188 44.01195312 15 44 C14.67 42.35 14.34 40.7 14 39 C13.67 39 13.34 39 13 39 C12.505 41.475 12.505 41.475 12 44 C9.03 44 6.06 44 3 44 C0.77052553 39.54105106 1.27762463 33.65787243 0.9375 28.75 C0.84662109 27.54085937 0.75574219 26.33171875 0.66210938 25.0859375 C0.06762426 16.70056844 -0.10888404 8.40423504 0 0 Z M27 36 C26.67 37.65 26.34 39.3 26 41 C26.66 41 27.32 41 28 41 C28.33 42.32 28.66 43.64 29 45 C29 43.68 29 42.36 29 41 C30.65 41 32.3 41 34 41 C34 40.67 34 40.34 34 40 C33.21625 39.896875 32.4325 39.79375 31.625 39.6875 C29 39 29 39 27 36 Z M35 37 C34.67 37.66 34.34 38.32 34 39 C35.32 40.32 36.64 41.64 38 43 C37.34 41.02 36.68 39.04 36 37 C35.67 37 35.34 37 35 37 Z M19 39 C19.33 39.66 19.66 40.32 20 41 C21.65 40.67 23.3 40.34 25 40 C25 39.67 25 39.34 25 39 C23.02 39 21.04 39 19 39 Z M38 43 C39 45 39 45 39 45 Z M45 44 C46 46 46 46 46 46 Z M39 45 C40 47 40 47 40 47 Z M42 50 C42.99 51.485 42.99 51.485 44 53 C44 52.01 44 51.02 44 50 C43.34 50 42.68 50 42 50 Z " fill="#FFFFFF" transform="translate(0,46)"/>
<path d="M0 0 C1.01964844 -0.01675781 2.03929687 -0.03351562 3.08984375 -0.05078125 C6.46877814 0.36215029 8.33634059 1.30811446 11.0625 3.3125 C12.32487731 5.83725462 12.16106404 7.62450466 12.125 10.4375 C12.11597656 11.34757813 12.10695313 12.25765625 12.09765625 13.1953125 C12.08605469 13.89398438 12.07445313 14.59265625 12.0625 15.3125 C10.41675434 15.33938151 8.77088587 15.35884123 7.125 15.375 C6.20847656 15.38660156 5.29195312 15.39820313 4.34765625 15.41015625 C2.0625 15.3125 2.0625 15.3125 1.0625 14.3125 C1.02169217 12.31291636 1.01995644 10.31204746 1.0625 8.3125 C0.4025 8.3125 -0.2575 8.3125 -0.9375 8.3125 C-0.4273026 12.4791121 0.04273626 14.47371822 3.3515625 17.1953125 C5.12796236 18.37787264 6.92737831 19.52672095 8.75 20.63671875 C11.27227811 22.46451826 12.10739525 23.37933678 13.0625 26.3125 C13.78661183 32.28070589 14.31284149 37.55526332 10.75 42.5625 C5.97734455 45.67027564 1.60423973 45.94662942 -3.9375 45.3125 C-7.0440369 44.39399474 -8.30967747 43.45766125 -10.9375 41.3125 C-12.9489257 37.01128166 -12.9375 33.03192878 -12.9375 28.3125 C-9.6375 27.9825 -6.3375 27.6525 -2.9375 27.3125 C-4.030625 26.61125 -5.12375 25.91 -6.25 25.1875 C-9.78157385 22.6281813 -11.55112864 20.55316535 -12.9375 16.3125 C-13.4866422 11.94256559 -13.42314252 8.45375993 -11.6875 4.375 C-8.33051605 0.41855464 -5.05778185 0.01913411 0 0 Z M-0.9375 28.3125 C-0.9375 31.2825 -0.9375 34.2525 -0.9375 37.3125 C0.0525 36.9825 1.0425 36.6525 2.0625 36.3125 C2.3127157 33.39615871 2.3127157 33.39615871 2.0625 30.3125 C1.0725 29.6525 0.0825 28.9925 -0.9375 28.3125 Z " fill="#FFFFFF" transform="translate(26.9375,-0.3125)"/>
<path d="M0 0 C3.96 0 7.92 0 12 0 C12 14.52 12 29.04 12 44 C8.04 44 4.08 44 0 44 C0 29.48 0 14.96 0 0 Z " fill="#FFFFFF" transform="translate(0,0)"/>
</svg>
