<?xml version="1.0" encoding="UTF-8"?>
<svg version="1.1" xmlns="http://www.w3.org/2000/svg" width="351" height="98">
<path d="M0 0 C8.47643978 4.88762455 12.14513335 13.04560988 14.8359375 22.0859375 C18.28020183 36.41534533 16.60240402 52.60941022 9.125 65.3125 C5.60562863 70.21966472 0.83951595 73.30935877 -4.25 76.4375 C-3.15751403 77.94602857 -2.05061501 79.44412831 -0.9375 80.9375 C-0.01517578 82.19046875 -0.01517578 82.19046875 0.92578125 83.46875 C1.52777344 84.1184375 2.12976563 84.768125 2.75 85.4375 C3.74 85.4375 4.73 85.4375 5.75 85.4375 C5.24202991 81.1197542 4.55317221 77.40447886 2.75 73.4375 C5.80095243 73.1496743 8.70795822 73.01215257 11.75 73.4375 C14.44342339 76.13092339 14.73390507 77.66494327 14.8125 81.4375 C13.41955087 85.37053284 11.45137596 87.62158486 7.75 89.4375 C3.14560469 90.39848995 -0.84195879 89.96037485 -5 87.75 C-8.25 85.4375 -8.25 85.4375 -10.625 82.6875 C-14.02944785 79.76940184 -16.1221946 80.01421584 -20.45703125 80.26171875 C-21.04871094 80.31972656 -21.64039063 80.37773438 -22.25 80.4375 C-20.88016497 77.27634224 -20.2609362 76.4447908 -17.25 74.4375 C-17.84167969 74.03660156 -18.43335938 73.63570313 -19.04296875 73.22265625 C-28.02620939 66.75999863 -31.84688185 59.11144378 -34.25 48.4375 C-34.66699106 44.63463543 -34.7276907 40.88572028 -34.6875 37.0625 C-34.67992676 36.05171387 -34.67235352 35.04092773 -34.66455078 33.99951172 C-34.41626242 22.75041768 -31.72309493 13.09708156 -24.25 4.4375 C-17.30110923 -1.72779245 -8.71484189 -3.92923507 0 0 Z M-15.25 2.4375 C-21.43599066 8.25960885 -22.96278964 18.20156818 -23.41113281 26.375 C-24.92876241 49.7233809 -24.92876241 49.7233809 -16.25 70.4375 C-13.90082277 72.78667723 -12.66294497 73.36568348 -9.375 73.9375 C-5.1720643 73.26503029 -2.73576116 71.81253347 -0.25 68.4375 C7.1550121 51.8408697 7.80153881 27.61998167 1.75 10.4375 C-0.29282678 5.56614382 -1.89101971 3.06845514 -6.75 0.8125 C-10.51462625 0.40914719 -12.05939565 0.45415135 -15.25 2.4375 Z " fill="#FFFFFF" transform="translate(335.25,8.5625)"/>
<path d="M0 0 C6.93 0 13.86 0 21 0 C20.67 0.99 20.34 1.98 20 3 C18.68 3 17.36 3 16 3 C16 13.23 16 23.46 16 34 C22.6 34 29.2 34 36 34 C35.67 24.1 35.34 14.2 35 4 C34.01 3.67 33.02 3.34 32 3 C32 2.34 32 1.68 32 1 C38.38226945 0.17648136 44.56744599 -0.12086218 51 0 C51 0.66 51 1.32 51 2 C49.35 2.66 47.7 3.32 46 4 C46.33 26.11 46.66 48.22 47 71 C48.32 71.66 49.64 72.32 51 73 C51 73.66 51 74.32 51 75 C44.4 75 37.8 75 31 75 C31 74.34 31 73.68 31 73 C33.475 72.505 33.475 72.505 36 72 C36 60.45 36 48.9 36 37 C29.4 37 22.8 37 16 37 C16 48.55 16 60.1 16 72 C17.65 72.33 19.3 72.66 21 73 C21 73.66 21 74.32 21 75 C14.07 75 7.14 75 0 75 C0 74.34 0 73.68 0 73 C2.475 72.01 2.475 72.01 5 71 C5 48.56 5 26.12 5 3 C3.35 2.67 1.7 2.34 0 2 C0 1.34 0 0.68 0 0 Z " fill="#FFFFFF" transform="translate(209,8)"/>
<path d="M0 0 C1.38604163 0.05341545 2.77210954 0.10615323 4.15820312 0.15820312 C7.50156249 0.28634582 10.8445753 0.42347882 14.1875 0.5625 C14.1875 6.5025 14.1875 12.4425 14.1875 18.5625 C9.58269873 16.26009937 9.05703077 15.19181428 7.1875 10.5625 C6.6925 7.5925 6.6925 7.5925 6.1875 4.5625 C-0.0825 4.5625 -6.3525 4.5625 -12.8125 4.5625 C-12.8125 14.4625 -12.8125 24.3625 -12.8125 34.5625 C-4.45584999 34.56520293 -4.45584999 34.56520293 -1.91015625 31.71484375 C-1.39775391 30.61849609 -1.39775391 30.61849609 -0.875 29.5 C-0.22268939 28.16966043 0.45650519 26.85128202 1.1875 25.5625 C1.8475 25.5625 2.5075 25.5625 3.1875 25.5625 C3.2144501 28.50006119 3.23431474 31.43737555 3.25 34.375 C3.25837891 35.20837891 3.26675781 36.04175781 3.27539062 36.90039062 C3.27861328 37.70283203 3.28183594 38.50527344 3.28515625 39.33203125 C3.29039307 40.07042236 3.29562988 40.80881348 3.30102539 41.56958008 C3.1875 43.5625 3.1875 43.5625 2.1875 46.5625 C1.5275 46.5625 0.8675 46.5625 0.1875 46.5625 C-1.1325 43.9225 -2.4525 41.2825 -3.8125 38.5625 C-6.4525 38.5625 -9.0925 38.5625 -11.8125 38.5625 C-12.1425 49.7825 -12.4725 61.0025 -12.8125 72.5625 C-6.2125 72.5625 0.3875 72.5625 7.1875 72.5625 C7.435 70.995 7.6825 69.4275 7.9375 67.8125 C8.76844381 63.62216908 9.5206102 61.08348673 13.1875 58.5625 C13.8475 58.5625 14.5075 58.5625 15.1875 58.5625 C15.1875 64.1725 15.1875 69.7825 15.1875 75.5625 C0.6675 75.5625 -13.8525 75.5625 -28.8125 75.5625 C-28.1525 74.5725 -27.4925 73.5825 -26.8125 72.5625 C-25.4925 72.5625 -24.1725 72.5625 -22.8125 72.5625 C-22.8125 50.1225 -22.8125 27.6825 -22.8125 4.5625 C-24.7925 3.9025 -26.7725 3.2425 -28.8125 2.5625 C-28.8125 1.9025 -28.8125 1.2425 -28.8125 0.5625 C-19.1498307 -0.42634856 -9.69382357 -0.41237814 0 0 Z " fill="#FFFFFF" transform="translate(97.8125,7.4375)"/>
<path d="M0 0 C2.01470098 0.97004121 4.01922047 1.96244882 6 3 C8.16666667 2.33333333 8.16666667 2.33333333 10 1 C11.32 0.67 12.64 0.34 14 0 C14 6.6 14 13.2 14 20 C13.34 20 12.68 20 12 20 C11.62488281 19.18015625 11.24976563 18.3603125 10.86328125 17.515625 C10.35152344 16.43796875 9.83976562 15.3603125 9.3125 14.25 C8.81363281 13.18265625 8.31476563 12.1153125 7.80078125 11.015625 C5.56780016 7.27622934 3.24021027 4.61520926 -1.0625 3.43359375 C-4.75321386 3.44103471 -6.59613879 3.73381875 -9.75 5.8125 C-19.0316422 18.96149312 -18.7467716 38.71279812 -16.50390625 54.11328125 C-14.93272888 61.66736001 -12.40220006 67.78681106 -6.75 73.125 C-2.46037244 74.4898815 0.91710503 73.80339884 5 72 C10.56476225 67.75901379 12.80207151 61.42570859 15 55 C15.66 55 16.32 55 17 55 C16.68759063 62.02921074 15.53148778 66.50206555 10.35546875 71.62890625 C6.58918586 75.03415113 3.26424488 77.95597358 -2.02734375 78.02734375 C-8.65668649 77.58538757 -14.11696361 75.83008266 -18.9140625 71.12109375 C-28.58017145 59.62459395 -29.96376538 45.50138735 -29 31 C-27.87761955 22.81634414 -25.59546004 15.87158131 -21 9 C-20.38125 8.071875 -19.7625 7.14375 -19.125 6.1875 C-13.44429547 0.33971592 -7.97023657 -1.17248108 0 0 Z " fill="#FFFFFF" transform="translate(185,7)"/>
<path d="M0 0 C6.93 0 13.86 0 21 0 C21 0.66 21 1.32 21 2 C19.35 2.66 17.7 3.32 16 4 C15.67 26.44 15.34 48.88 15 72 C20.94 71.67 26.88 71.34 33 71 C33.433125 69.411875 33.86625 67.82375 34.3125 66.1875 C35.27748931 62.64920585 36.04603243 60.28571784 39 58 C39.66 58 40.32 58 41 58 C41 63.61 41 69.22 41 75 C27.47 75 13.94 75 0 75 C0.99 74.01 1.98 73.02 3 72 C3.66 72 4.32 72 5 72 C5 49.56 5 27.12 5 4 C2.525 3.01 2.525 3.01 0 2 C0 1.34 0 0.68 0 0 Z " fill="#FFFFFF" transform="translate(20,8)"/>
<path d="M0 0 C0 0.66 0 1.32 0 2 C-1.98 2.66 -3.96 3.32 -6 4 C-5.9285376 4.76449463 -5.8570752 5.52898926 -5.78344727 6.31665039 C-4.7066523 19.67737189 -4.89016795 33.0425289 -4.9375 46.4375 C-4.94252549 48.92252514 -4.94708654 51.40755126 -4.95117188 53.89257812 C-4.96209327 59.92840721 -4.97874803 65.9641989 -5 72 C-3.35 72.33 -1.7 72.66 0 73 C0 73.66 0 74.32 0 75 C-6.93 75 -13.86 75 -21 75 C-21 74.34 -21 73.68 -21 73 C-18.525 72.505 -18.525 72.505 -16 72 C-16 49.56 -16 27.12 -16 4 C-17.32 3.67 -18.64 3.34 -20 3 C-20 2.34 -20 1.68 -20 1 C-13.30386804 0.202163 -6.74233419 -0.12910853 0 0 Z " fill="#FFFFFF" transform="translate(292,8)"/>
<path d="M0 0 C1.65 0 3.3 0 5 0 C5 30.36 5 60.72 5 92 C3.35 92 1.7 92 0 92 C0 61.64 0 31.28 0 0 Z " fill="#FFFFFF" transform="translate(0,0)"/>
<path d="M0 0 C0.66 0 1.32 0 2 0 C2 0.66 2 1.32 2 2 C1.34 2 0.68 2 0 2 C0 1.34 0 0.68 0 0 Z " fill="#FFFFFF" transform="translate(67,12)"/>
<path d="M0 0 C2 1 2 1 2 1 Z " fill="#FFFFFF" transform="translate(293,83)"/>
<path d="M0 0 C2 1 2 1 2 1 Z " fill="#FFFFFF" transform="translate(94,34)"/>
<path d="" fill="#FFFFFF" transform="translate(0,0)"/>
<path d="" fill="#FFFFFF" transform="translate(0,0)"/>
<path d="" fill="#FFFFFF" transform="translate(0,0)"/>
</svg>
