<?xml version="1.0" standalone="no"?>
<!DOCTYPE svg PUBLIC "-//W3C//DTD SVG 20010904//EN"
 "http://www.w3.org/TR/2001/REC-SVG-20010904/DTD/svg10.dtd">
<svg version="1.0" xmlns="http://www.w3.org/2000/svg"
 width="199.000000pt" height="199.000000pt" viewBox="0 0 199.000000 199.000000"
 preserveAspectRatio="xMidYMid meet">

<g transform="translate(0.000000,199.000000) scale(0.100000,-0.100000)"
fill="#000000" stroke="none">
<path d="M745 1970 c-84 -22 -157 -50 -208 -80 -29 -17 -37 -29 -39 -53 -3
-50 -5 -88 -6 -137 -3 -64 -45 -110 -100 -110 -23 0 -45 6 -52 15 -20 25 -38
17 -60 -24 -21 -42 -39 -52 -104 -55 l-41 -2 -43 -86 c-69 -139 -92 -249 -92
-438 0 -123 4 -173 20 -233 73 -287 264 -521 534 -653 49 -24 95 -44 101 -44
11 0 45 127 45 166 0 8 9 34 19 57 11 24 23 55 26 70 4 15 10 27 14 27 10 0 7
32 -4 49 -6 11 -12 1 -22 -34 -15 -50 -58 -115 -76 -115 -5 0 -2 8 7 19 34 38
58 122 57 200 -1 57 3 84 20 117 11 24 25 44 29 44 5 0 1 -14 -7 -31 -10 -21
-15 -55 -14 -101 2 -60 6 -75 29 -104 32 -40 34 -41 47 -12 6 12 19 26 30 32
73 40 230 151 285 201 39 37 58 49 47 33 -18 -28 -11 -38 11 -16 17 17 15 2
-5 -35 -9 -18 -18 -38 -19 -45 -1 -7 -14 -46 -29 -86 -23 -62 -45 -95 -147
-217 -147 -175 -203 -248 -195 -255 3 -3 33 -8 66 -11 33 -3 58 -10 55 -14 -3
-5 22 -9 55 -9 34 0 61 4 61 10 0 6 21 10 48 10 73 0 226 45 337 100 256 125
451 363 520 634 14 54 25 116 25 137 0 22 5 39 10 39 6 0 10 33 10 80 0 44 -4
80 -9 80 -4 0 -11 26 -15 58 -10 86 -34 168 -73 255 l-36 78 -22 -21 c-25 -24
-72 -26 -102 -5 -28 19 -40 65 -49 175 -4 47 -12 91 -18 99 -25 33 -174 134
-250 171 -44 22 -124 51 -176 65 -84 22 -114 25 -260 24 -127 0 -181 -4 -235
-19z m680 -160 c4 -6 15 -6 32 1 37 14 70 4 79 -24 3 -12 19 -49 35 -82 15
-33 31 -78 35 -101 5 -37 3 -42 -23 -59 -15 -10 -32 -24 -36 -32 -4 -7 -15
-13 -23 -13 -23 0 -76 30 -103 58 -20 22 -22 32 -17 76 18 151 19 166 7 166
-6 0 -11 5 -11 10 0 13 17 13 25 0z m-175 -140 c11 -15 20 -33 20 -39 0 -6 3
-11 8 -11 8 0 34 -52 28 -57 -2 -2 -18 13 -36 34 -19 21 -53 50 -77 65 -24 15
-43 29 -43 31 0 1 18 3 40 4 33 2 43 -3 60 -27z m-716 -25 c-4 -8 -11 -15 -16
-15 -6 0 -5 6 2 15 7 8 14 15 16 15 2 0 1 -7 -2 -15z m682 -15 c8 0 14 -7 14
-15 0 -12 -5 -13 -27 -3 -38 16 -39 18 -23 28 9 6 16 6 18 0 2 -6 10 -10 18
-10z m-315 -207 c19 3 41 8 50 11 10 4 25 -3 43 -20 15 -15 37 -33 49 -39 17
-8 23 -21 25 -58 2 -36 0 -47 -12 -47 -8 0 -46 -14 -85 -31 l-70 -32 -6 -48
c-4 -26 -4 -72 0 -101 6 -50 5 -56 -17 -70 -16 -11 -30 -13 -39 -7 -8 5 -20 9
-26 9 -19 0 -15 -30 5 -37 9 -4 23 -13 30 -20 7 -7 21 -13 29 -13 9 0 13 -3 9
-7 -11 -11 -89 -3 -113 12 -19 13 -24 13 -38 -1 -17 -17 -12 -34 11 -34 9 0
29 -13 46 -30 46 -46 62 -37 21 12 -14 15 -11 16 44 13 82 -5 82 -5 43 -20
-31 -12 -32 -14 -10 -15 24 -1 23 -2 -10 -20 -28 -15 -31 -20 -15 -21 11 -1
31 -3 45 -4 36 -4 53 8 95 67 36 50 38 51 46 29 12 -30 1 -71 -19 -71 -8 0
-13 -3 -9 -6 3 -4 -5 -28 -18 -54 -28 -55 -65 -76 -140 -79 -60 -2 -86 19
-106 87 -7 24 -29 61 -50 82 -30 30 -35 41 -24 47 7 4 25 25 39 46 20 28 22
35 8 29 -26 -14 -90 -3 -95 17 -3 10 -7 4 -12 -17 -6 -24 -15 -34 -34 -39 -14
-3 -30 -9 -36 -13 -5 -3 -21 -6 -34 -6 -21 1 -27 8 -35 46 -14 57 -41 66 -51
18 -13 -64 -16 -69 -38 -66 -19 3 -23 11 -28 73 -7 85 4 125 36 125 12 0 28
-7 35 -15 7 -8 18 -15 25 -15 7 0 18 7 25 15 15 18 71 20 88 3 9 -9 12 -7 12
10 0 15 5 20 15 16 11 -5 15 2 15 27 l0 33 31 -32 c32 -33 85 -48 59 -17 -8 9
-9 15 -2 15 6 0 13 -4 17 -9 6 -10 58 -13 88 -4 20 5 23 36 5 50 -23 17 -103
43 -135 43 -29 0 -31 3 -37 45 -7 47 1 115 14 115 4 0 26 -7 49 -15 36 -12 41
-12 41 0 0 8 2 15 4 15 2 0 13 3 23 7 16 6 16 5 4 -10 -20 -25 -8 -21 34 13
24 19 41 27 45 20 4 -6 22 -9 41 -7z m657 -261 c5 -30 -25 -54 -50 -41 -10 5
-18 18 -18 27 0 44 62 57 68 14z m-548 -12 c9 -17 8 -20 -12 -21 -15 -1 -10
-4 15 -10 27 -6 49 -5 79 6 23 8 44 12 46 10 11 -10 3 -56 -12 -70 -9 -9 -16
-22 -16 -29 0 -7 -17 -21 -37 -32 -21 -10 -40 -20 -42 -21 -2 -2 2 -9 8 -17 8
-10 9 -16 1 -21 -10 -6 -21 3 -50 39 -14 18 -13 19 3 13 28 -10 19 9 -10 22
-23 11 -29 10 -39 -4 -9 -11 -14 -13 -19 -5 -4 7 -2 17 4 23 6 6 11 33 11 60
0 40 3 48 16 43 8 -3 12 -2 9 4 -3 6 1 10 10 10 9 0 13 5 10 10 -3 6 -2 10 4
10 6 0 15 -9 21 -20z"/>
</g>
</svg>
