<?xml version="1.0" encoding="UTF-8"?>
<svg version="1.1" xmlns="http://www.w3.org/2000/svg" width="391" height="100">
<path d="M0 0 C129.03 0 258.06 0 391 0 C391 0.99 391 1.98 391 3 C330.04140045 4.91723649 269.12008158 5.31744704 208.13427651 5.25713682 C199.62652956 5.24960286 191.11882923 5.25231619 182.61108398 5.26074219 C121.71145435 5.31964738 60.87420634 4.82832689 0 3 C0 2.01 0 1.02 0 0 Z " fill="#FFFFFF" transform="translate(0,65)"/>
<path d="M0 0 C1.1240625 -0.01611328 2.248125 -0.03222656 3.40625 -0.04882812 C9.28332962 -0.05230158 13.67299906 -0.00341583 18.625 3.3125 C18.625 3.9725 18.625 4.6325 18.625 5.3125 C19.2025 5.498125 19.78 5.68375 20.375 5.875 C24.06367809 8.23165544 25.91078695 12.06178914 27.21875 16.18359375 C28.98771647 25.45365841 27.67201828 33.26227534 22.45703125 41.05859375 C18.84784572 45.74235879 14.46152113 49.16514381 8.625 50.3125 C5.69021948 50.54949439 2.7559613 50.54337109 -0.1875 50.5625 C-0.96931641 50.583125 -1.75113281 50.60375 -2.55664062 50.625 C-10.88661009 50.68067231 -16.48307119 47.94302852 -22.57421875 42.2421875 C-28.31501556 36.09044429 -29.08755947 30.1093516 -28.8203125 21.7890625 C-27.81421531 13.9344441 -24.26143422 8.34698816 -18.12109375 3.46875 C-12.22116304 -0.43813924 -6.92913618 -0.01972989 0 0 Z M-13.375 9.3125 C-17.62481133 16.26952287 -17.17705795 23.4788078 -16.375 31.3125 C-14.78295042 36.95773862 -12.00373107 40.28031895 -7.0625 43.375 C-2.52255635 45.54693317 0.63804271 46.04828058 5.625 45.3125 C10.04983445 43.05833906 12.49582141 40.79498125 14.625 36.3125 C17.01209092 28.48350951 16.32197004 19.60374646 12.625 12.3125 C9.30080612 8.30642019 6.26982689 5.65608778 1.0390625 4.9765625 C-4.9106889 4.89323265 -8.84782089 5.01167985 -13.375 9.3125 Z " fill="#FFFFFF" transform="translate(228.375,-0.3125)"/>
<path d="M0 0 C1.1240625 -0.02449219 2.248125 -0.04898438 3.40625 -0.07421875 C11.88572424 -0.10428781 15.09279387 1.17137119 21.3125 6.8125 C26.96585492 13.07702842 27.9243345 18.33916119 27.84765625 26.5546875 C27.52134762 30.6879301 26.37660151 33.61230046 24.625 37.375 C24.2125 38.261875 23.8 39.14875 23.375 40.0625 C20.98386922 43.22220853 18.06874423 45.42492797 14.625 47.375 C13.965 47.375 13.305 47.375 12.625 47.375 C12.625 48.035 12.625 48.695 12.625 49.375 C4.27428478 51.70906543 -7.67979929 52.05206854 -15.75 48.75 C-19.50576128 46.63041195 -21.9296525 43.93822064 -24.375 40.375 C-25.138125 39.42625 -25.90125 38.4775 -26.6875 37.5 C-29.9253258 31.55513951 -29.11986548 23.88277207 -28.375 17.375 C-26.12842235 10.17799903 -20.98444796 5.14015612 -14.61889648 1.3215332 C-10.05685788 -0.60285192 -4.87941146 0.00555742 0 0 Z M-12.375 8.375 C-16.28868026 13.22155004 -17.06099499 16.68230561 -16.9375 22.6875 C-16.92581787 23.4393457 -16.91413574 24.19119141 -16.90209961 24.96582031 C-16.66179453 31.01862715 -15.71739492 35.88112619 -11.375 40.375 C-7.38331988 43.56986185 -3.33956259 45.62166475 1.8125 45.9375 C6.09258857 45.30601152 8.34516875 44.16285656 11.625 41.375 C11.625 40.715 11.625 40.055 11.625 39.375 C12.285 39.375 12.945 39.375 13.625 39.375 C16.266148 30.46112551 17.1731612 21.81899649 12.625 13.375 C10.02412206 9.3530238 7.41644799 6.43976622 2.625 5.375 C-2.98000071 4.86545448 -7.93979551 4.46158427 -12.375 8.375 Z " fill="#FFFFFF" transform="translate(323.375,-0.375)"/>
<path d="M0 0 C10.56 0 21.12 0 32 0 C32 0.66 32 1.32 32 2 C32.598125 2.0825 33.19625 2.165 33.8125 2.25 C36.78712675 3.26987203 37.50716447 4.22759116 39 7 C40.00918288 11.46923848 40.42501807 13.81939425 38.875 18.125 C36.78940922 21.32290586 34.46297493 24.08480673 32 27 C33.89018581 29.25495851 35.78680514 31.50392683 37.6875 33.75 C38.21794922 34.38421875 38.74839844 35.0184375 39.29492188 35.671875 C43.93275455 41.13484355 47.92269577 45.02493835 55 47 C54.67 47.99 54.34 48.98 54 50 C51.93816367 50.08150744 49.87538651 50.1394194 47.8125 50.1875 C46.08966797 50.23970703 46.08966797 50.23970703 44.33203125 50.29296875 C39.19241133 49.84106782 35.99934636 47.35546611 32.4453125 43.734375 C29.73372404 40.48046885 27.46919701 36.87465989 25.16015625 33.328125 C22.83256728 30.34385168 22.83256728 30.34385168 17 30 C17.495 37.92 17.495 37.92 18 46 C19.98 46 21.96 46 24 46 C24 47.32 24 48.64 24 50 C16.41 50 8.82 50 1 50 C1 48.68 1 47.36 1 46 C2.65 46 4.3 46 6 46 C5.505 25.21 5.505 25.21 5 4 C3.35 3.67 1.7 3.34 0 3 C0 2.01 0 1.02 0 0 Z M17 5 C17 11.27 17 17.54 17 24 C22.55015119 25.46526643 22.55015119 25.46526643 25.75 23.875 C28.38570366 21.67858028 29.20817165 20.32567907 30 17 C29.82704005 14.46823091 29.82704005 14.46823091 29 12 C28.855625 11.113125 28.71125 10.22625 28.5625 9.3125 C26.54709962 6.32970744 25.33518819 6.38051371 21.875 5.6875 C19.461875 5.3471875 19.461875 5.3471875 17 5 Z " fill="#FFFFFF" transform="translate(42,0)"/>
<path d="M0 0 C7.59 0 15.18 0 23 0 C23 0.99 23 1.98 23 3 C21.35 3 19.7 3 18 3 C18.01944554 7.89379462 18.07123583 12.78579725 18.15258789 17.67895508 C18.17573666 19.34226712 18.19015631 21.0057251 18.19555664 22.66918945 C18.2048698 25.06553751 18.24590551 27.45960059 18.29296875 29.85546875 C18.2890361 30.5952446 18.28510345 31.33502045 18.28105164 32.09721375 C18.39292484 36.08590489 18.85497453 37.82336135 21.41918945 40.9465332 C24.7941674 43.63189311 26.16258048 44.18336085 30.375 43.8125 C33.56163817 43.41288943 34.84147252 43.11493243 37.5 41.1875 C40.44273778 36.8960074 40.11793143 32.71871957 40.09765625 27.609375 C40.09553383 26.55245453 40.09553383 26.55245453 40.09336853 25.47418213 C40.08778933 23.23274416 40.07524073 20.99140757 40.0625 18.75 C40.05748231 17.22656395 40.05291987 15.70312632 40.04882812 14.1796875 C40.03782674 10.45309228 40.02057646 6.72655604 40 3 C38.35 3 36.7 3 35 3 C35 2.01 35 1.02 35 0 C41.6 0 48.2 0 55 0 C55 0.99 55 1.98 55 3 C53.35 3.66 51.7 4.32 50 5 C49.98541748 5.90242432 49.97083496 6.80484863 49.95581055 7.73461914 C49.89444423 11.11020007 49.82023671 14.48500696 49.73754883 17.86010742 C49.70447017 19.31572994 49.67638603 20.77147547 49.65356445 22.22729492 C49.61970079 24.33044436 49.5673764 26.43248375 49.51171875 28.53515625 C49.48553467 29.797229 49.45935059 31.05930176 49.43237305 32.35961914 C48.76555764 37.97389613 47.0596172 42.75530389 42.5 46.375 C41.9121875 46.85710938 41.324375 47.33921875 40.71875 47.8359375 C34.82318004 51.82884625 24.86850391 50.86118363 18 50 C13.02140192 48.19586072 10.2113935 44.94762176 7.8515625 40.28125 C4.95690092 33.49960974 5.32112374 26.18302461 5.25 18.9375 C5.22178965 17.48499126 5.19185529 16.03251492 5.16015625 14.58007812 C5.08689589 11.05353724 5.03695665 7.52713013 5 4 C3.35 3.67 1.7 3.34 0 3 C0 2.01 0 1.02 0 0 Z " fill="#FFFFFF" transform="translate(90,0)"/>
<path d="M0 0 C7.92 0 15.84 0 24 0 C24 0.99 24 1.98 24 3 C22.68 3 21.36 3 20 3 C21.79867095 9.60975017 24.10024802 15.85186396 26.79296875 22.1484375 C28.30844536 25.7286897 29.66592694 29.34885267 31 33 C31.29132813 32.21238281 31.58265625 31.42476562 31.8828125 30.61328125 C34.55867092 23.50290276 37.47856162 16.63104033 40.765625 9.77734375 C41.78331221 7.48754754 42.50755817 5.44462196 43 3 C41.68 3 40.36 3 39 3 C39 2.01 39 1.02 39 0 C44.94 0 50.88 0 57 0 C57 0.99 57 1.98 57 3 C56.22962402 3.22856689 55.45924805 3.45713379 54.66552734 3.69262695 C51.34232417 5.32257319 50.80682508 6.56232919 49.3515625 9.91796875 C48.68447266 11.4186792 48.68447266 11.4186792 48.00390625 12.94970703 C47.54886719 14.01817871 47.09382813 15.08665039 46.625 16.1875 C45.65921481 18.37646124 44.69306922 20.5652635 43.7265625 22.75390625 C43.2615332 23.8227002 42.79650391 24.89149414 42.31738281 25.99267578 C40.60594098 29.89955875 38.81677068 33.76625162 37 37.625 C36.484375 38.73101562 35.96875 39.83703125 35.4375 40.9765625 C33.99758256 44.0050845 32.51043342 47.00610518 31 50 C28.65625 49.79418945 28.65625 49.79418945 26 49 C24.59375 46.96557617 24.59375 46.96557617 23.5 44.29296875 C23.09023926 43.31924316 22.68047852 42.34551758 22.25830078 41.34228516 C21.84306152 40.30120605 21.42782227 39.26012695 21 38.1875 C20.56284668 37.1361084 20.12569336 36.0847168 19.67529297 35.00146484 C18.43348597 32.00750015 17.21508883 29.00488183 16 26 C14.67863072 22.81269268 13.33893336 19.63309173 12 16.453125 C11.31426358 14.77092785 10.67027786 13.07128264 10.0625 11.359375 C8.55142593 6.9511812 8.55142593 6.9511812 5.1953125 4.00390625 C3.05990253 3.32975898 3.05990253 3.32975898 0 3 C0 2.01 0 1.02 0 0 Z " fill="#FFFFFF" transform="translate(147,0)"/>
<path d="M0 0 C7.92 0 15.84 0 24 0 C24 0.99 24 1.98 24 3 C22.35 3.33 20.7 3.66 19 4 C19 16.54 19 29.08 19 42 C23.62 42 28.24 42 33 42 C33.99 40.35 34.98 38.7 36 37 C36.66 37 37.32 37 38 37 C38.05416188 38.60379341 38.09286638 40.20811406 38.125 41.8125 C38.14820313 42.70582031 38.17140625 43.59914062 38.1953125 44.51953125 C38 47 38 47 36 50 C33.30459685 50.26686213 30.84152536 50.34818073 28.1484375 50.29296875 C27.37440582 50.28872391 26.60037415 50.28447906 25.80288696 50.28010559 C23.32657323 50.26328998 20.85106842 50.22563395 18.375 50.1875 C16.69792841 50.17245682 15.02084408 50.15876778 13.34375 50.14648438 C9.22885419 50.11337721 5.11456431 50.06157637 1 50 C1 48.68 1 47.36 1 46 C2.65 46 4.3 46 6 46 C6.33 32.14 6.66 18.28 7 4 C4.69 3.67 2.38 3.34 0 3 C0 2.01 0 1.02 0 0 Z " fill="#FFFFFF" transform="translate(257,0)"/>
<path d="M0 0 C1.32 0.33 2.64 0.66 4 1 C5.75 4.5625 5.75 4.5625 7 8 C9.15377564 5.37801226 10.40072174 3.35595828 11 0 C12.32 0 13.64 0 15 0 C15.19916016 1.35544922 15.19916016 1.35544922 15.40234375 2.73828125 C15.57894531 3.91777344 15.75554687 5.09726563 15.9375 6.3125 C16.11152344 7.48425781 16.28554687 8.65601562 16.46484375 9.86328125 C16.92093031 13.01641403 16.92093031 13.01641403 18 16 C16.35 16 14.7 16 13 16 C12.67 14.02 12.34 12.04 12 10 C11.34 10 10.68 10 10 10 C9.67 11.98 9.34 13.96 9 16 C7.125 15.8125 7.125 15.8125 5 15 C3.75 12.4375 3.75 12.4375 3 10 C3 11.98 3 13.96 3 16 C1.02 16 -0.96 16 -3 16 C-2.01 10.72 -1.02 5.44 0 0 Z " fill="#FFFFFF" transform="translate(228,84)"/>
<path d="M0 0 C1.32 0 2.64 0 4 0 C4 0.66 4 1.32 4 2 C4.66 2 5.32 2 6 2 C7.7143618 3.95927063 9.38405168 5.95880212 11 8 C11 5.36 11 2.72 11 0 C12.98 0 14.96 0 17 0 C16.67 5.28 16.34 10.56 16 16 C12 16 12 16 10.078125 14.25 C9.47484375 13.5075 8.8715625 12.765 8.25 12 C7.63640625 11.2575 7.0228125 10.515 6.390625 9.75 C5.70226562 8.88375 5.70226562 8.88375 5 8 C5.33 10.64 5.66 13.28 6 16 C3.69 16 1.38 16 -1 16 C-0.67 10.72 -0.34 5.44 0 0 Z " fill="#FFFFFF" transform="translate(304,84)"/>
<path d="M0 0 C0.33 1.65 0.66 3.3 1 5 C-1.43986989 4.52558085 -3.8143842 4.05833639 -6.1875 3.3125 C-6.785625 3.209375 -7.38375 3.10625 -8 3 C-10.2491908 4.82703227 -10.2491908 4.82703227 -10.25 7.5 C-10.2491908 10.17296773 -10.2491908 10.17296773 -8 12 C-5.93125966 12.6425235 -5.93125966 12.6425235 -4 13 C-4.66 10.69 -5.32 8.38 -6 6 C-3.69 6 -1.38 6 1 6 C0.85950482 7.47968324 0.71245174 8.95874516 0.5625 10.4375 C0.48128906 11.26121094 0.40007813 12.08492187 0.31640625 12.93359375 C0 15 0 15 -1 16 C-4.38186743 16.4312035 -7.62161117 16.46728113 -11 16 C-14.42005762 13.31281187 -14.89868502 11.72186921 -15.5 7.4375 C-15 4 -15 4 -13.6875 1.5625 C-9.37264684 -0.94613556 -4.87373394 -0.30250762 0 0 Z " fill="#FFFFFF" transform="translate(62,84)"/>
<path d="M0 0 C3.0625 2.0625 3.0625 2.0625 5 5 C5 9.63067651 4.21824315 12.65963602 1 16 C-1.375 16.53125 -1.375 16.53125 -4 16.5 C-4.86625 16.5103125 -5.7325 16.520625 -6.625 16.53125 C-9 16 -9 16 -10.78515625 14.21875 C-12.67059256 10.77525218 -12.68136609 7.82191556 -12 4 C-9.21666039 -0.63889935 -5.0386831 -1.13519738 0 0 Z M-4 2 C-5.98 2.99 -5.98 2.99 -8 4 C-8.16677282 7.41656024 -8.16677282 7.41656024 -8 11 C-6.17084359 13.23845015 -6.17084359 13.23845015 -3.5 13.3125 C-2.675 13.209375 -1.85 13.10625 -1 13 C1.26142258 10.25305475 1.26142258 10.25305475 0.875 7.5 C-0.16867 4.51808573 -1.34828366 3.6252455 -4 2 Z " fill="#FFFFFF" transform="translate(210,84)"/>
<path d="M0 0 C2.36328125 0.16796875 2.36328125 0.16796875 5 1 C6.29296875 3.36328125 6.29296875 3.36328125 7.1875 6.3125 C8.25348933 9.71005749 9.30730592 12.86068631 11 16 C8.1875 16.25 8.1875 16.25 5 16 C3.125 14 3.125 14 2 12 C1.67 13.32 1.34 14.64 1 16 C-1.31 16 -3.62 16 -6 16 C-5.71382813 15.46890625 -5.42765625 14.9378125 -5.1328125 14.390625 C-3.79673712 11.57104523 -2.84213837 8.71589101 -1.875 5.75 C-1.34519531 4.13351563 -1.34519531 4.13351563 -0.8046875 2.484375 C-0.53914063 1.66453125 -0.27359375 0.8446875 0 0 Z " fill="#FFFFFF" transform="translate(283,84)"/>
<path d="M0 0 C0 1.98 0 3.96 0 6 C-0.99 5.67 -1.98 5.34 -3 5 C-3 4.34 -3 3.68 -3 3 C-5.31 3.33 -7.62 3.66 -10 4 C-9.67 6.31 -9.34 8.62 -9 11 C-7.02 11.66 -5.04 12.32 -3 13 C-3 12.34 -3 11.68 -3 11 C-2.01 11 -1.02 11 0 11 C0 12.65 0 14.3 0 16 C-1.76949095 16.10815225 -3.54087487 16.18566083 -5.3125 16.25 C-6.29863281 16.29640625 -7.28476563 16.3428125 -8.30078125 16.390625 C-11 16 -11 16 -12.828125 14.234375 C-14.64998609 10.76069318 -14.66597225 7.82346421 -14 4 C-10.9733152 -1.50306327 -5.53719757 -0.38041815 0 0 Z " fill="#FFFFFF" transform="translate(186,84)"/>
<path d="M0 0 C1.65 0.33 3.3 0.66 5 1 C5.18175781 1.66386719 5.36351563 2.32773438 5.55078125 3.01171875 C6.89523291 7.73453613 8.14984737 11.92835339 11 16 C9.02 16 7.04 16 5 16 C4.67 14.35 4.34 12.7 4 11 C3.01 11.33 2.02 11.66 1 12 C0.26676204 14.01508358 0.26676204 14.01508358 0 16 C-1.98 16 -3.96 16 -6 16 C-5.67 15.01 -5.34 14.02 -5 13 C-4.34 13 -3.68 13 -3 13 C-2.86722656 12.31292969 -2.73445313 11.62585938 -2.59765625 10.91796875 C-2.42105469 10.01691406 -2.24445313 9.11585937 -2.0625 8.1875 C-1.88847656 7.29417969 -1.71445313 6.40085937 -1.53515625 5.48046875 C-1 3 -1 3 0 0 Z " fill="#FFFFFF" transform="translate(101,84)"/>
<path d="M0 0 C3.3 0 6.6 0 10 0 C10.66 1.98 11.32 3.96 12 6 C10.71034824 7.37562854 9.37310707 8.70766393 8 10 C7.34 10 6.68 10 6 10 C6.33 11.98 6.66 13.96 7 16 C4.69 16 2.38 16 0 16 C0 10.72 0 5.44 0 0 Z M6 3 C6.33 4.32 6.66 5.64 7 7 C7 5.68 7 4.36 7 3 C6.67 3 6.34 3 6 3 Z " fill="#FFFFFF" transform="translate(257,84)"/>
<path d="M0 0 C0.33 1.65 0.66 3.3 1 5 C-1.16874252 4.49396008 -2.99967627 4.00016187 -5 3 C-5.33 3.66 -5.66 4.32 -6 5 C-5.21625 5.268125 -4.4325 5.53625 -3.625 5.8125 C-1 7 -1 7 1 10 C0.65394389 12.28397032 0.03295481 13.93409037 -1 16 C-3.64 16 -6.28 16 -9 16 C-9.33 14.35 -9.66 12.7 -10 11 C-9.01 11 -8.02 11 -7 11 C-7 11.66 -7 12.32 -7 13 C-6.01 13 -5.02 13 -4 13 C-4 12.01 -4 11.02 -4 10 C-4.639375 9.690625 -5.27875 9.38125 -5.9375 9.0625 C-8 8 -8 8 -9 7 C-9.04080783 5.00041636 -9.04254356 2.99954746 -9 1 C-6.04335481 -0.4783226 -3.25770263 -0.06032783 0 0 Z " fill="#FFFFFF" transform="translate(131,84)"/>
<path d="M0 0 C0.33 1.65 0.66 3.3 1 5 C-0.32 4.67 -1.64 4.34 -3 4 C-3 3.34 -3 2.68 -3 2 C-3.66 2.66 -4.32 3.32 -5 4 C-4.195625 4.556875 -3.39125 5.11375 -2.5625 5.6875 C0 8 0 8 0.9375 10.5625 C1 13 1 13 -1 16 C-2.9453125 16.29296875 -2.9453125 16.29296875 -5.125 16.1875 C-6.40375 16.125625 -7.6825 16.06375 -9 16 C-9.33 14.35 -9.66 12.7 -10 11 C-9.01 11 -8.02 11 -7 11 C-7 11.66 -7 12.32 -7 13 C-5.68 13 -4.36 13 -3 13 C-3.804375 12.195625 -4.60875 11.39125 -5.4375 10.5625 C-9 7 -9 7 -9.0625 3.9375 C-9.041875 2.968125 -9.02125 1.99875 -9 1 C-6.04335481 -0.4783226 -3.25770263 -0.06032783 0 0 Z " fill="#FFFFFF" transform="translate(153,84)"/>
<path d="M0 0 C1.98 0 3.96 0 6 0 C6.66 1.65 7.32 3.3 8 5 C8.5878125 3.7625 8.5878125 3.7625 9.1875 2.5 C9.785625 1.675 10.38375 0.85 11 0 C13.6875 -0.3125 13.6875 -0.3125 16 0 C14.90313082 2.27811291 13.80930488 4.26132294 12.3125 6.3125 C10.5694959 9.88150839 11.17875674 12.19241761 12 16 C9.36 16 6.72 16 4 16 C4.268125 15.030625 4.53625 14.06125 4.8125 13.0625 C5.61615589 7.90218326 2.73076315 4.16701228 0 0 Z " fill="#FFFFFF" transform="translate(330,84)"/>
<path d="M0 0 C2.31 0 4.62 0 7 0 C6.67 4.29 6.34 8.58 6 13 C7.98 12.34 9.96 11.68 12 11 C12 12.65 12 14.3 12 16 C8.04 16 4.08 16 0 16 C0.33 15.34 0.66 14.68 1 14 C1.09649939 12.0018949 1.12980872 10.0004282 1.125 8 C1.12757812 6.9275 1.13015625 5.855 1.1328125 4.75 C1.1872341 2.03817948 1.1872341 2.03817948 0 0 Z " fill="#FFFFFF" transform="translate(74,84)"/>
</svg>
