<?xml version="1.0" encoding="UTF-8"?>
<svg version="1.1" xmlns="http://www.w3.org/2000/svg" width="362" height="100">
<path d="M0 0 C10.98538814 7.47069437 19.51573355 18.39178033 22.1875 31.6875 C24.21494416 45.99887052 22.43319413 59.14167928 14.3984375 71.421875 C6.22477789 82.1681207 -4.61777692 89.58044384 -17.8125 92.6875 C-33.6831996 94.33349853 -47.18627337 91.82404814 -59.8125 81.6875 C-61.04806641 80.77291016 -61.04806641 80.77291016 -62.30859375 79.83984375 C-71.13351504 72.25399097 -76.83823202 60.97813597 -78.04296875 49.48974609 C-79.15802234 34.56351484 -76.47727526 22.19251347 -67.04296875 10.15625 C-49.53503752 -9.22205567 -22.33356267 -13.4001376 0 0 Z M-32.75 -0.1875 C-34.29974515 2.54734439 -34.13412076 4.5999407 -33.8125 7.6875 C-32.14595392 10.81771208 -32.14595392 10.81771208 -29.5 11.5625 C-25.96703885 11.72682377 -24.51275975 10.93771646 -21.8125 8.6875 C-20.47179539 5.50332654 -20.65473029 4.13122731 -21.8125 0.875 C-23.7210804 -1.67752605 -23.7210804 -1.67752605 -27.3125 -1.8125 C-30.67257049 -1.55557873 -30.67257049 -1.55557873 -32.75 -0.1875 Z M-37.8125 14.6875 C-34.8425 34.8175 -31.8725 54.9475 -28.8125 75.6875 C-28.1525 75.6875 -27.4925 75.6875 -26.8125 75.6875 C-25.66598136 68.12631787 -24.52749757 60.56395701 -23.39453125 53.00073242 C-23.00835086 50.4291663 -22.62034745 47.85787325 -22.23046875 45.28686523 C-21.66965292 41.58648221 -21.11544944 37.88515938 -20.5625 34.18359375 C-20.38750977 33.03853867 -20.21251953 31.89348358 -20.03222656 30.71372986 C-19.87206055 29.63313797 -19.71189453 28.55254608 -19.546875 27.43920898 C-19.40475586 26.49544907 -19.26263672 25.55168915 -19.11621094 24.57933044 C-18.77165035 21.29854375 -18.8125 17.9863306 -18.8125 14.6875 C-25.0825 14.6875 -31.3525 14.6875 -37.8125 14.6875 Z M-13.8125 23.6875 C-13.76536865 24.52845215 -13.7182373 25.3694043 -13.66967773 26.23583984 C-13.37302853 35.68297617 -14.97587008 43.3005135 -17.875 52.3125 C-18.64550107 54.76027366 -19.40763264 57.21070235 -20.16015625 59.6640625 C-20.50054932 60.72705566 -20.84094238 61.79004883 -21.19165039 62.88525391 C-21.80732124 65.66412532 -21.78981033 67.05734472 -20.8125 69.6875 C-18.64300297 65.06785935 -16.48894176 60.44145435 -14.34887695 55.80810547 C-13.61870556 54.23290791 -12.88435312 52.65964144 -12.14575195 51.08837891 C-11.08480443 48.82949535 -10.03908672 46.56409395 -8.99609375 44.296875 C-8.66282578 43.59568542 -8.3295578 42.89449585 -7.9861908 42.17205811 C-6.32820208 38.52706768 -5.50318775 36.48752528 -6.8125 32.6875 C-7.75542478 31.06952679 -8.75974805 29.48626008 -9.8125 27.9375 C-10.34875 27.13828125 -10.885 26.3390625 -11.4375 25.515625 C-12.118125 24.61070313 -12.118125 24.61070313 -12.8125 23.6875 C-13.1425 23.6875 -13.4725 23.6875 -13.8125 23.6875 Z M-43.8125 24.6875 C-44.9080696 26.01994951 -45.93924938 27.40566307 -46.9375 28.8125 C-47.49695313 29.57820313 -48.05640625 30.34390625 -48.6328125 31.1328125 C-50.19293764 34.51136165 -49.65631049 36.07613001 -48.8125 39.6875 C-47.81782828 42.19562144 -46.78801882 44.61368224 -45.65234375 47.0546875 C-45.34301407 47.73427521 -45.03368439 48.41386292 -44.71498108 49.11404419 C-43.73332623 51.266655 -42.74185175 53.41457148 -41.75 55.5625 C-41.0794224 57.02834604 -40.40949368 58.4944891 -39.74023438 59.9609375 C-38.10514328 63.53993838 -36.46123498 67.11476519 -34.8125 70.6875 C-33.25502537 66.70906759 -34.42938119 63.86480961 -35.68359375 59.90234375 C-36.09725526 58.552811 -36.51065813 57.20319894 -36.92382812 55.85351562 C-37.58143569 53.74804979 -38.24387031 51.64427473 -38.91235352 49.54223633 C-41.55253786 41.18675962 -43.58388667 33.56490432 -42.8125 24.6875 C-43.1425 24.6875 -43.4725 24.6875 -43.8125 24.6875 Z M-67.8125 35.6875 C-65.18431017 40.94387966 -61.84571561 45.16669329 -58.02783203 49.62524414 C-53.68408369 54.73884077 -49.70151522 60.10054296 -45.74804688 65.51928711 C-45.26400391 66.17678955 -44.77996094 66.83429199 -44.28125 67.51171875 C-43.85263672 68.10041748 -43.42402344 68.68911621 -42.98242188 69.2956543 C-41.84374913 70.83726078 -41.84374913 70.83726078 -39.8125 71.6875 C-41.20990697 67.87975997 -42.97874416 64.61831796 -45.1484375 61.1953125 C-45.80070312 60.16019531 -46.45296875 59.12507813 -47.125 58.05859375 C-47.805625 56.98738281 -48.48625 55.91617188 -49.1875 54.8125 C-57.38645288 41.85438482 -57.38645288 41.85438482 -60.8125 35.6875 C-63.1225 35.6875 -65.4325 35.6875 -67.8125 35.6875 Z M3.41015625 37.66650391 C1.54454698 40.55322755 -0.15288818 43.49010133 -1.8125 46.5 C-2.97804178 48.52799067 -4.14470664 50.55533629 -5.3125 52.58203125 C-5.8796875 53.58830566 -6.446875 54.59458008 -7.03125 55.63134766 C-9.40274328 59.70020085 -11.99406619 63.6094663 -14.625 67.5144043 C-15.016875 68.23152588 -15.40875 68.94864746 -15.8125 69.6875 C-15.4825 70.3475 -15.1525 71.0075 -14.8125 71.6875 C-7.65992195 62.52138788 -0.5221825 53.34373074 6.5625 44.125 C7.12735107 43.3935376 7.69220215 42.6620752 8.27416992 41.90844727 C10.93669265 39.07005239 10.93669265 39.07005239 12.1875 35.6875 C8.38617411 34.84868702 6.11849396 34.65087403 3.41015625 37.66650391 Z M-22.8125 69.6875 C-21.8125 72.6875 -21.8125 72.6875 -21.8125 72.6875 Z M-33.8125 70.6875 C-32.8125 72.6875 -32.8125 72.6875 -32.8125 72.6875 Z M-39.8125 71.6875 C-38.8125 73.6875 -38.8125 73.6875 -38.8125 73.6875 Z M-23.8125 72.6875 C-22.8125 74.6875 -22.8125 74.6875 -22.8125 74.6875 Z M-17.8125 72.6875 C-16.8125 74.6875 -16.8125 74.6875 -16.8125 74.6875 Z M-32.8125 73.6875 C-31.8125 75.6875 -31.8125 75.6875 -31.8125 75.6875 Z " fill="#FFFFFF" transform="translate(77.8125,7.3125)"/>
<path d="M0 0 C-0.33 3.3 -0.66 6.6 -1 10 C-5 8 -5 8 -6.75 6.8125 C-10.24064448 5.55198949 -13.45083799 6.06362534 -17 7 C-19.13018952 8.58046319 -19.82385265 9.6477053 -21 12 C-21.50927724 16.71707604 -21.59709492 20.72792821 -19.5625 25.0625 C-15.91685316 27.81896468 -12.47619063 27.89479039 -8 28 C-8 26.35 -8 24.7 -8 23 C-10.31 23 -12.62 23 -15 23 C-15 20.03 -15 17.06 -15 14 C-9.72 14 -4.44 14 1 14 C1 20.6 1 27.2 1 34 C-11.77237049 39.67660911 -11.77237049 39.67660911 -19.16796875 37.3046875 C-24.80129338 34.78924423 -28.42724821 31.30056363 -31.109375 25.671875 C-33.13884788 19.58345637 -33.0546845 12.43547519 -30.375 6.5625 C-27.70562618 2.02550774 -24.26240157 -0.71593424 -19.6875 -3.3125 C-12.007642 -5.27711484 -6.75640572 -3.93099969 0 0 Z " fill="#FFFFFF" transform="translate(201,54)"/>
<path d="M0 0 C-0.33 3.3 -0.66 6.6 -1 10 C-5 8 -5 8 -6.75 6.8125 C-11.11467037 5.23636903 -15.69332456 6.56444152 -20 8 C-21.67070151 12.38681274 -21.5067412 17.39461678 -21 22 C-19.78475509 25.2071208 -19.78475509 25.2071208 -17 27 C-13.99805243 27.68202595 -11.07331925 27.92776386 -8 28 C-8 26.35 -8 24.7 -8 23 C-10.31 23 -12.62 23 -15 23 C-15 20.03 -15 17.06 -15 14 C-9.72 14 -4.44 14 1 14 C1 20.6 1 27.2 1 34 C-11.77237049 39.67660911 -11.77237049 39.67660911 -19.16796875 37.3046875 C-24.80129338 34.78924423 -28.42724821 31.30056363 -31.109375 25.671875 C-33.13884788 19.58345637 -33.0546845 12.43547519 -30.375 6.5625 C-27.70562618 2.02550774 -24.26240157 -0.71593424 -19.6875 -3.3125 C-12.007642 -5.27711484 -6.75640572 -3.93099969 0 0 Z " fill="#FFFFFF" transform="translate(147,54)"/>
<path d="M0 0 C4.6308718 1.15771795 6.63047427 3.24797352 9.8125 6.5625 C10.34004883 7.10100586 10.86759766 7.63951172 11.41113281 8.19433594 C15.43320842 12.32984838 19.27324587 16.5956542 23 21 C23.33 14.4 23.66 7.8 24 1 C26.64 1 29.28 1 32 1 C33 2 33 2 33.11352539 5.78540039 C33.11336622 7.47282729 33.10766917 9.16025905 33.09765625 10.84765625 C33.0962413 11.7340831 33.09482635 12.62050995 33.09336853 13.53379822 C33.08775215 16.37673254 33.07519691 19.21958931 33.0625 22.0625 C33.05748711 23.98502491 33.05292384 25.90755104 33.04882812 27.83007812 C33.03777741 32.55341549 33.02050183 37.27669458 33 42 C29.10862663 41.19080185 27.46823678 39.81701961 24.6875 36.9375 C23.90632813 36.13054687 23.12515625 35.32359375 22.3203125 34.4921875 C19.61900523 31.5907834 16.98545288 28.64255124 14.41015625 25.62890625 C13.32370902 24.37392427 12.17374345 23.17374345 11 22 C10.67 28.27 10.34 34.54 10 41 C7.03 41 4.06 41 1 41 C0.67 27.47 0.34 13.94 0 0 Z " fill="#FFFFFF" transform="translate(241,50)"/>
<path d="M0 0 C7.26 0 14.52 0 22 0 C22 2.97 22 5.94 22 9 C17.71 9 13.42 9 9 9 C9 10.98 9 12.96 9 15 C12.63 15 16.26 15 20 15 C21.36623674 17.73247348 21.128426 19.98198902 21 23 C20 24 20 24 17.49609375 24.09765625 C16.48675781 24.08605469 15.47742188 24.07445313 14.4375 24.0625 C13.42558594 24.05347656 12.41367187 24.04445313 11.37109375 24.03515625 C10.19740234 24.01775391 10.19740234 24.01775391 9 24 C9.33 25.98 9.66 27.96 10 30 C14.29 30 18.58 30 23 30 C23 33.3 23 36.6 23 40 C15.41 40 7.82 40 0 40 C0 26.8 0 13.6 0 0 Z " fill="#FFFFFF" transform="translate(312,51)"/>
<path d="M0 0 C0.66 0 1.32 0 2 0 C2.30180176 0.68924561 2.60360352 1.37849121 2.91455078 2.08862305 C4.31672664 5.28882351 5.72066472 8.48824657 7.125 11.6875 C7.62620361 12.83041504 8.12740723 13.97333008 8.64379883 15.15087891 C11.68463962 22.0672046 14.78446459 28.94027327 18.07421875 35.7421875 C19 38 19 38 19 41 C15.7 41 12.4 41 9 41 C8.34 39.35 7.68 37.7 7 36 C0.07 35.505 0.07 35.505 -7 35 C-7.66 36.98 -8.32 38.96 -9 41 C-11.97 41 -14.94 41 -18 41 C-17.33475891 36.21916525 -15.44800641 32.22511279 -13.4375 27.890625 C-13.0861499 27.12320984 -12.7347998 26.35579468 -12.37280273 25.56512451 C-11.6322265 23.95030486 -10.88909072 22.33665689 -10.14355469 20.72412109 C-8.99867211 18.24712707 -7.86198419 15.76649917 -6.7265625 13.28515625 C-6.00568341 11.7159275 -5.2843453 10.14690952 -4.5625 8.578125 C-4.22081787 7.83338928 -3.87913574 7.08865356 -3.52709961 6.3213501 C-1.11649382 1.11649382 -1.11649382 1.11649382 0 0 Z M0 18 C-2.35910353 22.2637281 -2.35910353 22.2637281 -3 27 C-0.69 27 1.62 27 4 27 C3.01 24.03 2.02 21.06 1 18 C0.67 18 0.34 18 0 18 Z " fill="#FFFFFF" transform="translate(221,50)"/>
<path d="M0 0 C2.35458423 2.50649289 2.22892804 3.3995582 2.25 6.75 C2.16967143 8.18902893 2.07286774 9.62760191 1.9375 11.0625 C1.23882812 10.83433594 0.54015625 10.60617188 -0.1796875 10.37109375 C-1.08976562 10.08363281 -1.99984375 9.79617187 -2.9375 9.5 C-3.84242188 9.20996094 -4.74734375 8.91992188 -5.6796875 8.62109375 C-8.0605027 7.79502122 -8.0605027 7.79502122 -10.0625 9.0625 C-8.61957456 12.681513 -6.92676311 14.06734593 -3.625 16.0625 C-0.34945364 18.04833371 1.99747519 19.71154806 3.9375 23.0625 C4.60421567 26.79055176 4.53630439 30.32551705 3.9375 34.0625 C1.6875 37.125 1.6875 37.125 -1.0625 39.0625 C-1.660625 39.495625 -2.25875 39.92875 -2.875 40.375 C-8.52330613 42.15018193 -13.69101526 41.2110939 -19.0625 39.0625 C-19.3925 35.4325 -19.7225 31.8025 -20.0625 28.0625 C-18.70125 28.5575 -17.34 29.0525 -15.9375 29.5625 C-12.1796619 30.82698581 -9.06038492 31.37002961 -5.0625 31.0625 C-6.41222529 26.60916911 -8.08882111 24.99765396 -12 22.5625 C-15.86627723 20.14821201 -18.0561683 18.19813212 -20.0625 14.0625 C-20.61207375 9.74442054 -20.3566115 7.61921106 -18.3125 3.75 C-13.41151721 -2.10395167 -6.97950037 -2.13658175 0 0 Z " fill="#FFFFFF" transform="translate(358.0625,50.9375)"/>
<path d="M0 0 C10.89 0 21.78 0 33 0 C33 2.97 33 5.94 33 9 C29.04 9 25.08 9 21 9 C21 19.23 21 29.46 21 40 C18.03 40 15.06 40 12 40 C12 29.77 12 19.54 12 9 C8.04 9 4.08 9 0 9 C0 6.03 0 3.06 0 0 Z " fill="#FFFFFF" transform="translate(276,51)"/>
<path d="M0 0 C1.98 0 3.96 0 6 0 C6.20681396 0.60062256 6.41362793 1.20124512 6.62670898 1.82006836 C7.56064116 4.52692429 8.49900895 7.23222148 9.4375 9.9375 C9.76298828 10.88302734 10.08847656 11.82855469 10.42382812 12.80273438 C10.73642578 13.70185547 11.04902344 14.60097656 11.37109375 15.52734375 C11.8031311 16.77632446 11.8031311 16.77632446 12.24389648 18.05053711 C12.83880993 19.97333091 12.83880993 19.97333091 14 21 C14.20681396 20.43490723 14.41362793 19.86981445 14.62670898 19.28759766 C15.56243071 16.73295385 16.49994317 14.17897086 17.4375 11.625 C17.76298828 10.73554688 18.08847656 9.84609375 18.42382812 8.9296875 C18.73642578 8.07890625 19.04902344 7.228125 19.37109375 6.3515625 C19.65911865 5.56604004 19.94714355 4.78051758 20.24389648 3.97119141 C21 2 21 2 22 0 C23.98 0 25.96 0 28 0 C28.75770785 4.11481205 29.17155355 8.09340234 29.31640625 12.2734375 C29.35830078 13.42714844 29.40019531 14.58085937 29.44335938 15.76953125 C29.48267578 16.95933594 29.52199219 18.14914063 29.5625 19.375 C29.60568359 20.58800781 29.64886719 21.80101563 29.69335938 23.05078125 C29.79905513 26.03375032 29.90115321 29.01679742 30 32 C28.35 32 26.7 32 25 32 C24.34 25.4 23.68 18.8 23 12 C20.69 18.6 18.38 25.2 16 32 C14.35 32 12.7 32 11 32 C9.02 26.06 7.04 20.12 5 14 C2.95649549 16.04350451 3.63104366 20.175281 3.5 23 C3.13513514 30.86486486 3.13513514 30.86486486 2 32 C0.33382885 32.04063832 -1.33388095 32.042721 -3 32 C-2.73898904 27.76379597 -2.47234313 23.52799603 -2.20043945 19.29248047 C-2.10871395 17.85117241 -2.01853661 16.40976497 -1.92993164 14.96826172 C-1.80239999 12.89783171 -1.66932845 10.82782145 -1.53515625 8.7578125 C-1.456604 7.5114502 -1.37805176 6.26508789 -1.29711914 4.98095703 C-1 2 -1 2 0 0 Z " fill="#FFFFFF" transform="translate(287,12)"/>
<path d="M0 0 C3.3 0 6.6 0 10 0 C10 13.2 10 26.4 10 40 C6.7 40 3.4 40 0 40 C0 26.8 0 13.6 0 0 Z " fill="#FFFFFF" transform="translate(154,51)"/>
<path d="M0 0 C1.98 0 3.96 0 6 0 C7.56856713 4.39585628 9.13509519 8.79243163 10.69970703 13.18969727 C11.23267 14.68664358 11.76619752 16.18338901 12.30029297 17.67993164 C13.06625198 19.82646427 13.83020228 21.97370241 14.59375 24.12109375 C14.83436157 24.79401962 15.07497314 25.4669455 15.32287598 26.16026306 C17 30.88612829 17 30.88612829 17 32 C15.02 32 13.04 32 11 32 C9.515 27.05 9.515 27.05 8 22 C4.7 22 1.4 22 -2 22 C-2.99 25.3 -3.98 28.6 -5 32 C-6.65 32 -8.3 32 -10 32 C-8.5591436 24.72746691 -6.36620826 17.9137634 -3.875 10.9375 C-3.50246094 9.88111328 -3.12992187 8.82472656 -2.74609375 7.73632812 C-1.83534623 5.15587683 -0.91990295 2.57719856 0 0 Z M2 8 C1.01 11.3 0.02 14.6 -1 18 C1.64 18 4.28 18 7 18 C6.01 14.7 5.02 11.4 4 8 C3.34 8 2.68 8 2 8 Z " fill="#FFFFFF" transform="translate(344,12)"/>
<path d="M0 0 C5.94 0 11.88 0 18 0 C17.67 1.65 17.34 3.3 17 5 C13.37 5 9.74 5 6 5 C5.67 7.64 5.34 10.28 5 13 C8.96 13 12.92 13 17 13 C17 14.32 17 15.64 17 17 C13.04 17 9.08 17 5 17 C5.33 20.3 5.66 23.6 6 27 C9.96 27 13.92 27 18 27 C18 28.65 18 30.3 18 32 C12.06 32 6.12 32 0 32 C0 21.44 0 10.88 0 0 Z " fill="#FFFFFF" transform="translate(249,11)"/>
<path d="M0 0 C0.33 1.65 0.66 3.3 1 5 C-2.3 5 -5.6 5 -9 5 C-9.33 6.65 -9.66 8.3 -10 10 C-9.29875 10.4125 -8.5975 10.825 -7.875 11.25 C-6.451875 12.11625 -6.451875 12.11625 -5 13 C-3.948125 13.639375 -2.89625 14.27875 -1.8125 14.9375 C2.16788321 17.85644769 2.16788321 17.85644769 3 21 C2.84643971 24.68544705 2.44745308 26.4659431 0.0625 29.3125 C-3.08757487 31.88983399 -4.92720266 32.15805582 -8.9375 32.1875 C-10.25041016 32.20876953 -10.25041016 32.20876953 -11.58984375 32.23046875 C-14 32 -14 32 -17 30 C-16.67 28.68 -16.34 27.36 -16 26 C-15.30132812 26.08378906 -14.60265625 26.16757812 -13.8828125 26.25390625 C-12.97273437 26.35574219 -12.06265625 26.45757812 -11.125 26.5625 C-10.22007812 26.66691406 -9.31515625 26.77132812 -8.3828125 26.87890625 C-5.98346943 27.19674852 -5.98346943 27.19674852 -4 26 C-4 24.02 -4 22.04 -4 20 C-5.03060547 19.56300781 -5.03060547 19.56300781 -6.08203125 19.1171875 C-13.39453399 15.79046952 -13.39453399 15.79046952 -16.25 12.0625 C-17.18777846 8.23323794 -16.78546526 6.49330159 -15 3 C-10.11736028 -1.5676307 -6.17999731 -0.91180288 0 0 Z " fill="#FFFFFF" transform="translate(192,11)"/>
<path d="M0 0 C0.33 1.65 0.66 3.3 1 5 C-2.3 5 -5.6 5 -9 5 C-9.33 6.65 -9.66 8.3 -10 10 C-9.29875 10.4125 -8.5975 10.825 -7.875 11.25 C-6.451875 12.11625 -6.451875 12.11625 -5 13 C-3.948125 13.639375 -2.89625 14.27875 -1.8125 14.9375 C2.16788321 17.85644769 2.16788321 17.85644769 3 21 C2.84643971 24.68544705 2.44745308 26.4659431 0.0625 29.3125 C-3.08757487 31.88983399 -4.92720266 32.15805582 -8.9375 32.1875 C-10.25041016 32.20876953 -10.25041016 32.20876953 -11.58984375 32.23046875 C-14 32 -14 32 -17 30 C-16.67 28.68 -16.34 27.36 -16 26 C-15.30132812 26.08378906 -14.60265625 26.16757812 -13.8828125 26.25390625 C-12.97273438 26.35574219 -12.06265625 26.45757812 -11.125 26.5625 C-10.22007813 26.66691406 -9.31515625 26.77132812 -8.3828125 26.87890625 C-5.98346943 27.19674852 -5.98346943 27.19674852 -4 26 C-4 24.02 -4 22.04 -4 20 C-5.03060547 19.56300781 -5.03060547 19.56300781 -6.08203125 19.1171875 C-13.39453399 15.79046952 -13.39453399 15.79046952 -16.25 12.0625 C-17.18777846 8.23323794 -16.78546526 6.49330159 -15 3 C-10.11736028 -1.5676307 -6.17999731 -0.91180288 0 0 Z " fill="#FFFFFF" transform="translate(133,11)"/>
<path d="M0 0 C7.92 0 15.84 0 24 0 C24 1.65 24 3.3 24 5 C16.25 5.125 16.25 5.125 14 4 C14 13.24 14 22.48 14 32 C12.35 32 10.7 32 9 32 C8.67 23.09 8.34 14.18 8 5 C5.36 5 2.72 5 0 5 C0 3.35 0 1.7 0 0 Z " fill="#FFFFFF" transform="translate(209,11)"/>
<path d="M0 0 C1.65 0 3.3 0 5 0 C5 10.56 5 21.12 5 32 C3.35 32 1.7 32 0 32 C0 21.44 0 10.88 0 0 Z " fill="#FFFFFF" transform="translate(153,11)"/>
</svg>
