<?xml version="1.0" encoding="UTF-8"?>
<svg version="1.1" xmlns="http://www.w3.org/2000/svg" width="298" height="99">
<path d="M0 0 C47.19 0 94.38 0 143 0 C143 11.22 143 22.44 143 34 C142.34 34 141.68 34 141 34 C140.01 32.453125 140.01 32.453125 139 30.875 C134.9163977 24.95377667 128.49313387 21.43562742 121.625 19.5625 C110.54098016 17.68584056 101.73258581 20.51160946 92.57421875 26.6171875 C89.01925525 29.90782139 86.75652719 33.69408052 84.25 37.8125 C83.72704346 38.65329102 83.20408691 39.49408203 82.6652832 40.36035156 C80.21081757 44.32257642 77.80519756 48.30918231 75.46484375 52.33984375 C66.75241133 67.33401316 66.75241133 67.33401316 59.4375 71.4375 C55.05344465 72.44920508 52.22036065 72.61018032 48.125 70.5625 C40.93564928 65.12392381 36.3288478 58.10344008 31.9375 50.375 C26.74368252 41.26569215 22.00663035 34.91563796 12 31 C6.06 30.01 6.06 30.01 0 29 C0 19.43 0 9.86 0 0 Z " fill="#FFFFFF" transform="translate(0,0)"/>
<path d="M0 0 C2.54127515 1.73452113 3.72789153 2.90090757 5.5 5.5 C8.94567333 9.14836 12.73572279 8.55700222 17.625 8.75 C17.625 14.36 17.625 19.97 17.625 25.75 C14.325 26.08 11.025 26.41 7.625 26.75 C7.3465625 27.801875 7.3465625 27.801875 7.0625 28.875 C4.59820654 33.80358691 0.63057759 36.811219 -4.3125 39.125 C-11.96057909 40.68583247 -17.74913486 39.93862454 -24.375 35.75 C-28.89844676 31.67986241 -31.92142001 27.27843035 -32.7109375 21.13671875 C-32.8030958 14.76858018 -32.20091698 9.96607936 -28.375 4.75 C-20.45139025 -3.35369179 -10.09521717 -5.92953276 0 0 Z " fill="#FFFFFF" transform="translate(125.375,32.25)"/>
<path d="M0 0 C11.58075358 1.2867504 11.58075358 1.2867504 17 8 C19.49479479 11.72262338 21.81047237 15.54827409 24.05615234 19.42553711 C27.5370123 25.43497037 30.9346118 31.16987858 37.0625 34.8125 C37.71347656 35.21082031 38.36445312 35.60914063 39.03515625 36.01953125 C41.01562084 37.00779489 42.83858285 37.55231226 45 38 C45 38.66 45 39.32 45 40 C30.15 40 15.3 40 0 40 C0 26.8 0 13.6 0 0 Z " fill="#FFFFFF" transform="translate(1,41)"/>
<path d="M0 0 C2.86350048 1.33706536 3.87175745 2.4897652 6 5 C6.875 8.3125 6.875 8.3125 7 11 C5.72125 11.061875 4.4425 11.12375 3.125 11.1875 C2.40570313 11.22230469 1.68640625 11.25710937 0.9453125 11.29296875 C0.30335938 11.19628906 -0.33859375 11.09960938 -1 11 C-1.66 10.01 -2.32 9.02 -3 8 C-5.54207971 7.66656449 -5.54207971 7.66656449 -8 8 C-9.22011391 9.00057979 -9.22011391 9.00057979 -9.1328125 10.99609375 C-9.13023437 11.80175781 -9.12765625 12.60742188 -9.125 13.4375 C-9.12757813 14.24058594 -9.13015625 15.04367188 -9.1328125 15.87109375 C-9.13578326 18.05397931 -9.13578326 18.05397931 -8 20 C-5.58380177 20.25030977 -5.58380177 20.25030977 -3 20 C-2.34 19.01 -1.68 18.02 -1 17 C0.99784545 16.77073905 2.99669753 16.54638272 5 16.37109375 C7.22452299 16.12299612 7.22452299 16.12299612 9.3125 14.125 C13.36982923 10.91687922 18.02343952 10.15044831 23 9 C22.505 8.01 22.505 8.01 22 7 C20.02 7 18.04 7 16 7 C16 7.99 16 8.98 16 10 C13.36 10 10.72 10 8 10 C8.23934903 6.48954758 8.65880734 4.44708004 10.8125 1.625 C15.75782789 -0.89614755 20.56097211 -0.75980887 26 0 C29.67930728 2.09215512 30.6704934 3.01148019 32 7 C32.08143855 8.62719482 32.1075302 10.25751719 32.09765625 11.88671875 C32.09443359 12.82451172 32.09121094 13.76230469 32.08789062 14.72851562 C32.07532227 16.19321289 32.07532227 16.19321289 32.0625 17.6875 C32.05798828 18.67556641 32.05347656 19.66363281 32.04882812 20.68164062 C32.03704303 23.12115474 32.02059011 25.56054689 32 28 C28.66666667 28 25.33333333 28 22 28 C21.278125 28.20625 20.55625 28.4125 19.8125 28.625 C16.00327759 29.13289632 13.55651875 28.4226075 10 27 C7.5625 24.375 7.5625 24.375 6 22 C4.948125 23.175625 4.948125 23.175625 3.875 24.375 C0.77631523 27.20423392 -0.89145104 28.27496195 -5 29 C-9.50563659 28.65140142 -12.25022368 27.76900135 -15.4375 24.5 C-18.77236914 19.16420938 -18.59132247 14.20483581 -18 8 C-16.81889986 4.78104313 -15.13698657 2.69428754 -12.1640625 0.87890625 C-8.18283906 -0.73801663 -4.20739229 -0.64270402 0 0 Z M15 18 C15.33 19.32 15.66 20.64 16 22 C19.65116306 22.31775902 19.65116306 22.31775902 22.8125 20.6875 C24.2877467 18.93500458 24.2877467 18.93500458 24 16 C20.20442119 16 18.37097383 16.50178941 15 18 Z " fill="#FFFFFF" transform="translate(168,53)"/>
<path d="M0 0 C3.33333333 0 6.66666667 0 10 0 C11.258125 -0.061875 12.51625 -0.12375 13.8125 -0.1875 C17.6976477 -0.16638507 19.96878756 0.40181791 23 3 C26.74166742 8.16092057 26.83939606 13.85963537 26 20 C24.01031547 23.91075925 22.63466354 25.57689098 19 28 C16.7734375 28.23046875 16.7734375 28.23046875 14.375 28.1875 C13.57835937 28.18105469 12.78171875 28.17460938 11.9609375 28.16796875 C10 28 10 28 9 27 C8.67 31.29 8.34 35.58 8 40 C5.36 40 2.72 40 0 40 C0 26.8 0 13.6 0 0 Z M8 9 C6.5899756 13.23007321 7.33591498 15.93223663 9 20 C10.12534105 21.35618499 10.12534105 21.35618499 13.0625 21.0625 C14.031875 21.041875 15.00125 21.02125 16 21 C18.09678815 17.59271925 18.4133256 14.96792579 18 11 C16.96057155 8.55754253 16.96057155 8.55754253 15 7 C11.51617922 6.49017257 10.53475768 6.46524232 8 9 Z " fill="#FFFFFF" transform="translate(202,53)"/>
<path d="M0 0 C3.0550842 1.24697314 4.39501874 2.0191365 6.10888672 4.79785156 C7.14444824 7.35696524 7.22890526 9.22976857 7.1953125 11.984375 C7.18886719 12.91894531 7.18242187 13.85351562 7.17578125 14.81640625 C7.15902344 15.78449219 7.14226562 16.75257812 7.125 17.75 C7.11597656 18.73355469 7.10695313 19.71710938 7.09765625 20.73046875 C7.07412785 23.15389407 7.04125368 25.57682222 7 28 C3.33333333 28 -0.33333333 28 -4 28 C-4.86625 28.309375 -4.86625 28.309375 -5.75 28.625 C-9.79835762 29.29972627 -13.49014791 27.92539321 -16.9375 25.8125 C-18.73351631 22.74870747 -18.47718083 20.45956102 -18 17 C-15.83508272 13.6406456 -14.08362533 12.29221357 -10.21875 11.25 C-7.48284752 10.74230676 -4.76317845 10.32422584 -2 10 C-2 9.01 -2 8.02 -2 7 C-4.31 7 -6.62 7 -9 7 C-9.33 7.99 -9.66 8.98 -10 10 C-12.31 10 -14.62 10 -17 10 C-16.75784048 6.44832707 -16.35252176 4.44652756 -14.125 1.625 C-9.46293005 -0.79927637 -5.15174378 -0.6429996 0 0 Z M-10 18 C-10 19.32 -10 20.64 -10 22 C-7.08347826 22.16681109 -7.08347826 22.16681109 -4 22 C-3.34 21.34 -2.68 20.68 -2 20 C-2 18.68 -2 17.36 -2 16 C-5.20395416 16 -7.09399739 16.74335022 -10 18 Z " fill="#FFFFFF" transform="translate(281,53)"/>
<path d="M0 0 C2.05078125 0.03255208 4.1015625 0.06510417 6.15234375 0.09765625 C6.15234375 2.40765625 6.15234375 4.71765625 6.15234375 7.09765625 C9.78234375 7.09765625 13.41234375 7.09765625 17.15234375 7.09765625 C17.15234375 9.07765625 17.15234375 11.05765625 17.15234375 13.09765625 C13.52234375 13.09765625 9.89234375 13.09765625 6.15234375 13.09765625 C6.48234375 17.71765625 6.81234375 22.33765625 7.15234375 27.09765625 C8.47234375 27.09765625 9.79234375 27.09765625 11.15234375 27.09765625 C11.48234375 23.46765625 11.81234375 19.83765625 12.15234375 16.09765625 C14.79234375 16.09765625 17.43234375 16.09765625 20.15234375 16.09765625 C20.23395123 17.99276324 20.29180834 19.88890129 20.33984375 21.78515625 C20.39205078 23.36876953 20.39205078 23.36876953 20.4453125 24.984375 C20.1129743 28.51602224 19.26912871 30.28021054 17.15234375 33.09765625 C13.59242599 35.47093476 11.40892714 35.88121981 7.15234375 36.09765625 C3.00263189 34.58141538 0.32553059 32.9865169 -1.84765625 29.09765625 C-2.72254139 25.55735314 -2.97605903 22.25318915 -2.98046875 18.61328125 C-2.98175781 17.59621094 -2.98304688 16.57914063 -2.984375 15.53125 C-2.98050781 14.48066406 -2.97664062 13.43007813 -2.97265625 12.34765625 C-2.97652344 11.28160156 -2.98039063 10.21554688 -2.984375 9.1171875 C-2.98308594 8.10527344 -2.98179687 7.09335937 -2.98046875 6.05078125 C-2.97934082 5.12426758 -2.97821289 4.19775391 -2.97705078 3.24316406 C-2.81437344 0.54578964 -2.70754797 0.14310507 0 0 Z " fill="#FFFFFF" transform="translate(241.84765625,45.90234375)"/>
<path d="M0 0 C3.56986793 1.36718346 4.68082803 2.526745 6.8125 5.6875 C8 9 8 9 8 17 C-0.415 17.495 -0.415 17.495 -9 18 C-8.01 18.99 -7.02 19.98 -6 21 C-2.68181015 20.75794651 -2.68181015 20.75794651 0 19 C2.67058851 18.85884839 5.32432238 18.95752893 8 19 C6.6471989 23.42734904 4.93685614 25.55040063 1 28 C-3.8528578 29.37345032 -7.61826363 29.16003787 -12.19921875 27.203125 C-15.59220204 24.93622944 -16.90827939 21.83818757 -18 18 C-18.86402281 12.68675631 -17.97195405 8.50917166 -15 4 C-10.7483728 -0.89581314 -6.07462763 -0.81061753 0 0 Z M-8 7 C-8.66 8.32 -9.32 9.64 -10 11 C-6.7 11 -3.4 11 0 11 C-0.66 9.68 -1.32 8.36 -2 7 C-3.98 7 -5.96 7 -8 7 Z " fill="#FFFFFF" transform="translate(224,14)"/>
<path d="M0 0 C2.97 0 5.94 0 9 0 C10.65 4.62 12.3 9.24 14 14 C15.65 9.38 17.3 4.76 19 0 C21.64 0 24.28 0 27 0 C25.67554915 6.62894341 23.78331885 12.75290042 21.375 19.0625 C21.05015625 19.92810547 20.7253125 20.79371094 20.390625 21.68554688 C19.59908318 23.79244496 18.80216278 25.89712802 18 28 C15.36 28 12.72 28 10 28 C7.34932751 22.29085925 4.98424844 16.50697394 2.75 10.625 C2.47978027 9.92310547 2.20956055 9.22121094 1.93115234 8.49804688 C0.81495996 5.52631924 0 3.20159487 0 0 Z " fill="#FFFFFF" transform="translate(149,14)"/>
<path d="M0 0 C15.51 0 31.02 0 47 0 C47 2.64 47 5.28 47 8 C31.49 8 15.98 8 0 8 C0 5.36 0 2.72 0 0 Z " fill="#FFFFFF" transform="translate(230,91)"/>
<path d="M0 0 C2.97 0 5.94 0 9 0 C9 12.21 9 24.42 9 37 C6.03 37 3.06 37 0 37 C0 24.79 0 12.58 0 0 Z " fill="#FFFFFF" transform="translate(289,44)"/>
<path d="M0 0 C2.64 0 5.28 0 8 0 C8 13.53 8 27.06 8 41 C5.36 41 2.72 41 0 41 C0 27.47 0 13.94 0 0 Z " fill="#FFFFFF" transform="translate(197,1)"/>
<path d="M0 0 C0.66 0 1.32 0 2 0 C2.556875 1.19625 3.11375 2.3925 3.6875 3.625 C7.17957801 10.53589565 11.18150072 14.52390233 18 18 C18 18.66 18 19.32 18 20 C6.78 20 -4.44 20 -16 20 C-16 19.34 -16 18.68 -16 18 C-14.49609375 16.84375 -14.49609375 16.84375 -12.4375 15.5 C-6.91342727 11.5289584 -3.03167498 6.06334997 0 0 Z " fill="#FFFFFF" transform="translate(82,61)"/>
<path d="M0 0 C2.64 0 5.28 0 8 0 C8 12.21 8 24.42 8 37 C5.36 37 2.72 37 0 37 C0 24.79 0 12.58 0 0 Z " fill="#FFFFFF" transform="translate(187,5)"/>
<path d="M0 0 C2.64 0 5.28 0 8 0 C8 9.24 8 18.48 8 28 C5.36 28 2.72 28 0 28 C-1.77449594 26.22550406 -1.13030072 23.64982739 -1.1328125 21.25 C-1.13410156 20.0846875 -1.13539063 18.919375 -1.13671875 17.71875 C-1.13285156 16.4915625 -1.12898437 15.264375 -1.125 14 C-1.12886719 12.7728125 -1.13273438 11.545625 -1.13671875 10.28125 C-1.13542969 9.1159375 -1.13414062 7.950625 -1.1328125 6.75 C-1.13168457 5.67234375 -1.13055664 4.5946875 -1.12939453 3.484375 C-1 1 -1 1 0 0 Z " fill="#FFFFFF" transform="translate(230,53)"/>
<path d="M0 0 C2.64 0 5.28 0 8 0 C8 9.24 8 18.48 8 28 C5.36 28 2.72 28 0 28 C0 18.76 0 9.52 0 0 Z " fill="#FFFFFF" transform="translate(177,14)"/>
<path d="M0 0 C0.66 0 1.32 0 2 0 C2 4.62 2 9.24 2 14 C-2.95 14 -7.9 14 -13 14 C-13 13.34 -13 12.68 -13 12 C-11.171875 10.703125 -11.171875 10.703125 -8.75 9.25 C-4.55257558 6.5747185 -2.51380323 4.22318943 0 0 Z " fill="#FFFFFF" transform="translate(141,67)"/>
<path d="M0 0 C2.375 -0.125 2.375 -0.125 5 0 C5.66 0.66 6.32 1.32 7 2 C6.625 4.625 6.625 4.625 6 7 C3.6875 7.6875 3.6875 7.6875 1 8 C-0.8125 6.5625 -0.8125 6.5625 -2 5 C-1.34 3.35 -0.68 1.7 0 0 Z " fill="#FFFFFF" transform="translate(231,44)"/>
<path d="M0 0 C2.625 0.375 2.625 0.375 5 1 C5.625 3.375 5.625 3.375 6 6 C5.34 6.66 4.68 7.32 4 8 C1.375 7.625 1.375 7.625 -1 7 C-1.625 4.625 -1.625 4.625 -2 2 C-1.34 1.34 -0.68 0.68 0 0 Z " fill="#FFFFFF" transform="translate(179,5)"/>
</svg>
